M48
; DRILL file {KiCad (5.1.10-1-10_14)} date Friday, June 03, 2022 at 02:43:28 AM
; FORMAT={-:-/ absolute / metric / decimal}
; #@! TF.CreationDate,2022-06-03T02:43:28+09:00
; #@! TF.GenerationSoftware,Kicad,Pcbnew,(5.1.10-1-10_14)
FMAT,2
METRIC
T1C0.300
T2C0.400
T3C0.600
T4C1.000
T5C3.000
%
G90
G05
T1
X100.59Y-78.57
X100.59Y-112.57
X100.6Y-55.33
X100.6Y-59.6
X100.6Y-74.6
X100.6Y-89.33
X100.6Y-93.6
X100.6Y-108.6
X103.12Y-66.29
X103.12Y-100.29
X103.16Y-77.42
X103.16Y-111.42
X103.44Y-56.57
X103.44Y-90.57
X105.32Y-83.44
X105.32Y-117.44
X105.42Y-50.6
X105.42Y-84.6
X105.55Y-57.52
X105.55Y-91.52
X105.71Y-78.48
X105.71Y-112.48
X105.85Y-55.47
X105.85Y-89.47
X106.54Y-81.34
X106.54Y-115.34
X106.7Y-53.46
X106.7Y-87.46
X106.89Y-59.3
X106.89Y-93.3
X107.02Y-64.16
X107.02Y-98.16
X107.26Y-75.47
X107.26Y-109.47
X107.35Y-69.86
X107.35Y-103.86
X107.88Y-71.12
X107.88Y-72.65
X107.88Y-105.12
X107.88Y-106.65
X108.02Y-60.98
X108.02Y-94.98
X108.32Y-83.44
X108.32Y-117.44
X109.08Y-64.08
X109.08Y-98.08
X109.18Y-69.87
X109.18Y-103.87
X109.6Y-50.6
X109.6Y-84.6
X109.67Y-52.34
X109.67Y-86.34
X109.68Y-53.18
X109.68Y-87.18
X109.71Y-56.05
X109.71Y-90.05
X110.15Y-61.02
X110.15Y-95.02
X110.21Y-64.03
X110.21Y-98.03
X110.28Y-75.47
X110.28Y-109.47
X110.29Y-79.58
X110.29Y-113.58
X110.98Y-81.64
X110.98Y-115.64
X111.17Y-71.32
X111.17Y-105.32
X111.195Y-69.82
X111.195Y-103.82
X111.32Y-83.44
X111.32Y-117.44
X111.379Y-60.769
X111.379Y-94.769
X111.46Y-64.02
X111.46Y-98.02
X111.67Y-61.61
X111.67Y-95.61
X112.08Y-56.21
X112.08Y-90.21
X112.12Y-53.11
X112.12Y-87.11
X112.6Y-50.6
X112.6Y-84.6
X113.115Y-70.585
X113.115Y-104.585
X113.15Y-71.76
X113.15Y-73.71
X113.15Y-105.76
X113.15Y-107.71
X114.24Y-56.15
X114.24Y-90.15
X114.27Y-53.11
X114.27Y-87.11
X114.32Y-83.44
X114.32Y-117.44
X114.68Y-72.72
X114.68Y-106.72
X115.11Y-70.6
X115.11Y-104.6
X115.6Y-50.6
X115.6Y-84.6
X115.77Y-60.621
X115.77Y-94.621
X115.91Y-67.82
X115.91Y-101.82
X115.92Y-63.97
X115.92Y-97.97
X116.91Y-63.33
X116.91Y-97.33
X117.12Y-70.59
X117.12Y-104.59
X117.15Y-71.76
X117.15Y-105.76
X117.32Y-83.44
X117.32Y-117.44
X117.33Y-74.35
X117.33Y-108.35
X118.03Y-60.68
X118.03Y-94.68
X118.08Y-53.17
X118.08Y-87.17
X118.12Y-73.52
X118.12Y-107.52
X118.12Y-74.35
X118.12Y-108.35
X118.39Y-63.36
X118.39Y-97.36
X118.4Y-67.84
X118.4Y-101.84
X118.6Y-50.6
X118.6Y-84.6
X119.135Y-70.585
X119.135Y-104.585
X119.58Y-73.52
X119.58Y-107.52
X119.58Y-71.76
X119.58Y-105.76
X119.98Y-75.66
X119.98Y-109.66
X120.32Y-83.44
X120.32Y-117.44
X120.52Y-67.79
X120.52Y-101.79
X120.8Y-65.37
X120.8Y-99.37
X120.84Y-62.89
X120.84Y-96.89
X121.09Y-55.01
X121.09Y-89.01
X121.6Y-50.6
X121.6Y-84.6
X121.66Y-68.61
X121.66Y-102.61
X122.44Y-72.94
X122.44Y-106.94
X122.44Y-61.21
X122.44Y-70.59
X122.44Y-95.21
X122.44Y-104.59
X122.53Y-75.03
X122.53Y-109.03
X122.55Y-56.65
X122.55Y-90.65
X122.575Y-69.26
X122.575Y-103.26
X123.32Y-83.44
X123.32Y-117.44
X123.545Y-54.645
X123.545Y-88.645
X123.7Y-65.82
X123.7Y-99.82
X123.773Y-69.193
X123.773Y-103.193
X124.55Y-70.94
X124.55Y-104.94
X124.57Y-63.11
X124.57Y-97.11
X124.58Y-60.63
X124.58Y-94.63
X124.6Y-50.6
X124.6Y-84.6
X124.85Y-58.69
X124.85Y-92.69
X124.93Y-72.94
X124.93Y-106.94
X124.98Y-75.03
X124.98Y-109.03
X125.435Y-56.645
X125.435Y-90.645
X126.315Y-76.995
X126.315Y-110.995
X126.32Y-83.44
X126.32Y-117.44
X126.47Y-77.795
X126.47Y-111.795
X126.59Y-70.94
X126.59Y-104.94
X126.725Y-54.645
X126.725Y-88.645
X126.73Y-59.65
X126.73Y-93.65
X127.35Y-53.11
X127.35Y-87.11
X127.525Y-58.645
X127.525Y-92.645
X127.53Y-65.27
X127.53Y-99.27
X127.53Y-62.11
X127.53Y-96.11
X127.6Y-72.94
X127.6Y-106.94
X127.6Y-50.6
X127.6Y-84.6
X127.6Y-75.03
X127.6Y-109.03
X127.66Y-66.45
X127.66Y-100.45
X128.373Y-56.645
X128.373Y-90.645
X128.786Y-70.94
X128.786Y-104.94
X129.13Y-60.34
X129.13Y-65.59
X129.13Y-94.34
X129.13Y-99.59
X129.165Y-54.645
X129.165Y-88.645
X129.32Y-83.44
X129.32Y-117.44
X130.1Y-72.94
X130.1Y-106.94
X130.25Y-53.39
X130.25Y-87.39
X130.473Y-69.253
X130.473Y-103.253
X130.478Y-55.922
X130.478Y-89.922
X130.574Y-58.846
X130.574Y-92.846
X130.6Y-50.6
X130.6Y-84.6
X130.62Y-75.03
X130.62Y-109.03
X130.985Y-62.085
X130.985Y-96.085
X131.823Y-57.267
X131.823Y-91.267
X131.983Y-67.743
X131.983Y-101.743
X132.16Y-55.4
X132.16Y-89.4
X132.239Y-60.511
X132.239Y-94.511
X132.28Y-75.79
X132.28Y-109.79
X132.31Y-70.73
X132.31Y-104.73
X132.32Y-83.44
X132.32Y-117.44
X132.775Y-63.875
X132.775Y-97.875
X133.122Y-72.772
X133.122Y-106.772
X133.463Y-66.263
X133.463Y-100.263
X133.533Y-58.977
X133.533Y-92.977
X133.6Y-50.6
X133.6Y-84.6
X133.95Y-61.98
X133.95Y-95.98
X134.0Y-74.16
X134.0Y-108.16
X134.09Y-57.22
X134.09Y-91.22
X134.25Y-68.79
X134.25Y-102.79
X134.28Y-64.52
X134.28Y-98.52
X135.32Y-83.44
X135.32Y-117.44
X135.595Y-59.465
X135.595Y-93.465
X136.035Y-56.925
X136.035Y-90.925
X136.09Y-74.68
X136.09Y-108.68
X136.13Y-61.98
X136.13Y-95.98
X136.17Y-72.14
X136.17Y-106.14
X136.24Y-67.06
X136.24Y-101.06
X136.26Y-64.52
X136.26Y-98.52
X136.6Y-50.6
X136.6Y-84.6
X138.32Y-83.44
X138.32Y-117.44
X139.6Y-50.6
X139.6Y-84.6
X141.32Y-83.44
X141.32Y-117.44
X142.6Y-50.6
X142.6Y-84.6
X143.45Y-81.32
X143.45Y-115.32
X143.47Y-52.72
X143.47Y-86.72
X144.03Y-78.81
X144.03Y-112.81
X144.19Y-55.44
X144.19Y-89.44
X144.32Y-83.44
X144.32Y-117.44
X144.7Y-50.62
X144.7Y-84.62
X146.93Y-77.42
X146.93Y-111.42
X147.56Y-56.54
X147.56Y-90.54
X149.46Y-55.34
X149.46Y-58.34
X149.46Y-61.34
X149.46Y-64.34
X149.46Y-67.34
X149.46Y-70.34
X149.46Y-73.34
X149.46Y-76.34
X149.46Y-89.34
X149.46Y-92.34
X149.46Y-95.34
X149.46Y-98.34
X149.46Y-101.34
X149.46Y-104.34
X149.46Y-107.34
X149.46Y-110.34
X149.47Y-78.82
X149.47Y-112.82
X150.59Y-78.57
X150.59Y-112.57
X150.6Y-55.33
X150.6Y-59.6
X150.6Y-74.6
X150.6Y-89.33
X150.6Y-93.6
X150.6Y-108.6
X153.12Y-66.29
X153.12Y-100.29
X153.16Y-77.42
X153.16Y-111.42
X153.44Y-56.57
X153.44Y-90.57
X155.32Y-83.44
X155.32Y-117.44
X155.42Y-50.6
X155.42Y-84.6
X155.55Y-57.52
X155.55Y-91.52
X155.71Y-78.48
X155.71Y-112.48
X155.85Y-55.47
X155.85Y-89.47
X156.54Y-81.34
X156.54Y-115.34
X156.7Y-53.46
X156.7Y-87.46
X156.89Y-59.3
X156.89Y-93.3
X157.02Y-64.16
X157.02Y-98.16
X157.26Y-75.47
X157.26Y-109.47
X157.35Y-69.86
X157.35Y-103.86
X157.88Y-71.12
X157.88Y-72.65
X157.88Y-105.12
X157.88Y-106.65
X158.02Y-60.98
X158.02Y-94.98
X158.32Y-83.44
X158.32Y-117.44
X159.08Y-64.08
X159.08Y-98.08
X159.18Y-69.87
X159.18Y-103.87
X159.6Y-50.6
X159.6Y-84.6
X159.67Y-52.34
X159.67Y-86.34
X159.68Y-53.18
X159.68Y-87.18
X159.71Y-56.05
X159.71Y-90.05
X160.15Y-61.02
X160.15Y-95.02
X160.21Y-64.03
X160.21Y-98.03
X160.28Y-75.47
X160.28Y-109.47
X160.29Y-79.58
X160.29Y-113.58
X160.98Y-81.64
X160.98Y-115.64
X161.17Y-71.32
X161.17Y-105.32
X161.195Y-69.82
X161.195Y-103.82
X161.32Y-83.44
X161.32Y-117.44
X161.379Y-60.769
X161.379Y-94.769
X161.46Y-64.02
X161.46Y-98.02
X161.67Y-61.61
X161.67Y-95.61
X162.08Y-56.21
X162.08Y-90.21
X162.12Y-53.11
X162.12Y-87.11
X162.6Y-50.6
X162.6Y-84.6
X163.115Y-70.585
X163.115Y-104.585
X163.15Y-71.76
X163.15Y-73.71
X163.15Y-105.76
X163.15Y-107.71
X164.24Y-56.15
X164.24Y-90.15
X164.27Y-53.11
X164.27Y-87.11
X164.32Y-83.44
X164.32Y-117.44
X164.68Y-72.72
X164.68Y-106.72
X165.11Y-70.6
X165.11Y-104.6
X165.6Y-50.6
X165.6Y-84.6
X165.77Y-60.621
X165.77Y-94.621
X165.91Y-67.82
X165.91Y-101.82
X165.92Y-63.97
X165.92Y-97.97
X166.91Y-63.33
X166.91Y-97.33
X167.12Y-70.59
X167.12Y-104.59
X167.15Y-71.76
X167.15Y-105.76
X167.32Y-83.44
X167.32Y-117.44
X167.33Y-74.35
X167.33Y-108.35
X168.03Y-60.68
X168.03Y-94.68
X168.08Y-53.17
X168.08Y-87.17
X168.12Y-73.52
X168.12Y-107.52
X168.12Y-74.35
X168.12Y-108.35
X168.39Y-63.36
X168.39Y-97.36
X168.4Y-67.84
X168.4Y-101.84
X168.6Y-50.6
X168.6Y-84.6
X169.135Y-70.585
X169.135Y-104.585
X169.58Y-73.52
X169.58Y-107.52
X169.58Y-71.76
X169.58Y-105.76
X169.98Y-75.66
X169.98Y-109.66
X170.32Y-83.44
X170.32Y-117.44
X170.52Y-67.79
X170.52Y-101.79
X170.8Y-65.37
X170.8Y-99.37
X170.84Y-62.89
X170.84Y-96.89
X171.09Y-55.01
X171.09Y-89.01
X171.6Y-50.6
X171.6Y-84.6
X171.66Y-68.61
X171.66Y-102.61
X172.44Y-72.94
X172.44Y-106.94
X172.44Y-61.21
X172.44Y-70.59
X172.44Y-95.21
X172.44Y-104.59
X172.53Y-75.03
X172.53Y-109.03
X172.55Y-56.65
X172.55Y-90.65
X172.575Y-69.26
X172.575Y-103.26
X173.32Y-83.44
X173.32Y-117.44
X173.545Y-54.645
X173.545Y-88.645
X173.7Y-65.82
X173.7Y-99.82
X173.773Y-69.193
X173.773Y-103.193
X174.55Y-70.94
X174.55Y-104.94
X174.57Y-63.11
X174.57Y-97.11
X174.58Y-60.63
X174.58Y-94.63
X174.6Y-50.6
X174.6Y-84.6
X174.85Y-58.69
X174.85Y-92.69
X174.93Y-72.94
X174.93Y-106.94
X174.98Y-75.03
X174.98Y-109.03
X175.435Y-56.645
X175.435Y-90.645
X176.315Y-76.995
X176.315Y-110.995
X176.32Y-83.44
X176.32Y-117.44
X176.47Y-77.795
X176.47Y-111.795
X176.59Y-70.94
X176.59Y-104.94
X176.725Y-54.645
X176.725Y-88.645
X176.73Y-59.65
X176.73Y-93.65
X177.35Y-53.11
X177.35Y-87.11
X177.525Y-58.645
X177.525Y-92.645
X177.53Y-65.27
X177.53Y-99.27
X177.53Y-62.11
X177.53Y-96.11
X177.6Y-72.94
X177.6Y-106.94
X177.6Y-50.6
X177.6Y-84.6
X177.6Y-75.03
X177.6Y-109.03
X177.66Y-66.45
X177.66Y-100.45
X178.373Y-56.645
X178.373Y-90.645
X178.786Y-70.94
X178.786Y-104.94
X179.13Y-60.34
X179.13Y-65.59
X179.13Y-94.34
X179.13Y-99.59
X179.165Y-54.645
X179.165Y-88.645
X179.32Y-83.44
X179.32Y-117.44
X180.1Y-72.94
X180.1Y-106.94
X180.25Y-53.39
X180.25Y-87.39
X180.473Y-69.253
X180.473Y-103.253
X180.478Y-55.922
X180.478Y-89.922
X180.574Y-58.846
X180.574Y-92.846
X180.6Y-50.6
X180.6Y-84.6
X180.62Y-75.03
X180.62Y-109.03
X180.985Y-62.085
X180.985Y-96.085
X181.823Y-57.267
X181.823Y-91.267
X181.983Y-67.743
X181.983Y-101.743
X182.16Y-55.4
X182.16Y-89.4
X182.239Y-60.511
X182.239Y-94.511
X182.28Y-75.79
X182.28Y-109.79
X182.31Y-70.73
X182.31Y-104.73
X182.32Y-83.44
X182.32Y-117.44
X182.775Y-63.875
X182.775Y-97.875
X183.122Y-72.772
X183.122Y-106.772
X183.463Y-66.263
X183.463Y-100.263
X183.533Y-58.977
X183.533Y-92.977
X183.6Y-50.6
X183.6Y-84.6
X183.95Y-61.98
X183.95Y-95.98
X184.0Y-74.16
X184.0Y-108.16
X184.09Y-57.22
X184.09Y-91.22
X184.25Y-68.79
X184.25Y-102.79
X184.28Y-64.52
X184.28Y-98.52
X185.32Y-83.44
X185.32Y-117.44
X185.595Y-59.465
X185.595Y-93.465
X186.035Y-56.925
X186.035Y-90.925
X186.09Y-74.68
X186.09Y-108.68
X186.13Y-61.98
X186.13Y-95.98
X186.17Y-72.14
X186.17Y-106.14
X186.24Y-67.06
X186.24Y-101.06
X186.26Y-64.52
X186.26Y-98.52
X186.6Y-50.6
X186.6Y-84.6
X188.32Y-83.44
X188.32Y-117.44
X189.6Y-50.6
X189.6Y-84.6
X191.32Y-83.44
X191.32Y-117.44
X192.6Y-50.6
X192.6Y-84.6
X193.45Y-81.32
X193.45Y-115.32
X193.47Y-52.72
X193.47Y-86.72
X194.03Y-78.81
X194.03Y-112.81
X194.19Y-55.44
X194.19Y-89.44
X194.32Y-83.44
X194.32Y-117.44
X194.7Y-50.62
X194.7Y-84.62
X196.93Y-77.42
X196.93Y-111.42
X197.56Y-56.54
X197.56Y-90.54
X199.46Y-55.34
X199.46Y-58.34
X199.46Y-61.34
X199.46Y-64.34
X199.46Y-67.34
X199.46Y-70.34
X199.46Y-73.34
X199.46Y-76.34
X199.46Y-89.34
X199.46Y-92.34
X199.46Y-95.34
X199.46Y-98.34
X199.46Y-101.34
X199.46Y-104.34
X199.46Y-107.34
X199.46Y-110.34
X199.47Y-78.82
X199.47Y-112.82
T2
X100.83Y-68.69
X100.83Y-102.69
X100.85Y-66.66
X100.85Y-100.66
X100.88Y-64.79
X100.88Y-98.79
X104.75Y-63.6
X104.75Y-64.45
X104.75Y-65.3
X104.75Y-66.15
X104.75Y-67.0
X104.75Y-67.85
X104.75Y-68.7
X104.75Y-69.55
X104.75Y-97.6
X104.75Y-98.45
X104.75Y-99.3
X104.75Y-100.15
X104.75Y-101.0
X104.75Y-101.85
X104.75Y-102.7
X104.75Y-103.55
X106.1Y-63.6
X106.1Y-64.45
X106.1Y-65.3
X106.1Y-66.15
X106.1Y-67.0
X106.1Y-67.85
X106.1Y-68.7
X106.1Y-69.55
X106.1Y-97.6
X106.1Y-98.45
X106.1Y-99.3
X106.1Y-100.15
X106.1Y-101.0
X106.1Y-101.85
X106.1Y-102.7
X106.1Y-103.55
X107.32Y-66.07
X107.32Y-100.07
X107.35Y-67.12
X107.35Y-101.12
X150.83Y-68.69
X150.83Y-102.69
X150.85Y-66.66
X150.85Y-100.66
X150.88Y-64.79
X150.88Y-98.79
X154.75Y-63.6
X154.75Y-64.45
X154.75Y-65.3
X154.75Y-66.15
X154.75Y-67.0
X154.75Y-67.85
X154.75Y-68.7
X154.75Y-69.55
X154.75Y-97.6
X154.75Y-98.45
X154.75Y-99.3
X154.75Y-100.15
X154.75Y-101.0
X154.75Y-101.85
X154.75Y-102.7
X154.75Y-103.55
X156.1Y-63.6
X156.1Y-64.45
X156.1Y-65.3
X156.1Y-66.15
X156.1Y-67.0
X156.1Y-67.85
X156.1Y-68.7
X156.1Y-69.55
X156.1Y-97.6
X156.1Y-98.45
X156.1Y-99.3
X156.1Y-100.15
X156.1Y-101.0
X156.1Y-101.85
X156.1Y-102.7
X156.1Y-103.55
X157.32Y-66.07
X157.32Y-100.07
X157.35Y-67.12
X157.35Y-101.12
T4
X118.38Y-65.36
X118.38Y-99.36
X121.44Y-52.35
X121.44Y-86.35
X123.98Y-52.35
X123.98Y-86.35
X137.25Y-55.56
X137.25Y-58.1
X137.25Y-60.64
X137.25Y-63.18
X137.25Y-65.72
X137.25Y-68.26
X137.25Y-70.8
X137.25Y-73.34
X137.25Y-75.88
X137.25Y-78.42
X137.25Y-89.56
X137.25Y-92.1
X137.25Y-94.64
X137.25Y-97.18
X137.25Y-99.72
X137.25Y-102.26
X137.25Y-104.8
X137.25Y-107.34
X137.25Y-109.88
X137.25Y-112.42
X139.79Y-55.56
X139.79Y-58.1
X139.79Y-60.64
X139.79Y-63.18
X139.79Y-65.72
X139.79Y-68.26
X139.79Y-70.8
X139.79Y-73.34
X139.79Y-75.88
X139.79Y-78.42
X139.79Y-89.56
X139.79Y-92.1
X139.79Y-94.64
X139.79Y-97.18
X139.79Y-99.72
X139.79Y-102.26
X139.79Y-104.8
X139.79Y-107.34
X139.79Y-109.88
X139.79Y-112.42
X168.38Y-65.36
X168.38Y-99.36
X171.44Y-52.35
X171.44Y-86.35
X173.98Y-52.35
X173.98Y-86.35
X187.25Y-55.56
X187.25Y-58.1
X187.25Y-60.64
X187.25Y-63.18
X187.25Y-65.72
X187.25Y-68.26
X187.25Y-70.8
X187.25Y-73.34
X187.25Y-75.88
X187.25Y-78.42
X187.25Y-89.56
X187.25Y-92.1
X187.25Y-94.64
X187.25Y-97.18
X187.25Y-99.72
X187.25Y-102.26
X187.25Y-104.8
X187.25Y-107.34
X187.25Y-109.88
X187.25Y-112.42
X189.79Y-55.56
X189.79Y-58.1
X189.79Y-60.64
X189.79Y-63.18
X189.79Y-65.72
X189.79Y-68.26
X189.79Y-70.8
X189.79Y-73.34
X189.79Y-75.88
X189.79Y-78.42
X189.79Y-89.56
X189.79Y-92.1
X189.79Y-94.64
X189.79Y-97.18
X189.79Y-99.72
X189.79Y-102.26
X189.79Y-104.8
X189.79Y-107.34
X189.79Y-109.88
X189.79Y-112.42
T5
X103.25Y-53.25
X103.25Y-80.75
X103.25Y-87.25
X103.25Y-114.75
X146.75Y-53.25
X146.75Y-80.75
X146.75Y-87.25
X146.75Y-114.75
X153.25Y-53.25
X153.25Y-80.75
X153.25Y-87.25
X153.25Y-114.75
X196.75Y-53.25
X196.75Y-80.75
X196.75Y-87.25
X196.75Y-114.75
T3
G00X102.14Y-62.25
M15
G01X101.34Y-62.25
M16
G05
G00X102.14Y-70.9
M15
G01X101.34Y-70.9
M16
G05
G00X102.14Y-96.25
M15
G01X101.34Y-96.25
M16
G05
G00X102.14Y-104.9
M15
G01X101.34Y-104.9
M16
G05
G00X105.87Y-62.25
M15
G01X104.37Y-62.25
M16
G05
G00X105.87Y-70.9
M15
G01X104.37Y-70.9
M16
G05
G00X105.87Y-96.25
M15
G01X104.37Y-96.25
M16
G05
G00X105.87Y-104.9
M15
G01X104.37Y-104.9
M16
G05
G00X152.14Y-62.25
M15
G01X151.34Y-62.25
M16
G05
G00X152.14Y-70.9
M15
G01X151.34Y-70.9
M16
G05
G00X152.14Y-96.25
M15
G01X151.34Y-96.25
M16
G05
G00X152.14Y-104.9
M15
G01X151.34Y-104.9
M16
G05
G00X155.87Y-62.25
M15
G01X154.37Y-62.25
M16
G05
G00X155.87Y-70.9
M15
G01X154.37Y-70.9
M16
G05
G00X155.87Y-96.25
M15
G01X154.37Y-96.25
M16
G05
G00X155.87Y-104.9
M15
G01X154.37Y-104.9
M16
G05
T0
M30
