G04 #@! TF.GenerationSoftware,KiCad,Pcbnew,(5.1.10-1-10_14)*
G04 #@! TF.CreationDate,2022-06-03T02:43:26+09:00*
G04 #@! TF.ProjectId,cmsis-dap_rp2040,636d7369-732d-4646-9170-5f7270323034,rev?*
G04 #@! TF.SameCoordinates,Original*
G04 #@! TF.FileFunction,Paste,Top*
G04 #@! TF.FilePolarity,Positive*
%FSLAX46Y46*%
G04 Gerber Fmt 4.6, Leading zero omitted, Abs format (unit mm)*
G04 Created by KiCad (PCBNEW (5.1.10-1-10_14)) date 2022-06-03 02:43:26*
%MOMM*%
%LPD*%
G01*
G04 APERTURE LIST*
%ADD10R,1.100000X1.100000*%
%ADD11R,1.200000X1.400000*%
%ADD12R,1.000000X1.400000*%
%ADD13R,2.000000X3.800000*%
%ADD14R,2.000000X1.500000*%
G04 APERTURE END LIST*
D10*
G04 #@! TO.C,D2*
X158700000Y-110790000D03*
X158700000Y-107990000D03*
G04 #@! TD*
G04 #@! TO.C,D2*
X108700000Y-110790000D03*
X108700000Y-107990000D03*
G04 #@! TD*
G04 #@! TO.C,D2*
X158700000Y-76790000D03*
X158700000Y-73990000D03*
G04 #@! TD*
G04 #@! TO.C,D3*
G36*
G01*
X182305000Y-112293750D02*
X182305000Y-112806250D01*
G75*
G02*
X182086250Y-113025000I-218750J0D01*
G01*
X181648750Y-113025000D01*
G75*
G02*
X181430000Y-112806250I0J218750D01*
G01*
X181430000Y-112293750D01*
G75*
G02*
X181648750Y-112075000I218750J0D01*
G01*
X182086250Y-112075000D01*
G75*
G02*
X182305000Y-112293750I0J-218750D01*
G01*
G37*
G36*
G01*
X180730000Y-112293750D02*
X180730000Y-112806250D01*
G75*
G02*
X180511250Y-113025000I-218750J0D01*
G01*
X180073750Y-113025000D01*
G75*
G02*
X179855000Y-112806250I0J218750D01*
G01*
X179855000Y-112293750D01*
G75*
G02*
X180073750Y-112075000I218750J0D01*
G01*
X180511250Y-112075000D01*
G75*
G02*
X180730000Y-112293750I0J-218750D01*
G01*
G37*
G04 #@! TD*
G04 #@! TO.C,D3*
G36*
G01*
X132305000Y-112293750D02*
X132305000Y-112806250D01*
G75*
G02*
X132086250Y-113025000I-218750J0D01*
G01*
X131648750Y-113025000D01*
G75*
G02*
X131430000Y-112806250I0J218750D01*
G01*
X131430000Y-112293750D01*
G75*
G02*
X131648750Y-112075000I218750J0D01*
G01*
X132086250Y-112075000D01*
G75*
G02*
X132305000Y-112293750I0J-218750D01*
G01*
G37*
G36*
G01*
X130730000Y-112293750D02*
X130730000Y-112806250D01*
G75*
G02*
X130511250Y-113025000I-218750J0D01*
G01*
X130073750Y-113025000D01*
G75*
G02*
X129855000Y-112806250I0J218750D01*
G01*
X129855000Y-112293750D01*
G75*
G02*
X130073750Y-112075000I218750J0D01*
G01*
X130511250Y-112075000D01*
G75*
G02*
X130730000Y-112293750I0J-218750D01*
G01*
G37*
G04 #@! TD*
G04 #@! TO.C,D3*
G36*
G01*
X182305000Y-78293750D02*
X182305000Y-78806250D01*
G75*
G02*
X182086250Y-79025000I-218750J0D01*
G01*
X181648750Y-79025000D01*
G75*
G02*
X181430000Y-78806250I0J218750D01*
G01*
X181430000Y-78293750D01*
G75*
G02*
X181648750Y-78075000I218750J0D01*
G01*
X182086250Y-78075000D01*
G75*
G02*
X182305000Y-78293750I0J-218750D01*
G01*
G37*
G36*
G01*
X180730000Y-78293750D02*
X180730000Y-78806250D01*
G75*
G02*
X180511250Y-79025000I-218750J0D01*
G01*
X180073750Y-79025000D01*
G75*
G02*
X179855000Y-78806250I0J218750D01*
G01*
X179855000Y-78293750D01*
G75*
G02*
X180073750Y-78075000I218750J0D01*
G01*
X180511250Y-78075000D01*
G75*
G02*
X180730000Y-78293750I0J-218750D01*
G01*
G37*
G04 #@! TD*
G04 #@! TO.C,R7*
G36*
G01*
X176825000Y-112825000D02*
X176825000Y-112275000D01*
G75*
G02*
X177025000Y-112075000I200000J0D01*
G01*
X177425000Y-112075000D01*
G75*
G02*
X177625000Y-112275000I0J-200000D01*
G01*
X177625000Y-112825000D01*
G75*
G02*
X177425000Y-113025000I-200000J0D01*
G01*
X177025000Y-113025000D01*
G75*
G02*
X176825000Y-112825000I0J200000D01*
G01*
G37*
G36*
G01*
X178475000Y-112825000D02*
X178475000Y-112275000D01*
G75*
G02*
X178675000Y-112075000I200000J0D01*
G01*
X179075000Y-112075000D01*
G75*
G02*
X179275000Y-112275000I0J-200000D01*
G01*
X179275000Y-112825000D01*
G75*
G02*
X179075000Y-113025000I-200000J0D01*
G01*
X178675000Y-113025000D01*
G75*
G02*
X178475000Y-112825000I0J200000D01*
G01*
G37*
G04 #@! TD*
G04 #@! TO.C,R7*
G36*
G01*
X126825000Y-112825000D02*
X126825000Y-112275000D01*
G75*
G02*
X127025000Y-112075000I200000J0D01*
G01*
X127425000Y-112075000D01*
G75*
G02*
X127625000Y-112275000I0J-200000D01*
G01*
X127625000Y-112825000D01*
G75*
G02*
X127425000Y-113025000I-200000J0D01*
G01*
X127025000Y-113025000D01*
G75*
G02*
X126825000Y-112825000I0J200000D01*
G01*
G37*
G36*
G01*
X128475000Y-112825000D02*
X128475000Y-112275000D01*
G75*
G02*
X128675000Y-112075000I200000J0D01*
G01*
X129075000Y-112075000D01*
G75*
G02*
X129275000Y-112275000I0J-200000D01*
G01*
X129275000Y-112825000D01*
G75*
G02*
X129075000Y-113025000I-200000J0D01*
G01*
X128675000Y-113025000D01*
G75*
G02*
X128475000Y-112825000I0J200000D01*
G01*
G37*
G04 #@! TD*
G04 #@! TO.C,R7*
G36*
G01*
X176825000Y-78825000D02*
X176825000Y-78275000D01*
G75*
G02*
X177025000Y-78075000I200000J0D01*
G01*
X177425000Y-78075000D01*
G75*
G02*
X177625000Y-78275000I0J-200000D01*
G01*
X177625000Y-78825000D01*
G75*
G02*
X177425000Y-79025000I-200000J0D01*
G01*
X177025000Y-79025000D01*
G75*
G02*
X176825000Y-78825000I0J200000D01*
G01*
G37*
G36*
G01*
X178475000Y-78825000D02*
X178475000Y-78275000D01*
G75*
G02*
X178675000Y-78075000I200000J0D01*
G01*
X179075000Y-78075000D01*
G75*
G02*
X179275000Y-78275000I0J-200000D01*
G01*
X179275000Y-78825000D01*
G75*
G02*
X179075000Y-79025000I-200000J0D01*
G01*
X178675000Y-79025000D01*
G75*
G02*
X178475000Y-78825000I0J200000D01*
G01*
G37*
G04 #@! TD*
G04 #@! TO.C,C13*
G36*
G01*
X173675000Y-101030000D02*
X173675000Y-101530000D01*
G75*
G02*
X173450000Y-101755000I-225000J0D01*
G01*
X173000000Y-101755000D01*
G75*
G02*
X172775000Y-101530000I0J225000D01*
G01*
X172775000Y-101030000D01*
G75*
G02*
X173000000Y-100805000I225000J0D01*
G01*
X173450000Y-100805000D01*
G75*
G02*
X173675000Y-101030000I0J-225000D01*
G01*
G37*
G36*
G01*
X172125000Y-101030000D02*
X172125000Y-101530000D01*
G75*
G02*
X171900000Y-101755000I-225000J0D01*
G01*
X171450000Y-101755000D01*
G75*
G02*
X171225000Y-101530000I0J225000D01*
G01*
X171225000Y-101030000D01*
G75*
G02*
X171450000Y-100805000I225000J0D01*
G01*
X171900000Y-100805000D01*
G75*
G02*
X172125000Y-101030000I0J-225000D01*
G01*
G37*
G04 #@! TD*
G04 #@! TO.C,C13*
G36*
G01*
X123675000Y-101030000D02*
X123675000Y-101530000D01*
G75*
G02*
X123450000Y-101755000I-225000J0D01*
G01*
X123000000Y-101755000D01*
G75*
G02*
X122775000Y-101530000I0J225000D01*
G01*
X122775000Y-101030000D01*
G75*
G02*
X123000000Y-100805000I225000J0D01*
G01*
X123450000Y-100805000D01*
G75*
G02*
X123675000Y-101030000I0J-225000D01*
G01*
G37*
G36*
G01*
X122125000Y-101030000D02*
X122125000Y-101530000D01*
G75*
G02*
X121900000Y-101755000I-225000J0D01*
G01*
X121450000Y-101755000D01*
G75*
G02*
X121225000Y-101530000I0J225000D01*
G01*
X121225000Y-101030000D01*
G75*
G02*
X121450000Y-100805000I225000J0D01*
G01*
X121900000Y-100805000D01*
G75*
G02*
X122125000Y-101030000I0J-225000D01*
G01*
G37*
G04 #@! TD*
G04 #@! TO.C,C13*
G36*
G01*
X173675000Y-67030000D02*
X173675000Y-67530000D01*
G75*
G02*
X173450000Y-67755000I-225000J0D01*
G01*
X173000000Y-67755000D01*
G75*
G02*
X172775000Y-67530000I0J225000D01*
G01*
X172775000Y-67030000D01*
G75*
G02*
X173000000Y-66805000I225000J0D01*
G01*
X173450000Y-66805000D01*
G75*
G02*
X173675000Y-67030000I0J-225000D01*
G01*
G37*
G36*
G01*
X172125000Y-67030000D02*
X172125000Y-67530000D01*
G75*
G02*
X171900000Y-67755000I-225000J0D01*
G01*
X171450000Y-67755000D01*
G75*
G02*
X171225000Y-67530000I0J225000D01*
G01*
X171225000Y-67030000D01*
G75*
G02*
X171450000Y-66805000I225000J0D01*
G01*
X171900000Y-66805000D01*
G75*
G02*
X172125000Y-67030000I0J-225000D01*
G01*
G37*
G04 #@! TD*
G04 #@! TO.C,C5*
G36*
G01*
X162240000Y-103485000D02*
X161740000Y-103485000D01*
G75*
G02*
X161515000Y-103260000I0J225000D01*
G01*
X161515000Y-102810000D01*
G75*
G02*
X161740000Y-102585000I225000J0D01*
G01*
X162240000Y-102585000D01*
G75*
G02*
X162465000Y-102810000I0J-225000D01*
G01*
X162465000Y-103260000D01*
G75*
G02*
X162240000Y-103485000I-225000J0D01*
G01*
G37*
G36*
G01*
X162240000Y-105035000D02*
X161740000Y-105035000D01*
G75*
G02*
X161515000Y-104810000I0J225000D01*
G01*
X161515000Y-104360000D01*
G75*
G02*
X161740000Y-104135000I225000J0D01*
G01*
X162240000Y-104135000D01*
G75*
G02*
X162465000Y-104360000I0J-225000D01*
G01*
X162465000Y-104810000D01*
G75*
G02*
X162240000Y-105035000I-225000J0D01*
G01*
G37*
G04 #@! TD*
G04 #@! TO.C,C5*
G36*
G01*
X112240000Y-103485000D02*
X111740000Y-103485000D01*
G75*
G02*
X111515000Y-103260000I0J225000D01*
G01*
X111515000Y-102810000D01*
G75*
G02*
X111740000Y-102585000I225000J0D01*
G01*
X112240000Y-102585000D01*
G75*
G02*
X112465000Y-102810000I0J-225000D01*
G01*
X112465000Y-103260000D01*
G75*
G02*
X112240000Y-103485000I-225000J0D01*
G01*
G37*
G36*
G01*
X112240000Y-105035000D02*
X111740000Y-105035000D01*
G75*
G02*
X111515000Y-104810000I0J225000D01*
G01*
X111515000Y-104360000D01*
G75*
G02*
X111740000Y-104135000I225000J0D01*
G01*
X112240000Y-104135000D01*
G75*
G02*
X112465000Y-104360000I0J-225000D01*
G01*
X112465000Y-104810000D01*
G75*
G02*
X112240000Y-105035000I-225000J0D01*
G01*
G37*
G04 #@! TD*
G04 #@! TO.C,C5*
G36*
G01*
X162240000Y-69485000D02*
X161740000Y-69485000D01*
G75*
G02*
X161515000Y-69260000I0J225000D01*
G01*
X161515000Y-68810000D01*
G75*
G02*
X161740000Y-68585000I225000J0D01*
G01*
X162240000Y-68585000D01*
G75*
G02*
X162465000Y-68810000I0J-225000D01*
G01*
X162465000Y-69260000D01*
G75*
G02*
X162240000Y-69485000I-225000J0D01*
G01*
G37*
G36*
G01*
X162240000Y-71035000D02*
X161740000Y-71035000D01*
G75*
G02*
X161515000Y-70810000I0J225000D01*
G01*
X161515000Y-70360000D01*
G75*
G02*
X161740000Y-70135000I225000J0D01*
G01*
X162240000Y-70135000D01*
G75*
G02*
X162465000Y-70360000I0J-225000D01*
G01*
X162465000Y-70810000D01*
G75*
G02*
X162240000Y-71035000I-225000J0D01*
G01*
G37*
G04 #@! TD*
G04 #@! TO.C,C1*
G36*
G01*
X160660000Y-85895000D02*
X161160000Y-85895000D01*
G75*
G02*
X161385000Y-86120000I0J-225000D01*
G01*
X161385000Y-86570000D01*
G75*
G02*
X161160000Y-86795000I-225000J0D01*
G01*
X160660000Y-86795000D01*
G75*
G02*
X160435000Y-86570000I0J225000D01*
G01*
X160435000Y-86120000D01*
G75*
G02*
X160660000Y-85895000I225000J0D01*
G01*
G37*
G36*
G01*
X160660000Y-87445000D02*
X161160000Y-87445000D01*
G75*
G02*
X161385000Y-87670000I0J-225000D01*
G01*
X161385000Y-88120000D01*
G75*
G02*
X161160000Y-88345000I-225000J0D01*
G01*
X160660000Y-88345000D01*
G75*
G02*
X160435000Y-88120000I0J225000D01*
G01*
X160435000Y-87670000D01*
G75*
G02*
X160660000Y-87445000I225000J0D01*
G01*
G37*
G04 #@! TD*
G04 #@! TO.C,C1*
G36*
G01*
X110660000Y-85895000D02*
X111160000Y-85895000D01*
G75*
G02*
X111385000Y-86120000I0J-225000D01*
G01*
X111385000Y-86570000D01*
G75*
G02*
X111160000Y-86795000I-225000J0D01*
G01*
X110660000Y-86795000D01*
G75*
G02*
X110435000Y-86570000I0J225000D01*
G01*
X110435000Y-86120000D01*
G75*
G02*
X110660000Y-85895000I225000J0D01*
G01*
G37*
G36*
G01*
X110660000Y-87445000D02*
X111160000Y-87445000D01*
G75*
G02*
X111385000Y-87670000I0J-225000D01*
G01*
X111385000Y-88120000D01*
G75*
G02*
X111160000Y-88345000I-225000J0D01*
G01*
X110660000Y-88345000D01*
G75*
G02*
X110435000Y-88120000I0J225000D01*
G01*
X110435000Y-87670000D01*
G75*
G02*
X110660000Y-87445000I225000J0D01*
G01*
G37*
G04 #@! TD*
G04 #@! TO.C,C1*
G36*
G01*
X160660000Y-51895000D02*
X161160000Y-51895000D01*
G75*
G02*
X161385000Y-52120000I0J-225000D01*
G01*
X161385000Y-52570000D01*
G75*
G02*
X161160000Y-52795000I-225000J0D01*
G01*
X160660000Y-52795000D01*
G75*
G02*
X160435000Y-52570000I0J225000D01*
G01*
X160435000Y-52120000D01*
G75*
G02*
X160660000Y-51895000I225000J0D01*
G01*
G37*
G36*
G01*
X160660000Y-53445000D02*
X161160000Y-53445000D01*
G75*
G02*
X161385000Y-53670000I0J-225000D01*
G01*
X161385000Y-54120000D01*
G75*
G02*
X161160000Y-54345000I-225000J0D01*
G01*
X160660000Y-54345000D01*
G75*
G02*
X160435000Y-54120000I0J225000D01*
G01*
X160435000Y-53670000D01*
G75*
G02*
X160660000Y-53445000I225000J0D01*
G01*
G37*
G04 #@! TD*
G04 #@! TO.C,C3*
G36*
G01*
X162010000Y-114255000D02*
X162510000Y-114255000D01*
G75*
G02*
X162735000Y-114480000I0J-225000D01*
G01*
X162735000Y-114930000D01*
G75*
G02*
X162510000Y-115155000I-225000J0D01*
G01*
X162010000Y-115155000D01*
G75*
G02*
X161785000Y-114930000I0J225000D01*
G01*
X161785000Y-114480000D01*
G75*
G02*
X162010000Y-114255000I225000J0D01*
G01*
G37*
G36*
G01*
X162010000Y-115805000D02*
X162510000Y-115805000D01*
G75*
G02*
X162735000Y-116030000I0J-225000D01*
G01*
X162735000Y-116480000D01*
G75*
G02*
X162510000Y-116705000I-225000J0D01*
G01*
X162010000Y-116705000D01*
G75*
G02*
X161785000Y-116480000I0J225000D01*
G01*
X161785000Y-116030000D01*
G75*
G02*
X162010000Y-115805000I225000J0D01*
G01*
G37*
G04 #@! TD*
G04 #@! TO.C,C3*
G36*
G01*
X112010000Y-114255000D02*
X112510000Y-114255000D01*
G75*
G02*
X112735000Y-114480000I0J-225000D01*
G01*
X112735000Y-114930000D01*
G75*
G02*
X112510000Y-115155000I-225000J0D01*
G01*
X112010000Y-115155000D01*
G75*
G02*
X111785000Y-114930000I0J225000D01*
G01*
X111785000Y-114480000D01*
G75*
G02*
X112010000Y-114255000I225000J0D01*
G01*
G37*
G36*
G01*
X112010000Y-115805000D02*
X112510000Y-115805000D01*
G75*
G02*
X112735000Y-116030000I0J-225000D01*
G01*
X112735000Y-116480000D01*
G75*
G02*
X112510000Y-116705000I-225000J0D01*
G01*
X112010000Y-116705000D01*
G75*
G02*
X111785000Y-116480000I0J225000D01*
G01*
X111785000Y-116030000D01*
G75*
G02*
X112010000Y-115805000I225000J0D01*
G01*
G37*
G04 #@! TD*
G04 #@! TO.C,C3*
G36*
G01*
X162010000Y-80255000D02*
X162510000Y-80255000D01*
G75*
G02*
X162735000Y-80480000I0J-225000D01*
G01*
X162735000Y-80930000D01*
G75*
G02*
X162510000Y-81155000I-225000J0D01*
G01*
X162010000Y-81155000D01*
G75*
G02*
X161785000Y-80930000I0J225000D01*
G01*
X161785000Y-80480000D01*
G75*
G02*
X162010000Y-80255000I225000J0D01*
G01*
G37*
G36*
G01*
X162010000Y-81805000D02*
X162510000Y-81805000D01*
G75*
G02*
X162735000Y-82030000I0J-225000D01*
G01*
X162735000Y-82480000D01*
G75*
G02*
X162510000Y-82705000I-225000J0D01*
G01*
X162010000Y-82705000D01*
G75*
G02*
X161785000Y-82480000I0J225000D01*
G01*
X161785000Y-82030000D01*
G75*
G02*
X162010000Y-81805000I225000J0D01*
G01*
G37*
G04 #@! TD*
G04 #@! TO.C,C4*
G36*
G01*
X165470000Y-114265000D02*
X165970000Y-114265000D01*
G75*
G02*
X166195000Y-114490000I0J-225000D01*
G01*
X166195000Y-114940000D01*
G75*
G02*
X165970000Y-115165000I-225000J0D01*
G01*
X165470000Y-115165000D01*
G75*
G02*
X165245000Y-114940000I0J225000D01*
G01*
X165245000Y-114490000D01*
G75*
G02*
X165470000Y-114265000I225000J0D01*
G01*
G37*
G36*
G01*
X165470000Y-115815000D02*
X165970000Y-115815000D01*
G75*
G02*
X166195000Y-116040000I0J-225000D01*
G01*
X166195000Y-116490000D01*
G75*
G02*
X165970000Y-116715000I-225000J0D01*
G01*
X165470000Y-116715000D01*
G75*
G02*
X165245000Y-116490000I0J225000D01*
G01*
X165245000Y-116040000D01*
G75*
G02*
X165470000Y-115815000I225000J0D01*
G01*
G37*
G04 #@! TD*
G04 #@! TO.C,C4*
G36*
G01*
X115470000Y-114265000D02*
X115970000Y-114265000D01*
G75*
G02*
X116195000Y-114490000I0J-225000D01*
G01*
X116195000Y-114940000D01*
G75*
G02*
X115970000Y-115165000I-225000J0D01*
G01*
X115470000Y-115165000D01*
G75*
G02*
X115245000Y-114940000I0J225000D01*
G01*
X115245000Y-114490000D01*
G75*
G02*
X115470000Y-114265000I225000J0D01*
G01*
G37*
G36*
G01*
X115470000Y-115815000D02*
X115970000Y-115815000D01*
G75*
G02*
X116195000Y-116040000I0J-225000D01*
G01*
X116195000Y-116490000D01*
G75*
G02*
X115970000Y-116715000I-225000J0D01*
G01*
X115470000Y-116715000D01*
G75*
G02*
X115245000Y-116490000I0J225000D01*
G01*
X115245000Y-116040000D01*
G75*
G02*
X115470000Y-115815000I225000J0D01*
G01*
G37*
G04 #@! TD*
G04 #@! TO.C,C4*
G36*
G01*
X165470000Y-80265000D02*
X165970000Y-80265000D01*
G75*
G02*
X166195000Y-80490000I0J-225000D01*
G01*
X166195000Y-80940000D01*
G75*
G02*
X165970000Y-81165000I-225000J0D01*
G01*
X165470000Y-81165000D01*
G75*
G02*
X165245000Y-80940000I0J225000D01*
G01*
X165245000Y-80490000D01*
G75*
G02*
X165470000Y-80265000I225000J0D01*
G01*
G37*
G36*
G01*
X165470000Y-81815000D02*
X165970000Y-81815000D01*
G75*
G02*
X166195000Y-82040000I0J-225000D01*
G01*
X166195000Y-82490000D01*
G75*
G02*
X165970000Y-82715000I-225000J0D01*
G01*
X165470000Y-82715000D01*
G75*
G02*
X165245000Y-82490000I0J225000D01*
G01*
X165245000Y-82040000D01*
G75*
G02*
X165470000Y-81815000I225000J0D01*
G01*
G37*
G04 #@! TD*
G04 #@! TO.C,C6*
G36*
G01*
X164360000Y-103485000D02*
X163860000Y-103485000D01*
G75*
G02*
X163635000Y-103260000I0J225000D01*
G01*
X163635000Y-102810000D01*
G75*
G02*
X163860000Y-102585000I225000J0D01*
G01*
X164360000Y-102585000D01*
G75*
G02*
X164585000Y-102810000I0J-225000D01*
G01*
X164585000Y-103260000D01*
G75*
G02*
X164360000Y-103485000I-225000J0D01*
G01*
G37*
G36*
G01*
X164360000Y-105035000D02*
X163860000Y-105035000D01*
G75*
G02*
X163635000Y-104810000I0J225000D01*
G01*
X163635000Y-104360000D01*
G75*
G02*
X163860000Y-104135000I225000J0D01*
G01*
X164360000Y-104135000D01*
G75*
G02*
X164585000Y-104360000I0J-225000D01*
G01*
X164585000Y-104810000D01*
G75*
G02*
X164360000Y-105035000I-225000J0D01*
G01*
G37*
G04 #@! TD*
G04 #@! TO.C,C6*
G36*
G01*
X114360000Y-103485000D02*
X113860000Y-103485000D01*
G75*
G02*
X113635000Y-103260000I0J225000D01*
G01*
X113635000Y-102810000D01*
G75*
G02*
X113860000Y-102585000I225000J0D01*
G01*
X114360000Y-102585000D01*
G75*
G02*
X114585000Y-102810000I0J-225000D01*
G01*
X114585000Y-103260000D01*
G75*
G02*
X114360000Y-103485000I-225000J0D01*
G01*
G37*
G36*
G01*
X114360000Y-105035000D02*
X113860000Y-105035000D01*
G75*
G02*
X113635000Y-104810000I0J225000D01*
G01*
X113635000Y-104360000D01*
G75*
G02*
X113860000Y-104135000I225000J0D01*
G01*
X114360000Y-104135000D01*
G75*
G02*
X114585000Y-104360000I0J-225000D01*
G01*
X114585000Y-104810000D01*
G75*
G02*
X114360000Y-105035000I-225000J0D01*
G01*
G37*
G04 #@! TD*
G04 #@! TO.C,C6*
G36*
G01*
X164360000Y-69485000D02*
X163860000Y-69485000D01*
G75*
G02*
X163635000Y-69260000I0J225000D01*
G01*
X163635000Y-68810000D01*
G75*
G02*
X163860000Y-68585000I225000J0D01*
G01*
X164360000Y-68585000D01*
G75*
G02*
X164585000Y-68810000I0J-225000D01*
G01*
X164585000Y-69260000D01*
G75*
G02*
X164360000Y-69485000I-225000J0D01*
G01*
G37*
G36*
G01*
X164360000Y-71035000D02*
X163860000Y-71035000D01*
G75*
G02*
X163635000Y-70810000I0J225000D01*
G01*
X163635000Y-70360000D01*
G75*
G02*
X163860000Y-70135000I225000J0D01*
G01*
X164360000Y-70135000D01*
G75*
G02*
X164585000Y-70360000I0J-225000D01*
G01*
X164585000Y-70810000D01*
G75*
G02*
X164360000Y-71035000I-225000J0D01*
G01*
G37*
G04 #@! TD*
G04 #@! TO.C,C8*
G36*
G01*
X164750000Y-97495000D02*
X165250000Y-97495000D01*
G75*
G02*
X165475000Y-97720000I0J-225000D01*
G01*
X165475000Y-98170000D01*
G75*
G02*
X165250000Y-98395000I-225000J0D01*
G01*
X164750000Y-98395000D01*
G75*
G02*
X164525000Y-98170000I0J225000D01*
G01*
X164525000Y-97720000D01*
G75*
G02*
X164750000Y-97495000I225000J0D01*
G01*
G37*
G36*
G01*
X164750000Y-99045000D02*
X165250000Y-99045000D01*
G75*
G02*
X165475000Y-99270000I0J-225000D01*
G01*
X165475000Y-99720000D01*
G75*
G02*
X165250000Y-99945000I-225000J0D01*
G01*
X164750000Y-99945000D01*
G75*
G02*
X164525000Y-99720000I0J225000D01*
G01*
X164525000Y-99270000D01*
G75*
G02*
X164750000Y-99045000I225000J0D01*
G01*
G37*
G04 #@! TD*
G04 #@! TO.C,C8*
G36*
G01*
X114750000Y-97495000D02*
X115250000Y-97495000D01*
G75*
G02*
X115475000Y-97720000I0J-225000D01*
G01*
X115475000Y-98170000D01*
G75*
G02*
X115250000Y-98395000I-225000J0D01*
G01*
X114750000Y-98395000D01*
G75*
G02*
X114525000Y-98170000I0J225000D01*
G01*
X114525000Y-97720000D01*
G75*
G02*
X114750000Y-97495000I225000J0D01*
G01*
G37*
G36*
G01*
X114750000Y-99045000D02*
X115250000Y-99045000D01*
G75*
G02*
X115475000Y-99270000I0J-225000D01*
G01*
X115475000Y-99720000D01*
G75*
G02*
X115250000Y-99945000I-225000J0D01*
G01*
X114750000Y-99945000D01*
G75*
G02*
X114525000Y-99720000I0J225000D01*
G01*
X114525000Y-99270000D01*
G75*
G02*
X114750000Y-99045000I225000J0D01*
G01*
G37*
G04 #@! TD*
G04 #@! TO.C,C8*
G36*
G01*
X164750000Y-63495000D02*
X165250000Y-63495000D01*
G75*
G02*
X165475000Y-63720000I0J-225000D01*
G01*
X165475000Y-64170000D01*
G75*
G02*
X165250000Y-64395000I-225000J0D01*
G01*
X164750000Y-64395000D01*
G75*
G02*
X164525000Y-64170000I0J225000D01*
G01*
X164525000Y-63720000D01*
G75*
G02*
X164750000Y-63495000I225000J0D01*
G01*
G37*
G36*
G01*
X164750000Y-65045000D02*
X165250000Y-65045000D01*
G75*
G02*
X165475000Y-65270000I0J-225000D01*
G01*
X165475000Y-65720000D01*
G75*
G02*
X165250000Y-65945000I-225000J0D01*
G01*
X164750000Y-65945000D01*
G75*
G02*
X164525000Y-65720000I0J225000D01*
G01*
X164525000Y-65270000D01*
G75*
G02*
X164750000Y-65045000I225000J0D01*
G01*
G37*
G04 #@! TD*
G04 #@! TO.C,L1*
G36*
G01*
X158275000Y-114976250D02*
X158275000Y-114463750D01*
G75*
G02*
X158493750Y-114245000I218750J0D01*
G01*
X158931250Y-114245000D01*
G75*
G02*
X159150000Y-114463750I0J-218750D01*
G01*
X159150000Y-114976250D01*
G75*
G02*
X158931250Y-115195000I-218750J0D01*
G01*
X158493750Y-115195000D01*
G75*
G02*
X158275000Y-114976250I0J218750D01*
G01*
G37*
G36*
G01*
X159850000Y-114976250D02*
X159850000Y-114463750D01*
G75*
G02*
X160068750Y-114245000I218750J0D01*
G01*
X160506250Y-114245000D01*
G75*
G02*
X160725000Y-114463750I0J-218750D01*
G01*
X160725000Y-114976250D01*
G75*
G02*
X160506250Y-115195000I-218750J0D01*
G01*
X160068750Y-115195000D01*
G75*
G02*
X159850000Y-114976250I0J218750D01*
G01*
G37*
G04 #@! TD*
G04 #@! TO.C,L1*
G36*
G01*
X108275000Y-114976250D02*
X108275000Y-114463750D01*
G75*
G02*
X108493750Y-114245000I218750J0D01*
G01*
X108931250Y-114245000D01*
G75*
G02*
X109150000Y-114463750I0J-218750D01*
G01*
X109150000Y-114976250D01*
G75*
G02*
X108931250Y-115195000I-218750J0D01*
G01*
X108493750Y-115195000D01*
G75*
G02*
X108275000Y-114976250I0J218750D01*
G01*
G37*
G36*
G01*
X109850000Y-114976250D02*
X109850000Y-114463750D01*
G75*
G02*
X110068750Y-114245000I218750J0D01*
G01*
X110506250Y-114245000D01*
G75*
G02*
X110725000Y-114463750I0J-218750D01*
G01*
X110725000Y-114976250D01*
G75*
G02*
X110506250Y-115195000I-218750J0D01*
G01*
X110068750Y-115195000D01*
G75*
G02*
X109850000Y-114976250I0J218750D01*
G01*
G37*
G04 #@! TD*
G04 #@! TO.C,L1*
G36*
G01*
X158275000Y-80976250D02*
X158275000Y-80463750D01*
G75*
G02*
X158493750Y-80245000I218750J0D01*
G01*
X158931250Y-80245000D01*
G75*
G02*
X159150000Y-80463750I0J-218750D01*
G01*
X159150000Y-80976250D01*
G75*
G02*
X158931250Y-81195000I-218750J0D01*
G01*
X158493750Y-81195000D01*
G75*
G02*
X158275000Y-80976250I0J218750D01*
G01*
G37*
G36*
G01*
X159850000Y-80976250D02*
X159850000Y-80463750D01*
G75*
G02*
X160068750Y-80245000I218750J0D01*
G01*
X160506250Y-80245000D01*
G75*
G02*
X160725000Y-80463750I0J-218750D01*
G01*
X160725000Y-80976250D01*
G75*
G02*
X160506250Y-81195000I-218750J0D01*
G01*
X160068750Y-81195000D01*
G75*
G02*
X159850000Y-80976250I0J218750D01*
G01*
G37*
G04 #@! TD*
G04 #@! TO.C,R1*
G36*
G01*
X172715000Y-94475000D02*
X172165000Y-94475000D01*
G75*
G02*
X171965000Y-94275000I0J200000D01*
G01*
X171965000Y-93875000D01*
G75*
G02*
X172165000Y-93675000I200000J0D01*
G01*
X172715000Y-93675000D01*
G75*
G02*
X172915000Y-93875000I0J-200000D01*
G01*
X172915000Y-94275000D01*
G75*
G02*
X172715000Y-94475000I-200000J0D01*
G01*
G37*
G36*
G01*
X172715000Y-92825000D02*
X172165000Y-92825000D01*
G75*
G02*
X171965000Y-92625000I0J200000D01*
G01*
X171965000Y-92225000D01*
G75*
G02*
X172165000Y-92025000I200000J0D01*
G01*
X172715000Y-92025000D01*
G75*
G02*
X172915000Y-92225000I0J-200000D01*
G01*
X172915000Y-92625000D01*
G75*
G02*
X172715000Y-92825000I-200000J0D01*
G01*
G37*
G04 #@! TD*
G04 #@! TO.C,R1*
G36*
G01*
X122715000Y-94475000D02*
X122165000Y-94475000D01*
G75*
G02*
X121965000Y-94275000I0J200000D01*
G01*
X121965000Y-93875000D01*
G75*
G02*
X122165000Y-93675000I200000J0D01*
G01*
X122715000Y-93675000D01*
G75*
G02*
X122915000Y-93875000I0J-200000D01*
G01*
X122915000Y-94275000D01*
G75*
G02*
X122715000Y-94475000I-200000J0D01*
G01*
G37*
G36*
G01*
X122715000Y-92825000D02*
X122165000Y-92825000D01*
G75*
G02*
X121965000Y-92625000I0J200000D01*
G01*
X121965000Y-92225000D01*
G75*
G02*
X122165000Y-92025000I200000J0D01*
G01*
X122715000Y-92025000D01*
G75*
G02*
X122915000Y-92225000I0J-200000D01*
G01*
X122915000Y-92625000D01*
G75*
G02*
X122715000Y-92825000I-200000J0D01*
G01*
G37*
G04 #@! TD*
G04 #@! TO.C,R1*
G36*
G01*
X172715000Y-60475000D02*
X172165000Y-60475000D01*
G75*
G02*
X171965000Y-60275000I0J200000D01*
G01*
X171965000Y-59875000D01*
G75*
G02*
X172165000Y-59675000I200000J0D01*
G01*
X172715000Y-59675000D01*
G75*
G02*
X172915000Y-59875000I0J-200000D01*
G01*
X172915000Y-60275000D01*
G75*
G02*
X172715000Y-60475000I-200000J0D01*
G01*
G37*
G36*
G01*
X172715000Y-58825000D02*
X172165000Y-58825000D01*
G75*
G02*
X171965000Y-58625000I0J200000D01*
G01*
X171965000Y-58225000D01*
G75*
G02*
X172165000Y-58025000I200000J0D01*
G01*
X172715000Y-58025000D01*
G75*
G02*
X172915000Y-58225000I0J-200000D01*
G01*
X172915000Y-58625000D01*
G75*
G02*
X172715000Y-58825000I-200000J0D01*
G01*
G37*
G04 #@! TD*
G04 #@! TO.C,C15*
G36*
G01*
X168380000Y-103485000D02*
X167880000Y-103485000D01*
G75*
G02*
X167655000Y-103260000I0J225000D01*
G01*
X167655000Y-102810000D01*
G75*
G02*
X167880000Y-102585000I225000J0D01*
G01*
X168380000Y-102585000D01*
G75*
G02*
X168605000Y-102810000I0J-225000D01*
G01*
X168605000Y-103260000D01*
G75*
G02*
X168380000Y-103485000I-225000J0D01*
G01*
G37*
G36*
G01*
X168380000Y-105035000D02*
X167880000Y-105035000D01*
G75*
G02*
X167655000Y-104810000I0J225000D01*
G01*
X167655000Y-104360000D01*
G75*
G02*
X167880000Y-104135000I225000J0D01*
G01*
X168380000Y-104135000D01*
G75*
G02*
X168605000Y-104360000I0J-225000D01*
G01*
X168605000Y-104810000D01*
G75*
G02*
X168380000Y-105035000I-225000J0D01*
G01*
G37*
G04 #@! TD*
G04 #@! TO.C,C15*
G36*
G01*
X118380000Y-103485000D02*
X117880000Y-103485000D01*
G75*
G02*
X117655000Y-103260000I0J225000D01*
G01*
X117655000Y-102810000D01*
G75*
G02*
X117880000Y-102585000I225000J0D01*
G01*
X118380000Y-102585000D01*
G75*
G02*
X118605000Y-102810000I0J-225000D01*
G01*
X118605000Y-103260000D01*
G75*
G02*
X118380000Y-103485000I-225000J0D01*
G01*
G37*
G36*
G01*
X118380000Y-105035000D02*
X117880000Y-105035000D01*
G75*
G02*
X117655000Y-104810000I0J225000D01*
G01*
X117655000Y-104360000D01*
G75*
G02*
X117880000Y-104135000I225000J0D01*
G01*
X118380000Y-104135000D01*
G75*
G02*
X118605000Y-104360000I0J-225000D01*
G01*
X118605000Y-104810000D01*
G75*
G02*
X118380000Y-105035000I-225000J0D01*
G01*
G37*
G04 #@! TD*
G04 #@! TO.C,C15*
G36*
G01*
X168380000Y-69485000D02*
X167880000Y-69485000D01*
G75*
G02*
X167655000Y-69260000I0J225000D01*
G01*
X167655000Y-68810000D01*
G75*
G02*
X167880000Y-68585000I225000J0D01*
G01*
X168380000Y-68585000D01*
G75*
G02*
X168605000Y-68810000I0J-225000D01*
G01*
X168605000Y-69260000D01*
G75*
G02*
X168380000Y-69485000I-225000J0D01*
G01*
G37*
G36*
G01*
X168380000Y-71035000D02*
X167880000Y-71035000D01*
G75*
G02*
X167655000Y-70810000I0J225000D01*
G01*
X167655000Y-70360000D01*
G75*
G02*
X167880000Y-70135000I225000J0D01*
G01*
X168380000Y-70135000D01*
G75*
G02*
X168605000Y-70360000I0J-225000D01*
G01*
X168605000Y-70810000D01*
G75*
G02*
X168380000Y-71035000I-225000J0D01*
G01*
G37*
G04 #@! TD*
G04 #@! TO.C,C17*
G36*
G01*
X168830000Y-94243000D02*
X169330000Y-94243000D01*
G75*
G02*
X169555000Y-94468000I0J-225000D01*
G01*
X169555000Y-94918000D01*
G75*
G02*
X169330000Y-95143000I-225000J0D01*
G01*
X168830000Y-95143000D01*
G75*
G02*
X168605000Y-94918000I0J225000D01*
G01*
X168605000Y-94468000D01*
G75*
G02*
X168830000Y-94243000I225000J0D01*
G01*
G37*
G36*
G01*
X168830000Y-95793000D02*
X169330000Y-95793000D01*
G75*
G02*
X169555000Y-96018000I0J-225000D01*
G01*
X169555000Y-96468000D01*
G75*
G02*
X169330000Y-96693000I-225000J0D01*
G01*
X168830000Y-96693000D01*
G75*
G02*
X168605000Y-96468000I0J225000D01*
G01*
X168605000Y-96018000D01*
G75*
G02*
X168830000Y-95793000I225000J0D01*
G01*
G37*
G04 #@! TD*
G04 #@! TO.C,C17*
G36*
G01*
X118830000Y-94243000D02*
X119330000Y-94243000D01*
G75*
G02*
X119555000Y-94468000I0J-225000D01*
G01*
X119555000Y-94918000D01*
G75*
G02*
X119330000Y-95143000I-225000J0D01*
G01*
X118830000Y-95143000D01*
G75*
G02*
X118605000Y-94918000I0J225000D01*
G01*
X118605000Y-94468000D01*
G75*
G02*
X118830000Y-94243000I225000J0D01*
G01*
G37*
G36*
G01*
X118830000Y-95793000D02*
X119330000Y-95793000D01*
G75*
G02*
X119555000Y-96018000I0J-225000D01*
G01*
X119555000Y-96468000D01*
G75*
G02*
X119330000Y-96693000I-225000J0D01*
G01*
X118830000Y-96693000D01*
G75*
G02*
X118605000Y-96468000I0J225000D01*
G01*
X118605000Y-96018000D01*
G75*
G02*
X118830000Y-95793000I225000J0D01*
G01*
G37*
G04 #@! TD*
G04 #@! TO.C,C17*
G36*
G01*
X168830000Y-60243000D02*
X169330000Y-60243000D01*
G75*
G02*
X169555000Y-60468000I0J-225000D01*
G01*
X169555000Y-60918000D01*
G75*
G02*
X169330000Y-61143000I-225000J0D01*
G01*
X168830000Y-61143000D01*
G75*
G02*
X168605000Y-60918000I0J225000D01*
G01*
X168605000Y-60468000D01*
G75*
G02*
X168830000Y-60243000I225000J0D01*
G01*
G37*
G36*
G01*
X168830000Y-61793000D02*
X169330000Y-61793000D01*
G75*
G02*
X169555000Y-62018000I0J-225000D01*
G01*
X169555000Y-62468000D01*
G75*
G02*
X169330000Y-62693000I-225000J0D01*
G01*
X168830000Y-62693000D01*
G75*
G02*
X168605000Y-62468000I0J225000D01*
G01*
X168605000Y-62018000D01*
G75*
G02*
X168830000Y-61793000I225000J0D01*
G01*
G37*
G04 #@! TD*
G04 #@! TO.C,C11*
G36*
G01*
X166370000Y-103495000D02*
X165870000Y-103495000D01*
G75*
G02*
X165645000Y-103270000I0J225000D01*
G01*
X165645000Y-102820000D01*
G75*
G02*
X165870000Y-102595000I225000J0D01*
G01*
X166370000Y-102595000D01*
G75*
G02*
X166595000Y-102820000I0J-225000D01*
G01*
X166595000Y-103270000D01*
G75*
G02*
X166370000Y-103495000I-225000J0D01*
G01*
G37*
G36*
G01*
X166370000Y-105045000D02*
X165870000Y-105045000D01*
G75*
G02*
X165645000Y-104820000I0J225000D01*
G01*
X165645000Y-104370000D01*
G75*
G02*
X165870000Y-104145000I225000J0D01*
G01*
X166370000Y-104145000D01*
G75*
G02*
X166595000Y-104370000I0J-225000D01*
G01*
X166595000Y-104820000D01*
G75*
G02*
X166370000Y-105045000I-225000J0D01*
G01*
G37*
G04 #@! TD*
G04 #@! TO.C,C11*
G36*
G01*
X116370000Y-103495000D02*
X115870000Y-103495000D01*
G75*
G02*
X115645000Y-103270000I0J225000D01*
G01*
X115645000Y-102820000D01*
G75*
G02*
X115870000Y-102595000I225000J0D01*
G01*
X116370000Y-102595000D01*
G75*
G02*
X116595000Y-102820000I0J-225000D01*
G01*
X116595000Y-103270000D01*
G75*
G02*
X116370000Y-103495000I-225000J0D01*
G01*
G37*
G36*
G01*
X116370000Y-105045000D02*
X115870000Y-105045000D01*
G75*
G02*
X115645000Y-104820000I0J225000D01*
G01*
X115645000Y-104370000D01*
G75*
G02*
X115870000Y-104145000I225000J0D01*
G01*
X116370000Y-104145000D01*
G75*
G02*
X116595000Y-104370000I0J-225000D01*
G01*
X116595000Y-104820000D01*
G75*
G02*
X116370000Y-105045000I-225000J0D01*
G01*
G37*
G04 #@! TD*
G04 #@! TO.C,C11*
G36*
G01*
X166370000Y-69495000D02*
X165870000Y-69495000D01*
G75*
G02*
X165645000Y-69270000I0J225000D01*
G01*
X165645000Y-68820000D01*
G75*
G02*
X165870000Y-68595000I225000J0D01*
G01*
X166370000Y-68595000D01*
G75*
G02*
X166595000Y-68820000I0J-225000D01*
G01*
X166595000Y-69270000D01*
G75*
G02*
X166370000Y-69495000I-225000J0D01*
G01*
G37*
G36*
G01*
X166370000Y-71045000D02*
X165870000Y-71045000D01*
G75*
G02*
X165645000Y-70820000I0J225000D01*
G01*
X165645000Y-70370000D01*
G75*
G02*
X165870000Y-70145000I225000J0D01*
G01*
X166370000Y-70145000D01*
G75*
G02*
X166595000Y-70370000I0J-225000D01*
G01*
X166595000Y-70820000D01*
G75*
G02*
X166370000Y-71045000I-225000J0D01*
G01*
G37*
G04 #@! TD*
G04 #@! TO.C,C9*
G36*
G01*
X163240000Y-97495000D02*
X163740000Y-97495000D01*
G75*
G02*
X163965000Y-97720000I0J-225000D01*
G01*
X163965000Y-98170000D01*
G75*
G02*
X163740000Y-98395000I-225000J0D01*
G01*
X163240000Y-98395000D01*
G75*
G02*
X163015000Y-98170000I0J225000D01*
G01*
X163015000Y-97720000D01*
G75*
G02*
X163240000Y-97495000I225000J0D01*
G01*
G37*
G36*
G01*
X163240000Y-99045000D02*
X163740000Y-99045000D01*
G75*
G02*
X163965000Y-99270000I0J-225000D01*
G01*
X163965000Y-99720000D01*
G75*
G02*
X163740000Y-99945000I-225000J0D01*
G01*
X163240000Y-99945000D01*
G75*
G02*
X163015000Y-99720000I0J225000D01*
G01*
X163015000Y-99270000D01*
G75*
G02*
X163240000Y-99045000I225000J0D01*
G01*
G37*
G04 #@! TD*
G04 #@! TO.C,C9*
G36*
G01*
X113240000Y-97495000D02*
X113740000Y-97495000D01*
G75*
G02*
X113965000Y-97720000I0J-225000D01*
G01*
X113965000Y-98170000D01*
G75*
G02*
X113740000Y-98395000I-225000J0D01*
G01*
X113240000Y-98395000D01*
G75*
G02*
X113015000Y-98170000I0J225000D01*
G01*
X113015000Y-97720000D01*
G75*
G02*
X113240000Y-97495000I225000J0D01*
G01*
G37*
G36*
G01*
X113240000Y-99045000D02*
X113740000Y-99045000D01*
G75*
G02*
X113965000Y-99270000I0J-225000D01*
G01*
X113965000Y-99720000D01*
G75*
G02*
X113740000Y-99945000I-225000J0D01*
G01*
X113240000Y-99945000D01*
G75*
G02*
X113015000Y-99720000I0J225000D01*
G01*
X113015000Y-99270000D01*
G75*
G02*
X113240000Y-99045000I225000J0D01*
G01*
G37*
G04 #@! TD*
G04 #@! TO.C,C9*
G36*
G01*
X163240000Y-63495000D02*
X163740000Y-63495000D01*
G75*
G02*
X163965000Y-63720000I0J-225000D01*
G01*
X163965000Y-64170000D01*
G75*
G02*
X163740000Y-64395000I-225000J0D01*
G01*
X163240000Y-64395000D01*
G75*
G02*
X163015000Y-64170000I0J225000D01*
G01*
X163015000Y-63720000D01*
G75*
G02*
X163240000Y-63495000I225000J0D01*
G01*
G37*
G36*
G01*
X163240000Y-65045000D02*
X163740000Y-65045000D01*
G75*
G02*
X163965000Y-65270000I0J-225000D01*
G01*
X163965000Y-65720000D01*
G75*
G02*
X163740000Y-65945000I-225000J0D01*
G01*
X163240000Y-65945000D01*
G75*
G02*
X163015000Y-65720000I0J225000D01*
G01*
X163015000Y-65270000D01*
G75*
G02*
X163240000Y-65045000I225000J0D01*
G01*
G37*
G04 #@! TD*
G04 #@! TO.C,D4*
G36*
G01*
X182301000Y-110769750D02*
X182301000Y-111282250D01*
G75*
G02*
X182082250Y-111501000I-218750J0D01*
G01*
X181644750Y-111501000D01*
G75*
G02*
X181426000Y-111282250I0J218750D01*
G01*
X181426000Y-110769750D01*
G75*
G02*
X181644750Y-110551000I218750J0D01*
G01*
X182082250Y-110551000D01*
G75*
G02*
X182301000Y-110769750I0J-218750D01*
G01*
G37*
G36*
G01*
X180726000Y-110769750D02*
X180726000Y-111282250D01*
G75*
G02*
X180507250Y-111501000I-218750J0D01*
G01*
X180069750Y-111501000D01*
G75*
G02*
X179851000Y-111282250I0J218750D01*
G01*
X179851000Y-110769750D01*
G75*
G02*
X180069750Y-110551000I218750J0D01*
G01*
X180507250Y-110551000D01*
G75*
G02*
X180726000Y-110769750I0J-218750D01*
G01*
G37*
G04 #@! TD*
G04 #@! TO.C,D4*
G36*
G01*
X132301000Y-110769750D02*
X132301000Y-111282250D01*
G75*
G02*
X132082250Y-111501000I-218750J0D01*
G01*
X131644750Y-111501000D01*
G75*
G02*
X131426000Y-111282250I0J218750D01*
G01*
X131426000Y-110769750D01*
G75*
G02*
X131644750Y-110551000I218750J0D01*
G01*
X132082250Y-110551000D01*
G75*
G02*
X132301000Y-110769750I0J-218750D01*
G01*
G37*
G36*
G01*
X130726000Y-110769750D02*
X130726000Y-111282250D01*
G75*
G02*
X130507250Y-111501000I-218750J0D01*
G01*
X130069750Y-111501000D01*
G75*
G02*
X129851000Y-111282250I0J218750D01*
G01*
X129851000Y-110769750D01*
G75*
G02*
X130069750Y-110551000I218750J0D01*
G01*
X130507250Y-110551000D01*
G75*
G02*
X130726000Y-110769750I0J-218750D01*
G01*
G37*
G04 #@! TD*
G04 #@! TO.C,D4*
G36*
G01*
X182301000Y-76769750D02*
X182301000Y-77282250D01*
G75*
G02*
X182082250Y-77501000I-218750J0D01*
G01*
X181644750Y-77501000D01*
G75*
G02*
X181426000Y-77282250I0J218750D01*
G01*
X181426000Y-76769750D01*
G75*
G02*
X181644750Y-76551000I218750J0D01*
G01*
X182082250Y-76551000D01*
G75*
G02*
X182301000Y-76769750I0J-218750D01*
G01*
G37*
G36*
G01*
X180726000Y-76769750D02*
X180726000Y-77282250D01*
G75*
G02*
X180507250Y-77501000I-218750J0D01*
G01*
X180069750Y-77501000D01*
G75*
G02*
X179851000Y-77282250I0J218750D01*
G01*
X179851000Y-76769750D01*
G75*
G02*
X180069750Y-76551000I218750J0D01*
G01*
X180507250Y-76551000D01*
G75*
G02*
X180726000Y-76769750I0J-218750D01*
G01*
G37*
G04 #@! TD*
D11*
G04 #@! TO.C,D1*
X160210000Y-99490000D03*
D12*
X158490000Y-99490000D03*
X158490000Y-101690000D03*
X160390000Y-101690000D03*
G04 #@! TD*
D11*
G04 #@! TO.C,D1*
X110210000Y-99490000D03*
D12*
X108490000Y-99490000D03*
X108490000Y-101690000D03*
X110390000Y-101690000D03*
G04 #@! TD*
D11*
G04 #@! TO.C,D1*
X160210000Y-65490000D03*
D12*
X158490000Y-65490000D03*
X158490000Y-67690000D03*
X160390000Y-67690000D03*
G04 #@! TD*
G04 #@! TO.C,C10*
G36*
G01*
X161355000Y-109910000D02*
X161355000Y-109410000D01*
G75*
G02*
X161580000Y-109185000I225000J0D01*
G01*
X162030000Y-109185000D01*
G75*
G02*
X162255000Y-109410000I0J-225000D01*
G01*
X162255000Y-109910000D01*
G75*
G02*
X162030000Y-110135000I-225000J0D01*
G01*
X161580000Y-110135000D01*
G75*
G02*
X161355000Y-109910000I0J225000D01*
G01*
G37*
G36*
G01*
X162905000Y-109910000D02*
X162905000Y-109410000D01*
G75*
G02*
X163130000Y-109185000I225000J0D01*
G01*
X163580000Y-109185000D01*
G75*
G02*
X163805000Y-109410000I0J-225000D01*
G01*
X163805000Y-109910000D01*
G75*
G02*
X163580000Y-110135000I-225000J0D01*
G01*
X163130000Y-110135000D01*
G75*
G02*
X162905000Y-109910000I0J225000D01*
G01*
G37*
G04 #@! TD*
G04 #@! TO.C,C10*
G36*
G01*
X111355000Y-109910000D02*
X111355000Y-109410000D01*
G75*
G02*
X111580000Y-109185000I225000J0D01*
G01*
X112030000Y-109185000D01*
G75*
G02*
X112255000Y-109410000I0J-225000D01*
G01*
X112255000Y-109910000D01*
G75*
G02*
X112030000Y-110135000I-225000J0D01*
G01*
X111580000Y-110135000D01*
G75*
G02*
X111355000Y-109910000I0J225000D01*
G01*
G37*
G36*
G01*
X112905000Y-109910000D02*
X112905000Y-109410000D01*
G75*
G02*
X113130000Y-109185000I225000J0D01*
G01*
X113580000Y-109185000D01*
G75*
G02*
X113805000Y-109410000I0J-225000D01*
G01*
X113805000Y-109910000D01*
G75*
G02*
X113580000Y-110135000I-225000J0D01*
G01*
X113130000Y-110135000D01*
G75*
G02*
X112905000Y-109910000I0J225000D01*
G01*
G37*
G04 #@! TD*
G04 #@! TO.C,C10*
G36*
G01*
X161355000Y-75910000D02*
X161355000Y-75410000D01*
G75*
G02*
X161580000Y-75185000I225000J0D01*
G01*
X162030000Y-75185000D01*
G75*
G02*
X162255000Y-75410000I0J-225000D01*
G01*
X162255000Y-75910000D01*
G75*
G02*
X162030000Y-76135000I-225000J0D01*
G01*
X161580000Y-76135000D01*
G75*
G02*
X161355000Y-75910000I0J225000D01*
G01*
G37*
G36*
G01*
X162905000Y-75910000D02*
X162905000Y-75410000D01*
G75*
G02*
X163130000Y-75185000I225000J0D01*
G01*
X163580000Y-75185000D01*
G75*
G02*
X163805000Y-75410000I0J-225000D01*
G01*
X163805000Y-75910000D01*
G75*
G02*
X163580000Y-76135000I-225000J0D01*
G01*
X163130000Y-76135000D01*
G75*
G02*
X162905000Y-75910000I0J225000D01*
G01*
G37*
G04 #@! TD*
G04 #@! TO.C,L2*
G36*
G01*
X162076250Y-113165000D02*
X161563750Y-113165000D01*
G75*
G02*
X161345000Y-112946250I0J218750D01*
G01*
X161345000Y-112508750D01*
G75*
G02*
X161563750Y-112290000I218750J0D01*
G01*
X162076250Y-112290000D01*
G75*
G02*
X162295000Y-112508750I0J-218750D01*
G01*
X162295000Y-112946250D01*
G75*
G02*
X162076250Y-113165000I-218750J0D01*
G01*
G37*
G36*
G01*
X162076250Y-111590000D02*
X161563750Y-111590000D01*
G75*
G02*
X161345000Y-111371250I0J218750D01*
G01*
X161345000Y-110933750D01*
G75*
G02*
X161563750Y-110715000I218750J0D01*
G01*
X162076250Y-110715000D01*
G75*
G02*
X162295000Y-110933750I0J-218750D01*
G01*
X162295000Y-111371250D01*
G75*
G02*
X162076250Y-111590000I-218750J0D01*
G01*
G37*
G04 #@! TD*
G04 #@! TO.C,L2*
G36*
G01*
X112076250Y-113165000D02*
X111563750Y-113165000D01*
G75*
G02*
X111345000Y-112946250I0J218750D01*
G01*
X111345000Y-112508750D01*
G75*
G02*
X111563750Y-112290000I218750J0D01*
G01*
X112076250Y-112290000D01*
G75*
G02*
X112295000Y-112508750I0J-218750D01*
G01*
X112295000Y-112946250D01*
G75*
G02*
X112076250Y-113165000I-218750J0D01*
G01*
G37*
G36*
G01*
X112076250Y-111590000D02*
X111563750Y-111590000D01*
G75*
G02*
X111345000Y-111371250I0J218750D01*
G01*
X111345000Y-110933750D01*
G75*
G02*
X111563750Y-110715000I218750J0D01*
G01*
X112076250Y-110715000D01*
G75*
G02*
X112295000Y-110933750I0J-218750D01*
G01*
X112295000Y-111371250D01*
G75*
G02*
X112076250Y-111590000I-218750J0D01*
G01*
G37*
G04 #@! TD*
G04 #@! TO.C,L2*
G36*
G01*
X162076250Y-79165000D02*
X161563750Y-79165000D01*
G75*
G02*
X161345000Y-78946250I0J218750D01*
G01*
X161345000Y-78508750D01*
G75*
G02*
X161563750Y-78290000I218750J0D01*
G01*
X162076250Y-78290000D01*
G75*
G02*
X162295000Y-78508750I0J-218750D01*
G01*
X162295000Y-78946250D01*
G75*
G02*
X162076250Y-79165000I-218750J0D01*
G01*
G37*
G36*
G01*
X162076250Y-77590000D02*
X161563750Y-77590000D01*
G75*
G02*
X161345000Y-77371250I0J218750D01*
G01*
X161345000Y-76933750D01*
G75*
G02*
X161563750Y-76715000I218750J0D01*
G01*
X162076250Y-76715000D01*
G75*
G02*
X162295000Y-76933750I0J-218750D01*
G01*
X162295000Y-77371250D01*
G75*
G02*
X162076250Y-77590000I-218750J0D01*
G01*
G37*
G04 #@! TD*
D13*
G04 #@! TO.C,U4*
X174420000Y-112410000D03*
D14*
X168120000Y-112410000D03*
X168120000Y-114710000D03*
X168120000Y-110110000D03*
G04 #@! TD*
D13*
G04 #@! TO.C,U4*
X124420000Y-112410000D03*
D14*
X118120000Y-112410000D03*
X118120000Y-114710000D03*
X118120000Y-110110000D03*
G04 #@! TD*
D13*
G04 #@! TO.C,U4*
X174420000Y-78410000D03*
D14*
X168120000Y-78410000D03*
X168120000Y-80710000D03*
X168120000Y-76110000D03*
G04 #@! TD*
G04 #@! TO.C,R10*
G36*
G01*
X176825000Y-111295000D02*
X176825000Y-110745000D01*
G75*
G02*
X177025000Y-110545000I200000J0D01*
G01*
X177425000Y-110545000D01*
G75*
G02*
X177625000Y-110745000I0J-200000D01*
G01*
X177625000Y-111295000D01*
G75*
G02*
X177425000Y-111495000I-200000J0D01*
G01*
X177025000Y-111495000D01*
G75*
G02*
X176825000Y-111295000I0J200000D01*
G01*
G37*
G36*
G01*
X178475000Y-111295000D02*
X178475000Y-110745000D01*
G75*
G02*
X178675000Y-110545000I200000J0D01*
G01*
X179075000Y-110545000D01*
G75*
G02*
X179275000Y-110745000I0J-200000D01*
G01*
X179275000Y-111295000D01*
G75*
G02*
X179075000Y-111495000I-200000J0D01*
G01*
X178675000Y-111495000D01*
G75*
G02*
X178475000Y-111295000I0J200000D01*
G01*
G37*
G04 #@! TD*
G04 #@! TO.C,R10*
G36*
G01*
X126825000Y-111295000D02*
X126825000Y-110745000D01*
G75*
G02*
X127025000Y-110545000I200000J0D01*
G01*
X127425000Y-110545000D01*
G75*
G02*
X127625000Y-110745000I0J-200000D01*
G01*
X127625000Y-111295000D01*
G75*
G02*
X127425000Y-111495000I-200000J0D01*
G01*
X127025000Y-111495000D01*
G75*
G02*
X126825000Y-111295000I0J200000D01*
G01*
G37*
G36*
G01*
X128475000Y-111295000D02*
X128475000Y-110745000D01*
G75*
G02*
X128675000Y-110545000I200000J0D01*
G01*
X129075000Y-110545000D01*
G75*
G02*
X129275000Y-110745000I0J-200000D01*
G01*
X129275000Y-111295000D01*
G75*
G02*
X129075000Y-111495000I-200000J0D01*
G01*
X128675000Y-111495000D01*
G75*
G02*
X128475000Y-111295000I0J200000D01*
G01*
G37*
G04 #@! TD*
G04 #@! TO.C,R10*
G36*
G01*
X176825000Y-77295000D02*
X176825000Y-76745000D01*
G75*
G02*
X177025000Y-76545000I200000J0D01*
G01*
X177425000Y-76545000D01*
G75*
G02*
X177625000Y-76745000I0J-200000D01*
G01*
X177625000Y-77295000D01*
G75*
G02*
X177425000Y-77495000I-200000J0D01*
G01*
X177025000Y-77495000D01*
G75*
G02*
X176825000Y-77295000I0J200000D01*
G01*
G37*
G36*
G01*
X178475000Y-77295000D02*
X178475000Y-76745000D01*
G75*
G02*
X178675000Y-76545000I200000J0D01*
G01*
X179075000Y-76545000D01*
G75*
G02*
X179275000Y-76745000I0J-200000D01*
G01*
X179275000Y-77295000D01*
G75*
G02*
X179075000Y-77495000I-200000J0D01*
G01*
X178675000Y-77495000D01*
G75*
G02*
X178475000Y-77295000I0J200000D01*
G01*
G37*
G04 #@! TD*
G04 #@! TO.C,C18*
G36*
G01*
X166670000Y-94245000D02*
X167170000Y-94245000D01*
G75*
G02*
X167395000Y-94470000I0J-225000D01*
G01*
X167395000Y-94920000D01*
G75*
G02*
X167170000Y-95145000I-225000J0D01*
G01*
X166670000Y-95145000D01*
G75*
G02*
X166445000Y-94920000I0J225000D01*
G01*
X166445000Y-94470000D01*
G75*
G02*
X166670000Y-94245000I225000J0D01*
G01*
G37*
G36*
G01*
X166670000Y-95795000D02*
X167170000Y-95795000D01*
G75*
G02*
X167395000Y-96020000I0J-225000D01*
G01*
X167395000Y-96470000D01*
G75*
G02*
X167170000Y-96695000I-225000J0D01*
G01*
X166670000Y-96695000D01*
G75*
G02*
X166445000Y-96470000I0J225000D01*
G01*
X166445000Y-96020000D01*
G75*
G02*
X166670000Y-95795000I225000J0D01*
G01*
G37*
G04 #@! TD*
G04 #@! TO.C,C18*
G36*
G01*
X116670000Y-94245000D02*
X117170000Y-94245000D01*
G75*
G02*
X117395000Y-94470000I0J-225000D01*
G01*
X117395000Y-94920000D01*
G75*
G02*
X117170000Y-95145000I-225000J0D01*
G01*
X116670000Y-95145000D01*
G75*
G02*
X116445000Y-94920000I0J225000D01*
G01*
X116445000Y-94470000D01*
G75*
G02*
X116670000Y-94245000I225000J0D01*
G01*
G37*
G36*
G01*
X116670000Y-95795000D02*
X117170000Y-95795000D01*
G75*
G02*
X117395000Y-96020000I0J-225000D01*
G01*
X117395000Y-96470000D01*
G75*
G02*
X117170000Y-96695000I-225000J0D01*
G01*
X116670000Y-96695000D01*
G75*
G02*
X116445000Y-96470000I0J225000D01*
G01*
X116445000Y-96020000D01*
G75*
G02*
X116670000Y-95795000I225000J0D01*
G01*
G37*
G04 #@! TD*
G04 #@! TO.C,C18*
G36*
G01*
X166670000Y-60245000D02*
X167170000Y-60245000D01*
G75*
G02*
X167395000Y-60470000I0J-225000D01*
G01*
X167395000Y-60920000D01*
G75*
G02*
X167170000Y-61145000I-225000J0D01*
G01*
X166670000Y-61145000D01*
G75*
G02*
X166445000Y-60920000I0J225000D01*
G01*
X166445000Y-60470000D01*
G75*
G02*
X166670000Y-60245000I225000J0D01*
G01*
G37*
G36*
G01*
X166670000Y-61795000D02*
X167170000Y-61795000D01*
G75*
G02*
X167395000Y-62020000I0J-225000D01*
G01*
X167395000Y-62470000D01*
G75*
G02*
X167170000Y-62695000I-225000J0D01*
G01*
X166670000Y-62695000D01*
G75*
G02*
X166445000Y-62470000I0J225000D01*
G01*
X166445000Y-62020000D01*
G75*
G02*
X166670000Y-61795000I225000J0D01*
G01*
G37*
G04 #@! TD*
G04 #@! TO.C,C5*
G36*
G01*
X112240000Y-71035000D02*
X111740000Y-71035000D01*
G75*
G02*
X111515000Y-70810000I0J225000D01*
G01*
X111515000Y-70360000D01*
G75*
G02*
X111740000Y-70135000I225000J0D01*
G01*
X112240000Y-70135000D01*
G75*
G02*
X112465000Y-70360000I0J-225000D01*
G01*
X112465000Y-70810000D01*
G75*
G02*
X112240000Y-71035000I-225000J0D01*
G01*
G37*
G36*
G01*
X112240000Y-69485000D02*
X111740000Y-69485000D01*
G75*
G02*
X111515000Y-69260000I0J225000D01*
G01*
X111515000Y-68810000D01*
G75*
G02*
X111740000Y-68585000I225000J0D01*
G01*
X112240000Y-68585000D01*
G75*
G02*
X112465000Y-68810000I0J-225000D01*
G01*
X112465000Y-69260000D01*
G75*
G02*
X112240000Y-69485000I-225000J0D01*
G01*
G37*
G04 #@! TD*
G04 #@! TO.C,C13*
G36*
G01*
X122125000Y-67030000D02*
X122125000Y-67530000D01*
G75*
G02*
X121900000Y-67755000I-225000J0D01*
G01*
X121450000Y-67755000D01*
G75*
G02*
X121225000Y-67530000I0J225000D01*
G01*
X121225000Y-67030000D01*
G75*
G02*
X121450000Y-66805000I225000J0D01*
G01*
X121900000Y-66805000D01*
G75*
G02*
X122125000Y-67030000I0J-225000D01*
G01*
G37*
G36*
G01*
X123675000Y-67030000D02*
X123675000Y-67530000D01*
G75*
G02*
X123450000Y-67755000I-225000J0D01*
G01*
X123000000Y-67755000D01*
G75*
G02*
X122775000Y-67530000I0J225000D01*
G01*
X122775000Y-67030000D01*
G75*
G02*
X123000000Y-66805000I225000J0D01*
G01*
X123450000Y-66805000D01*
G75*
G02*
X123675000Y-67030000I0J-225000D01*
G01*
G37*
G04 #@! TD*
G04 #@! TO.C,R7*
G36*
G01*
X128475000Y-78825000D02*
X128475000Y-78275000D01*
G75*
G02*
X128675000Y-78075000I200000J0D01*
G01*
X129075000Y-78075000D01*
G75*
G02*
X129275000Y-78275000I0J-200000D01*
G01*
X129275000Y-78825000D01*
G75*
G02*
X129075000Y-79025000I-200000J0D01*
G01*
X128675000Y-79025000D01*
G75*
G02*
X128475000Y-78825000I0J200000D01*
G01*
G37*
G36*
G01*
X126825000Y-78825000D02*
X126825000Y-78275000D01*
G75*
G02*
X127025000Y-78075000I200000J0D01*
G01*
X127425000Y-78075000D01*
G75*
G02*
X127625000Y-78275000I0J-200000D01*
G01*
X127625000Y-78825000D01*
G75*
G02*
X127425000Y-79025000I-200000J0D01*
G01*
X127025000Y-79025000D01*
G75*
G02*
X126825000Y-78825000I0J200000D01*
G01*
G37*
G04 #@! TD*
G04 #@! TO.C,D3*
G36*
G01*
X130730000Y-78293750D02*
X130730000Y-78806250D01*
G75*
G02*
X130511250Y-79025000I-218750J0D01*
G01*
X130073750Y-79025000D01*
G75*
G02*
X129855000Y-78806250I0J218750D01*
G01*
X129855000Y-78293750D01*
G75*
G02*
X130073750Y-78075000I218750J0D01*
G01*
X130511250Y-78075000D01*
G75*
G02*
X130730000Y-78293750I0J-218750D01*
G01*
G37*
G36*
G01*
X132305000Y-78293750D02*
X132305000Y-78806250D01*
G75*
G02*
X132086250Y-79025000I-218750J0D01*
G01*
X131648750Y-79025000D01*
G75*
G02*
X131430000Y-78806250I0J218750D01*
G01*
X131430000Y-78293750D01*
G75*
G02*
X131648750Y-78075000I218750J0D01*
G01*
X132086250Y-78075000D01*
G75*
G02*
X132305000Y-78293750I0J-218750D01*
G01*
G37*
G04 #@! TD*
D10*
G04 #@! TO.C,D2*
X108700000Y-73990000D03*
X108700000Y-76790000D03*
G04 #@! TD*
G04 #@! TO.C,C18*
G36*
G01*
X116670000Y-61795000D02*
X117170000Y-61795000D01*
G75*
G02*
X117395000Y-62020000I0J-225000D01*
G01*
X117395000Y-62470000D01*
G75*
G02*
X117170000Y-62695000I-225000J0D01*
G01*
X116670000Y-62695000D01*
G75*
G02*
X116445000Y-62470000I0J225000D01*
G01*
X116445000Y-62020000D01*
G75*
G02*
X116670000Y-61795000I225000J0D01*
G01*
G37*
G36*
G01*
X116670000Y-60245000D02*
X117170000Y-60245000D01*
G75*
G02*
X117395000Y-60470000I0J-225000D01*
G01*
X117395000Y-60920000D01*
G75*
G02*
X117170000Y-61145000I-225000J0D01*
G01*
X116670000Y-61145000D01*
G75*
G02*
X116445000Y-60920000I0J225000D01*
G01*
X116445000Y-60470000D01*
G75*
G02*
X116670000Y-60245000I225000J0D01*
G01*
G37*
G04 #@! TD*
G04 #@! TO.C,L2*
G36*
G01*
X112076250Y-77590000D02*
X111563750Y-77590000D01*
G75*
G02*
X111345000Y-77371250I0J218750D01*
G01*
X111345000Y-76933750D01*
G75*
G02*
X111563750Y-76715000I218750J0D01*
G01*
X112076250Y-76715000D01*
G75*
G02*
X112295000Y-76933750I0J-218750D01*
G01*
X112295000Y-77371250D01*
G75*
G02*
X112076250Y-77590000I-218750J0D01*
G01*
G37*
G36*
G01*
X112076250Y-79165000D02*
X111563750Y-79165000D01*
G75*
G02*
X111345000Y-78946250I0J218750D01*
G01*
X111345000Y-78508750D01*
G75*
G02*
X111563750Y-78290000I218750J0D01*
G01*
X112076250Y-78290000D01*
G75*
G02*
X112295000Y-78508750I0J-218750D01*
G01*
X112295000Y-78946250D01*
G75*
G02*
X112076250Y-79165000I-218750J0D01*
G01*
G37*
G04 #@! TD*
D14*
G04 #@! TO.C,U4*
X118120000Y-76110000D03*
X118120000Y-80710000D03*
X118120000Y-78410000D03*
D13*
X124420000Y-78410000D03*
G04 #@! TD*
G04 #@! TO.C,R10*
G36*
G01*
X128475000Y-77295000D02*
X128475000Y-76745000D01*
G75*
G02*
X128675000Y-76545000I200000J0D01*
G01*
X129075000Y-76545000D01*
G75*
G02*
X129275000Y-76745000I0J-200000D01*
G01*
X129275000Y-77295000D01*
G75*
G02*
X129075000Y-77495000I-200000J0D01*
G01*
X128675000Y-77495000D01*
G75*
G02*
X128475000Y-77295000I0J200000D01*
G01*
G37*
G36*
G01*
X126825000Y-77295000D02*
X126825000Y-76745000D01*
G75*
G02*
X127025000Y-76545000I200000J0D01*
G01*
X127425000Y-76545000D01*
G75*
G02*
X127625000Y-76745000I0J-200000D01*
G01*
X127625000Y-77295000D01*
G75*
G02*
X127425000Y-77495000I-200000J0D01*
G01*
X127025000Y-77495000D01*
G75*
G02*
X126825000Y-77295000I0J200000D01*
G01*
G37*
G04 #@! TD*
G04 #@! TO.C,R1*
G36*
G01*
X122715000Y-58825000D02*
X122165000Y-58825000D01*
G75*
G02*
X121965000Y-58625000I0J200000D01*
G01*
X121965000Y-58225000D01*
G75*
G02*
X122165000Y-58025000I200000J0D01*
G01*
X122715000Y-58025000D01*
G75*
G02*
X122915000Y-58225000I0J-200000D01*
G01*
X122915000Y-58625000D01*
G75*
G02*
X122715000Y-58825000I-200000J0D01*
G01*
G37*
G36*
G01*
X122715000Y-60475000D02*
X122165000Y-60475000D01*
G75*
G02*
X121965000Y-60275000I0J200000D01*
G01*
X121965000Y-59875000D01*
G75*
G02*
X122165000Y-59675000I200000J0D01*
G01*
X122715000Y-59675000D01*
G75*
G02*
X122915000Y-59875000I0J-200000D01*
G01*
X122915000Y-60275000D01*
G75*
G02*
X122715000Y-60475000I-200000J0D01*
G01*
G37*
G04 #@! TD*
G04 #@! TO.C,L1*
G36*
G01*
X109850000Y-80976250D02*
X109850000Y-80463750D01*
G75*
G02*
X110068750Y-80245000I218750J0D01*
G01*
X110506250Y-80245000D01*
G75*
G02*
X110725000Y-80463750I0J-218750D01*
G01*
X110725000Y-80976250D01*
G75*
G02*
X110506250Y-81195000I-218750J0D01*
G01*
X110068750Y-81195000D01*
G75*
G02*
X109850000Y-80976250I0J218750D01*
G01*
G37*
G36*
G01*
X108275000Y-80976250D02*
X108275000Y-80463750D01*
G75*
G02*
X108493750Y-80245000I218750J0D01*
G01*
X108931250Y-80245000D01*
G75*
G02*
X109150000Y-80463750I0J-218750D01*
G01*
X109150000Y-80976250D01*
G75*
G02*
X108931250Y-81195000I-218750J0D01*
G01*
X108493750Y-81195000D01*
G75*
G02*
X108275000Y-80976250I0J218750D01*
G01*
G37*
G04 #@! TD*
G04 #@! TO.C,D4*
G36*
G01*
X130726000Y-76769750D02*
X130726000Y-77282250D01*
G75*
G02*
X130507250Y-77501000I-218750J0D01*
G01*
X130069750Y-77501000D01*
G75*
G02*
X129851000Y-77282250I0J218750D01*
G01*
X129851000Y-76769750D01*
G75*
G02*
X130069750Y-76551000I218750J0D01*
G01*
X130507250Y-76551000D01*
G75*
G02*
X130726000Y-76769750I0J-218750D01*
G01*
G37*
G36*
G01*
X132301000Y-76769750D02*
X132301000Y-77282250D01*
G75*
G02*
X132082250Y-77501000I-218750J0D01*
G01*
X131644750Y-77501000D01*
G75*
G02*
X131426000Y-77282250I0J218750D01*
G01*
X131426000Y-76769750D01*
G75*
G02*
X131644750Y-76551000I218750J0D01*
G01*
X132082250Y-76551000D01*
G75*
G02*
X132301000Y-76769750I0J-218750D01*
G01*
G37*
G04 #@! TD*
D12*
G04 #@! TO.C,D1*
X110390000Y-67690000D03*
X108490000Y-67690000D03*
X108490000Y-65490000D03*
D11*
X110210000Y-65490000D03*
G04 #@! TD*
G04 #@! TO.C,C17*
G36*
G01*
X118830000Y-61793000D02*
X119330000Y-61793000D01*
G75*
G02*
X119555000Y-62018000I0J-225000D01*
G01*
X119555000Y-62468000D01*
G75*
G02*
X119330000Y-62693000I-225000J0D01*
G01*
X118830000Y-62693000D01*
G75*
G02*
X118605000Y-62468000I0J225000D01*
G01*
X118605000Y-62018000D01*
G75*
G02*
X118830000Y-61793000I225000J0D01*
G01*
G37*
G36*
G01*
X118830000Y-60243000D02*
X119330000Y-60243000D01*
G75*
G02*
X119555000Y-60468000I0J-225000D01*
G01*
X119555000Y-60918000D01*
G75*
G02*
X119330000Y-61143000I-225000J0D01*
G01*
X118830000Y-61143000D01*
G75*
G02*
X118605000Y-60918000I0J225000D01*
G01*
X118605000Y-60468000D01*
G75*
G02*
X118830000Y-60243000I225000J0D01*
G01*
G37*
G04 #@! TD*
G04 #@! TO.C,C15*
G36*
G01*
X118380000Y-71035000D02*
X117880000Y-71035000D01*
G75*
G02*
X117655000Y-70810000I0J225000D01*
G01*
X117655000Y-70360000D01*
G75*
G02*
X117880000Y-70135000I225000J0D01*
G01*
X118380000Y-70135000D01*
G75*
G02*
X118605000Y-70360000I0J-225000D01*
G01*
X118605000Y-70810000D01*
G75*
G02*
X118380000Y-71035000I-225000J0D01*
G01*
G37*
G36*
G01*
X118380000Y-69485000D02*
X117880000Y-69485000D01*
G75*
G02*
X117655000Y-69260000I0J225000D01*
G01*
X117655000Y-68810000D01*
G75*
G02*
X117880000Y-68585000I225000J0D01*
G01*
X118380000Y-68585000D01*
G75*
G02*
X118605000Y-68810000I0J-225000D01*
G01*
X118605000Y-69260000D01*
G75*
G02*
X118380000Y-69485000I-225000J0D01*
G01*
G37*
G04 #@! TD*
G04 #@! TO.C,C11*
G36*
G01*
X116370000Y-71045000D02*
X115870000Y-71045000D01*
G75*
G02*
X115645000Y-70820000I0J225000D01*
G01*
X115645000Y-70370000D01*
G75*
G02*
X115870000Y-70145000I225000J0D01*
G01*
X116370000Y-70145000D01*
G75*
G02*
X116595000Y-70370000I0J-225000D01*
G01*
X116595000Y-70820000D01*
G75*
G02*
X116370000Y-71045000I-225000J0D01*
G01*
G37*
G36*
G01*
X116370000Y-69495000D02*
X115870000Y-69495000D01*
G75*
G02*
X115645000Y-69270000I0J225000D01*
G01*
X115645000Y-68820000D01*
G75*
G02*
X115870000Y-68595000I225000J0D01*
G01*
X116370000Y-68595000D01*
G75*
G02*
X116595000Y-68820000I0J-225000D01*
G01*
X116595000Y-69270000D01*
G75*
G02*
X116370000Y-69495000I-225000J0D01*
G01*
G37*
G04 #@! TD*
G04 #@! TO.C,C10*
G36*
G01*
X112905000Y-75910000D02*
X112905000Y-75410000D01*
G75*
G02*
X113130000Y-75185000I225000J0D01*
G01*
X113580000Y-75185000D01*
G75*
G02*
X113805000Y-75410000I0J-225000D01*
G01*
X113805000Y-75910000D01*
G75*
G02*
X113580000Y-76135000I-225000J0D01*
G01*
X113130000Y-76135000D01*
G75*
G02*
X112905000Y-75910000I0J225000D01*
G01*
G37*
G36*
G01*
X111355000Y-75910000D02*
X111355000Y-75410000D01*
G75*
G02*
X111580000Y-75185000I225000J0D01*
G01*
X112030000Y-75185000D01*
G75*
G02*
X112255000Y-75410000I0J-225000D01*
G01*
X112255000Y-75910000D01*
G75*
G02*
X112030000Y-76135000I-225000J0D01*
G01*
X111580000Y-76135000D01*
G75*
G02*
X111355000Y-75910000I0J225000D01*
G01*
G37*
G04 #@! TD*
G04 #@! TO.C,C9*
G36*
G01*
X113240000Y-65045000D02*
X113740000Y-65045000D01*
G75*
G02*
X113965000Y-65270000I0J-225000D01*
G01*
X113965000Y-65720000D01*
G75*
G02*
X113740000Y-65945000I-225000J0D01*
G01*
X113240000Y-65945000D01*
G75*
G02*
X113015000Y-65720000I0J225000D01*
G01*
X113015000Y-65270000D01*
G75*
G02*
X113240000Y-65045000I225000J0D01*
G01*
G37*
G36*
G01*
X113240000Y-63495000D02*
X113740000Y-63495000D01*
G75*
G02*
X113965000Y-63720000I0J-225000D01*
G01*
X113965000Y-64170000D01*
G75*
G02*
X113740000Y-64395000I-225000J0D01*
G01*
X113240000Y-64395000D01*
G75*
G02*
X113015000Y-64170000I0J225000D01*
G01*
X113015000Y-63720000D01*
G75*
G02*
X113240000Y-63495000I225000J0D01*
G01*
G37*
G04 #@! TD*
G04 #@! TO.C,C8*
G36*
G01*
X114750000Y-65045000D02*
X115250000Y-65045000D01*
G75*
G02*
X115475000Y-65270000I0J-225000D01*
G01*
X115475000Y-65720000D01*
G75*
G02*
X115250000Y-65945000I-225000J0D01*
G01*
X114750000Y-65945000D01*
G75*
G02*
X114525000Y-65720000I0J225000D01*
G01*
X114525000Y-65270000D01*
G75*
G02*
X114750000Y-65045000I225000J0D01*
G01*
G37*
G36*
G01*
X114750000Y-63495000D02*
X115250000Y-63495000D01*
G75*
G02*
X115475000Y-63720000I0J-225000D01*
G01*
X115475000Y-64170000D01*
G75*
G02*
X115250000Y-64395000I-225000J0D01*
G01*
X114750000Y-64395000D01*
G75*
G02*
X114525000Y-64170000I0J225000D01*
G01*
X114525000Y-63720000D01*
G75*
G02*
X114750000Y-63495000I225000J0D01*
G01*
G37*
G04 #@! TD*
G04 #@! TO.C,C6*
G36*
G01*
X114360000Y-71035000D02*
X113860000Y-71035000D01*
G75*
G02*
X113635000Y-70810000I0J225000D01*
G01*
X113635000Y-70360000D01*
G75*
G02*
X113860000Y-70135000I225000J0D01*
G01*
X114360000Y-70135000D01*
G75*
G02*
X114585000Y-70360000I0J-225000D01*
G01*
X114585000Y-70810000D01*
G75*
G02*
X114360000Y-71035000I-225000J0D01*
G01*
G37*
G36*
G01*
X114360000Y-69485000D02*
X113860000Y-69485000D01*
G75*
G02*
X113635000Y-69260000I0J225000D01*
G01*
X113635000Y-68810000D01*
G75*
G02*
X113860000Y-68585000I225000J0D01*
G01*
X114360000Y-68585000D01*
G75*
G02*
X114585000Y-68810000I0J-225000D01*
G01*
X114585000Y-69260000D01*
G75*
G02*
X114360000Y-69485000I-225000J0D01*
G01*
G37*
G04 #@! TD*
G04 #@! TO.C,C4*
G36*
G01*
X115470000Y-81815000D02*
X115970000Y-81815000D01*
G75*
G02*
X116195000Y-82040000I0J-225000D01*
G01*
X116195000Y-82490000D01*
G75*
G02*
X115970000Y-82715000I-225000J0D01*
G01*
X115470000Y-82715000D01*
G75*
G02*
X115245000Y-82490000I0J225000D01*
G01*
X115245000Y-82040000D01*
G75*
G02*
X115470000Y-81815000I225000J0D01*
G01*
G37*
G36*
G01*
X115470000Y-80265000D02*
X115970000Y-80265000D01*
G75*
G02*
X116195000Y-80490000I0J-225000D01*
G01*
X116195000Y-80940000D01*
G75*
G02*
X115970000Y-81165000I-225000J0D01*
G01*
X115470000Y-81165000D01*
G75*
G02*
X115245000Y-80940000I0J225000D01*
G01*
X115245000Y-80490000D01*
G75*
G02*
X115470000Y-80265000I225000J0D01*
G01*
G37*
G04 #@! TD*
G04 #@! TO.C,C3*
G36*
G01*
X112010000Y-81805000D02*
X112510000Y-81805000D01*
G75*
G02*
X112735000Y-82030000I0J-225000D01*
G01*
X112735000Y-82480000D01*
G75*
G02*
X112510000Y-82705000I-225000J0D01*
G01*
X112010000Y-82705000D01*
G75*
G02*
X111785000Y-82480000I0J225000D01*
G01*
X111785000Y-82030000D01*
G75*
G02*
X112010000Y-81805000I225000J0D01*
G01*
G37*
G36*
G01*
X112010000Y-80255000D02*
X112510000Y-80255000D01*
G75*
G02*
X112735000Y-80480000I0J-225000D01*
G01*
X112735000Y-80930000D01*
G75*
G02*
X112510000Y-81155000I-225000J0D01*
G01*
X112010000Y-81155000D01*
G75*
G02*
X111785000Y-80930000I0J225000D01*
G01*
X111785000Y-80480000D01*
G75*
G02*
X112010000Y-80255000I225000J0D01*
G01*
G37*
G04 #@! TD*
G04 #@! TO.C,C1*
G36*
G01*
X110660000Y-53445000D02*
X111160000Y-53445000D01*
G75*
G02*
X111385000Y-53670000I0J-225000D01*
G01*
X111385000Y-54120000D01*
G75*
G02*
X111160000Y-54345000I-225000J0D01*
G01*
X110660000Y-54345000D01*
G75*
G02*
X110435000Y-54120000I0J225000D01*
G01*
X110435000Y-53670000D01*
G75*
G02*
X110660000Y-53445000I225000J0D01*
G01*
G37*
G36*
G01*
X110660000Y-51895000D02*
X111160000Y-51895000D01*
G75*
G02*
X111385000Y-52120000I0J-225000D01*
G01*
X111385000Y-52570000D01*
G75*
G02*
X111160000Y-52795000I-225000J0D01*
G01*
X110660000Y-52795000D01*
G75*
G02*
X110435000Y-52570000I0J225000D01*
G01*
X110435000Y-52120000D01*
G75*
G02*
X110660000Y-51895000I225000J0D01*
G01*
G37*
G04 #@! TD*
M02*
