G04 #@! TF.GenerationSoftware,KiCad,Pcbnew,(5.1.10-1-10_14)*
G04 #@! TF.CreationDate,2022-06-03T02:43:26+09:00*
G04 #@! TF.ProjectId,cmsis-dap_rp2040,636d7369-732d-4646-9170-5f7270323034,rev?*
G04 #@! TF.SameCoordinates,Original*
G04 #@! TF.FileFunction,Profile,NP*
%FSLAX46Y46*%
G04 Gerber Fmt 4.6, Leading zero omitted, Abs format (unit mm)*
G04 Created by KiCad (PCBNEW (5.1.10-1-10_14)) date 2022-06-03 02:43:26*
%MOMM*%
%LPD*%
G01*
G04 APERTURE LIST*
G04 #@! TA.AperFunction,Profile*
%ADD10C,0.050000*%
G04 #@! TD*
G04 APERTURE END LIST*
D10*
X150020000Y-48560000D02*
X149190000Y-47840000D01*
X149560000Y-43780000D02*
X149270000Y-44200000D01*
X149170000Y-40730000D02*
X150650000Y-40730000D01*
X149200000Y-43190000D02*
X150480000Y-43190000D01*
X149760000Y-45150000D02*
X150480000Y-45140000D01*
X150840000Y-42810000D02*
X150830000Y-42120000D01*
X150740000Y-45870000D02*
X149300000Y-45520000D01*
X149260000Y-44770000D02*
X149760000Y-45150000D01*
X149580000Y-41220000D02*
X149580000Y-40150000D01*
X150000000Y-48510000D02*
X150000000Y-46860000D01*
X150420000Y-41850000D02*
X149280000Y-41850000D01*
X150480000Y-45140000D02*
X150790000Y-44850000D01*
X150480000Y-43190000D02*
X150840000Y-42810000D01*
X150790000Y-44850000D02*
X150840000Y-44240000D01*
X150840000Y-44240000D02*
X150360000Y-43800000D01*
X150030000Y-48540000D02*
X150720000Y-47790000D01*
X149270000Y-44200000D02*
X149260000Y-44770000D01*
X150830000Y-42120000D02*
X150420000Y-41850000D01*
X149300000Y-46350000D02*
X150740000Y-45870000D01*
X208560000Y-83150000D02*
X208560000Y-84630000D01*
X208070000Y-83560000D02*
X209140000Y-83560000D01*
X207440000Y-84400000D02*
X207440000Y-83260000D01*
X207170000Y-84810000D02*
X207440000Y-84400000D01*
X206480000Y-84820000D02*
X207170000Y-84810000D01*
X206100000Y-84460000D02*
X206480000Y-84820000D01*
X206100000Y-83180000D02*
X206100000Y-84460000D01*
X205050000Y-84820000D02*
X205490000Y-84340000D01*
X204440000Y-84770000D02*
X205050000Y-84820000D01*
X204150000Y-84460000D02*
X204440000Y-84770000D01*
X204140000Y-83740000D02*
X204150000Y-84460000D01*
X204520000Y-83240000D02*
X204140000Y-83740000D01*
X205090000Y-83250000D02*
X204520000Y-83240000D01*
X205510000Y-83540000D02*
X205090000Y-83250000D01*
X203420000Y-84720000D02*
X203770000Y-83280000D01*
X202940000Y-83280000D02*
X203420000Y-84720000D01*
X200780000Y-83980000D02*
X202430000Y-83980000D01*
X200750000Y-84010000D02*
X201500000Y-84700000D01*
X200730000Y-84000000D02*
X201450000Y-83170000D01*
X200000000Y-84000000D02*
X150000000Y-84000000D01*
X150000000Y-84000000D02*
X100000000Y-84000000D01*
X200000000Y-50000000D02*
X150000000Y-50000000D01*
X200000000Y-118000000D02*
X150000000Y-118000000D01*
X150000000Y-118000000D02*
X100000000Y-118000000D01*
X200000000Y-84000000D02*
X150000000Y-84000000D01*
X200000000Y-84000000D02*
X200000000Y-118000000D01*
X150000000Y-84000000D02*
X150000000Y-118000000D01*
X200000000Y-50000000D02*
X200000000Y-84000000D01*
X150000000Y-84000000D02*
X150000000Y-118000000D01*
X100000000Y-84000000D02*
X100000000Y-118000000D01*
X150000000Y-50000000D02*
X150000000Y-84000000D01*
X100000000Y-50000000D02*
X100000000Y-84000000D01*
X150000000Y-50000000D02*
X150000000Y-84000000D01*
X150000000Y-84000000D02*
X100000000Y-84000000D01*
X150000000Y-50000000D02*
X100000000Y-50000000D01*
M02*
