G04 #@! TF.GenerationSoftware,KiCad,Pcbnew,(5.1.10-1-10_14)*
G04 #@! TF.CreationDate,2022-04-15T02:52:12+09:00*
G04 #@! TF.ProjectId,cmsis-dap_rp2040,636d7369-732d-4646-9170-5f7270323034,rev?*
G04 #@! TF.SameCoordinates,Original*
G04 #@! TF.FileFunction,Profile,NP*
%FSLAX46Y46*%
G04 Gerber Fmt 4.6, Leading zero omitted, Abs format (unit mm)*
G04 Created by KiCad (PCBNEW (5.1.10-1-10_14)) date 2022-04-15 02:52:12*
%MOMM*%
%LPD*%
G01*
G04 APERTURE LIST*
G04 #@! TA.AperFunction,Profile*
%ADD10C,0.050000*%
G04 #@! TD*
G04 APERTURE END LIST*
D10*
X201800000Y-118230000D02*
X201650000Y-118230000D01*
X201040000Y-117880000D02*
X201170000Y-118200000D01*
X202550000Y-117900000D02*
X202950000Y-117900000D01*
X202040000Y-118130000D02*
X202150000Y-118240000D01*
X201520000Y-117940000D02*
X201620000Y-117820000D01*
X200170000Y-117990000D02*
X200460000Y-117740000D01*
X202730000Y-117790000D02*
X202730000Y-118270000D01*
X202040000Y-117840000D02*
X202040000Y-118130000D01*
X201520000Y-118120000D02*
X201520000Y-117940000D01*
X200170000Y-117990000D02*
X200880000Y-117990000D01*
X201650000Y-118230000D02*
X201520000Y-118120000D01*
X201170000Y-118200000D02*
X201300000Y-117880000D01*
X202390000Y-118130000D02*
X202390000Y-117830000D01*
X202280000Y-118240000D02*
X202390000Y-118130000D01*
X200170000Y-117990000D02*
X200460000Y-118260000D01*
X201620000Y-117820000D02*
X201790000Y-117820000D01*
X202150000Y-118240000D02*
X202280000Y-118240000D01*
X201880000Y-50240000D02*
X201730000Y-50240000D01*
X201120000Y-49890000D02*
X201250000Y-50210000D01*
X202630000Y-49910000D02*
X203030000Y-49910000D01*
X202120000Y-50140000D02*
X202230000Y-50250000D01*
X201600000Y-49950000D02*
X201700000Y-49830000D01*
X200250000Y-50000000D02*
X200540000Y-49750000D01*
X202810000Y-49800000D02*
X202810000Y-50280000D01*
X202120000Y-49850000D02*
X202120000Y-50140000D01*
X201600000Y-50130000D02*
X201600000Y-49950000D01*
X200250000Y-50000000D02*
X200960000Y-50000000D01*
X201730000Y-50240000D02*
X201600000Y-50130000D01*
X201250000Y-50210000D02*
X201380000Y-49890000D01*
X202470000Y-50140000D02*
X202470000Y-49840000D01*
X202360000Y-50250000D02*
X202470000Y-50140000D01*
X200250000Y-50000000D02*
X200540000Y-50270000D01*
X201700000Y-49830000D02*
X201870000Y-49830000D01*
X202230000Y-50250000D02*
X202360000Y-50250000D01*
X150010000Y-44640000D02*
X149760000Y-44350000D01*
X150010000Y-44640000D02*
X150010000Y-43930000D01*
X150010000Y-44640000D02*
X150280000Y-44350000D01*
X150240000Y-42900000D02*
X150240000Y-43050000D01*
X149890000Y-43660000D02*
X150210000Y-43530000D01*
X149910000Y-42150000D02*
X149910000Y-41750000D01*
X150140000Y-42660000D02*
X150250000Y-42550000D01*
X149950000Y-43180000D02*
X149830000Y-43080000D01*
X149800000Y-41970000D02*
X150280000Y-41970000D01*
X149850000Y-42660000D02*
X150140000Y-42660000D01*
X150130000Y-43180000D02*
X149950000Y-43180000D01*
X150240000Y-43050000D02*
X150130000Y-43180000D01*
X150210000Y-43530000D02*
X149890000Y-43400000D01*
X150140000Y-42310000D02*
X149840000Y-42310000D01*
X150250000Y-42420000D02*
X150140000Y-42310000D01*
X149830000Y-43080000D02*
X149830000Y-42910000D01*
X150250000Y-42550000D02*
X150250000Y-42420000D01*
X202850000Y-83800000D02*
X202850000Y-84280000D01*
X202670000Y-83910000D02*
X203070000Y-83910000D01*
X202510000Y-84140000D02*
X202510000Y-83840000D01*
X202400000Y-84250000D02*
X202510000Y-84140000D01*
X202270000Y-84250000D02*
X202400000Y-84250000D01*
X202160000Y-84140000D02*
X202270000Y-84250000D01*
X202160000Y-83850000D02*
X202160000Y-84140000D01*
X201740000Y-83830000D02*
X201910000Y-83830000D01*
X201640000Y-83950000D02*
X201740000Y-83830000D01*
X201640000Y-84130000D02*
X201640000Y-83950000D01*
X201770000Y-84240000D02*
X201640000Y-84130000D01*
X201920000Y-84240000D02*
X201770000Y-84240000D01*
X201290000Y-84210000D02*
X201420000Y-83890000D01*
X201160000Y-83890000D02*
X201290000Y-84210000D01*
X200290000Y-84000000D02*
X201000000Y-84000000D01*
X200290000Y-84000000D02*
X200580000Y-84270000D01*
X200290000Y-84000000D02*
X200580000Y-83750000D01*
X150000000Y-45000000D02*
X150000000Y-123000000D01*
X100000000Y-123000000D02*
X200000000Y-123000000D01*
X200000000Y-118000000D02*
X200000000Y-123000000D01*
X100000000Y-118000000D02*
X100000000Y-123000000D01*
X100000000Y-45000000D02*
X200000000Y-45000000D01*
X200000000Y-45000000D02*
X200000000Y-50000000D01*
X100000000Y-45000000D02*
X100000000Y-50000000D01*
X200000000Y-50000000D02*
X150000000Y-50000000D01*
X200000000Y-118000000D02*
X150000000Y-118000000D01*
X150000000Y-118000000D02*
X100000000Y-118000000D01*
X200000000Y-84000000D02*
X150000000Y-84000000D01*
X200000000Y-84000000D02*
X200000000Y-118000000D01*
X200000000Y-50000000D02*
X200000000Y-84000000D01*
X100000000Y-84000000D02*
X100000000Y-118000000D01*
X100000000Y-50000000D02*
X100000000Y-84000000D01*
X150000000Y-84000000D02*
X100000000Y-84000000D01*
X150000000Y-50000000D02*
X100000000Y-50000000D01*
M02*
