M48
; DRILL file {KiCad (5.1.10-1-10_14)} date Friday, April 15, 2022 at 02:52:46 AM
; FORMAT={-:-/ absolute / metric / decimal}
; #@! TF.CreationDate,2022-04-15T02:52:46+09:00
; #@! TF.GenerationSoftware,Kicad,Pcbnew,(5.1.10-1-10_14)
FMAT,2
METRIC
T1C0.300
T2C0.400
T3C0.600
T4C1.000
T5C3.000
%
G90
G05
T1
X100.59Y-78.57
X100.59Y-112.57
X100.6Y-55.33
X100.6Y-59.6
X100.6Y-74.6
X100.6Y-89.33
X100.6Y-93.6
X100.6Y-108.6
X103.16Y-77.42
X103.16Y-111.42
X103.44Y-56.57
X103.44Y-90.57
X105.32Y-83.44
X105.32Y-117.44
X105.42Y-50.6
X105.42Y-84.6
X105.55Y-57.52
X105.55Y-91.52
X105.71Y-78.48
X105.71Y-112.48
X105.85Y-55.47
X105.85Y-89.47
X106.54Y-81.34
X106.54Y-115.34
X106.7Y-53.46
X106.7Y-87.46
X106.89Y-59.3
X106.89Y-93.3
X106.94Y-76.15
X106.94Y-110.15
X107.49Y-66.15
X107.49Y-100.15
X107.5Y-67.0
X107.5Y-101.0
X107.86Y-69.9
X107.86Y-103.9
X107.88Y-71.12
X107.88Y-72.65
X107.88Y-105.12
X107.88Y-106.65
X107.94Y-60.4
X107.94Y-94.4
X108.32Y-83.44
X108.32Y-117.44
X108.59Y-62.77
X108.59Y-64.16
X108.59Y-96.77
X108.59Y-98.16
X109.6Y-50.6
X109.6Y-84.6
X109.67Y-52.34
X109.67Y-86.34
X109.68Y-53.18
X109.68Y-87.18
X109.71Y-56.05
X109.71Y-90.05
X110.28Y-73.88
X110.28Y-75.47
X110.28Y-107.88
X110.28Y-109.47
X110.29Y-79.58
X110.29Y-113.58
X110.35Y-69.6
X110.35Y-103.6
X110.38Y-60.495
X110.38Y-94.495
X110.41Y-62.11
X110.41Y-96.11
X110.68Y-71.34
X110.68Y-105.34
X110.91Y-56.17
X110.91Y-90.17
X110.92Y-54.85
X110.92Y-88.85
X110.98Y-81.64
X110.98Y-115.64
X111.32Y-83.44
X111.32Y-117.44
X111.63Y-58.01
X111.63Y-92.01
X111.67Y-51.5
X111.67Y-85.5
X111.78Y-71.06
X111.78Y-105.06
X112.6Y-50.6
X112.6Y-84.6
X112.99Y-54.84
X112.99Y-88.84
X113.09Y-72.58
X113.09Y-106.58
X113.11Y-53.09
X113.11Y-87.09
X113.12Y-58.04
X113.12Y-92.04
X113.24Y-71.06
X113.24Y-105.06
X113.33Y-68.32
X113.33Y-102.32
X113.37Y-74.45
X113.37Y-108.45
X114.24Y-56.15
X114.24Y-90.15
X114.26Y-73.68
X114.26Y-107.68
X114.32Y-83.44
X114.32Y-117.44
X115.6Y-50.6
X115.6Y-84.6
X115.79Y-73.68
X115.79Y-107.68
X115.94Y-67.5
X115.94Y-101.5
X115.95Y-62.93
X115.95Y-96.93
X116.59Y-59.48
X116.59Y-93.48
X116.67Y-71.06
X116.67Y-105.06
X116.94Y-58.59
X116.94Y-92.59
X117.28Y-72.67
X117.28Y-106.67
X117.32Y-83.44
X117.32Y-117.44
X117.33Y-74.35
X117.33Y-108.35
X117.9Y-71.06
X117.9Y-105.06
X118.12Y-74.35
X118.12Y-108.35
X118.17Y-56.09
X118.17Y-90.09
X118.6Y-50.6
X118.6Y-84.6
X118.66Y-59.42
X118.66Y-93.42
X118.68Y-67.49
X118.68Y-101.49
X118.88Y-74.37
X118.88Y-108.37
X119.29Y-57.55
X119.29Y-91.55
X119.32Y-53.41
X119.32Y-87.41
X119.36Y-54.95
X119.36Y-88.95
X119.39Y-51.78
X119.39Y-85.78
X119.95Y-54.18
X119.95Y-88.18
X120.32Y-83.44
X120.32Y-117.44
X120.72Y-65.04
X120.72Y-99.04
X120.76Y-62.9
X120.76Y-96.9
X120.81Y-58.69
X120.81Y-92.69
X121.0Y-74.88
X121.0Y-108.88
X121.32Y-55.57
X121.32Y-89.57
X121.57Y-73.05
X121.57Y-107.05
X121.6Y-50.6
X121.6Y-84.6
X121.71Y-68.86
X121.71Y-102.86
X121.76Y-62.02
X121.76Y-96.02
X122.39Y-70.62
X122.39Y-104.62
X122.58Y-68.45
X122.58Y-102.45
X122.62Y-56.83
X122.62Y-90.83
X122.81Y-61.88
X122.81Y-95.88
X122.87Y-58.9
X122.87Y-92.9
X123.0Y-64.1
X123.0Y-98.1
X123.27Y-68.89
X123.27Y-102.89
X123.32Y-83.44
X123.32Y-117.44
X123.34Y-72.62
X123.34Y-74.83
X123.34Y-106.62
X123.34Y-108.83
X123.59Y-70.66
X123.59Y-104.66
X123.94Y-63.0
X123.94Y-97.0
X124.37Y-58.84
X124.37Y-92.84
X124.42Y-60.71
X124.42Y-94.71
X124.6Y-50.6
X124.6Y-84.6
X124.93Y-66.4
X124.93Y-100.4
X125.21Y-72.85
X125.21Y-74.83
X125.21Y-106.85
X125.21Y-108.83
X125.22Y-54.87
X125.22Y-88.87
X125.82Y-70.85
X125.82Y-104.85
X125.96Y-58.8
X125.96Y-92.8
X126.02Y-56.82
X126.02Y-90.82
X126.25Y-55.28
X126.25Y-89.28
X126.32Y-83.44
X126.32Y-117.44
X126.67Y-61.46
X126.67Y-95.46
X126.94Y-74.83
X126.94Y-108.83
X127.37Y-60.76
X127.37Y-94.76
X127.48Y-64.82
X127.48Y-98.82
X127.52Y-72.86
X127.52Y-106.86
X127.55Y-70.82
X127.55Y-104.82
X127.56Y-65.62
X127.56Y-99.62
X127.58Y-68.94
X127.58Y-102.94
X127.6Y-50.6
X127.6Y-84.6
X128.45Y-56.79
X128.45Y-90.79
X129.09Y-58.8
X129.09Y-60.59
X129.09Y-92.8
X129.09Y-94.59
X129.32Y-83.44
X129.32Y-117.44
X129.7Y-55.27
X129.7Y-89.27
X129.8Y-72.88
X129.8Y-106.88
X129.81Y-74.73
X129.81Y-108.73
X129.84Y-69.03
X129.84Y-103.03
X129.86Y-70.86
X129.86Y-104.86
X130.07Y-82.05
X130.07Y-116.05
X130.6Y-50.6
X130.6Y-84.6
X130.8Y-75.3
X130.8Y-109.3
X131.29Y-66.67
X131.29Y-100.67
X131.33Y-60.59
X131.33Y-94.59
X131.38Y-56.82
X131.38Y-90.82
X131.57Y-62.44
X131.57Y-96.44
X131.94Y-68.76
X131.94Y-102.76
X131.97Y-65.06
X131.97Y-99.06
X132.07Y-74.75
X132.07Y-108.75
X132.32Y-83.44
X132.32Y-117.44
X132.59Y-70.84
X132.59Y-104.84
X132.6Y-58.93
X132.6Y-92.93
X132.68Y-77.69
X132.68Y-111.69
X132.72Y-76.51
X132.72Y-110.51
X132.75Y-78.62
X132.75Y-112.62
X132.78Y-80.87
X132.78Y-114.87
X132.88Y-62.38
X132.88Y-96.38
X132.95Y-55.28
X132.95Y-89.28
X133.29Y-72.81
X133.29Y-106.81
X133.6Y-50.6
X133.6Y-84.6
X133.97Y-67.03
X133.97Y-101.03
X134.03Y-60.44
X134.03Y-94.44
X134.08Y-69.39
X134.08Y-103.39
X134.18Y-74.71
X134.18Y-108.71
X134.2Y-56.92
X134.2Y-90.92
X134.5Y-63.84
X134.5Y-97.84
X134.74Y-71.54
X134.74Y-105.54
X135.32Y-83.44
X135.32Y-117.44
X135.78Y-67.58
X135.78Y-70.37
X135.78Y-101.58
X135.78Y-104.37
X135.84Y-55.61
X135.84Y-73.17
X135.84Y-89.61
X135.84Y-107.17
X135.88Y-58.83
X135.88Y-61.84
X135.88Y-92.83
X135.88Y-95.84
X135.9Y-64.53
X135.9Y-98.53
X136.6Y-50.6
X136.6Y-84.6
X138.32Y-83.44
X138.32Y-117.44
X139.6Y-50.6
X139.6Y-84.6
X141.32Y-83.44
X141.32Y-117.44
X142.6Y-50.6
X142.6Y-84.6
X143.45Y-81.32
X143.45Y-115.32
X143.47Y-52.72
X143.47Y-86.72
X144.03Y-78.81
X144.03Y-112.81
X144.19Y-55.44
X144.19Y-89.44
X144.32Y-83.44
X144.32Y-117.44
X144.7Y-50.62
X144.7Y-84.62
X146.93Y-77.42
X146.93Y-111.42
X147.56Y-56.54
X147.56Y-90.54
X149.46Y-55.34
X149.46Y-58.34
X149.46Y-61.34
X149.46Y-64.34
X149.46Y-67.34
X149.46Y-70.34
X149.46Y-73.34
X149.46Y-76.34
X149.46Y-89.34
X149.46Y-92.34
X149.46Y-95.34
X149.46Y-98.34
X149.46Y-101.34
X149.46Y-104.34
X149.46Y-107.34
X149.46Y-110.34
X149.47Y-78.82
X149.47Y-112.82
X150.59Y-78.57
X150.59Y-112.57
X150.6Y-55.33
X150.6Y-59.6
X150.6Y-74.6
X150.6Y-89.33
X150.6Y-93.6
X150.6Y-108.6
X153.16Y-77.42
X153.16Y-111.42
X153.44Y-56.57
X153.44Y-90.57
X155.32Y-83.44
X155.32Y-117.44
X155.42Y-50.6
X155.42Y-84.6
X155.55Y-57.52
X155.55Y-91.52
X155.71Y-78.48
X155.71Y-112.48
X155.85Y-55.47
X155.85Y-89.47
X156.54Y-81.34
X156.54Y-115.34
X156.7Y-53.46
X156.7Y-87.46
X156.89Y-59.3
X156.89Y-93.3
X156.94Y-76.15
X156.94Y-110.15
X157.49Y-66.15
X157.49Y-100.15
X157.5Y-67.0
X157.5Y-101.0
X157.86Y-69.9
X157.86Y-103.9
X157.88Y-71.12
X157.88Y-72.65
X157.88Y-105.12
X157.88Y-106.65
X157.94Y-60.4
X157.94Y-94.4
X158.32Y-83.44
X158.32Y-117.44
X158.59Y-62.77
X158.59Y-64.16
X158.59Y-96.77
X158.59Y-98.16
X159.6Y-50.6
X159.6Y-84.6
X159.67Y-52.34
X159.67Y-86.34
X159.68Y-53.18
X159.68Y-87.18
X159.71Y-56.05
X159.71Y-90.05
X160.28Y-73.88
X160.28Y-75.47
X160.28Y-107.88
X160.28Y-109.47
X160.29Y-79.58
X160.29Y-113.58
X160.35Y-69.6
X160.35Y-103.6
X160.38Y-60.495
X160.38Y-94.495
X160.41Y-62.11
X160.41Y-96.11
X160.68Y-71.34
X160.68Y-105.34
X160.91Y-56.17
X160.91Y-90.17
X160.92Y-54.85
X160.92Y-88.85
X160.98Y-81.64
X160.98Y-115.64
X161.32Y-83.44
X161.32Y-117.44
X161.63Y-58.01
X161.63Y-92.01
X161.67Y-51.5
X161.67Y-85.5
X161.78Y-71.06
X161.78Y-105.06
X162.6Y-50.6
X162.6Y-84.6
X162.99Y-54.84
X162.99Y-88.84
X163.09Y-72.58
X163.09Y-106.58
X163.11Y-53.09
X163.11Y-87.09
X163.12Y-58.04
X163.12Y-92.04
X163.24Y-71.06
X163.24Y-105.06
X163.33Y-68.32
X163.33Y-102.32
X163.37Y-74.45
X163.37Y-108.45
X164.24Y-56.15
X164.24Y-90.15
X164.26Y-73.68
X164.26Y-107.68
X164.32Y-83.44
X164.32Y-117.44
X165.6Y-50.6
X165.6Y-84.6
X165.79Y-73.68
X165.79Y-107.68
X165.94Y-67.5
X165.94Y-101.5
X165.95Y-62.93
X165.95Y-96.93
X166.59Y-59.48
X166.59Y-93.48
X166.67Y-71.06
X166.67Y-105.06
X166.94Y-58.59
X166.94Y-92.59
X167.28Y-72.67
X167.28Y-106.67
X167.32Y-83.44
X167.32Y-117.44
X167.33Y-74.35
X167.33Y-108.35
X167.9Y-71.06
X167.9Y-105.06
X168.12Y-74.35
X168.12Y-108.35
X168.17Y-56.09
X168.17Y-90.09
X168.6Y-50.6
X168.6Y-84.6
X168.66Y-59.42
X168.66Y-93.42
X168.68Y-67.49
X168.68Y-101.49
X168.88Y-74.37
X168.88Y-108.37
X169.29Y-57.55
X169.29Y-91.55
X169.32Y-53.41
X169.32Y-87.41
X169.36Y-54.95
X169.36Y-88.95
X169.39Y-51.78
X169.39Y-85.78
X169.95Y-54.18
X169.95Y-88.18
X170.32Y-83.44
X170.32Y-117.44
X170.72Y-65.04
X170.72Y-99.04
X170.76Y-62.9
X170.76Y-96.9
X170.81Y-58.69
X170.81Y-92.69
X171.0Y-74.88
X171.0Y-108.88
X171.32Y-55.57
X171.32Y-89.57
X171.57Y-73.05
X171.57Y-107.05
X171.6Y-50.6
X171.6Y-84.6
X171.71Y-68.86
X171.71Y-102.86
X171.76Y-62.02
X171.76Y-96.02
X172.39Y-70.62
X172.39Y-104.62
X172.58Y-68.45
X172.58Y-102.45
X172.62Y-56.83
X172.62Y-90.83
X172.81Y-61.88
X172.81Y-95.88
X172.87Y-58.9
X172.87Y-92.9
X173.0Y-64.1
X173.0Y-98.1
X173.27Y-68.89
X173.27Y-102.89
X173.32Y-83.44
X173.32Y-117.44
X173.34Y-72.62
X173.34Y-74.83
X173.34Y-106.62
X173.34Y-108.83
X173.59Y-70.66
X173.59Y-104.66
X173.94Y-63.0
X173.94Y-97.0
X174.37Y-58.84
X174.37Y-92.84
X174.42Y-60.71
X174.42Y-94.71
X174.6Y-50.6
X174.6Y-84.6
X174.93Y-66.4
X174.93Y-100.4
X175.21Y-72.85
X175.21Y-74.83
X175.21Y-106.85
X175.21Y-108.83
X175.22Y-54.87
X175.22Y-88.87
X175.82Y-70.85
X175.82Y-104.85
X175.96Y-58.8
X175.96Y-92.8
X176.02Y-56.82
X176.02Y-90.82
X176.25Y-55.28
X176.25Y-89.28
X176.32Y-83.44
X176.32Y-117.44
X176.67Y-61.46
X176.67Y-95.46
X176.94Y-74.83
X176.94Y-108.83
X177.37Y-60.76
X177.37Y-94.76
X177.48Y-64.82
X177.48Y-98.82
X177.52Y-72.86
X177.52Y-106.86
X177.55Y-70.82
X177.55Y-104.82
X177.56Y-65.62
X177.56Y-99.62
X177.58Y-68.94
X177.58Y-102.94
X177.6Y-50.6
X177.6Y-84.6
X178.45Y-56.79
X178.45Y-90.79
X179.09Y-58.8
X179.09Y-60.59
X179.09Y-92.8
X179.09Y-94.59
X179.32Y-83.44
X179.32Y-117.44
X179.7Y-55.27
X179.7Y-89.27
X179.8Y-72.88
X179.8Y-106.88
X179.81Y-74.73
X179.81Y-108.73
X179.84Y-69.03
X179.84Y-103.03
X179.86Y-70.86
X179.86Y-104.86
X180.07Y-82.05
X180.07Y-116.05
X180.6Y-50.6
X180.6Y-84.6
X180.8Y-75.3
X180.8Y-109.3
X181.29Y-66.67
X181.29Y-100.67
X181.33Y-60.59
X181.33Y-94.59
X181.38Y-56.82
X181.38Y-90.82
X181.57Y-62.44
X181.57Y-96.44
X181.94Y-68.76
X181.94Y-102.76
X181.97Y-65.06
X181.97Y-99.06
X182.07Y-74.75
X182.07Y-108.75
X182.32Y-83.44
X182.32Y-117.44
X182.59Y-70.84
X182.59Y-104.84
X182.6Y-58.93
X182.6Y-92.93
X182.68Y-77.69
X182.68Y-111.69
X182.72Y-76.51
X182.72Y-110.51
X182.75Y-78.62
X182.75Y-112.62
X182.78Y-80.87
X182.78Y-114.87
X182.88Y-62.38
X182.88Y-96.38
X182.95Y-55.28
X182.95Y-89.28
X183.29Y-72.81
X183.29Y-106.81
X183.6Y-50.6
X183.6Y-84.6
X183.97Y-67.03
X183.97Y-101.03
X184.03Y-60.44
X184.03Y-94.44
X184.08Y-69.39
X184.08Y-103.39
X184.18Y-74.71
X184.18Y-108.71
X184.2Y-56.92
X184.2Y-90.92
X184.5Y-63.84
X184.5Y-97.84
X184.74Y-71.54
X184.74Y-105.54
X185.32Y-83.44
X185.32Y-117.44
X185.78Y-67.58
X185.78Y-70.37
X185.78Y-101.58
X185.78Y-104.37
X185.84Y-55.61
X185.84Y-73.17
X185.84Y-89.61
X185.84Y-107.17
X185.88Y-58.83
X185.88Y-61.84
X185.88Y-92.83
X185.88Y-95.84
X185.9Y-64.53
X185.9Y-98.53
X186.6Y-50.6
X186.6Y-84.6
X188.32Y-83.44
X188.32Y-117.44
X189.6Y-50.6
X189.6Y-84.6
X191.32Y-83.44
X191.32Y-117.44
X192.6Y-50.6
X192.6Y-84.6
X193.45Y-81.32
X193.45Y-115.32
X193.47Y-52.72
X193.47Y-86.72
X194.03Y-78.81
X194.03Y-112.81
X194.19Y-55.44
X194.19Y-89.44
X194.32Y-83.44
X194.32Y-117.44
X194.7Y-50.62
X194.7Y-84.62
X196.93Y-77.42
X196.93Y-111.42
X197.56Y-56.54
X197.56Y-90.54
X199.46Y-55.34
X199.46Y-58.34
X199.46Y-61.34
X199.46Y-64.34
X199.46Y-67.34
X199.46Y-70.34
X199.46Y-73.34
X199.46Y-76.34
X199.46Y-89.34
X199.46Y-92.34
X199.46Y-95.34
X199.46Y-98.34
X199.46Y-101.34
X199.46Y-104.34
X199.46Y-107.34
X199.46Y-110.34
X199.47Y-78.82
X199.47Y-112.82
T2
X100.83Y-68.69
X100.83Y-102.69
X100.85Y-66.66
X100.85Y-100.66
X100.88Y-64.79
X100.88Y-98.79
X104.75Y-63.6
X104.75Y-64.45
X104.75Y-65.3
X104.75Y-66.15
X104.75Y-67.0
X104.75Y-67.85
X104.75Y-68.7
X104.75Y-69.55
X104.75Y-97.6
X104.75Y-98.45
X104.75Y-99.3
X104.75Y-100.15
X104.75Y-101.0
X104.75Y-101.85
X104.75Y-102.7
X104.75Y-103.55
X106.1Y-63.6
X106.1Y-64.45
X106.1Y-65.3
X106.1Y-66.15
X106.1Y-67.0
X106.1Y-67.85
X106.1Y-68.7
X106.1Y-69.55
X106.1Y-97.6
X106.1Y-98.45
X106.1Y-99.3
X106.1Y-100.15
X106.1Y-101.0
X106.1Y-101.85
X106.1Y-102.7
X106.1Y-103.55
X150.83Y-68.69
X150.83Y-102.69
X150.85Y-66.66
X150.85Y-100.66
X150.88Y-64.79
X150.88Y-98.79
X154.75Y-63.6
X154.75Y-64.45
X154.75Y-65.3
X154.75Y-66.15
X154.75Y-67.0
X154.75Y-67.85
X154.75Y-68.7
X154.75Y-69.55
X154.75Y-97.6
X154.75Y-98.45
X154.75Y-99.3
X154.75Y-100.15
X154.75Y-101.0
X154.75Y-101.85
X154.75Y-102.7
X154.75Y-103.55
X156.1Y-63.6
X156.1Y-64.45
X156.1Y-65.3
X156.1Y-66.15
X156.1Y-67.0
X156.1Y-67.85
X156.1Y-68.7
X156.1Y-69.55
X156.1Y-97.6
X156.1Y-98.45
X156.1Y-99.3
X156.1Y-100.15
X156.1Y-101.0
X156.1Y-101.85
X156.1Y-102.7
X156.1Y-103.55
T4
X118.16Y-65.36
X118.16Y-99.36
X120.79Y-52.74
X120.79Y-86.74
X123.33Y-52.74
X123.33Y-86.74
X125.87Y-52.74
X125.87Y-86.74
X128.41Y-52.74
X128.41Y-86.74
X130.18Y-62.58
X130.18Y-65.12
X130.18Y-67.66
X130.18Y-96.58
X130.18Y-99.12
X130.18Y-101.66
X137.25Y-55.56
X137.25Y-58.1
X137.25Y-60.64
X137.25Y-63.18
X137.25Y-65.72
X137.25Y-68.26
X137.25Y-70.8
X137.25Y-73.34
X137.25Y-75.88
X137.25Y-78.42
X137.25Y-89.56
X137.25Y-92.1
X137.25Y-94.64
X137.25Y-97.18
X137.25Y-99.72
X137.25Y-102.26
X137.25Y-104.8
X137.25Y-107.34
X137.25Y-109.88
X137.25Y-112.42
X139.79Y-55.56
X139.79Y-58.1
X139.79Y-60.64
X139.79Y-63.18
X139.79Y-65.72
X139.79Y-68.26
X139.79Y-70.8
X139.79Y-73.34
X139.79Y-75.88
X139.79Y-78.42
X139.79Y-89.56
X139.79Y-92.1
X139.79Y-94.64
X139.79Y-97.18
X139.79Y-99.72
X139.79Y-102.26
X139.79Y-104.8
X139.79Y-107.34
X139.79Y-109.88
X139.79Y-112.42
X168.16Y-65.36
X168.16Y-99.36
X170.79Y-52.74
X170.79Y-86.74
X173.33Y-52.74
X173.33Y-86.74
X175.87Y-52.74
X175.87Y-86.74
X178.41Y-52.74
X178.41Y-86.74
X180.18Y-62.58
X180.18Y-65.12
X180.18Y-67.66
X180.18Y-96.58
X180.18Y-99.12
X180.18Y-101.66
X187.25Y-55.56
X187.25Y-58.1
X187.25Y-60.64
X187.25Y-63.18
X187.25Y-65.72
X187.25Y-68.26
X187.25Y-70.8
X187.25Y-73.34
X187.25Y-75.88
X187.25Y-78.42
X187.25Y-89.56
X187.25Y-92.1
X187.25Y-94.64
X187.25Y-97.18
X187.25Y-99.72
X187.25Y-102.26
X187.25Y-104.8
X187.25Y-107.34
X187.25Y-109.88
X187.25Y-112.42
X189.79Y-55.56
X189.79Y-58.1
X189.79Y-60.64
X189.79Y-63.18
X189.79Y-65.72
X189.79Y-68.26
X189.79Y-70.8
X189.79Y-73.34
X189.79Y-75.88
X189.79Y-78.42
X189.79Y-89.56
X189.79Y-92.1
X189.79Y-94.64
X189.79Y-97.18
X189.79Y-99.72
X189.79Y-102.26
X189.79Y-104.8
X189.79Y-107.34
X189.79Y-109.88
X189.79Y-112.42
T5
X103.25Y-53.25
X103.25Y-80.75
X103.25Y-87.25
X103.25Y-114.75
X146.75Y-53.25
X146.75Y-80.75
X146.75Y-87.25
X146.75Y-114.75
X153.25Y-53.25
X153.25Y-80.75
X153.25Y-87.25
X153.25Y-114.75
X196.75Y-53.25
X196.75Y-80.75
X196.75Y-87.25
X196.75Y-114.75
T3
G00X102.14Y-62.25
M15
G01X101.34Y-62.25
M16
G05
G00X102.14Y-70.9
M15
G01X101.34Y-70.9
M16
G05
G00X102.14Y-96.25
M15
G01X101.34Y-96.25
M16
G05
G00X102.14Y-104.9
M15
G01X101.34Y-104.9
M16
G05
G00X105.87Y-62.25
M15
G01X104.37Y-62.25
M16
G05
G00X105.87Y-70.9
M15
G01X104.37Y-70.9
M16
G05
G00X105.87Y-96.25
M15
G01X104.37Y-96.25
M16
G05
G00X105.87Y-104.9
M15
G01X104.37Y-104.9
M16
G05
G00X152.14Y-62.25
M15
G01X151.34Y-62.25
M16
G05
G00X152.14Y-70.9
M15
G01X151.34Y-70.9
M16
G05
G00X152.14Y-96.25
M15
G01X151.34Y-96.25
M16
G05
G00X152.14Y-104.9
M15
G01X151.34Y-104.9
M16
G05
G00X155.87Y-62.25
M15
G01X154.37Y-62.25
M16
G05
G00X155.87Y-70.9
M15
G01X154.37Y-70.9
M16
G05
G00X155.87Y-96.25
M15
G01X154.37Y-96.25
M16
G05
G00X155.87Y-104.9
M15
G01X154.37Y-104.9
M16
G05
T0
M30
