M48
; DRILL file {KiCad (5.1.10-1-10_14)} date Friday, April 15, 2022 at 02:56:23 AM
; FORMAT={-:-/ absolute / metric / decimal}
; #@! TF.CreationDate,2022-04-15T02:56:23+09:00
; #@! TF.GenerationSoftware,Kicad,Pcbnew,(5.1.10-1-10_14)
FMAT,2
METRIC
T1C0.300
T2C0.400
T3C0.600
T4C1.000
T5C3.000
%
G90
G05
T1
X100.59Y-78.57
X100.6Y-55.33
X100.6Y-59.6
X100.6Y-74.6
X103.16Y-77.42
X103.44Y-56.57
X105.32Y-83.44
X105.42Y-50.6
X105.55Y-57.52
X105.71Y-78.48
X105.85Y-55.47
X106.54Y-81.34
X106.7Y-53.46
X106.89Y-59.3
X106.94Y-76.15
X107.49Y-66.15
X107.5Y-67.0
X107.86Y-69.9
X107.88Y-71.12
X107.88Y-72.65
X107.94Y-60.4
X108.32Y-83.44
X108.59Y-62.77
X108.59Y-64.16
X109.6Y-50.6
X109.67Y-52.34
X109.68Y-53.18
X109.71Y-56.05
X110.28Y-73.88
X110.28Y-75.47
X110.29Y-79.58
X110.35Y-69.6
X110.38Y-60.495
X110.41Y-62.11
X110.68Y-71.34
X110.91Y-56.17
X110.92Y-54.85
X110.98Y-81.64
X111.32Y-83.44
X111.63Y-58.01
X111.67Y-51.5
X111.78Y-71.06
X112.6Y-50.6
X112.99Y-54.84
X113.09Y-72.58
X113.11Y-53.09
X113.12Y-58.04
X113.24Y-71.06
X113.33Y-68.32
X113.37Y-74.45
X114.24Y-56.15
X114.26Y-73.68
X114.32Y-83.44
X115.6Y-50.6
X115.79Y-73.68
X115.94Y-67.5
X115.95Y-62.93
X116.59Y-59.48
X116.67Y-71.06
X116.94Y-58.59
X117.28Y-72.67
X117.32Y-83.44
X117.33Y-74.35
X117.9Y-71.06
X118.12Y-74.35
X118.17Y-56.09
X118.6Y-50.6
X118.66Y-59.42
X118.68Y-67.49
X118.88Y-74.37
X119.29Y-57.55
X119.32Y-53.41
X119.36Y-54.95
X119.39Y-51.78
X119.95Y-54.18
X120.32Y-83.44
X120.72Y-65.04
X120.76Y-62.9
X120.81Y-58.69
X121.0Y-74.88
X121.32Y-55.57
X121.57Y-73.05
X121.6Y-50.6
X121.71Y-68.86
X121.76Y-62.02
X122.39Y-70.62
X122.58Y-68.45
X122.62Y-56.83
X122.81Y-61.88
X122.87Y-58.9
X123.0Y-64.1
X123.27Y-68.89
X123.32Y-83.44
X123.34Y-72.62
X123.34Y-74.83
X123.59Y-70.66
X123.94Y-63.0
X124.37Y-58.84
X124.42Y-60.71
X124.6Y-50.6
X124.93Y-66.4
X125.21Y-72.85
X125.21Y-74.83
X125.22Y-54.87
X125.82Y-70.85
X125.96Y-58.8
X126.02Y-56.82
X126.25Y-55.28
X126.32Y-83.44
X126.67Y-61.46
X126.94Y-74.83
X127.37Y-60.76
X127.48Y-64.82
X127.52Y-72.86
X127.55Y-70.82
X127.56Y-65.62
X127.58Y-68.94
X127.6Y-50.6
X128.45Y-56.79
X129.09Y-58.8
X129.09Y-60.59
X129.32Y-83.44
X129.7Y-55.27
X129.8Y-72.88
X129.81Y-74.73
X129.84Y-69.03
X129.86Y-70.86
X130.07Y-82.05
X130.6Y-50.6
X130.8Y-75.3
X131.29Y-66.67
X131.33Y-60.59
X131.38Y-56.82
X131.57Y-62.44
X131.94Y-68.76
X131.97Y-65.06
X132.07Y-74.75
X132.32Y-83.44
X132.59Y-70.84
X132.6Y-58.93
X132.68Y-77.69
X132.72Y-76.51
X132.75Y-78.62
X132.78Y-80.87
X132.88Y-62.38
X132.95Y-55.28
X133.29Y-72.81
X133.6Y-50.6
X133.97Y-67.03
X134.03Y-60.44
X134.08Y-69.39
X134.18Y-74.71
X134.2Y-56.92
X134.5Y-63.84
X134.74Y-71.54
X135.32Y-83.44
X135.78Y-67.58
X135.78Y-70.37
X135.84Y-55.61
X135.84Y-73.17
X135.88Y-58.83
X135.88Y-61.84
X135.9Y-64.53
X136.6Y-50.6
X138.32Y-83.44
X139.6Y-50.6
X141.32Y-83.44
X142.6Y-50.6
X143.45Y-81.32
X143.47Y-52.72
X144.03Y-78.81
X144.19Y-55.44
X144.32Y-83.44
X144.7Y-50.62
X146.93Y-77.42
X147.56Y-56.54
X149.46Y-55.34
X149.46Y-58.34
X149.46Y-61.34
X149.46Y-64.34
X149.46Y-67.34
X149.46Y-70.34
X149.46Y-73.34
X149.46Y-76.34
X149.47Y-78.82
T2
X100.83Y-68.69
X100.85Y-66.66
X100.88Y-64.79
X104.75Y-63.6
X104.75Y-64.45
X104.75Y-65.3
X104.75Y-66.15
X104.75Y-67.0
X104.75Y-67.85
X104.75Y-68.7
X104.75Y-69.55
X106.1Y-63.6
X106.1Y-64.45
X106.1Y-65.3
X106.1Y-66.15
X106.1Y-67.0
X106.1Y-67.85
X106.1Y-68.7
X106.1Y-69.55
T4
X118.16Y-65.36
X120.79Y-52.74
X123.33Y-52.74
X125.87Y-52.74
X128.41Y-52.74
X130.18Y-62.58
X130.18Y-65.12
X130.18Y-67.66
X137.25Y-55.56
X137.25Y-58.1
X137.25Y-60.64
X137.25Y-63.18
X137.25Y-65.72
X137.25Y-68.26
X137.25Y-70.8
X137.25Y-73.34
X137.25Y-75.88
X137.25Y-78.42
X139.79Y-55.56
X139.79Y-58.1
X139.79Y-60.64
X139.79Y-63.18
X139.79Y-65.72
X139.79Y-68.26
X139.79Y-70.8
X139.79Y-73.34
X139.79Y-75.88
X139.79Y-78.42
T5
X103.25Y-53.25
X103.25Y-80.75
X146.75Y-53.25
X146.75Y-80.75
T3
G00X102.14Y-62.25
M15
G01X101.34Y-62.25
M16
G05
G00X102.14Y-70.9
M15
G01X101.34Y-70.9
M16
G05
G00X105.87Y-62.25
M15
G01X104.37Y-62.25
M16
G05
G00X105.87Y-70.9
M15
G01X104.37Y-70.9
M16
G05
T0
M30
