G04 #@! TF.GenerationSoftware,KiCad,Pcbnew,(5.1.10-1-10_14)*
G04 #@! TF.CreationDate,2022-06-04T01:49:53+09:00*
G04 #@! TF.ProjectId,cmsis-dap_rp2040,636d7369-732d-4646-9170-5f7270323034,rev?*
G04 #@! TF.SameCoordinates,Original*
G04 #@! TF.FileFunction,Paste,Bot*
G04 #@! TF.FilePolarity,Positive*
%FSLAX46Y46*%
G04 Gerber Fmt 4.6, Leading zero omitted, Abs format (unit mm)*
G04 Created by KiCad (PCBNEW (5.1.10-1-10_14)) date 2022-06-04 01:49:53*
%MOMM*%
%LPD*%
G01*
G04 APERTURE LIST*
%ADD10O,0.875000X0.200000*%
%ADD11O,0.200000X0.875000*%
%ADD12R,1.060000X0.650000*%
G04 APERTURE END LIST*
G04 #@! TO.C,C16*
G36*
G01*
X110565000Y-62340000D02*
X110565000Y-62840000D01*
G75*
G02*
X110340000Y-63065000I-225000J0D01*
G01*
X109890000Y-63065000D01*
G75*
G02*
X109665000Y-62840000I0J225000D01*
G01*
X109665000Y-62340000D01*
G75*
G02*
X109890000Y-62115000I225000J0D01*
G01*
X110340000Y-62115000D01*
G75*
G02*
X110565000Y-62340000I0J-225000D01*
G01*
G37*
G36*
G01*
X112115000Y-62340000D02*
X112115000Y-62840000D01*
G75*
G02*
X111890000Y-63065000I-225000J0D01*
G01*
X111440000Y-63065000D01*
G75*
G02*
X111215000Y-62840000I0J225000D01*
G01*
X111215000Y-62340000D01*
G75*
G02*
X111440000Y-62115000I225000J0D01*
G01*
X111890000Y-62115000D01*
G75*
G02*
X112115000Y-62340000I0J-225000D01*
G01*
G37*
G04 #@! TD*
D10*
G04 #@! TO.C,U3*
X114942500Y-62760000D03*
X114942500Y-63160000D03*
X114942500Y-63560000D03*
X114942500Y-63960000D03*
X114942500Y-64360000D03*
X114942500Y-64760000D03*
X114942500Y-65160000D03*
X114942500Y-65560000D03*
X114942500Y-65960000D03*
X114942500Y-66360000D03*
X114942500Y-66760000D03*
X114942500Y-67160000D03*
X114942500Y-67560000D03*
X114942500Y-67960000D03*
D11*
X115780000Y-68797500D03*
X116180000Y-68797500D03*
X116580000Y-68797500D03*
X116980000Y-68797500D03*
X117380000Y-68797500D03*
X117780000Y-68797500D03*
X118180000Y-68797500D03*
X118580000Y-68797500D03*
X118980000Y-68797500D03*
X119380000Y-68797500D03*
X119780000Y-68797500D03*
X120180000Y-68797500D03*
X120580000Y-68797500D03*
X120980000Y-68797500D03*
D10*
X121817500Y-67960000D03*
X121817500Y-67560000D03*
X121817500Y-67160000D03*
X121817500Y-66760000D03*
X121817500Y-66360000D03*
X121817500Y-65960000D03*
X121817500Y-65560000D03*
X121817500Y-65160000D03*
X121817500Y-64760000D03*
X121817500Y-64360000D03*
X121817500Y-63960000D03*
X121817500Y-63560000D03*
X121817500Y-63160000D03*
X121817500Y-62760000D03*
D11*
X120980000Y-61922500D03*
X120580000Y-61922500D03*
X120180000Y-61922500D03*
X119780000Y-61922500D03*
X119380000Y-61922500D03*
X118980000Y-61922500D03*
X118580000Y-61922500D03*
X118180000Y-61922500D03*
X117780000Y-61922500D03*
X117380000Y-61922500D03*
X116980000Y-61922500D03*
X116580000Y-61922500D03*
X116180000Y-61922500D03*
X115780000Y-61922500D03*
G04 #@! TD*
G04 #@! TO.C,R12*
G36*
G01*
X123705000Y-64485000D02*
X123705000Y-65035000D01*
G75*
G02*
X123505000Y-65235000I-200000J0D01*
G01*
X123105000Y-65235000D01*
G75*
G02*
X122905000Y-65035000I0J200000D01*
G01*
X122905000Y-64485000D01*
G75*
G02*
X123105000Y-64285000I200000J0D01*
G01*
X123505000Y-64285000D01*
G75*
G02*
X123705000Y-64485000I0J-200000D01*
G01*
G37*
G36*
G01*
X125355000Y-64485000D02*
X125355000Y-65035000D01*
G75*
G02*
X125155000Y-65235000I-200000J0D01*
G01*
X124755000Y-65235000D01*
G75*
G02*
X124555000Y-65035000I0J200000D01*
G01*
X124555000Y-64485000D01*
G75*
G02*
X124755000Y-64285000I200000J0D01*
G01*
X125155000Y-64285000D01*
G75*
G02*
X125355000Y-64485000I0J-200000D01*
G01*
G37*
G04 #@! TD*
G04 #@! TO.C,U2*
G36*
G01*
X109180000Y-52195000D02*
X109180000Y-52495000D01*
G75*
G02*
X109030000Y-52645000I-150000J0D01*
G01*
X107730000Y-52645000D01*
G75*
G02*
X107580000Y-52495000I0J150000D01*
G01*
X107580000Y-52195000D01*
G75*
G02*
X107730000Y-52045000I150000J0D01*
G01*
X109030000Y-52045000D01*
G75*
G02*
X109180000Y-52195000I0J-150000D01*
G01*
G37*
G36*
G01*
X109180000Y-53465000D02*
X109180000Y-53765000D01*
G75*
G02*
X109030000Y-53915000I-150000J0D01*
G01*
X107730000Y-53915000D01*
G75*
G02*
X107580000Y-53765000I0J150000D01*
G01*
X107580000Y-53465000D01*
G75*
G02*
X107730000Y-53315000I150000J0D01*
G01*
X109030000Y-53315000D01*
G75*
G02*
X109180000Y-53465000I0J-150000D01*
G01*
G37*
G36*
G01*
X109180000Y-54735000D02*
X109180000Y-55035000D01*
G75*
G02*
X109030000Y-55185000I-150000J0D01*
G01*
X107730000Y-55185000D01*
G75*
G02*
X107580000Y-55035000I0J150000D01*
G01*
X107580000Y-54735000D01*
G75*
G02*
X107730000Y-54585000I150000J0D01*
G01*
X109030000Y-54585000D01*
G75*
G02*
X109180000Y-54735000I0J-150000D01*
G01*
G37*
G36*
G01*
X109180000Y-56005000D02*
X109180000Y-56305000D01*
G75*
G02*
X109030000Y-56455000I-150000J0D01*
G01*
X107730000Y-56455000D01*
G75*
G02*
X107580000Y-56305000I0J150000D01*
G01*
X107580000Y-56005000D01*
G75*
G02*
X107730000Y-55855000I150000J0D01*
G01*
X109030000Y-55855000D01*
G75*
G02*
X109180000Y-56005000I0J-150000D01*
G01*
G37*
G36*
G01*
X116380000Y-56005000D02*
X116380000Y-56305000D01*
G75*
G02*
X116230000Y-56455000I-150000J0D01*
G01*
X114930000Y-56455000D01*
G75*
G02*
X114780000Y-56305000I0J150000D01*
G01*
X114780000Y-56005000D01*
G75*
G02*
X114930000Y-55855000I150000J0D01*
G01*
X116230000Y-55855000D01*
G75*
G02*
X116380000Y-56005000I0J-150000D01*
G01*
G37*
G36*
G01*
X116380000Y-54735000D02*
X116380000Y-55035000D01*
G75*
G02*
X116230000Y-55185000I-150000J0D01*
G01*
X114930000Y-55185000D01*
G75*
G02*
X114780000Y-55035000I0J150000D01*
G01*
X114780000Y-54735000D01*
G75*
G02*
X114930000Y-54585000I150000J0D01*
G01*
X116230000Y-54585000D01*
G75*
G02*
X116380000Y-54735000I0J-150000D01*
G01*
G37*
G36*
G01*
X116380000Y-53465000D02*
X116380000Y-53765000D01*
G75*
G02*
X116230000Y-53915000I-150000J0D01*
G01*
X114930000Y-53915000D01*
G75*
G02*
X114780000Y-53765000I0J150000D01*
G01*
X114780000Y-53465000D01*
G75*
G02*
X114930000Y-53315000I150000J0D01*
G01*
X116230000Y-53315000D01*
G75*
G02*
X116380000Y-53465000I0J-150000D01*
G01*
G37*
G36*
G01*
X116380000Y-52195000D02*
X116380000Y-52495000D01*
G75*
G02*
X116230000Y-52645000I-150000J0D01*
G01*
X114930000Y-52645000D01*
G75*
G02*
X114780000Y-52495000I0J150000D01*
G01*
X114780000Y-52195000D01*
G75*
G02*
X114930000Y-52045000I150000J0D01*
G01*
X116230000Y-52045000D01*
G75*
G02*
X116380000Y-52195000I0J-150000D01*
G01*
G37*
G04 #@! TD*
G04 #@! TO.C,R16*
G36*
G01*
X121395000Y-60065000D02*
X120845000Y-60065000D01*
G75*
G02*
X120645000Y-59865000I0J200000D01*
G01*
X120645000Y-59465000D01*
G75*
G02*
X120845000Y-59265000I200000J0D01*
G01*
X121395000Y-59265000D01*
G75*
G02*
X121595000Y-59465000I0J-200000D01*
G01*
X121595000Y-59865000D01*
G75*
G02*
X121395000Y-60065000I-200000J0D01*
G01*
G37*
G36*
G01*
X121395000Y-58415000D02*
X120845000Y-58415000D01*
G75*
G02*
X120645000Y-58215000I0J200000D01*
G01*
X120645000Y-57815000D01*
G75*
G02*
X120845000Y-57615000I200000J0D01*
G01*
X121395000Y-57615000D01*
G75*
G02*
X121595000Y-57815000I0J-200000D01*
G01*
X121595000Y-58215000D01*
G75*
G02*
X121395000Y-58415000I-200000J0D01*
G01*
G37*
G04 #@! TD*
G04 #@! TO.C,R15*
G36*
G01*
X122935000Y-74295000D02*
X122935000Y-73745000D01*
G75*
G02*
X123135000Y-73545000I200000J0D01*
G01*
X123535000Y-73545000D01*
G75*
G02*
X123735000Y-73745000I0J-200000D01*
G01*
X123735000Y-74295000D01*
G75*
G02*
X123535000Y-74495000I-200000J0D01*
G01*
X123135000Y-74495000D01*
G75*
G02*
X122935000Y-74295000I0J200000D01*
G01*
G37*
G36*
G01*
X121285000Y-74295000D02*
X121285000Y-73745000D01*
G75*
G02*
X121485000Y-73545000I200000J0D01*
G01*
X121885000Y-73545000D01*
G75*
G02*
X122085000Y-73745000I0J-200000D01*
G01*
X122085000Y-74295000D01*
G75*
G02*
X121885000Y-74495000I-200000J0D01*
G01*
X121485000Y-74495000D01*
G75*
G02*
X121285000Y-74295000I0J200000D01*
G01*
G37*
G04 #@! TD*
G04 #@! TO.C,R14*
G36*
G01*
X122905000Y-60055000D02*
X122355000Y-60055000D01*
G75*
G02*
X122155000Y-59855000I0J200000D01*
G01*
X122155000Y-59455000D01*
G75*
G02*
X122355000Y-59255000I200000J0D01*
G01*
X122905000Y-59255000D01*
G75*
G02*
X123105000Y-59455000I0J-200000D01*
G01*
X123105000Y-59855000D01*
G75*
G02*
X122905000Y-60055000I-200000J0D01*
G01*
G37*
G36*
G01*
X122905000Y-58405000D02*
X122355000Y-58405000D01*
G75*
G02*
X122155000Y-58205000I0J200000D01*
G01*
X122155000Y-57805000D01*
G75*
G02*
X122355000Y-57605000I200000J0D01*
G01*
X122905000Y-57605000D01*
G75*
G02*
X123105000Y-57805000I0J-200000D01*
G01*
X123105000Y-58205000D01*
G75*
G02*
X122905000Y-58405000I-200000J0D01*
G01*
G37*
G04 #@! TD*
G04 #@! TO.C,R13*
G36*
G01*
X122925000Y-72215000D02*
X122925000Y-71665000D01*
G75*
G02*
X123125000Y-71465000I200000J0D01*
G01*
X123525000Y-71465000D01*
G75*
G02*
X123725000Y-71665000I0J-200000D01*
G01*
X123725000Y-72215000D01*
G75*
G02*
X123525000Y-72415000I-200000J0D01*
G01*
X123125000Y-72415000D01*
G75*
G02*
X122925000Y-72215000I0J200000D01*
G01*
G37*
G36*
G01*
X121275000Y-72215000D02*
X121275000Y-71665000D01*
G75*
G02*
X121475000Y-71465000I200000J0D01*
G01*
X121875000Y-71465000D01*
G75*
G02*
X122075000Y-71665000I0J-200000D01*
G01*
X122075000Y-72215000D01*
G75*
G02*
X121875000Y-72415000I-200000J0D01*
G01*
X121475000Y-72415000D01*
G75*
G02*
X121275000Y-72215000I0J200000D01*
G01*
G37*
G04 #@! TD*
G04 #@! TO.C,R11*
G36*
G01*
X122945000Y-76295000D02*
X122945000Y-75745000D01*
G75*
G02*
X123145000Y-75545000I200000J0D01*
G01*
X123545000Y-75545000D01*
G75*
G02*
X123745000Y-75745000I0J-200000D01*
G01*
X123745000Y-76295000D01*
G75*
G02*
X123545000Y-76495000I-200000J0D01*
G01*
X123145000Y-76495000D01*
G75*
G02*
X122945000Y-76295000I0J200000D01*
G01*
G37*
G36*
G01*
X121295000Y-76295000D02*
X121295000Y-75745000D01*
G75*
G02*
X121495000Y-75545000I200000J0D01*
G01*
X121895000Y-75545000D01*
G75*
G02*
X122095000Y-75745000I0J-200000D01*
G01*
X122095000Y-76295000D01*
G75*
G02*
X121895000Y-76495000I-200000J0D01*
G01*
X121495000Y-76495000D01*
G75*
G02*
X121295000Y-76295000I0J200000D01*
G01*
G37*
G04 #@! TD*
G04 #@! TO.C,R9*
G36*
G01*
X119885000Y-58415000D02*
X119335000Y-58415000D01*
G75*
G02*
X119135000Y-58215000I0J200000D01*
G01*
X119135000Y-57815000D01*
G75*
G02*
X119335000Y-57615000I200000J0D01*
G01*
X119885000Y-57615000D01*
G75*
G02*
X120085000Y-57815000I0J-200000D01*
G01*
X120085000Y-58215000D01*
G75*
G02*
X119885000Y-58415000I-200000J0D01*
G01*
G37*
G36*
G01*
X119885000Y-60065000D02*
X119335000Y-60065000D01*
G75*
G02*
X119135000Y-59865000I0J200000D01*
G01*
X119135000Y-59465000D01*
G75*
G02*
X119335000Y-59265000I200000J0D01*
G01*
X119885000Y-59265000D01*
G75*
G02*
X120085000Y-59465000I0J-200000D01*
G01*
X120085000Y-59865000D01*
G75*
G02*
X119885000Y-60065000I-200000J0D01*
G01*
G37*
G04 #@! TD*
D12*
G04 #@! TO.C,U1*
X125670000Y-63110000D03*
X125670000Y-61210000D03*
X123470000Y-61210000D03*
X123470000Y-62160000D03*
X123470000Y-63110000D03*
G04 #@! TD*
G04 #@! TO.C,R8*
G36*
G01*
X128175000Y-68345000D02*
X127625000Y-68345000D01*
G75*
G02*
X127425000Y-68145000I0J200000D01*
G01*
X127425000Y-67745000D01*
G75*
G02*
X127625000Y-67545000I200000J0D01*
G01*
X128175000Y-67545000D01*
G75*
G02*
X128375000Y-67745000I0J-200000D01*
G01*
X128375000Y-68145000D01*
G75*
G02*
X128175000Y-68345000I-200000J0D01*
G01*
G37*
G36*
G01*
X128175000Y-69995000D02*
X127625000Y-69995000D01*
G75*
G02*
X127425000Y-69795000I0J200000D01*
G01*
X127425000Y-69395000D01*
G75*
G02*
X127625000Y-69195000I200000J0D01*
G01*
X128175000Y-69195000D01*
G75*
G02*
X128375000Y-69395000I0J-200000D01*
G01*
X128375000Y-69795000D01*
G75*
G02*
X128175000Y-69995000I-200000J0D01*
G01*
G37*
G04 #@! TD*
G04 #@! TO.C,R6*
G36*
G01*
X109925000Y-65555000D02*
X109925000Y-66105000D01*
G75*
G02*
X109725000Y-66305000I-200000J0D01*
G01*
X109325000Y-66305000D01*
G75*
G02*
X109125000Y-66105000I0J200000D01*
G01*
X109125000Y-65555000D01*
G75*
G02*
X109325000Y-65355000I200000J0D01*
G01*
X109725000Y-65355000D01*
G75*
G02*
X109925000Y-65555000I0J-200000D01*
G01*
G37*
G36*
G01*
X111575000Y-65555000D02*
X111575000Y-66105000D01*
G75*
G02*
X111375000Y-66305000I-200000J0D01*
G01*
X110975000Y-66305000D01*
G75*
G02*
X110775000Y-66105000I0J200000D01*
G01*
X110775000Y-65555000D01*
G75*
G02*
X110975000Y-65355000I200000J0D01*
G01*
X111375000Y-65355000D01*
G75*
G02*
X111575000Y-65555000I0J-200000D01*
G01*
G37*
G04 #@! TD*
G04 #@! TO.C,R5*
G36*
G01*
X109925000Y-67055000D02*
X109925000Y-67605000D01*
G75*
G02*
X109725000Y-67805000I-200000J0D01*
G01*
X109325000Y-67805000D01*
G75*
G02*
X109125000Y-67605000I0J200000D01*
G01*
X109125000Y-67055000D01*
G75*
G02*
X109325000Y-66855000I200000J0D01*
G01*
X109725000Y-66855000D01*
G75*
G02*
X109925000Y-67055000I0J-200000D01*
G01*
G37*
G36*
G01*
X111575000Y-67055000D02*
X111575000Y-67605000D01*
G75*
G02*
X111375000Y-67805000I-200000J0D01*
G01*
X110975000Y-67805000D01*
G75*
G02*
X110775000Y-67605000I0J200000D01*
G01*
X110775000Y-67055000D01*
G75*
G02*
X110975000Y-66855000I200000J0D01*
G01*
X111375000Y-66855000D01*
G75*
G02*
X111575000Y-67055000I0J-200000D01*
G01*
G37*
G04 #@! TD*
G04 #@! TO.C,R4*
G36*
G01*
X103025000Y-67675000D02*
X102475000Y-67675000D01*
G75*
G02*
X102275000Y-67475000I0J200000D01*
G01*
X102275000Y-67075000D01*
G75*
G02*
X102475000Y-66875000I200000J0D01*
G01*
X103025000Y-66875000D01*
G75*
G02*
X103225000Y-67075000I0J-200000D01*
G01*
X103225000Y-67475000D01*
G75*
G02*
X103025000Y-67675000I-200000J0D01*
G01*
G37*
G36*
G01*
X103025000Y-69325000D02*
X102475000Y-69325000D01*
G75*
G02*
X102275000Y-69125000I0J200000D01*
G01*
X102275000Y-68725000D01*
G75*
G02*
X102475000Y-68525000I200000J0D01*
G01*
X103025000Y-68525000D01*
G75*
G02*
X103225000Y-68725000I0J-200000D01*
G01*
X103225000Y-69125000D01*
G75*
G02*
X103025000Y-69325000I-200000J0D01*
G01*
G37*
G04 #@! TD*
G04 #@! TO.C,R3*
G36*
G01*
X107785000Y-63835000D02*
X108335000Y-63835000D01*
G75*
G02*
X108535000Y-64035000I0J-200000D01*
G01*
X108535000Y-64435000D01*
G75*
G02*
X108335000Y-64635000I-200000J0D01*
G01*
X107785000Y-64635000D01*
G75*
G02*
X107585000Y-64435000I0J200000D01*
G01*
X107585000Y-64035000D01*
G75*
G02*
X107785000Y-63835000I200000J0D01*
G01*
G37*
G36*
G01*
X107785000Y-62185000D02*
X108335000Y-62185000D01*
G75*
G02*
X108535000Y-62385000I0J-200000D01*
G01*
X108535000Y-62785000D01*
G75*
G02*
X108335000Y-62985000I-200000J0D01*
G01*
X107785000Y-62985000D01*
G75*
G02*
X107585000Y-62785000I0J200000D01*
G01*
X107585000Y-62385000D01*
G75*
G02*
X107785000Y-62185000I200000J0D01*
G01*
G37*
G04 #@! TD*
G04 #@! TO.C,R2*
G36*
G01*
X118555000Y-53595000D02*
X119105000Y-53595000D01*
G75*
G02*
X119305000Y-53795000I0J-200000D01*
G01*
X119305000Y-54195000D01*
G75*
G02*
X119105000Y-54395000I-200000J0D01*
G01*
X118555000Y-54395000D01*
G75*
G02*
X118355000Y-54195000I0J200000D01*
G01*
X118355000Y-53795000D01*
G75*
G02*
X118555000Y-53595000I200000J0D01*
G01*
G37*
G36*
G01*
X118555000Y-51945000D02*
X119105000Y-51945000D01*
G75*
G02*
X119305000Y-52145000I0J-200000D01*
G01*
X119305000Y-52545000D01*
G75*
G02*
X119105000Y-52745000I-200000J0D01*
G01*
X118555000Y-52745000D01*
G75*
G02*
X118355000Y-52545000I0J200000D01*
G01*
X118355000Y-52145000D01*
G75*
G02*
X118555000Y-51945000I200000J0D01*
G01*
G37*
G04 #@! TD*
G04 #@! TO.C,C14*
G36*
G01*
X124620000Y-67515000D02*
X125120000Y-67515000D01*
G75*
G02*
X125345000Y-67740000I0J-225000D01*
G01*
X125345000Y-68190000D01*
G75*
G02*
X125120000Y-68415000I-225000J0D01*
G01*
X124620000Y-68415000D01*
G75*
G02*
X124395000Y-68190000I0J225000D01*
G01*
X124395000Y-67740000D01*
G75*
G02*
X124620000Y-67515000I225000J0D01*
G01*
G37*
G36*
G01*
X124620000Y-65965000D02*
X125120000Y-65965000D01*
G75*
G02*
X125345000Y-66190000I0J-225000D01*
G01*
X125345000Y-66640000D01*
G75*
G02*
X125120000Y-66865000I-225000J0D01*
G01*
X124620000Y-66865000D01*
G75*
G02*
X124395000Y-66640000I0J225000D01*
G01*
X124395000Y-66190000D01*
G75*
G02*
X124620000Y-65965000I225000J0D01*
G01*
G37*
G04 #@! TD*
G04 #@! TO.C,C12*
G36*
G01*
X112445000Y-68810000D02*
X112445000Y-69310000D01*
G75*
G02*
X112220000Y-69535000I-225000J0D01*
G01*
X111770000Y-69535000D01*
G75*
G02*
X111545000Y-69310000I0J225000D01*
G01*
X111545000Y-68810000D01*
G75*
G02*
X111770000Y-68585000I225000J0D01*
G01*
X112220000Y-68585000D01*
G75*
G02*
X112445000Y-68810000I0J-225000D01*
G01*
G37*
G36*
G01*
X110895000Y-68810000D02*
X110895000Y-69310000D01*
G75*
G02*
X110670000Y-69535000I-225000J0D01*
G01*
X110220000Y-69535000D01*
G75*
G02*
X109995000Y-69310000I0J225000D01*
G01*
X109995000Y-68810000D01*
G75*
G02*
X110220000Y-68585000I225000J0D01*
G01*
X110670000Y-68585000D01*
G75*
G02*
X110895000Y-68810000I0J-225000D01*
G01*
G37*
G04 #@! TD*
G04 #@! TO.C,C7*
G36*
G01*
X126130000Y-69095000D02*
X126630000Y-69095000D01*
G75*
G02*
X126855000Y-69320000I0J-225000D01*
G01*
X126855000Y-69770000D01*
G75*
G02*
X126630000Y-69995000I-225000J0D01*
G01*
X126130000Y-69995000D01*
G75*
G02*
X125905000Y-69770000I0J225000D01*
G01*
X125905000Y-69320000D01*
G75*
G02*
X126130000Y-69095000I225000J0D01*
G01*
G37*
G36*
G01*
X126130000Y-67545000D02*
X126630000Y-67545000D01*
G75*
G02*
X126855000Y-67770000I0J-225000D01*
G01*
X126855000Y-68220000D01*
G75*
G02*
X126630000Y-68445000I-225000J0D01*
G01*
X126130000Y-68445000D01*
G75*
G02*
X125905000Y-68220000I0J225000D01*
G01*
X125905000Y-67770000D01*
G75*
G02*
X126130000Y-67545000I225000J0D01*
G01*
G37*
G04 #@! TD*
G04 #@! TO.C,C2*
G36*
G01*
X124565000Y-59370000D02*
X124565000Y-59870000D01*
G75*
G02*
X124340000Y-60095000I-225000J0D01*
G01*
X123890000Y-60095000D01*
G75*
G02*
X123665000Y-59870000I0J225000D01*
G01*
X123665000Y-59370000D01*
G75*
G02*
X123890000Y-59145000I225000J0D01*
G01*
X124340000Y-59145000D01*
G75*
G02*
X124565000Y-59370000I0J-225000D01*
G01*
G37*
G36*
G01*
X126115000Y-59370000D02*
X126115000Y-59870000D01*
G75*
G02*
X125890000Y-60095000I-225000J0D01*
G01*
X125440000Y-60095000D01*
G75*
G02*
X125215000Y-59870000I0J225000D01*
G01*
X125215000Y-59370000D01*
G75*
G02*
X125440000Y-59145000I225000J0D01*
G01*
X125890000Y-59145000D01*
G75*
G02*
X126115000Y-59370000I0J-225000D01*
G01*
G37*
G04 #@! TD*
M02*
