G04 #@! TF.GenerationSoftware,KiCad,Pcbnew,(5.1.10-1-10_14)*
G04 #@! TF.CreationDate,2022-06-04T01:49:53+09:00*
G04 #@! TF.ProjectId,cmsis-dap_rp2040,636d7369-732d-4646-9170-5f7270323034,rev?*
G04 #@! TF.SameCoordinates,Original*
G04 #@! TF.FileFunction,Soldermask,Top*
G04 #@! TF.FilePolarity,Negative*
%FSLAX46Y46*%
G04 Gerber Fmt 4.6, Leading zero omitted, Abs format (unit mm)*
G04 Created by KiCad (PCBNEW (5.1.10-1-10_14)) date 2022-06-04 01:49:53*
%MOMM*%
%LPD*%
G01*
G04 APERTURE LIST*
%ADD10C,2.000000*%
%ADD11O,1.700000X1.700000*%
%ADD12R,1.700000X1.700000*%
%ADD13C,1.000000*%
%ADD14R,1.100000X1.100000*%
%ADD15C,1.700000*%
%ADD16R,2.000000X1.500000*%
%ADD17R,2.000000X3.800000*%
%ADD18O,1.700000X0.900000*%
%ADD19O,2.400000X0.900000*%
%ADD20C,0.700000*%
%ADD21C,0.600000*%
%ADD22C,3.000000*%
%ADD23R,1.000000X1.400000*%
%ADD24R,1.200000X1.400000*%
G04 APERTURE END LIST*
G04 #@! TO.C,C5*
G36*
G01*
X112240000Y-71035000D02*
X111740000Y-71035000D01*
G75*
G02*
X111515000Y-70810000I0J225000D01*
G01*
X111515000Y-70360000D01*
G75*
G02*
X111740000Y-70135000I225000J0D01*
G01*
X112240000Y-70135000D01*
G75*
G02*
X112465000Y-70360000I0J-225000D01*
G01*
X112465000Y-70810000D01*
G75*
G02*
X112240000Y-71035000I-225000J0D01*
G01*
G37*
G36*
G01*
X112240000Y-69485000D02*
X111740000Y-69485000D01*
G75*
G02*
X111515000Y-69260000I0J225000D01*
G01*
X111515000Y-68810000D01*
G75*
G02*
X111740000Y-68585000I225000J0D01*
G01*
X112240000Y-68585000D01*
G75*
G02*
X112465000Y-68810000I0J-225000D01*
G01*
X112465000Y-69260000D01*
G75*
G02*
X112240000Y-69485000I-225000J0D01*
G01*
G37*
G04 #@! TD*
G04 #@! TO.C,C13*
G36*
G01*
X122125000Y-67030000D02*
X122125000Y-67530000D01*
G75*
G02*
X121900000Y-67755000I-225000J0D01*
G01*
X121450000Y-67755000D01*
G75*
G02*
X121225000Y-67530000I0J225000D01*
G01*
X121225000Y-67030000D01*
G75*
G02*
X121450000Y-66805000I225000J0D01*
G01*
X121900000Y-66805000D01*
G75*
G02*
X122125000Y-67030000I0J-225000D01*
G01*
G37*
G36*
G01*
X123675000Y-67030000D02*
X123675000Y-67530000D01*
G75*
G02*
X123450000Y-67755000I-225000J0D01*
G01*
X123000000Y-67755000D01*
G75*
G02*
X122775000Y-67530000I0J225000D01*
G01*
X122775000Y-67030000D01*
G75*
G02*
X123000000Y-66805000I225000J0D01*
G01*
X123450000Y-66805000D01*
G75*
G02*
X123675000Y-67030000I0J-225000D01*
G01*
G37*
G04 #@! TD*
D10*
G04 #@! TO.C,U3*
X118380000Y-65360000D03*
G04 #@! TD*
D11*
G04 #@! TO.C,J2*
X121440000Y-52350000D03*
D12*
X123980000Y-52350000D03*
G04 #@! TD*
D13*
G04 #@! TO.C,TP1*
X108700000Y-78670000D03*
G04 #@! TD*
G04 #@! TO.C,TP6*
X105140000Y-76190000D03*
G04 #@! TD*
G04 #@! TO.C,R7*
G36*
G01*
X128475000Y-78825000D02*
X128475000Y-78275000D01*
G75*
G02*
X128675000Y-78075000I200000J0D01*
G01*
X129075000Y-78075000D01*
G75*
G02*
X129275000Y-78275000I0J-200000D01*
G01*
X129275000Y-78825000D01*
G75*
G02*
X129075000Y-79025000I-200000J0D01*
G01*
X128675000Y-79025000D01*
G75*
G02*
X128475000Y-78825000I0J200000D01*
G01*
G37*
G36*
G01*
X126825000Y-78825000D02*
X126825000Y-78275000D01*
G75*
G02*
X127025000Y-78075000I200000J0D01*
G01*
X127425000Y-78075000D01*
G75*
G02*
X127625000Y-78275000I0J-200000D01*
G01*
X127625000Y-78825000D01*
G75*
G02*
X127425000Y-79025000I-200000J0D01*
G01*
X127025000Y-79025000D01*
G75*
G02*
X126825000Y-78825000I0J200000D01*
G01*
G37*
G04 #@! TD*
G04 #@! TO.C,D3*
G36*
G01*
X130730000Y-78293750D02*
X130730000Y-78806250D01*
G75*
G02*
X130511250Y-79025000I-218750J0D01*
G01*
X130073750Y-79025000D01*
G75*
G02*
X129855000Y-78806250I0J218750D01*
G01*
X129855000Y-78293750D01*
G75*
G02*
X130073750Y-78075000I218750J0D01*
G01*
X130511250Y-78075000D01*
G75*
G02*
X130730000Y-78293750I0J-218750D01*
G01*
G37*
G36*
G01*
X132305000Y-78293750D02*
X132305000Y-78806250D01*
G75*
G02*
X132086250Y-79025000I-218750J0D01*
G01*
X131648750Y-79025000D01*
G75*
G02*
X131430000Y-78806250I0J218750D01*
G01*
X131430000Y-78293750D01*
G75*
G02*
X131648750Y-78075000I218750J0D01*
G01*
X132086250Y-78075000D01*
G75*
G02*
X132305000Y-78293750I0J-218750D01*
G01*
G37*
G04 #@! TD*
D14*
G04 #@! TO.C,D2*
X108700000Y-73990000D03*
X108700000Y-76790000D03*
G04 #@! TD*
G04 #@! TO.C,C18*
G36*
G01*
X116670000Y-61795000D02*
X117170000Y-61795000D01*
G75*
G02*
X117395000Y-62020000I0J-225000D01*
G01*
X117395000Y-62470000D01*
G75*
G02*
X117170000Y-62695000I-225000J0D01*
G01*
X116670000Y-62695000D01*
G75*
G02*
X116445000Y-62470000I0J225000D01*
G01*
X116445000Y-62020000D01*
G75*
G02*
X116670000Y-61795000I225000J0D01*
G01*
G37*
G36*
G01*
X116670000Y-60245000D02*
X117170000Y-60245000D01*
G75*
G02*
X117395000Y-60470000I0J-225000D01*
G01*
X117395000Y-60920000D01*
G75*
G02*
X117170000Y-61145000I-225000J0D01*
G01*
X116670000Y-61145000D01*
G75*
G02*
X116445000Y-60920000I0J225000D01*
G01*
X116445000Y-60470000D01*
G75*
G02*
X116670000Y-60245000I225000J0D01*
G01*
G37*
G04 #@! TD*
D15*
G04 #@! TO.C,J4*
X139790000Y-78420000D03*
X139790000Y-75880000D03*
X139790000Y-73340000D03*
X139790000Y-70800000D03*
X139790000Y-68260000D03*
X139790000Y-65720000D03*
X139790000Y-63180000D03*
X139790000Y-60640000D03*
X139790000Y-58100000D03*
X139790000Y-55560000D03*
X137250000Y-78420000D03*
X137250000Y-75880000D03*
X137250000Y-73340000D03*
X137250000Y-70800000D03*
X137250000Y-68260000D03*
X137250000Y-65720000D03*
X137250000Y-63180000D03*
X137250000Y-60640000D03*
X137250000Y-58100000D03*
G36*
G01*
X136400000Y-56160000D02*
X136400000Y-54960000D01*
G75*
G02*
X136650000Y-54710000I250000J0D01*
G01*
X137850000Y-54710000D01*
G75*
G02*
X138100000Y-54960000I0J-250000D01*
G01*
X138100000Y-56160000D01*
G75*
G02*
X137850000Y-56410000I-250000J0D01*
G01*
X136650000Y-56410000D01*
G75*
G02*
X136400000Y-56160000I0J250000D01*
G01*
G37*
G04 #@! TD*
G04 #@! TO.C,L2*
G36*
G01*
X112076250Y-77590000D02*
X111563750Y-77590000D01*
G75*
G02*
X111345000Y-77371250I0J218750D01*
G01*
X111345000Y-76933750D01*
G75*
G02*
X111563750Y-76715000I218750J0D01*
G01*
X112076250Y-76715000D01*
G75*
G02*
X112295000Y-76933750I0J-218750D01*
G01*
X112295000Y-77371250D01*
G75*
G02*
X112076250Y-77590000I-218750J0D01*
G01*
G37*
G36*
G01*
X112076250Y-79165000D02*
X111563750Y-79165000D01*
G75*
G02*
X111345000Y-78946250I0J218750D01*
G01*
X111345000Y-78508750D01*
G75*
G02*
X111563750Y-78290000I218750J0D01*
G01*
X112076250Y-78290000D01*
G75*
G02*
X112295000Y-78508750I0J-218750D01*
G01*
X112295000Y-78946250D01*
G75*
G02*
X112076250Y-79165000I-218750J0D01*
G01*
G37*
G04 #@! TD*
D16*
G04 #@! TO.C,U4*
X118120000Y-76110000D03*
X118120000Y-80710000D03*
X118120000Y-78410000D03*
D17*
X124420000Y-78410000D03*
G04 #@! TD*
D13*
G04 #@! TO.C,TP5*
X115316000Y-75946000D03*
G04 #@! TD*
G04 #@! TO.C,TP3*
X113990000Y-80710000D03*
G04 #@! TD*
G04 #@! TO.C,TP2*
X111810000Y-73660000D03*
G04 #@! TD*
G04 #@! TO.C,R10*
G36*
G01*
X128475000Y-77295000D02*
X128475000Y-76745000D01*
G75*
G02*
X128675000Y-76545000I200000J0D01*
G01*
X129075000Y-76545000D01*
G75*
G02*
X129275000Y-76745000I0J-200000D01*
G01*
X129275000Y-77295000D01*
G75*
G02*
X129075000Y-77495000I-200000J0D01*
G01*
X128675000Y-77495000D01*
G75*
G02*
X128475000Y-77295000I0J200000D01*
G01*
G37*
G36*
G01*
X126825000Y-77295000D02*
X126825000Y-76745000D01*
G75*
G02*
X127025000Y-76545000I200000J0D01*
G01*
X127425000Y-76545000D01*
G75*
G02*
X127625000Y-76745000I0J-200000D01*
G01*
X127625000Y-77295000D01*
G75*
G02*
X127425000Y-77495000I-200000J0D01*
G01*
X127025000Y-77495000D01*
G75*
G02*
X126825000Y-77295000I0J200000D01*
G01*
G37*
G04 #@! TD*
G04 #@! TO.C,R1*
G36*
G01*
X122715000Y-58825000D02*
X122165000Y-58825000D01*
G75*
G02*
X121965000Y-58625000I0J200000D01*
G01*
X121965000Y-58225000D01*
G75*
G02*
X122165000Y-58025000I200000J0D01*
G01*
X122715000Y-58025000D01*
G75*
G02*
X122915000Y-58225000I0J-200000D01*
G01*
X122915000Y-58625000D01*
G75*
G02*
X122715000Y-58825000I-200000J0D01*
G01*
G37*
G36*
G01*
X122715000Y-60475000D02*
X122165000Y-60475000D01*
G75*
G02*
X121965000Y-60275000I0J200000D01*
G01*
X121965000Y-59875000D01*
G75*
G02*
X122165000Y-59675000I200000J0D01*
G01*
X122715000Y-59675000D01*
G75*
G02*
X122915000Y-59875000I0J-200000D01*
G01*
X122915000Y-60275000D01*
G75*
G02*
X122715000Y-60475000I-200000J0D01*
G01*
G37*
G04 #@! TD*
G04 #@! TO.C,L1*
G36*
G01*
X109850000Y-80976250D02*
X109850000Y-80463750D01*
G75*
G02*
X110068750Y-80245000I218750J0D01*
G01*
X110506250Y-80245000D01*
G75*
G02*
X110725000Y-80463750I0J-218750D01*
G01*
X110725000Y-80976250D01*
G75*
G02*
X110506250Y-81195000I-218750J0D01*
G01*
X110068750Y-81195000D01*
G75*
G02*
X109850000Y-80976250I0J218750D01*
G01*
G37*
G36*
G01*
X108275000Y-80976250D02*
X108275000Y-80463750D01*
G75*
G02*
X108493750Y-80245000I218750J0D01*
G01*
X108931250Y-80245000D01*
G75*
G02*
X109150000Y-80463750I0J-218750D01*
G01*
X109150000Y-80976250D01*
G75*
G02*
X108931250Y-81195000I-218750J0D01*
G01*
X108493750Y-81195000D01*
G75*
G02*
X108275000Y-80976250I0J218750D01*
G01*
G37*
G04 #@! TD*
D18*
G04 #@! TO.C,J1*
X101740000Y-70900000D03*
X101740000Y-62250000D03*
D19*
X105120000Y-70900000D03*
X105120000Y-62250000D03*
D20*
X104750000Y-67000000D03*
D21*
X104750000Y-69550000D03*
X104750000Y-68700000D03*
X104750000Y-67850000D03*
X104750000Y-63600000D03*
X104750000Y-65300000D03*
X104750000Y-66150000D03*
X104750000Y-64450000D03*
X106100000Y-69550000D03*
X106100000Y-68700000D03*
X106100000Y-67850000D03*
D20*
X106100000Y-67000000D03*
D21*
X106100000Y-66150000D03*
X106100000Y-65300000D03*
X106100000Y-64450000D03*
X106100000Y-63600000D03*
G04 #@! TD*
D22*
G04 #@! TO.C,H4*
X146750000Y-53250000D03*
G04 #@! TD*
G04 #@! TO.C,H3*
X103250000Y-80750000D03*
G04 #@! TD*
G04 #@! TO.C,H2*
X146750000Y-80750000D03*
G04 #@! TD*
G04 #@! TO.C,H1*
X103250000Y-53250000D03*
G04 #@! TD*
G04 #@! TO.C,D4*
G36*
G01*
X130726000Y-76769750D02*
X130726000Y-77282250D01*
G75*
G02*
X130507250Y-77501000I-218750J0D01*
G01*
X130069750Y-77501000D01*
G75*
G02*
X129851000Y-77282250I0J218750D01*
G01*
X129851000Y-76769750D01*
G75*
G02*
X130069750Y-76551000I218750J0D01*
G01*
X130507250Y-76551000D01*
G75*
G02*
X130726000Y-76769750I0J-218750D01*
G01*
G37*
G36*
G01*
X132301000Y-76769750D02*
X132301000Y-77282250D01*
G75*
G02*
X132082250Y-77501000I-218750J0D01*
G01*
X131644750Y-77501000D01*
G75*
G02*
X131426000Y-77282250I0J218750D01*
G01*
X131426000Y-76769750D01*
G75*
G02*
X131644750Y-76551000I218750J0D01*
G01*
X132082250Y-76551000D01*
G75*
G02*
X132301000Y-76769750I0J-218750D01*
G01*
G37*
G04 #@! TD*
D23*
G04 #@! TO.C,D1*
X110390000Y-67690000D03*
X108490000Y-67690000D03*
X108490000Y-65490000D03*
D24*
X110210000Y-65490000D03*
G04 #@! TD*
G04 #@! TO.C,C17*
G36*
G01*
X118830000Y-61793000D02*
X119330000Y-61793000D01*
G75*
G02*
X119555000Y-62018000I0J-225000D01*
G01*
X119555000Y-62468000D01*
G75*
G02*
X119330000Y-62693000I-225000J0D01*
G01*
X118830000Y-62693000D01*
G75*
G02*
X118605000Y-62468000I0J225000D01*
G01*
X118605000Y-62018000D01*
G75*
G02*
X118830000Y-61793000I225000J0D01*
G01*
G37*
G36*
G01*
X118830000Y-60243000D02*
X119330000Y-60243000D01*
G75*
G02*
X119555000Y-60468000I0J-225000D01*
G01*
X119555000Y-60918000D01*
G75*
G02*
X119330000Y-61143000I-225000J0D01*
G01*
X118830000Y-61143000D01*
G75*
G02*
X118605000Y-60918000I0J225000D01*
G01*
X118605000Y-60468000D01*
G75*
G02*
X118830000Y-60243000I225000J0D01*
G01*
G37*
G04 #@! TD*
G04 #@! TO.C,C15*
G36*
G01*
X118380000Y-71035000D02*
X117880000Y-71035000D01*
G75*
G02*
X117655000Y-70810000I0J225000D01*
G01*
X117655000Y-70360000D01*
G75*
G02*
X117880000Y-70135000I225000J0D01*
G01*
X118380000Y-70135000D01*
G75*
G02*
X118605000Y-70360000I0J-225000D01*
G01*
X118605000Y-70810000D01*
G75*
G02*
X118380000Y-71035000I-225000J0D01*
G01*
G37*
G36*
G01*
X118380000Y-69485000D02*
X117880000Y-69485000D01*
G75*
G02*
X117655000Y-69260000I0J225000D01*
G01*
X117655000Y-68810000D01*
G75*
G02*
X117880000Y-68585000I225000J0D01*
G01*
X118380000Y-68585000D01*
G75*
G02*
X118605000Y-68810000I0J-225000D01*
G01*
X118605000Y-69260000D01*
G75*
G02*
X118380000Y-69485000I-225000J0D01*
G01*
G37*
G04 #@! TD*
G04 #@! TO.C,C11*
G36*
G01*
X116370000Y-71045000D02*
X115870000Y-71045000D01*
G75*
G02*
X115645000Y-70820000I0J225000D01*
G01*
X115645000Y-70370000D01*
G75*
G02*
X115870000Y-70145000I225000J0D01*
G01*
X116370000Y-70145000D01*
G75*
G02*
X116595000Y-70370000I0J-225000D01*
G01*
X116595000Y-70820000D01*
G75*
G02*
X116370000Y-71045000I-225000J0D01*
G01*
G37*
G36*
G01*
X116370000Y-69495000D02*
X115870000Y-69495000D01*
G75*
G02*
X115645000Y-69270000I0J225000D01*
G01*
X115645000Y-68820000D01*
G75*
G02*
X115870000Y-68595000I225000J0D01*
G01*
X116370000Y-68595000D01*
G75*
G02*
X116595000Y-68820000I0J-225000D01*
G01*
X116595000Y-69270000D01*
G75*
G02*
X116370000Y-69495000I-225000J0D01*
G01*
G37*
G04 #@! TD*
G04 #@! TO.C,C10*
G36*
G01*
X112905000Y-75910000D02*
X112905000Y-75410000D01*
G75*
G02*
X113130000Y-75185000I225000J0D01*
G01*
X113580000Y-75185000D01*
G75*
G02*
X113805000Y-75410000I0J-225000D01*
G01*
X113805000Y-75910000D01*
G75*
G02*
X113580000Y-76135000I-225000J0D01*
G01*
X113130000Y-76135000D01*
G75*
G02*
X112905000Y-75910000I0J225000D01*
G01*
G37*
G36*
G01*
X111355000Y-75910000D02*
X111355000Y-75410000D01*
G75*
G02*
X111580000Y-75185000I225000J0D01*
G01*
X112030000Y-75185000D01*
G75*
G02*
X112255000Y-75410000I0J-225000D01*
G01*
X112255000Y-75910000D01*
G75*
G02*
X112030000Y-76135000I-225000J0D01*
G01*
X111580000Y-76135000D01*
G75*
G02*
X111355000Y-75910000I0J225000D01*
G01*
G37*
G04 #@! TD*
G04 #@! TO.C,C9*
G36*
G01*
X113240000Y-65045000D02*
X113740000Y-65045000D01*
G75*
G02*
X113965000Y-65270000I0J-225000D01*
G01*
X113965000Y-65720000D01*
G75*
G02*
X113740000Y-65945000I-225000J0D01*
G01*
X113240000Y-65945000D01*
G75*
G02*
X113015000Y-65720000I0J225000D01*
G01*
X113015000Y-65270000D01*
G75*
G02*
X113240000Y-65045000I225000J0D01*
G01*
G37*
G36*
G01*
X113240000Y-63495000D02*
X113740000Y-63495000D01*
G75*
G02*
X113965000Y-63720000I0J-225000D01*
G01*
X113965000Y-64170000D01*
G75*
G02*
X113740000Y-64395000I-225000J0D01*
G01*
X113240000Y-64395000D01*
G75*
G02*
X113015000Y-64170000I0J225000D01*
G01*
X113015000Y-63720000D01*
G75*
G02*
X113240000Y-63495000I225000J0D01*
G01*
G37*
G04 #@! TD*
G04 #@! TO.C,C8*
G36*
G01*
X114750000Y-65045000D02*
X115250000Y-65045000D01*
G75*
G02*
X115475000Y-65270000I0J-225000D01*
G01*
X115475000Y-65720000D01*
G75*
G02*
X115250000Y-65945000I-225000J0D01*
G01*
X114750000Y-65945000D01*
G75*
G02*
X114525000Y-65720000I0J225000D01*
G01*
X114525000Y-65270000D01*
G75*
G02*
X114750000Y-65045000I225000J0D01*
G01*
G37*
G36*
G01*
X114750000Y-63495000D02*
X115250000Y-63495000D01*
G75*
G02*
X115475000Y-63720000I0J-225000D01*
G01*
X115475000Y-64170000D01*
G75*
G02*
X115250000Y-64395000I-225000J0D01*
G01*
X114750000Y-64395000D01*
G75*
G02*
X114525000Y-64170000I0J225000D01*
G01*
X114525000Y-63720000D01*
G75*
G02*
X114750000Y-63495000I225000J0D01*
G01*
G37*
G04 #@! TD*
G04 #@! TO.C,C6*
G36*
G01*
X114360000Y-71035000D02*
X113860000Y-71035000D01*
G75*
G02*
X113635000Y-70810000I0J225000D01*
G01*
X113635000Y-70360000D01*
G75*
G02*
X113860000Y-70135000I225000J0D01*
G01*
X114360000Y-70135000D01*
G75*
G02*
X114585000Y-70360000I0J-225000D01*
G01*
X114585000Y-70810000D01*
G75*
G02*
X114360000Y-71035000I-225000J0D01*
G01*
G37*
G36*
G01*
X114360000Y-69485000D02*
X113860000Y-69485000D01*
G75*
G02*
X113635000Y-69260000I0J225000D01*
G01*
X113635000Y-68810000D01*
G75*
G02*
X113860000Y-68585000I225000J0D01*
G01*
X114360000Y-68585000D01*
G75*
G02*
X114585000Y-68810000I0J-225000D01*
G01*
X114585000Y-69260000D01*
G75*
G02*
X114360000Y-69485000I-225000J0D01*
G01*
G37*
G04 #@! TD*
G04 #@! TO.C,C4*
G36*
G01*
X115470000Y-81815000D02*
X115970000Y-81815000D01*
G75*
G02*
X116195000Y-82040000I0J-225000D01*
G01*
X116195000Y-82490000D01*
G75*
G02*
X115970000Y-82715000I-225000J0D01*
G01*
X115470000Y-82715000D01*
G75*
G02*
X115245000Y-82490000I0J225000D01*
G01*
X115245000Y-82040000D01*
G75*
G02*
X115470000Y-81815000I225000J0D01*
G01*
G37*
G36*
G01*
X115470000Y-80265000D02*
X115970000Y-80265000D01*
G75*
G02*
X116195000Y-80490000I0J-225000D01*
G01*
X116195000Y-80940000D01*
G75*
G02*
X115970000Y-81165000I-225000J0D01*
G01*
X115470000Y-81165000D01*
G75*
G02*
X115245000Y-80940000I0J225000D01*
G01*
X115245000Y-80490000D01*
G75*
G02*
X115470000Y-80265000I225000J0D01*
G01*
G37*
G04 #@! TD*
G04 #@! TO.C,C3*
G36*
G01*
X112010000Y-81805000D02*
X112510000Y-81805000D01*
G75*
G02*
X112735000Y-82030000I0J-225000D01*
G01*
X112735000Y-82480000D01*
G75*
G02*
X112510000Y-82705000I-225000J0D01*
G01*
X112010000Y-82705000D01*
G75*
G02*
X111785000Y-82480000I0J225000D01*
G01*
X111785000Y-82030000D01*
G75*
G02*
X112010000Y-81805000I225000J0D01*
G01*
G37*
G36*
G01*
X112010000Y-80255000D02*
X112510000Y-80255000D01*
G75*
G02*
X112735000Y-80480000I0J-225000D01*
G01*
X112735000Y-80930000D01*
G75*
G02*
X112510000Y-81155000I-225000J0D01*
G01*
X112010000Y-81155000D01*
G75*
G02*
X111785000Y-80930000I0J225000D01*
G01*
X111785000Y-80480000D01*
G75*
G02*
X112010000Y-80255000I225000J0D01*
G01*
G37*
G04 #@! TD*
G04 #@! TO.C,C1*
G36*
G01*
X110660000Y-53445000D02*
X111160000Y-53445000D01*
G75*
G02*
X111385000Y-53670000I0J-225000D01*
G01*
X111385000Y-54120000D01*
G75*
G02*
X111160000Y-54345000I-225000J0D01*
G01*
X110660000Y-54345000D01*
G75*
G02*
X110435000Y-54120000I0J225000D01*
G01*
X110435000Y-53670000D01*
G75*
G02*
X110660000Y-53445000I225000J0D01*
G01*
G37*
G36*
G01*
X110660000Y-51895000D02*
X111160000Y-51895000D01*
G75*
G02*
X111385000Y-52120000I0J-225000D01*
G01*
X111385000Y-52570000D01*
G75*
G02*
X111160000Y-52795000I-225000J0D01*
G01*
X110660000Y-52795000D01*
G75*
G02*
X110435000Y-52570000I0J225000D01*
G01*
X110435000Y-52120000D01*
G75*
G02*
X110660000Y-51895000I225000J0D01*
G01*
G37*
G04 #@! TD*
M02*
