G04 #@! TF.GenerationSoftware,KiCad,Pcbnew,(5.1.10-1-10_14)*
G04 #@! TF.CreationDate,2022-06-04T01:49:53+09:00*
G04 #@! TF.ProjectId,cmsis-dap_rp2040,636d7369-732d-4646-9170-5f7270323034,rev?*
G04 #@! TF.SameCoordinates,Original*
G04 #@! TF.FileFunction,Legend,Bot*
G04 #@! TF.FilePolarity,Positive*
%FSLAX46Y46*%
G04 Gerber Fmt 4.6, Leading zero omitted, Abs format (unit mm)*
G04 Created by KiCad (PCBNEW (5.1.10-1-10_14)) date 2022-06-04 01:49:53*
%MOMM*%
%LPD*%
G01*
G04 APERTURE LIST*
%ADD10C,0.150000*%
%ADD11C,0.120000*%
G04 APERTURE END LIST*
D10*
X115260000Y-61814285D02*
X115164761Y-61909523D01*
X115260000Y-62004761D01*
X115355238Y-61909523D01*
X115260000Y-61814285D01*
X115260000Y-62004761D01*
D11*
G04 #@! TO.C,C16*
X111030580Y-62080000D02*
X110749420Y-62080000D01*
X111030580Y-63100000D02*
X110749420Y-63100000D01*
G04 #@! TO.C,U3*
X114730000Y-68360000D02*
X114730000Y-69010000D01*
X114730000Y-69010000D02*
X115380000Y-69010000D01*
X122030000Y-68360000D02*
X122030000Y-69010000D01*
X122030000Y-69010000D02*
X121380000Y-69010000D01*
X122030000Y-62360000D02*
X122030000Y-61710000D01*
X122030000Y-61710000D02*
X121380000Y-61710000D01*
X114730000Y-62360000D02*
X114730000Y-61422500D01*
G04 #@! TO.C,TP10*
X104390000Y-58820000D02*
G75*
G03*
X104390000Y-58820000I-700000J0D01*
G01*
G04 #@! TO.C,TP9*
X118340000Y-58370000D02*
G75*
G03*
X118340000Y-58370000I-700000J0D01*
G01*
G04 #@! TO.C,TP8*
X116540000Y-59340000D02*
G75*
G03*
X116540000Y-59340000I-700000J0D01*
G01*
G04 #@! TO.C,R12*
X124367258Y-64237500D02*
X123892742Y-64237500D01*
X124367258Y-65282500D02*
X123892742Y-65282500D01*
G04 #@! TO.C,U2*
X111980000Y-56975000D02*
X109255000Y-56975000D01*
X109255000Y-56975000D02*
X109255000Y-56715000D01*
X111980000Y-56975000D02*
X114705000Y-56975000D01*
X114705000Y-56975000D02*
X114705000Y-56715000D01*
X111980000Y-51525000D02*
X109255000Y-51525000D01*
X109255000Y-51525000D02*
X109255000Y-51785000D01*
X111980000Y-51525000D02*
X114705000Y-51525000D01*
X114705000Y-51525000D02*
X114705000Y-51785000D01*
X114705000Y-51785000D02*
X116380000Y-51785000D01*
G04 #@! TO.C,R16*
X120597500Y-59077258D02*
X120597500Y-58602742D01*
X121642500Y-59077258D02*
X121642500Y-58602742D01*
G04 #@! TO.C,R15*
X122272742Y-74542500D02*
X122747258Y-74542500D01*
X122272742Y-73497500D02*
X122747258Y-73497500D01*
G04 #@! TO.C,R14*
X122107500Y-59067258D02*
X122107500Y-58592742D01*
X123152500Y-59067258D02*
X123152500Y-58592742D01*
G04 #@! TO.C,R13*
X122262742Y-72462500D02*
X122737258Y-72462500D01*
X122262742Y-71417500D02*
X122737258Y-71417500D01*
G04 #@! TO.C,R11*
X122282742Y-76542500D02*
X122757258Y-76542500D01*
X122282742Y-75497500D02*
X122757258Y-75497500D01*
G04 #@! TO.C,R9*
X120132500Y-59077258D02*
X120132500Y-58602742D01*
X119087500Y-59077258D02*
X119087500Y-58602742D01*
G04 #@! TO.C,TP7*
X110682000Y-72136000D02*
G75*
G03*
X110682000Y-72136000I-700000J0D01*
G01*
G04 #@! TO.C,U1*
X123670000Y-60550000D02*
X125470000Y-60550000D01*
X125470000Y-63770000D02*
X123020000Y-63770000D01*
G04 #@! TO.C,R8*
X128422500Y-69007258D02*
X128422500Y-68532742D01*
X127377500Y-69007258D02*
X127377500Y-68532742D01*
G04 #@! TO.C,R6*
X110587258Y-65307500D02*
X110112742Y-65307500D01*
X110587258Y-66352500D02*
X110112742Y-66352500D01*
G04 #@! TO.C,R5*
X110587258Y-66807500D02*
X110112742Y-66807500D01*
X110587258Y-67852500D02*
X110112742Y-67852500D01*
G04 #@! TO.C,R4*
X103272500Y-68337258D02*
X103272500Y-67862742D01*
X102227500Y-68337258D02*
X102227500Y-67862742D01*
G04 #@! TO.C,R3*
X107537500Y-63172742D02*
X107537500Y-63647258D01*
X108582500Y-63172742D02*
X108582500Y-63647258D01*
G04 #@! TO.C,R2*
X118307500Y-52932742D02*
X118307500Y-53407258D01*
X119352500Y-52932742D02*
X119352500Y-53407258D01*
G04 #@! TO.C,C14*
X124360000Y-67049420D02*
X124360000Y-67330580D01*
X125380000Y-67049420D02*
X125380000Y-67330580D01*
G04 #@! TO.C,C12*
X111360580Y-69570000D02*
X111079420Y-69570000D01*
X111360580Y-68550000D02*
X111079420Y-68550000D01*
G04 #@! TO.C,C7*
X125870000Y-68629420D02*
X125870000Y-68910580D01*
X126890000Y-68629420D02*
X126890000Y-68910580D01*
G04 #@! TO.C,C2*
X125030580Y-59110000D02*
X124749420Y-59110000D01*
X125030580Y-60130000D02*
X124749420Y-60130000D01*
G04 #@! TO.C,C16*
D10*
X111552857Y-61507142D02*
X111600476Y-61554761D01*
X111743333Y-61602380D01*
X111838571Y-61602380D01*
X111981428Y-61554761D01*
X112076666Y-61459523D01*
X112124285Y-61364285D01*
X112171904Y-61173809D01*
X112171904Y-61030952D01*
X112124285Y-60840476D01*
X112076666Y-60745238D01*
X111981428Y-60650000D01*
X111838571Y-60602380D01*
X111743333Y-60602380D01*
X111600476Y-60650000D01*
X111552857Y-60697619D01*
X110600476Y-61602380D02*
X111171904Y-61602380D01*
X110886190Y-61602380D02*
X110886190Y-60602380D01*
X110981428Y-60745238D01*
X111076666Y-60840476D01*
X111171904Y-60888095D01*
X109743333Y-60602380D02*
X109933809Y-60602380D01*
X110029047Y-60650000D01*
X110076666Y-60697619D01*
X110171904Y-60840476D01*
X110219523Y-61030952D01*
X110219523Y-61411904D01*
X110171904Y-61507142D01*
X110124285Y-61554761D01*
X110029047Y-61602380D01*
X109838571Y-61602380D01*
X109743333Y-61554761D01*
X109695714Y-61507142D01*
X109648095Y-61411904D01*
X109648095Y-61173809D01*
X109695714Y-61078571D01*
X109743333Y-61030952D01*
X109838571Y-60983333D01*
X110029047Y-60983333D01*
X110124285Y-61030952D01*
X110171904Y-61078571D01*
X110219523Y-61173809D01*
G04 #@! TO.C,U3*
X112632380Y-64598095D02*
X113441904Y-64598095D01*
X113537142Y-64645714D01*
X113584761Y-64693333D01*
X113632380Y-64788571D01*
X113632380Y-64979047D01*
X113584761Y-65074285D01*
X113537142Y-65121904D01*
X113441904Y-65169523D01*
X112632380Y-65169523D01*
X112632380Y-65550476D02*
X112632380Y-66169523D01*
X113013333Y-65836190D01*
X113013333Y-65979047D01*
X113060952Y-66074285D01*
X113108571Y-66121904D01*
X113203809Y-66169523D01*
X113441904Y-66169523D01*
X113537142Y-66121904D01*
X113584761Y-66074285D01*
X113632380Y-65979047D01*
X113632380Y-65693333D01*
X113584761Y-65598095D01*
X113537142Y-65550476D01*
G04 #@! TO.C,TP10*
X105428095Y-59720380D02*
X104856666Y-59720380D01*
X105142380Y-60720380D02*
X105142380Y-59720380D01*
X104523333Y-60720380D02*
X104523333Y-59720380D01*
X104142380Y-59720380D01*
X104047142Y-59768000D01*
X103999523Y-59815619D01*
X103951904Y-59910857D01*
X103951904Y-60053714D01*
X103999523Y-60148952D01*
X104047142Y-60196571D01*
X104142380Y-60244190D01*
X104523333Y-60244190D01*
X102999523Y-60720380D02*
X103570952Y-60720380D01*
X103285238Y-60720380D02*
X103285238Y-59720380D01*
X103380476Y-59863238D01*
X103475714Y-59958476D01*
X103570952Y-60006095D01*
X102380476Y-59720380D02*
X102285238Y-59720380D01*
X102190000Y-59768000D01*
X102142380Y-59815619D01*
X102094761Y-59910857D01*
X102047142Y-60101333D01*
X102047142Y-60339428D01*
X102094761Y-60529904D01*
X102142380Y-60625142D01*
X102190000Y-60672761D01*
X102285238Y-60720380D01*
X102380476Y-60720380D01*
X102475714Y-60672761D01*
X102523333Y-60625142D01*
X102570952Y-60529904D01*
X102618571Y-60339428D01*
X102618571Y-60101333D01*
X102570952Y-59910857D01*
X102523333Y-59815619D01*
X102475714Y-59768000D01*
X102380476Y-59720380D01*
G04 #@! TO.C,R12*
X128692857Y-64632380D02*
X129026190Y-64156190D01*
X129264285Y-64632380D02*
X129264285Y-63632380D01*
X128883333Y-63632380D01*
X128788095Y-63680000D01*
X128740476Y-63727619D01*
X128692857Y-63822857D01*
X128692857Y-63965714D01*
X128740476Y-64060952D01*
X128788095Y-64108571D01*
X128883333Y-64156190D01*
X129264285Y-64156190D01*
X127740476Y-64632380D02*
X128311904Y-64632380D01*
X128026190Y-64632380D02*
X128026190Y-63632380D01*
X128121428Y-63775238D01*
X128216666Y-63870476D01*
X128311904Y-63918095D01*
X127359523Y-63727619D02*
X127311904Y-63680000D01*
X127216666Y-63632380D01*
X126978571Y-63632380D01*
X126883333Y-63680000D01*
X126835714Y-63727619D01*
X126788095Y-63822857D01*
X126788095Y-63918095D01*
X126835714Y-64060952D01*
X127407142Y-64632380D01*
X126788095Y-64632380D01*
G04 #@! TO.C,U2*
X112761904Y-57422380D02*
X112761904Y-58231904D01*
X112714285Y-58327142D01*
X112666666Y-58374761D01*
X112571428Y-58422380D01*
X112380952Y-58422380D01*
X112285714Y-58374761D01*
X112238095Y-58327142D01*
X112190476Y-58231904D01*
X112190476Y-57422380D01*
X111761904Y-57517619D02*
X111714285Y-57470000D01*
X111619047Y-57422380D01*
X111380952Y-57422380D01*
X111285714Y-57470000D01*
X111238095Y-57517619D01*
X111190476Y-57612857D01*
X111190476Y-57708095D01*
X111238095Y-57850952D01*
X111809523Y-58422380D01*
X111190476Y-58422380D01*
G04 #@! TO.C,R16*
X121602380Y-55297142D02*
X121126190Y-54963809D01*
X121602380Y-54725714D02*
X120602380Y-54725714D01*
X120602380Y-55106666D01*
X120650000Y-55201904D01*
X120697619Y-55249523D01*
X120792857Y-55297142D01*
X120935714Y-55297142D01*
X121030952Y-55249523D01*
X121078571Y-55201904D01*
X121126190Y-55106666D01*
X121126190Y-54725714D01*
X121602380Y-56249523D02*
X121602380Y-55678095D01*
X121602380Y-55963809D02*
X120602380Y-55963809D01*
X120745238Y-55868571D01*
X120840476Y-55773333D01*
X120888095Y-55678095D01*
X120602380Y-57106666D02*
X120602380Y-56916190D01*
X120650000Y-56820952D01*
X120697619Y-56773333D01*
X120840476Y-56678095D01*
X121030952Y-56630476D01*
X121411904Y-56630476D01*
X121507142Y-56678095D01*
X121554761Y-56725714D01*
X121602380Y-56820952D01*
X121602380Y-57011428D01*
X121554761Y-57106666D01*
X121507142Y-57154285D01*
X121411904Y-57201904D01*
X121173809Y-57201904D01*
X121078571Y-57154285D01*
X121030952Y-57106666D01*
X120983333Y-57011428D01*
X120983333Y-56820952D01*
X121030952Y-56725714D01*
X121078571Y-56678095D01*
X121173809Y-56630476D01*
G04 #@! TO.C,R15*
X126152857Y-74492380D02*
X126486190Y-74016190D01*
X126724285Y-74492380D02*
X126724285Y-73492380D01*
X126343333Y-73492380D01*
X126248095Y-73540000D01*
X126200476Y-73587619D01*
X126152857Y-73682857D01*
X126152857Y-73825714D01*
X126200476Y-73920952D01*
X126248095Y-73968571D01*
X126343333Y-74016190D01*
X126724285Y-74016190D01*
X125200476Y-74492380D02*
X125771904Y-74492380D01*
X125486190Y-74492380D02*
X125486190Y-73492380D01*
X125581428Y-73635238D01*
X125676666Y-73730476D01*
X125771904Y-73778095D01*
X124295714Y-73492380D02*
X124771904Y-73492380D01*
X124819523Y-73968571D01*
X124771904Y-73920952D01*
X124676666Y-73873333D01*
X124438571Y-73873333D01*
X124343333Y-73920952D01*
X124295714Y-73968571D01*
X124248095Y-74063809D01*
X124248095Y-74301904D01*
X124295714Y-74397142D01*
X124343333Y-74444761D01*
X124438571Y-74492380D01*
X124676666Y-74492380D01*
X124771904Y-74444761D01*
X124819523Y-74397142D01*
G04 #@! TO.C,R14*
X122992380Y-55267142D02*
X122516190Y-54933809D01*
X122992380Y-54695714D02*
X121992380Y-54695714D01*
X121992380Y-55076666D01*
X122040000Y-55171904D01*
X122087619Y-55219523D01*
X122182857Y-55267142D01*
X122325714Y-55267142D01*
X122420952Y-55219523D01*
X122468571Y-55171904D01*
X122516190Y-55076666D01*
X122516190Y-54695714D01*
X122992380Y-56219523D02*
X122992380Y-55648095D01*
X122992380Y-55933809D02*
X121992380Y-55933809D01*
X122135238Y-55838571D01*
X122230476Y-55743333D01*
X122278095Y-55648095D01*
X122325714Y-57076666D02*
X122992380Y-57076666D01*
X121944761Y-56838571D02*
X122659047Y-56600476D01*
X122659047Y-57219523D01*
G04 #@! TO.C,R13*
X126012857Y-72452380D02*
X126346190Y-71976190D01*
X126584285Y-72452380D02*
X126584285Y-71452380D01*
X126203333Y-71452380D01*
X126108095Y-71500000D01*
X126060476Y-71547619D01*
X126012857Y-71642857D01*
X126012857Y-71785714D01*
X126060476Y-71880952D01*
X126108095Y-71928571D01*
X126203333Y-71976190D01*
X126584285Y-71976190D01*
X125060476Y-72452380D02*
X125631904Y-72452380D01*
X125346190Y-72452380D02*
X125346190Y-71452380D01*
X125441428Y-71595238D01*
X125536666Y-71690476D01*
X125631904Y-71738095D01*
X124727142Y-71452380D02*
X124108095Y-71452380D01*
X124441428Y-71833333D01*
X124298571Y-71833333D01*
X124203333Y-71880952D01*
X124155714Y-71928571D01*
X124108095Y-72023809D01*
X124108095Y-72261904D01*
X124155714Y-72357142D01*
X124203333Y-72404761D01*
X124298571Y-72452380D01*
X124584285Y-72452380D01*
X124679523Y-72404761D01*
X124727142Y-72357142D01*
G04 #@! TO.C,R11*
X126072857Y-76482380D02*
X126406190Y-76006190D01*
X126644285Y-76482380D02*
X126644285Y-75482380D01*
X126263333Y-75482380D01*
X126168095Y-75530000D01*
X126120476Y-75577619D01*
X126072857Y-75672857D01*
X126072857Y-75815714D01*
X126120476Y-75910952D01*
X126168095Y-75958571D01*
X126263333Y-76006190D01*
X126644285Y-76006190D01*
X125120476Y-76482380D02*
X125691904Y-76482380D01*
X125406190Y-76482380D02*
X125406190Y-75482380D01*
X125501428Y-75625238D01*
X125596666Y-75720476D01*
X125691904Y-75768095D01*
X124168095Y-76482380D02*
X124739523Y-76482380D01*
X124453809Y-76482380D02*
X124453809Y-75482380D01*
X124549047Y-75625238D01*
X124644285Y-75720476D01*
X124739523Y-75768095D01*
G04 #@! TO.C,R9*
X120072380Y-55963333D02*
X119596190Y-55630000D01*
X120072380Y-55391904D02*
X119072380Y-55391904D01*
X119072380Y-55772857D01*
X119120000Y-55868095D01*
X119167619Y-55915714D01*
X119262857Y-55963333D01*
X119405714Y-55963333D01*
X119500952Y-55915714D01*
X119548571Y-55868095D01*
X119596190Y-55772857D01*
X119596190Y-55391904D01*
X120072380Y-56439523D02*
X120072380Y-56630000D01*
X120024761Y-56725238D01*
X119977142Y-56772857D01*
X119834285Y-56868095D01*
X119643809Y-56915714D01*
X119262857Y-56915714D01*
X119167619Y-56868095D01*
X119120000Y-56820476D01*
X119072380Y-56725238D01*
X119072380Y-56534761D01*
X119120000Y-56439523D01*
X119167619Y-56391904D01*
X119262857Y-56344285D01*
X119500952Y-56344285D01*
X119596190Y-56391904D01*
X119643809Y-56439523D01*
X119691428Y-56534761D01*
X119691428Y-56725238D01*
X119643809Y-56820476D01*
X119596190Y-56868095D01*
X119500952Y-56915714D01*
G04 #@! TO.C,TP7*
X111243904Y-73036380D02*
X110672476Y-73036380D01*
X110958190Y-74036380D02*
X110958190Y-73036380D01*
X110339142Y-74036380D02*
X110339142Y-73036380D01*
X109958190Y-73036380D01*
X109862952Y-73084000D01*
X109815333Y-73131619D01*
X109767714Y-73226857D01*
X109767714Y-73369714D01*
X109815333Y-73464952D01*
X109862952Y-73512571D01*
X109958190Y-73560190D01*
X110339142Y-73560190D01*
X109434380Y-73036380D02*
X108767714Y-73036380D01*
X109196285Y-74036380D01*
G04 #@! TO.C,U1*
X128191904Y-61642380D02*
X128191904Y-62451904D01*
X128144285Y-62547142D01*
X128096666Y-62594761D01*
X128001428Y-62642380D01*
X127810952Y-62642380D01*
X127715714Y-62594761D01*
X127668095Y-62547142D01*
X127620476Y-62451904D01*
X127620476Y-61642380D01*
X126620476Y-62642380D02*
X127191904Y-62642380D01*
X126906190Y-62642380D02*
X126906190Y-61642380D01*
X127001428Y-61785238D01*
X127096666Y-61880476D01*
X127191904Y-61928095D01*
G04 #@! TO.C,R8*
X128392380Y-65583333D02*
X127916190Y-65250000D01*
X128392380Y-65011904D02*
X127392380Y-65011904D01*
X127392380Y-65392857D01*
X127440000Y-65488095D01*
X127487619Y-65535714D01*
X127582857Y-65583333D01*
X127725714Y-65583333D01*
X127820952Y-65535714D01*
X127868571Y-65488095D01*
X127916190Y-65392857D01*
X127916190Y-65011904D01*
X127820952Y-66154761D02*
X127773333Y-66059523D01*
X127725714Y-66011904D01*
X127630476Y-65964285D01*
X127582857Y-65964285D01*
X127487619Y-66011904D01*
X127440000Y-66059523D01*
X127392380Y-66154761D01*
X127392380Y-66345238D01*
X127440000Y-66440476D01*
X127487619Y-66488095D01*
X127582857Y-66535714D01*
X127630476Y-66535714D01*
X127725714Y-66488095D01*
X127773333Y-66440476D01*
X127820952Y-66345238D01*
X127820952Y-66154761D01*
X127868571Y-66059523D01*
X127916190Y-66011904D01*
X128011428Y-65964285D01*
X128201904Y-65964285D01*
X128297142Y-66011904D01*
X128344761Y-66059523D01*
X128392380Y-66154761D01*
X128392380Y-66345238D01*
X128344761Y-66440476D01*
X128297142Y-66488095D01*
X128201904Y-66535714D01*
X128011428Y-66535714D01*
X127916190Y-66488095D01*
X127868571Y-66440476D01*
X127820952Y-66345238D01*
G04 #@! TO.C,R6*
X108036666Y-66282380D02*
X108370000Y-65806190D01*
X108608095Y-66282380D02*
X108608095Y-65282380D01*
X108227142Y-65282380D01*
X108131904Y-65330000D01*
X108084285Y-65377619D01*
X108036666Y-65472857D01*
X108036666Y-65615714D01*
X108084285Y-65710952D01*
X108131904Y-65758571D01*
X108227142Y-65806190D01*
X108608095Y-65806190D01*
X107179523Y-65282380D02*
X107370000Y-65282380D01*
X107465238Y-65330000D01*
X107512857Y-65377619D01*
X107608095Y-65520476D01*
X107655714Y-65710952D01*
X107655714Y-66091904D01*
X107608095Y-66187142D01*
X107560476Y-66234761D01*
X107465238Y-66282380D01*
X107274761Y-66282380D01*
X107179523Y-66234761D01*
X107131904Y-66187142D01*
X107084285Y-66091904D01*
X107084285Y-65853809D01*
X107131904Y-65758571D01*
X107179523Y-65710952D01*
X107274761Y-65663333D01*
X107465238Y-65663333D01*
X107560476Y-65710952D01*
X107608095Y-65758571D01*
X107655714Y-65853809D01*
G04 #@! TO.C,R5*
X108016666Y-67682380D02*
X108350000Y-67206190D01*
X108588095Y-67682380D02*
X108588095Y-66682380D01*
X108207142Y-66682380D01*
X108111904Y-66730000D01*
X108064285Y-66777619D01*
X108016666Y-66872857D01*
X108016666Y-67015714D01*
X108064285Y-67110952D01*
X108111904Y-67158571D01*
X108207142Y-67206190D01*
X108588095Y-67206190D01*
X107111904Y-66682380D02*
X107588095Y-66682380D01*
X107635714Y-67158571D01*
X107588095Y-67110952D01*
X107492857Y-67063333D01*
X107254761Y-67063333D01*
X107159523Y-67110952D01*
X107111904Y-67158571D01*
X107064285Y-67253809D01*
X107064285Y-67491904D01*
X107111904Y-67587142D01*
X107159523Y-67634761D01*
X107254761Y-67682380D01*
X107492857Y-67682380D01*
X107588095Y-67634761D01*
X107635714Y-67587142D01*
G04 #@! TO.C,R4*
X103292380Y-65353333D02*
X102816190Y-65020000D01*
X103292380Y-64781904D02*
X102292380Y-64781904D01*
X102292380Y-65162857D01*
X102340000Y-65258095D01*
X102387619Y-65305714D01*
X102482857Y-65353333D01*
X102625714Y-65353333D01*
X102720952Y-65305714D01*
X102768571Y-65258095D01*
X102816190Y-65162857D01*
X102816190Y-64781904D01*
X102625714Y-66210476D02*
X103292380Y-66210476D01*
X102244761Y-65972380D02*
X102959047Y-65734285D01*
X102959047Y-66353333D01*
G04 #@! TO.C,R3*
X108552380Y-60653333D02*
X108076190Y-60320000D01*
X108552380Y-60081904D02*
X107552380Y-60081904D01*
X107552380Y-60462857D01*
X107600000Y-60558095D01*
X107647619Y-60605714D01*
X107742857Y-60653333D01*
X107885714Y-60653333D01*
X107980952Y-60605714D01*
X108028571Y-60558095D01*
X108076190Y-60462857D01*
X108076190Y-60081904D01*
X107552380Y-60986666D02*
X107552380Y-61605714D01*
X107933333Y-61272380D01*
X107933333Y-61415238D01*
X107980952Y-61510476D01*
X108028571Y-61558095D01*
X108123809Y-61605714D01*
X108361904Y-61605714D01*
X108457142Y-61558095D01*
X108504761Y-61510476D01*
X108552380Y-61415238D01*
X108552380Y-61129523D01*
X108504761Y-61034285D01*
X108457142Y-60986666D01*
G04 #@! TO.C,R2*
X117922380Y-53103333D02*
X117446190Y-52770000D01*
X117922380Y-52531904D02*
X116922380Y-52531904D01*
X116922380Y-52912857D01*
X116970000Y-53008095D01*
X117017619Y-53055714D01*
X117112857Y-53103333D01*
X117255714Y-53103333D01*
X117350952Y-53055714D01*
X117398571Y-53008095D01*
X117446190Y-52912857D01*
X117446190Y-52531904D01*
X117017619Y-53484285D02*
X116970000Y-53531904D01*
X116922380Y-53627142D01*
X116922380Y-53865238D01*
X116970000Y-53960476D01*
X117017619Y-54008095D01*
X117112857Y-54055714D01*
X117208095Y-54055714D01*
X117350952Y-54008095D01*
X117922380Y-53436666D01*
X117922380Y-54055714D01*
G04 #@! TO.C,C14*
X123827142Y-68827142D02*
X123874761Y-68779523D01*
X123922380Y-68636666D01*
X123922380Y-68541428D01*
X123874761Y-68398571D01*
X123779523Y-68303333D01*
X123684285Y-68255714D01*
X123493809Y-68208095D01*
X123350952Y-68208095D01*
X123160476Y-68255714D01*
X123065238Y-68303333D01*
X122970000Y-68398571D01*
X122922380Y-68541428D01*
X122922380Y-68636666D01*
X122970000Y-68779523D01*
X123017619Y-68827142D01*
X123922380Y-69779523D02*
X123922380Y-69208095D01*
X123922380Y-69493809D02*
X122922380Y-69493809D01*
X123065238Y-69398571D01*
X123160476Y-69303333D01*
X123208095Y-69208095D01*
X123255714Y-70636666D02*
X123922380Y-70636666D01*
X122874761Y-70398571D02*
X123589047Y-70160476D01*
X123589047Y-70779523D01*
G04 #@! TO.C,C12*
X110242857Y-70927142D02*
X110290476Y-70974761D01*
X110433333Y-71022380D01*
X110528571Y-71022380D01*
X110671428Y-70974761D01*
X110766666Y-70879523D01*
X110814285Y-70784285D01*
X110861904Y-70593809D01*
X110861904Y-70450952D01*
X110814285Y-70260476D01*
X110766666Y-70165238D01*
X110671428Y-70070000D01*
X110528571Y-70022380D01*
X110433333Y-70022380D01*
X110290476Y-70070000D01*
X110242857Y-70117619D01*
X109290476Y-71022380D02*
X109861904Y-71022380D01*
X109576190Y-71022380D02*
X109576190Y-70022380D01*
X109671428Y-70165238D01*
X109766666Y-70260476D01*
X109861904Y-70308095D01*
X108909523Y-70117619D02*
X108861904Y-70070000D01*
X108766666Y-70022380D01*
X108528571Y-70022380D01*
X108433333Y-70070000D01*
X108385714Y-70117619D01*
X108338095Y-70212857D01*
X108338095Y-70308095D01*
X108385714Y-70450952D01*
X108957142Y-71022380D01*
X108338095Y-71022380D01*
G04 #@! TO.C,C7*
X126867142Y-65603333D02*
X126914761Y-65555714D01*
X126962380Y-65412857D01*
X126962380Y-65317619D01*
X126914761Y-65174761D01*
X126819523Y-65079523D01*
X126724285Y-65031904D01*
X126533809Y-64984285D01*
X126390952Y-64984285D01*
X126200476Y-65031904D01*
X126105238Y-65079523D01*
X126010000Y-65174761D01*
X125962380Y-65317619D01*
X125962380Y-65412857D01*
X126010000Y-65555714D01*
X126057619Y-65603333D01*
X125962380Y-65936666D02*
X125962380Y-66603333D01*
X126962380Y-66174761D01*
G04 #@! TO.C,C2*
X127726666Y-59977142D02*
X127774285Y-60024761D01*
X127917142Y-60072380D01*
X128012380Y-60072380D01*
X128155238Y-60024761D01*
X128250476Y-59929523D01*
X128298095Y-59834285D01*
X128345714Y-59643809D01*
X128345714Y-59500952D01*
X128298095Y-59310476D01*
X128250476Y-59215238D01*
X128155238Y-59120000D01*
X128012380Y-59072380D01*
X127917142Y-59072380D01*
X127774285Y-59120000D01*
X127726666Y-59167619D01*
X127345714Y-59167619D02*
X127298095Y-59120000D01*
X127202857Y-59072380D01*
X126964761Y-59072380D01*
X126869523Y-59120000D01*
X126821904Y-59167619D01*
X126774285Y-59262857D01*
X126774285Y-59358095D01*
X126821904Y-59500952D01*
X127393333Y-60072380D01*
X126774285Y-60072380D01*
G04 #@! TD*
M02*
