G04 #@! TF.GenerationSoftware,KiCad,Pcbnew,(5.1.10-1-10_14)*
G04 #@! TF.CreationDate,2022-04-15T02:56:20+09:00*
G04 #@! TF.ProjectId,cmsis-dap_rp2040,636d7369-732d-4646-9170-5f7270323034,rev?*
G04 #@! TF.SameCoordinates,Original*
G04 #@! TF.FileFunction,Legend,Bot*
G04 #@! TF.FilePolarity,Positive*
%FSLAX46Y46*%
G04 Gerber Fmt 4.6, Leading zero omitted, Abs format (unit mm)*
G04 Created by KiCad (PCBNEW (5.1.10-1-10_14)) date 2022-04-15 02:56:20*
%MOMM*%
%LPD*%
G01*
G04 APERTURE LIST*
%ADD10C,0.150000*%
%ADD11C,0.120000*%
G04 APERTURE END LIST*
D10*
X115260000Y-61814285D02*
X115164761Y-61909523D01*
X115260000Y-62004761D01*
X115355238Y-61909523D01*
X115260000Y-61814285D01*
X115260000Y-62004761D01*
D11*
G04 #@! TO.C,U2*
X114705000Y-51785000D02*
X116380000Y-51785000D01*
X114705000Y-51525000D02*
X114705000Y-51785000D01*
X111980000Y-51525000D02*
X114705000Y-51525000D01*
X109255000Y-51525000D02*
X109255000Y-51785000D01*
X111980000Y-51525000D02*
X109255000Y-51525000D01*
X114705000Y-56975000D02*
X114705000Y-56715000D01*
X111980000Y-56975000D02*
X114705000Y-56975000D01*
X109255000Y-56975000D02*
X109255000Y-56715000D01*
X111980000Y-56975000D02*
X109255000Y-56975000D01*
G04 #@! TO.C,R16*
X124132742Y-58322500D02*
X124607258Y-58322500D01*
X124132742Y-57277500D02*
X124607258Y-57277500D01*
G04 #@! TO.C,R15*
X124992742Y-73337500D02*
X125467258Y-73337500D01*
X124992742Y-74382500D02*
X125467258Y-74382500D01*
G04 #@! TO.C,R14*
X124122742Y-60292500D02*
X124597258Y-60292500D01*
X124122742Y-59247500D02*
X124597258Y-59247500D01*
G04 #@! TO.C,R13*
X124982742Y-69347500D02*
X125457258Y-69347500D01*
X124982742Y-70392500D02*
X125457258Y-70392500D01*
G04 #@! TO.C,R12*
X124992742Y-71327500D02*
X125467258Y-71327500D01*
X124992742Y-72372500D02*
X125467258Y-72372500D01*
G04 #@! TO.C,R11*
X124982742Y-75467500D02*
X125457258Y-75467500D01*
X124982742Y-76512500D02*
X125457258Y-76512500D01*
G04 #@! TO.C,R9*
X124142742Y-55457500D02*
X124617258Y-55457500D01*
X124142742Y-56502500D02*
X124617258Y-56502500D01*
G04 #@! TO.C,TP7*
X110682000Y-72136000D02*
G75*
G03*
X110682000Y-72136000I-700000J0D01*
G01*
G04 #@! TO.C,C18*
X116490000Y-59510580D02*
X116490000Y-59229420D01*
X115470000Y-59510580D02*
X115470000Y-59229420D01*
G04 #@! TO.C,U3*
X114770000Y-62400000D02*
X114770000Y-61750000D01*
X121990000Y-68970000D02*
X121340000Y-68970000D01*
X121990000Y-68320000D02*
X121990000Y-68970000D01*
X121990000Y-61750000D02*
X121340000Y-61750000D01*
X121990000Y-62400000D02*
X121990000Y-61750000D01*
X114770000Y-68970000D02*
X115420000Y-68970000D01*
X114770000Y-68320000D02*
X114770000Y-68970000D01*
G04 #@! TO.C,U1*
X123260000Y-63850000D02*
X123260000Y-61400000D01*
X126480000Y-62050000D02*
X126480000Y-63850000D01*
G04 #@! TO.C,R6*
X110587258Y-66332500D02*
X110112742Y-66332500D01*
X110587258Y-65287500D02*
X110112742Y-65287500D01*
G04 #@! TO.C,R5*
X110587258Y-67862500D02*
X110112742Y-67862500D01*
X110587258Y-66817500D02*
X110112742Y-66817500D01*
G04 #@! TO.C,R4*
X102227500Y-68337258D02*
X102227500Y-67862742D01*
X103272500Y-68337258D02*
X103272500Y-67862742D01*
G04 #@! TO.C,R3*
X107972500Y-63352742D02*
X107972500Y-63827258D01*
X106927500Y-63352742D02*
X106927500Y-63827258D01*
G04 #@! TO.C,C17*
X118780000Y-59420580D02*
X118780000Y-59139420D01*
X119800000Y-59420580D02*
X119800000Y-59139420D01*
G04 #@! TO.C,C16*
X110490580Y-61740000D02*
X110209420Y-61740000D01*
X110490580Y-60720000D02*
X110209420Y-60720000D01*
G04 #@! TO.C,C15*
X119300000Y-71629420D02*
X119300000Y-71910580D01*
X118280000Y-71629420D02*
X118280000Y-71910580D01*
G04 #@! TO.C,C14*
X124799420Y-66650000D02*
X125080580Y-66650000D01*
X124799420Y-67670000D02*
X125080580Y-67670000D01*
G04 #@! TO.C,C13*
X124799420Y-65130000D02*
X125080580Y-65130000D01*
X124799420Y-66150000D02*
X125080580Y-66150000D01*
G04 #@! TO.C,C12*
X110490580Y-69380000D02*
X110209420Y-69380000D01*
X110490580Y-68360000D02*
X110209420Y-68360000D01*
G04 #@! TO.C,C11*
X116290000Y-71629420D02*
X116290000Y-71910580D01*
X115270000Y-71629420D02*
X115270000Y-71910580D01*
G04 #@! TO.C,C9*
X110490580Y-64800000D02*
X110209420Y-64800000D01*
X110490580Y-63780000D02*
X110209420Y-63780000D01*
G04 #@! TO.C,C8*
X110490580Y-63280000D02*
X110209420Y-63280000D01*
X110490580Y-62260000D02*
X110209420Y-62260000D01*
G04 #@! TO.C,C6*
X114760000Y-71639420D02*
X114760000Y-71920580D01*
X113740000Y-71639420D02*
X113740000Y-71920580D01*
G04 #@! TO.C,C5*
X110500580Y-69870000D02*
X110219420Y-69870000D01*
X110500580Y-70890000D02*
X110219420Y-70890000D01*
G04 #@! TO.C,C2*
X126970000Y-63420580D02*
X126970000Y-63139420D01*
X127990000Y-63420580D02*
X127990000Y-63139420D01*
G04 #@! TO.C,U2*
D10*
X117751904Y-50572380D02*
X117751904Y-51381904D01*
X117704285Y-51477142D01*
X117656666Y-51524761D01*
X117561428Y-51572380D01*
X117370952Y-51572380D01*
X117275714Y-51524761D01*
X117228095Y-51477142D01*
X117180476Y-51381904D01*
X117180476Y-50572380D01*
X116751904Y-50667619D02*
X116704285Y-50620000D01*
X116609047Y-50572380D01*
X116370952Y-50572380D01*
X116275714Y-50620000D01*
X116228095Y-50667619D01*
X116180476Y-50762857D01*
X116180476Y-50858095D01*
X116228095Y-51000952D01*
X116799523Y-51572380D01*
X116180476Y-51572380D01*
G04 #@! TO.C,R16*
X127912857Y-58282380D02*
X128246190Y-57806190D01*
X128484285Y-58282380D02*
X128484285Y-57282380D01*
X128103333Y-57282380D01*
X128008095Y-57330000D01*
X127960476Y-57377619D01*
X127912857Y-57472857D01*
X127912857Y-57615714D01*
X127960476Y-57710952D01*
X128008095Y-57758571D01*
X128103333Y-57806190D01*
X128484285Y-57806190D01*
X126960476Y-58282380D02*
X127531904Y-58282380D01*
X127246190Y-58282380D02*
X127246190Y-57282380D01*
X127341428Y-57425238D01*
X127436666Y-57520476D01*
X127531904Y-57568095D01*
X126103333Y-57282380D02*
X126293809Y-57282380D01*
X126389047Y-57330000D01*
X126436666Y-57377619D01*
X126531904Y-57520476D01*
X126579523Y-57710952D01*
X126579523Y-58091904D01*
X126531904Y-58187142D01*
X126484285Y-58234761D01*
X126389047Y-58282380D01*
X126198571Y-58282380D01*
X126103333Y-58234761D01*
X126055714Y-58187142D01*
X126008095Y-58091904D01*
X126008095Y-57853809D01*
X126055714Y-57758571D01*
X126103333Y-57710952D01*
X126198571Y-57663333D01*
X126389047Y-57663333D01*
X126484285Y-57710952D01*
X126531904Y-57758571D01*
X126579523Y-57853809D01*
G04 #@! TO.C,R15*
X128872857Y-74332380D02*
X129206190Y-73856190D01*
X129444285Y-74332380D02*
X129444285Y-73332380D01*
X129063333Y-73332380D01*
X128968095Y-73380000D01*
X128920476Y-73427619D01*
X128872857Y-73522857D01*
X128872857Y-73665714D01*
X128920476Y-73760952D01*
X128968095Y-73808571D01*
X129063333Y-73856190D01*
X129444285Y-73856190D01*
X127920476Y-74332380D02*
X128491904Y-74332380D01*
X128206190Y-74332380D02*
X128206190Y-73332380D01*
X128301428Y-73475238D01*
X128396666Y-73570476D01*
X128491904Y-73618095D01*
X127015714Y-73332380D02*
X127491904Y-73332380D01*
X127539523Y-73808571D01*
X127491904Y-73760952D01*
X127396666Y-73713333D01*
X127158571Y-73713333D01*
X127063333Y-73760952D01*
X127015714Y-73808571D01*
X126968095Y-73903809D01*
X126968095Y-74141904D01*
X127015714Y-74237142D01*
X127063333Y-74284761D01*
X127158571Y-74332380D01*
X127396666Y-74332380D01*
X127491904Y-74284761D01*
X127539523Y-74237142D01*
G04 #@! TO.C,R14*
X127832857Y-59672380D02*
X128166190Y-59196190D01*
X128404285Y-59672380D02*
X128404285Y-58672380D01*
X128023333Y-58672380D01*
X127928095Y-58720000D01*
X127880476Y-58767619D01*
X127832857Y-58862857D01*
X127832857Y-59005714D01*
X127880476Y-59100952D01*
X127928095Y-59148571D01*
X128023333Y-59196190D01*
X128404285Y-59196190D01*
X126880476Y-59672380D02*
X127451904Y-59672380D01*
X127166190Y-59672380D02*
X127166190Y-58672380D01*
X127261428Y-58815238D01*
X127356666Y-58910476D01*
X127451904Y-58958095D01*
X126023333Y-59005714D02*
X126023333Y-59672380D01*
X126261428Y-58624761D02*
X126499523Y-59339047D01*
X125880476Y-59339047D01*
G04 #@! TO.C,R13*
X128732857Y-70382380D02*
X129066190Y-69906190D01*
X129304285Y-70382380D02*
X129304285Y-69382380D01*
X128923333Y-69382380D01*
X128828095Y-69430000D01*
X128780476Y-69477619D01*
X128732857Y-69572857D01*
X128732857Y-69715714D01*
X128780476Y-69810952D01*
X128828095Y-69858571D01*
X128923333Y-69906190D01*
X129304285Y-69906190D01*
X127780476Y-70382380D02*
X128351904Y-70382380D01*
X128066190Y-70382380D02*
X128066190Y-69382380D01*
X128161428Y-69525238D01*
X128256666Y-69620476D01*
X128351904Y-69668095D01*
X127447142Y-69382380D02*
X126828095Y-69382380D01*
X127161428Y-69763333D01*
X127018571Y-69763333D01*
X126923333Y-69810952D01*
X126875714Y-69858571D01*
X126828095Y-69953809D01*
X126828095Y-70191904D01*
X126875714Y-70287142D01*
X126923333Y-70334761D01*
X127018571Y-70382380D01*
X127304285Y-70382380D01*
X127399523Y-70334761D01*
X127447142Y-70287142D01*
G04 #@! TO.C,R12*
X128762857Y-72322380D02*
X129096190Y-71846190D01*
X129334285Y-72322380D02*
X129334285Y-71322380D01*
X128953333Y-71322380D01*
X128858095Y-71370000D01*
X128810476Y-71417619D01*
X128762857Y-71512857D01*
X128762857Y-71655714D01*
X128810476Y-71750952D01*
X128858095Y-71798571D01*
X128953333Y-71846190D01*
X129334285Y-71846190D01*
X127810476Y-72322380D02*
X128381904Y-72322380D01*
X128096190Y-72322380D02*
X128096190Y-71322380D01*
X128191428Y-71465238D01*
X128286666Y-71560476D01*
X128381904Y-71608095D01*
X127429523Y-71417619D02*
X127381904Y-71370000D01*
X127286666Y-71322380D01*
X127048571Y-71322380D01*
X126953333Y-71370000D01*
X126905714Y-71417619D01*
X126858095Y-71512857D01*
X126858095Y-71608095D01*
X126905714Y-71750952D01*
X127477142Y-72322380D01*
X126858095Y-72322380D01*
G04 #@! TO.C,R11*
X128772857Y-76452380D02*
X129106190Y-75976190D01*
X129344285Y-76452380D02*
X129344285Y-75452380D01*
X128963333Y-75452380D01*
X128868095Y-75500000D01*
X128820476Y-75547619D01*
X128772857Y-75642857D01*
X128772857Y-75785714D01*
X128820476Y-75880952D01*
X128868095Y-75928571D01*
X128963333Y-75976190D01*
X129344285Y-75976190D01*
X127820476Y-76452380D02*
X128391904Y-76452380D01*
X128106190Y-76452380D02*
X128106190Y-75452380D01*
X128201428Y-75595238D01*
X128296666Y-75690476D01*
X128391904Y-75738095D01*
X126868095Y-76452380D02*
X127439523Y-76452380D01*
X127153809Y-76452380D02*
X127153809Y-75452380D01*
X127249047Y-75595238D01*
X127344285Y-75690476D01*
X127439523Y-75738095D01*
G04 #@! TO.C,R9*
X127256666Y-56442380D02*
X127590000Y-55966190D01*
X127828095Y-56442380D02*
X127828095Y-55442380D01*
X127447142Y-55442380D01*
X127351904Y-55490000D01*
X127304285Y-55537619D01*
X127256666Y-55632857D01*
X127256666Y-55775714D01*
X127304285Y-55870952D01*
X127351904Y-55918571D01*
X127447142Y-55966190D01*
X127828095Y-55966190D01*
X126780476Y-56442380D02*
X126590000Y-56442380D01*
X126494761Y-56394761D01*
X126447142Y-56347142D01*
X126351904Y-56204285D01*
X126304285Y-56013809D01*
X126304285Y-55632857D01*
X126351904Y-55537619D01*
X126399523Y-55490000D01*
X126494761Y-55442380D01*
X126685238Y-55442380D01*
X126780476Y-55490000D01*
X126828095Y-55537619D01*
X126875714Y-55632857D01*
X126875714Y-55870952D01*
X126828095Y-55966190D01*
X126780476Y-56013809D01*
X126685238Y-56061428D01*
X126494761Y-56061428D01*
X126399523Y-56013809D01*
X126351904Y-55966190D01*
X126304285Y-55870952D01*
G04 #@! TO.C,TP7*
X111243904Y-73036380D02*
X110672476Y-73036380D01*
X110958190Y-74036380D02*
X110958190Y-73036380D01*
X110339142Y-74036380D02*
X110339142Y-73036380D01*
X109958190Y-73036380D01*
X109862952Y-73084000D01*
X109815333Y-73131619D01*
X109767714Y-73226857D01*
X109767714Y-73369714D01*
X109815333Y-73464952D01*
X109862952Y-73512571D01*
X109958190Y-73560190D01*
X110339142Y-73560190D01*
X109434380Y-73036380D02*
X108767714Y-73036380D01*
X109196285Y-74036380D01*
G04 #@! TO.C,C18*
X117767142Y-58727142D02*
X117814761Y-58679523D01*
X117862380Y-58536666D01*
X117862380Y-58441428D01*
X117814761Y-58298571D01*
X117719523Y-58203333D01*
X117624285Y-58155714D01*
X117433809Y-58108095D01*
X117290952Y-58108095D01*
X117100476Y-58155714D01*
X117005238Y-58203333D01*
X116910000Y-58298571D01*
X116862380Y-58441428D01*
X116862380Y-58536666D01*
X116910000Y-58679523D01*
X116957619Y-58727142D01*
X117862380Y-59679523D02*
X117862380Y-59108095D01*
X117862380Y-59393809D02*
X116862380Y-59393809D01*
X117005238Y-59298571D01*
X117100476Y-59203333D01*
X117148095Y-59108095D01*
X117290952Y-60250952D02*
X117243333Y-60155714D01*
X117195714Y-60108095D01*
X117100476Y-60060476D01*
X117052857Y-60060476D01*
X116957619Y-60108095D01*
X116910000Y-60155714D01*
X116862380Y-60250952D01*
X116862380Y-60441428D01*
X116910000Y-60536666D01*
X116957619Y-60584285D01*
X117052857Y-60631904D01*
X117100476Y-60631904D01*
X117195714Y-60584285D01*
X117243333Y-60536666D01*
X117290952Y-60441428D01*
X117290952Y-60250952D01*
X117338571Y-60155714D01*
X117386190Y-60108095D01*
X117481428Y-60060476D01*
X117671904Y-60060476D01*
X117767142Y-60108095D01*
X117814761Y-60155714D01*
X117862380Y-60250952D01*
X117862380Y-60441428D01*
X117814761Y-60536666D01*
X117767142Y-60584285D01*
X117671904Y-60631904D01*
X117481428Y-60631904D01*
X117386190Y-60584285D01*
X117338571Y-60536666D01*
X117290952Y-60441428D01*
G04 #@! TO.C,U3*
X113142380Y-64938095D02*
X113951904Y-64938095D01*
X114047142Y-64985714D01*
X114094761Y-65033333D01*
X114142380Y-65128571D01*
X114142380Y-65319047D01*
X114094761Y-65414285D01*
X114047142Y-65461904D01*
X113951904Y-65509523D01*
X113142380Y-65509523D01*
X113142380Y-65890476D02*
X113142380Y-66509523D01*
X113523333Y-66176190D01*
X113523333Y-66319047D01*
X113570952Y-66414285D01*
X113618571Y-66461904D01*
X113713809Y-66509523D01*
X113951904Y-66509523D01*
X114047142Y-66461904D01*
X114094761Y-66414285D01*
X114142380Y-66319047D01*
X114142380Y-66033333D01*
X114094761Y-65938095D01*
X114047142Y-65890476D01*
G04 #@! TO.C,U1*
X121762380Y-59818095D02*
X122571904Y-59818095D01*
X122667142Y-59865714D01*
X122714761Y-59913333D01*
X122762380Y-60008571D01*
X122762380Y-60199047D01*
X122714761Y-60294285D01*
X122667142Y-60341904D01*
X122571904Y-60389523D01*
X121762380Y-60389523D01*
X122762380Y-61389523D02*
X122762380Y-60818095D01*
X122762380Y-61103809D02*
X121762380Y-61103809D01*
X121905238Y-61008571D01*
X122000476Y-60913333D01*
X122048095Y-60818095D01*
G04 #@! TO.C,R6*
X108036666Y-66262380D02*
X108370000Y-65786190D01*
X108608095Y-66262380D02*
X108608095Y-65262380D01*
X108227142Y-65262380D01*
X108131904Y-65310000D01*
X108084285Y-65357619D01*
X108036666Y-65452857D01*
X108036666Y-65595714D01*
X108084285Y-65690952D01*
X108131904Y-65738571D01*
X108227142Y-65786190D01*
X108608095Y-65786190D01*
X107179523Y-65262380D02*
X107370000Y-65262380D01*
X107465238Y-65310000D01*
X107512857Y-65357619D01*
X107608095Y-65500476D01*
X107655714Y-65690952D01*
X107655714Y-66071904D01*
X107608095Y-66167142D01*
X107560476Y-66214761D01*
X107465238Y-66262380D01*
X107274761Y-66262380D01*
X107179523Y-66214761D01*
X107131904Y-66167142D01*
X107084285Y-66071904D01*
X107084285Y-65833809D01*
X107131904Y-65738571D01*
X107179523Y-65690952D01*
X107274761Y-65643333D01*
X107465238Y-65643333D01*
X107560476Y-65690952D01*
X107608095Y-65738571D01*
X107655714Y-65833809D01*
G04 #@! TO.C,R5*
X108016666Y-67692380D02*
X108350000Y-67216190D01*
X108588095Y-67692380D02*
X108588095Y-66692380D01*
X108207142Y-66692380D01*
X108111904Y-66740000D01*
X108064285Y-66787619D01*
X108016666Y-66882857D01*
X108016666Y-67025714D01*
X108064285Y-67120952D01*
X108111904Y-67168571D01*
X108207142Y-67216190D01*
X108588095Y-67216190D01*
X107111904Y-66692380D02*
X107588095Y-66692380D01*
X107635714Y-67168571D01*
X107588095Y-67120952D01*
X107492857Y-67073333D01*
X107254761Y-67073333D01*
X107159523Y-67120952D01*
X107111904Y-67168571D01*
X107064285Y-67263809D01*
X107064285Y-67501904D01*
X107111904Y-67597142D01*
X107159523Y-67644761D01*
X107254761Y-67692380D01*
X107492857Y-67692380D01*
X107588095Y-67644761D01*
X107635714Y-67597142D01*
G04 #@! TO.C,R4*
X103292380Y-65353333D02*
X102816190Y-65020000D01*
X103292380Y-64781904D02*
X102292380Y-64781904D01*
X102292380Y-65162857D01*
X102340000Y-65258095D01*
X102387619Y-65305714D01*
X102482857Y-65353333D01*
X102625714Y-65353333D01*
X102720952Y-65305714D01*
X102768571Y-65258095D01*
X102816190Y-65162857D01*
X102816190Y-64781904D01*
X102625714Y-66210476D02*
X103292380Y-66210476D01*
X102244761Y-65972380D02*
X102959047Y-65734285D01*
X102959047Y-66353333D01*
G04 #@! TO.C,R3*
X107942380Y-60833333D02*
X107466190Y-60500000D01*
X107942380Y-60261904D02*
X106942380Y-60261904D01*
X106942380Y-60642857D01*
X106990000Y-60738095D01*
X107037619Y-60785714D01*
X107132857Y-60833333D01*
X107275714Y-60833333D01*
X107370952Y-60785714D01*
X107418571Y-60738095D01*
X107466190Y-60642857D01*
X107466190Y-60261904D01*
X106942380Y-61166666D02*
X106942380Y-61785714D01*
X107323333Y-61452380D01*
X107323333Y-61595238D01*
X107370952Y-61690476D01*
X107418571Y-61738095D01*
X107513809Y-61785714D01*
X107751904Y-61785714D01*
X107847142Y-61738095D01*
X107894761Y-61690476D01*
X107942380Y-61595238D01*
X107942380Y-61309523D01*
X107894761Y-61214285D01*
X107847142Y-61166666D01*
G04 #@! TO.C,C17*
X121077142Y-58637142D02*
X121124761Y-58589523D01*
X121172380Y-58446666D01*
X121172380Y-58351428D01*
X121124761Y-58208571D01*
X121029523Y-58113333D01*
X120934285Y-58065714D01*
X120743809Y-58018095D01*
X120600952Y-58018095D01*
X120410476Y-58065714D01*
X120315238Y-58113333D01*
X120220000Y-58208571D01*
X120172380Y-58351428D01*
X120172380Y-58446666D01*
X120220000Y-58589523D01*
X120267619Y-58637142D01*
X121172380Y-59589523D02*
X121172380Y-59018095D01*
X121172380Y-59303809D02*
X120172380Y-59303809D01*
X120315238Y-59208571D01*
X120410476Y-59113333D01*
X120458095Y-59018095D01*
X120172380Y-59922857D02*
X120172380Y-60589523D01*
X121172380Y-60160952D01*
G04 #@! TO.C,C16*
X113872857Y-61647142D02*
X113920476Y-61694761D01*
X114063333Y-61742380D01*
X114158571Y-61742380D01*
X114301428Y-61694761D01*
X114396666Y-61599523D01*
X114444285Y-61504285D01*
X114491904Y-61313809D01*
X114491904Y-61170952D01*
X114444285Y-60980476D01*
X114396666Y-60885238D01*
X114301428Y-60790000D01*
X114158571Y-60742380D01*
X114063333Y-60742380D01*
X113920476Y-60790000D01*
X113872857Y-60837619D01*
X112920476Y-61742380D02*
X113491904Y-61742380D01*
X113206190Y-61742380D02*
X113206190Y-60742380D01*
X113301428Y-60885238D01*
X113396666Y-60980476D01*
X113491904Y-61028095D01*
X112063333Y-60742380D02*
X112253809Y-60742380D01*
X112349047Y-60790000D01*
X112396666Y-60837619D01*
X112491904Y-60980476D01*
X112539523Y-61170952D01*
X112539523Y-61551904D01*
X112491904Y-61647142D01*
X112444285Y-61694761D01*
X112349047Y-61742380D01*
X112158571Y-61742380D01*
X112063333Y-61694761D01*
X112015714Y-61647142D01*
X111968095Y-61551904D01*
X111968095Y-61313809D01*
X112015714Y-61218571D01*
X112063333Y-61170952D01*
X112158571Y-61123333D01*
X112349047Y-61123333D01*
X112444285Y-61170952D01*
X112491904Y-61218571D01*
X112539523Y-61313809D01*
G04 #@! TO.C,C15*
X119167142Y-75367142D02*
X119214761Y-75319523D01*
X119262380Y-75176666D01*
X119262380Y-75081428D01*
X119214761Y-74938571D01*
X119119523Y-74843333D01*
X119024285Y-74795714D01*
X118833809Y-74748095D01*
X118690952Y-74748095D01*
X118500476Y-74795714D01*
X118405238Y-74843333D01*
X118310000Y-74938571D01*
X118262380Y-75081428D01*
X118262380Y-75176666D01*
X118310000Y-75319523D01*
X118357619Y-75367142D01*
X119262380Y-76319523D02*
X119262380Y-75748095D01*
X119262380Y-76033809D02*
X118262380Y-76033809D01*
X118405238Y-75938571D01*
X118500476Y-75843333D01*
X118548095Y-75748095D01*
X118262380Y-77224285D02*
X118262380Y-76748095D01*
X118738571Y-76700476D01*
X118690952Y-76748095D01*
X118643333Y-76843333D01*
X118643333Y-77081428D01*
X118690952Y-77176666D01*
X118738571Y-77224285D01*
X118833809Y-77271904D01*
X119071904Y-77271904D01*
X119167142Y-77224285D01*
X119214761Y-77176666D01*
X119262380Y-77081428D01*
X119262380Y-76843333D01*
X119214761Y-76748095D01*
X119167142Y-76700476D01*
G04 #@! TO.C,C14*
X128522857Y-67437142D02*
X128570476Y-67484761D01*
X128713333Y-67532380D01*
X128808571Y-67532380D01*
X128951428Y-67484761D01*
X129046666Y-67389523D01*
X129094285Y-67294285D01*
X129141904Y-67103809D01*
X129141904Y-66960952D01*
X129094285Y-66770476D01*
X129046666Y-66675238D01*
X128951428Y-66580000D01*
X128808571Y-66532380D01*
X128713333Y-66532380D01*
X128570476Y-66580000D01*
X128522857Y-66627619D01*
X127570476Y-67532380D02*
X128141904Y-67532380D01*
X127856190Y-67532380D02*
X127856190Y-66532380D01*
X127951428Y-66675238D01*
X128046666Y-66770476D01*
X128141904Y-66818095D01*
X126713333Y-66865714D02*
X126713333Y-67532380D01*
X126951428Y-66484761D02*
X127189523Y-67199047D01*
X126570476Y-67199047D01*
G04 #@! TO.C,C13*
X128422857Y-66047142D02*
X128470476Y-66094761D01*
X128613333Y-66142380D01*
X128708571Y-66142380D01*
X128851428Y-66094761D01*
X128946666Y-65999523D01*
X128994285Y-65904285D01*
X129041904Y-65713809D01*
X129041904Y-65570952D01*
X128994285Y-65380476D01*
X128946666Y-65285238D01*
X128851428Y-65190000D01*
X128708571Y-65142380D01*
X128613333Y-65142380D01*
X128470476Y-65190000D01*
X128422857Y-65237619D01*
X127470476Y-66142380D02*
X128041904Y-66142380D01*
X127756190Y-66142380D02*
X127756190Y-65142380D01*
X127851428Y-65285238D01*
X127946666Y-65380476D01*
X128041904Y-65428095D01*
X127137142Y-65142380D02*
X126518095Y-65142380D01*
X126851428Y-65523333D01*
X126708571Y-65523333D01*
X126613333Y-65570952D01*
X126565714Y-65618571D01*
X126518095Y-65713809D01*
X126518095Y-65951904D01*
X126565714Y-66047142D01*
X126613333Y-66094761D01*
X126708571Y-66142380D01*
X126994285Y-66142380D01*
X127089523Y-66094761D01*
X127137142Y-66047142D01*
G04 #@! TO.C,C12*
X113852857Y-69287142D02*
X113900476Y-69334761D01*
X114043333Y-69382380D01*
X114138571Y-69382380D01*
X114281428Y-69334761D01*
X114376666Y-69239523D01*
X114424285Y-69144285D01*
X114471904Y-68953809D01*
X114471904Y-68810952D01*
X114424285Y-68620476D01*
X114376666Y-68525238D01*
X114281428Y-68430000D01*
X114138571Y-68382380D01*
X114043333Y-68382380D01*
X113900476Y-68430000D01*
X113852857Y-68477619D01*
X112900476Y-69382380D02*
X113471904Y-69382380D01*
X113186190Y-69382380D02*
X113186190Y-68382380D01*
X113281428Y-68525238D01*
X113376666Y-68620476D01*
X113471904Y-68668095D01*
X112519523Y-68477619D02*
X112471904Y-68430000D01*
X112376666Y-68382380D01*
X112138571Y-68382380D01*
X112043333Y-68430000D01*
X111995714Y-68477619D01*
X111948095Y-68572857D01*
X111948095Y-68668095D01*
X111995714Y-68810952D01*
X112567142Y-69382380D01*
X111948095Y-69382380D01*
G04 #@! TO.C,C11*
X116157142Y-74707142D02*
X116204761Y-74659523D01*
X116252380Y-74516666D01*
X116252380Y-74421428D01*
X116204761Y-74278571D01*
X116109523Y-74183333D01*
X116014285Y-74135714D01*
X115823809Y-74088095D01*
X115680952Y-74088095D01*
X115490476Y-74135714D01*
X115395238Y-74183333D01*
X115300000Y-74278571D01*
X115252380Y-74421428D01*
X115252380Y-74516666D01*
X115300000Y-74659523D01*
X115347619Y-74707142D01*
X116252380Y-75659523D02*
X116252380Y-75088095D01*
X116252380Y-75373809D02*
X115252380Y-75373809D01*
X115395238Y-75278571D01*
X115490476Y-75183333D01*
X115538095Y-75088095D01*
X116252380Y-76611904D02*
X116252380Y-76040476D01*
X116252380Y-76326190D02*
X115252380Y-76326190D01*
X115395238Y-76230952D01*
X115490476Y-76135714D01*
X115538095Y-76040476D01*
G04 #@! TO.C,C9*
X112986666Y-64667142D02*
X113034285Y-64714761D01*
X113177142Y-64762380D01*
X113272380Y-64762380D01*
X113415238Y-64714761D01*
X113510476Y-64619523D01*
X113558095Y-64524285D01*
X113605714Y-64333809D01*
X113605714Y-64190952D01*
X113558095Y-64000476D01*
X113510476Y-63905238D01*
X113415238Y-63810000D01*
X113272380Y-63762380D01*
X113177142Y-63762380D01*
X113034285Y-63810000D01*
X112986666Y-63857619D01*
X112510476Y-64762380D02*
X112320000Y-64762380D01*
X112224761Y-64714761D01*
X112177142Y-64667142D01*
X112081904Y-64524285D01*
X112034285Y-64333809D01*
X112034285Y-63952857D01*
X112081904Y-63857619D01*
X112129523Y-63810000D01*
X112224761Y-63762380D01*
X112415238Y-63762380D01*
X112510476Y-63810000D01*
X112558095Y-63857619D01*
X112605714Y-63952857D01*
X112605714Y-64190952D01*
X112558095Y-64286190D01*
X112510476Y-64333809D01*
X112415238Y-64381428D01*
X112224761Y-64381428D01*
X112129523Y-64333809D01*
X112081904Y-64286190D01*
X112034285Y-64190952D01*
G04 #@! TO.C,C8*
X112926666Y-63227142D02*
X112974285Y-63274761D01*
X113117142Y-63322380D01*
X113212380Y-63322380D01*
X113355238Y-63274761D01*
X113450476Y-63179523D01*
X113498095Y-63084285D01*
X113545714Y-62893809D01*
X113545714Y-62750952D01*
X113498095Y-62560476D01*
X113450476Y-62465238D01*
X113355238Y-62370000D01*
X113212380Y-62322380D01*
X113117142Y-62322380D01*
X112974285Y-62370000D01*
X112926666Y-62417619D01*
X112355238Y-62750952D02*
X112450476Y-62703333D01*
X112498095Y-62655714D01*
X112545714Y-62560476D01*
X112545714Y-62512857D01*
X112498095Y-62417619D01*
X112450476Y-62370000D01*
X112355238Y-62322380D01*
X112164761Y-62322380D01*
X112069523Y-62370000D01*
X112021904Y-62417619D01*
X111974285Y-62512857D01*
X111974285Y-62560476D01*
X112021904Y-62655714D01*
X112069523Y-62703333D01*
X112164761Y-62750952D01*
X112355238Y-62750952D01*
X112450476Y-62798571D01*
X112498095Y-62846190D01*
X112545714Y-62941428D01*
X112545714Y-63131904D01*
X112498095Y-63227142D01*
X112450476Y-63274761D01*
X112355238Y-63322380D01*
X112164761Y-63322380D01*
X112069523Y-63274761D01*
X112021904Y-63227142D01*
X111974285Y-63131904D01*
X111974285Y-62941428D01*
X112021904Y-62846190D01*
X112069523Y-62798571D01*
X112164761Y-62750952D01*
G04 #@! TO.C,C6*
X114627142Y-74843333D02*
X114674761Y-74795714D01*
X114722380Y-74652857D01*
X114722380Y-74557619D01*
X114674761Y-74414761D01*
X114579523Y-74319523D01*
X114484285Y-74271904D01*
X114293809Y-74224285D01*
X114150952Y-74224285D01*
X113960476Y-74271904D01*
X113865238Y-74319523D01*
X113770000Y-74414761D01*
X113722380Y-74557619D01*
X113722380Y-74652857D01*
X113770000Y-74795714D01*
X113817619Y-74843333D01*
X113722380Y-75700476D02*
X113722380Y-75510000D01*
X113770000Y-75414761D01*
X113817619Y-75367142D01*
X113960476Y-75271904D01*
X114150952Y-75224285D01*
X114531904Y-75224285D01*
X114627142Y-75271904D01*
X114674761Y-75319523D01*
X114722380Y-75414761D01*
X114722380Y-75605238D01*
X114674761Y-75700476D01*
X114627142Y-75748095D01*
X114531904Y-75795714D01*
X114293809Y-75795714D01*
X114198571Y-75748095D01*
X114150952Y-75700476D01*
X114103333Y-75605238D01*
X114103333Y-75414761D01*
X114150952Y-75319523D01*
X114198571Y-75271904D01*
X114293809Y-75224285D01*
G04 #@! TO.C,C5*
X108206666Y-70827142D02*
X108254285Y-70874761D01*
X108397142Y-70922380D01*
X108492380Y-70922380D01*
X108635238Y-70874761D01*
X108730476Y-70779523D01*
X108778095Y-70684285D01*
X108825714Y-70493809D01*
X108825714Y-70350952D01*
X108778095Y-70160476D01*
X108730476Y-70065238D01*
X108635238Y-69970000D01*
X108492380Y-69922380D01*
X108397142Y-69922380D01*
X108254285Y-69970000D01*
X108206666Y-70017619D01*
X107301904Y-69922380D02*
X107778095Y-69922380D01*
X107825714Y-70398571D01*
X107778095Y-70350952D01*
X107682857Y-70303333D01*
X107444761Y-70303333D01*
X107349523Y-70350952D01*
X107301904Y-70398571D01*
X107254285Y-70493809D01*
X107254285Y-70731904D01*
X107301904Y-70827142D01*
X107349523Y-70874761D01*
X107444761Y-70922380D01*
X107682857Y-70922380D01*
X107778095Y-70874761D01*
X107825714Y-70827142D01*
G04 #@! TO.C,C2*
X127847142Y-60613333D02*
X127894761Y-60565714D01*
X127942380Y-60422857D01*
X127942380Y-60327619D01*
X127894761Y-60184761D01*
X127799523Y-60089523D01*
X127704285Y-60041904D01*
X127513809Y-59994285D01*
X127370952Y-59994285D01*
X127180476Y-60041904D01*
X127085238Y-60089523D01*
X126990000Y-60184761D01*
X126942380Y-60327619D01*
X126942380Y-60422857D01*
X126990000Y-60565714D01*
X127037619Y-60613333D01*
X127037619Y-60994285D02*
X126990000Y-61041904D01*
X126942380Y-61137142D01*
X126942380Y-61375238D01*
X126990000Y-61470476D01*
X127037619Y-61518095D01*
X127132857Y-61565714D01*
X127228095Y-61565714D01*
X127370952Y-61518095D01*
X127942380Y-60946666D01*
X127942380Y-61565714D01*
G04 #@! TD*
M02*
