G04 #@! TF.GenerationSoftware,KiCad,Pcbnew,(5.1.10-1-10_14)*
G04 #@! TF.CreationDate,2022-04-15T02:56:20+09:00*
G04 #@! TF.ProjectId,cmsis-dap_rp2040,636d7369-732d-4646-9170-5f7270323034,rev?*
G04 #@! TF.SameCoordinates,Original*
G04 #@! TF.FileFunction,Soldermask,Bot*
G04 #@! TF.FilePolarity,Negative*
%FSLAX46Y46*%
G04 Gerber Fmt 4.6, Leading zero omitted, Abs format (unit mm)*
G04 Created by KiCad (PCBNEW (5.1.10-1-10_14)) date 2022-04-15 02:56:20*
%MOMM*%
%LPD*%
G01*
G04 APERTURE LIST*
%ADD10O,1.700000X1.700000*%
%ADD11R,1.700000X1.700000*%
%ADD12R,2.000000X2.000000*%
%ADD13C,1.000000*%
%ADD14C,1.700000*%
%ADD15R,5.600000X5.600000*%
%ADD16R,0.650000X1.060000*%
%ADD17O,1.700000X0.900000*%
%ADD18O,2.400000X0.900000*%
%ADD19C,0.700000*%
%ADD20C,0.600000*%
%ADD21C,3.000000*%
G04 APERTURE END LIST*
G04 #@! TO.C,U2*
G36*
G01*
X109180000Y-52195000D02*
X109180000Y-52495000D01*
G75*
G02*
X109030000Y-52645000I-150000J0D01*
G01*
X107730000Y-52645000D01*
G75*
G02*
X107580000Y-52495000I0J150000D01*
G01*
X107580000Y-52195000D01*
G75*
G02*
X107730000Y-52045000I150000J0D01*
G01*
X109030000Y-52045000D01*
G75*
G02*
X109180000Y-52195000I0J-150000D01*
G01*
G37*
G36*
G01*
X109180000Y-53465000D02*
X109180000Y-53765000D01*
G75*
G02*
X109030000Y-53915000I-150000J0D01*
G01*
X107730000Y-53915000D01*
G75*
G02*
X107580000Y-53765000I0J150000D01*
G01*
X107580000Y-53465000D01*
G75*
G02*
X107730000Y-53315000I150000J0D01*
G01*
X109030000Y-53315000D01*
G75*
G02*
X109180000Y-53465000I0J-150000D01*
G01*
G37*
G36*
G01*
X109180000Y-54735000D02*
X109180000Y-55035000D01*
G75*
G02*
X109030000Y-55185000I-150000J0D01*
G01*
X107730000Y-55185000D01*
G75*
G02*
X107580000Y-55035000I0J150000D01*
G01*
X107580000Y-54735000D01*
G75*
G02*
X107730000Y-54585000I150000J0D01*
G01*
X109030000Y-54585000D01*
G75*
G02*
X109180000Y-54735000I0J-150000D01*
G01*
G37*
G36*
G01*
X109180000Y-56005000D02*
X109180000Y-56305000D01*
G75*
G02*
X109030000Y-56455000I-150000J0D01*
G01*
X107730000Y-56455000D01*
G75*
G02*
X107580000Y-56305000I0J150000D01*
G01*
X107580000Y-56005000D01*
G75*
G02*
X107730000Y-55855000I150000J0D01*
G01*
X109030000Y-55855000D01*
G75*
G02*
X109180000Y-56005000I0J-150000D01*
G01*
G37*
G36*
G01*
X116380000Y-56005000D02*
X116380000Y-56305000D01*
G75*
G02*
X116230000Y-56455000I-150000J0D01*
G01*
X114930000Y-56455000D01*
G75*
G02*
X114780000Y-56305000I0J150000D01*
G01*
X114780000Y-56005000D01*
G75*
G02*
X114930000Y-55855000I150000J0D01*
G01*
X116230000Y-55855000D01*
G75*
G02*
X116380000Y-56005000I0J-150000D01*
G01*
G37*
G36*
G01*
X116380000Y-54735000D02*
X116380000Y-55035000D01*
G75*
G02*
X116230000Y-55185000I-150000J0D01*
G01*
X114930000Y-55185000D01*
G75*
G02*
X114780000Y-55035000I0J150000D01*
G01*
X114780000Y-54735000D01*
G75*
G02*
X114930000Y-54585000I150000J0D01*
G01*
X116230000Y-54585000D01*
G75*
G02*
X116380000Y-54735000I0J-150000D01*
G01*
G37*
G36*
G01*
X116380000Y-53465000D02*
X116380000Y-53765000D01*
G75*
G02*
X116230000Y-53915000I-150000J0D01*
G01*
X114930000Y-53915000D01*
G75*
G02*
X114780000Y-53765000I0J150000D01*
G01*
X114780000Y-53465000D01*
G75*
G02*
X114930000Y-53315000I150000J0D01*
G01*
X116230000Y-53315000D01*
G75*
G02*
X116380000Y-53465000I0J-150000D01*
G01*
G37*
G36*
G01*
X116380000Y-52195000D02*
X116380000Y-52495000D01*
G75*
G02*
X116230000Y-52645000I-150000J0D01*
G01*
X114930000Y-52645000D01*
G75*
G02*
X114780000Y-52495000I0J150000D01*
G01*
X114780000Y-52195000D01*
G75*
G02*
X114930000Y-52045000I150000J0D01*
G01*
X116230000Y-52045000D01*
G75*
G02*
X116380000Y-52195000I0J-150000D01*
G01*
G37*
G04 #@! TD*
D10*
G04 #@! TO.C,J2*
X128410000Y-52740000D03*
X125870000Y-52740000D03*
X123330000Y-52740000D03*
D11*
X120790000Y-52740000D03*
G04 #@! TD*
D12*
G04 #@! TO.C,TP4*
X118160000Y-65360000D03*
G04 #@! TD*
G04 #@! TO.C,R16*
G36*
G01*
X123145000Y-58075000D02*
X123145000Y-57525000D01*
G75*
G02*
X123345000Y-57325000I200000J0D01*
G01*
X123745000Y-57325000D01*
G75*
G02*
X123945000Y-57525000I0J-200000D01*
G01*
X123945000Y-58075000D01*
G75*
G02*
X123745000Y-58275000I-200000J0D01*
G01*
X123345000Y-58275000D01*
G75*
G02*
X123145000Y-58075000I0J200000D01*
G01*
G37*
G36*
G01*
X124795000Y-58075000D02*
X124795000Y-57525000D01*
G75*
G02*
X124995000Y-57325000I200000J0D01*
G01*
X125395000Y-57325000D01*
G75*
G02*
X125595000Y-57525000I0J-200000D01*
G01*
X125595000Y-58075000D01*
G75*
G02*
X125395000Y-58275000I-200000J0D01*
G01*
X124995000Y-58275000D01*
G75*
G02*
X124795000Y-58075000I0J200000D01*
G01*
G37*
G04 #@! TD*
G04 #@! TO.C,R15*
G36*
G01*
X125655000Y-74135000D02*
X125655000Y-73585000D01*
G75*
G02*
X125855000Y-73385000I200000J0D01*
G01*
X126255000Y-73385000D01*
G75*
G02*
X126455000Y-73585000I0J-200000D01*
G01*
X126455000Y-74135000D01*
G75*
G02*
X126255000Y-74335000I-200000J0D01*
G01*
X125855000Y-74335000D01*
G75*
G02*
X125655000Y-74135000I0J200000D01*
G01*
G37*
G36*
G01*
X124005000Y-74135000D02*
X124005000Y-73585000D01*
G75*
G02*
X124205000Y-73385000I200000J0D01*
G01*
X124605000Y-73385000D01*
G75*
G02*
X124805000Y-73585000I0J-200000D01*
G01*
X124805000Y-74135000D01*
G75*
G02*
X124605000Y-74335000I-200000J0D01*
G01*
X124205000Y-74335000D01*
G75*
G02*
X124005000Y-74135000I0J200000D01*
G01*
G37*
G04 #@! TD*
G04 #@! TO.C,R14*
G36*
G01*
X123135000Y-60045000D02*
X123135000Y-59495000D01*
G75*
G02*
X123335000Y-59295000I200000J0D01*
G01*
X123735000Y-59295000D01*
G75*
G02*
X123935000Y-59495000I0J-200000D01*
G01*
X123935000Y-60045000D01*
G75*
G02*
X123735000Y-60245000I-200000J0D01*
G01*
X123335000Y-60245000D01*
G75*
G02*
X123135000Y-60045000I0J200000D01*
G01*
G37*
G36*
G01*
X124785000Y-60045000D02*
X124785000Y-59495000D01*
G75*
G02*
X124985000Y-59295000I200000J0D01*
G01*
X125385000Y-59295000D01*
G75*
G02*
X125585000Y-59495000I0J-200000D01*
G01*
X125585000Y-60045000D01*
G75*
G02*
X125385000Y-60245000I-200000J0D01*
G01*
X124985000Y-60245000D01*
G75*
G02*
X124785000Y-60045000I0J200000D01*
G01*
G37*
G04 #@! TD*
G04 #@! TO.C,R13*
G36*
G01*
X125645000Y-70145000D02*
X125645000Y-69595000D01*
G75*
G02*
X125845000Y-69395000I200000J0D01*
G01*
X126245000Y-69395000D01*
G75*
G02*
X126445000Y-69595000I0J-200000D01*
G01*
X126445000Y-70145000D01*
G75*
G02*
X126245000Y-70345000I-200000J0D01*
G01*
X125845000Y-70345000D01*
G75*
G02*
X125645000Y-70145000I0J200000D01*
G01*
G37*
G36*
G01*
X123995000Y-70145000D02*
X123995000Y-69595000D01*
G75*
G02*
X124195000Y-69395000I200000J0D01*
G01*
X124595000Y-69395000D01*
G75*
G02*
X124795000Y-69595000I0J-200000D01*
G01*
X124795000Y-70145000D01*
G75*
G02*
X124595000Y-70345000I-200000J0D01*
G01*
X124195000Y-70345000D01*
G75*
G02*
X123995000Y-70145000I0J200000D01*
G01*
G37*
G04 #@! TD*
G04 #@! TO.C,R12*
G36*
G01*
X125655000Y-72125000D02*
X125655000Y-71575000D01*
G75*
G02*
X125855000Y-71375000I200000J0D01*
G01*
X126255000Y-71375000D01*
G75*
G02*
X126455000Y-71575000I0J-200000D01*
G01*
X126455000Y-72125000D01*
G75*
G02*
X126255000Y-72325000I-200000J0D01*
G01*
X125855000Y-72325000D01*
G75*
G02*
X125655000Y-72125000I0J200000D01*
G01*
G37*
G36*
G01*
X124005000Y-72125000D02*
X124005000Y-71575000D01*
G75*
G02*
X124205000Y-71375000I200000J0D01*
G01*
X124605000Y-71375000D01*
G75*
G02*
X124805000Y-71575000I0J-200000D01*
G01*
X124805000Y-72125000D01*
G75*
G02*
X124605000Y-72325000I-200000J0D01*
G01*
X124205000Y-72325000D01*
G75*
G02*
X124005000Y-72125000I0J200000D01*
G01*
G37*
G04 #@! TD*
G04 #@! TO.C,R11*
G36*
G01*
X125645000Y-76265000D02*
X125645000Y-75715000D01*
G75*
G02*
X125845000Y-75515000I200000J0D01*
G01*
X126245000Y-75515000D01*
G75*
G02*
X126445000Y-75715000I0J-200000D01*
G01*
X126445000Y-76265000D01*
G75*
G02*
X126245000Y-76465000I-200000J0D01*
G01*
X125845000Y-76465000D01*
G75*
G02*
X125645000Y-76265000I0J200000D01*
G01*
G37*
G36*
G01*
X123995000Y-76265000D02*
X123995000Y-75715000D01*
G75*
G02*
X124195000Y-75515000I200000J0D01*
G01*
X124595000Y-75515000D01*
G75*
G02*
X124795000Y-75715000I0J-200000D01*
G01*
X124795000Y-76265000D01*
G75*
G02*
X124595000Y-76465000I-200000J0D01*
G01*
X124195000Y-76465000D01*
G75*
G02*
X123995000Y-76265000I0J200000D01*
G01*
G37*
G04 #@! TD*
G04 #@! TO.C,R9*
G36*
G01*
X124805000Y-56255000D02*
X124805000Y-55705000D01*
G75*
G02*
X125005000Y-55505000I200000J0D01*
G01*
X125405000Y-55505000D01*
G75*
G02*
X125605000Y-55705000I0J-200000D01*
G01*
X125605000Y-56255000D01*
G75*
G02*
X125405000Y-56455000I-200000J0D01*
G01*
X125005000Y-56455000D01*
G75*
G02*
X124805000Y-56255000I0J200000D01*
G01*
G37*
G36*
G01*
X123155000Y-56255000D02*
X123155000Y-55705000D01*
G75*
G02*
X123355000Y-55505000I200000J0D01*
G01*
X123755000Y-55505000D01*
G75*
G02*
X123955000Y-55705000I0J-200000D01*
G01*
X123955000Y-56255000D01*
G75*
G02*
X123755000Y-56455000I-200000J0D01*
G01*
X123355000Y-56455000D01*
G75*
G02*
X123155000Y-56255000I0J200000D01*
G01*
G37*
G04 #@! TD*
D13*
G04 #@! TO.C,TP7*
X109982000Y-72136000D03*
G04 #@! TD*
G04 #@! TO.C,C18*
G36*
G01*
X116230000Y-59045000D02*
X115730000Y-59045000D01*
G75*
G02*
X115505000Y-58820000I0J225000D01*
G01*
X115505000Y-58370000D01*
G75*
G02*
X115730000Y-58145000I225000J0D01*
G01*
X116230000Y-58145000D01*
G75*
G02*
X116455000Y-58370000I0J-225000D01*
G01*
X116455000Y-58820000D01*
G75*
G02*
X116230000Y-59045000I-225000J0D01*
G01*
G37*
G36*
G01*
X116230000Y-60595000D02*
X115730000Y-60595000D01*
G75*
G02*
X115505000Y-60370000I0J225000D01*
G01*
X115505000Y-59920000D01*
G75*
G02*
X115730000Y-59695000I225000J0D01*
G01*
X116230000Y-59695000D01*
G75*
G02*
X116455000Y-59920000I0J-225000D01*
G01*
X116455000Y-60370000D01*
G75*
G02*
X116230000Y-60595000I-225000J0D01*
G01*
G37*
G04 #@! TD*
D11*
G04 #@! TO.C,J3*
X130180000Y-62580000D03*
D10*
X130180000Y-65120000D03*
X130180000Y-67660000D03*
G04 #@! TD*
D14*
G04 #@! TO.C,J4*
X139790000Y-78420000D03*
X139790000Y-75880000D03*
X139790000Y-73340000D03*
X139790000Y-70800000D03*
X139790000Y-68260000D03*
X139790000Y-65720000D03*
X139790000Y-63180000D03*
X139790000Y-60640000D03*
X139790000Y-58100000D03*
X139790000Y-55560000D03*
X137250000Y-78420000D03*
X137250000Y-75880000D03*
X137250000Y-73340000D03*
X137250000Y-70800000D03*
X137250000Y-68260000D03*
X137250000Y-65720000D03*
X137250000Y-63180000D03*
X137250000Y-60640000D03*
X137250000Y-58100000D03*
G36*
G01*
X136400000Y-56160000D02*
X136400000Y-54960000D01*
G75*
G02*
X136650000Y-54710000I250000J0D01*
G01*
X137850000Y-54710000D01*
G75*
G02*
X138100000Y-54960000I0J-250000D01*
G01*
X138100000Y-56160000D01*
G75*
G02*
X137850000Y-56410000I-250000J0D01*
G01*
X136650000Y-56410000D01*
G75*
G02*
X136400000Y-56160000I0J250000D01*
G01*
G37*
G04 #@! TD*
D15*
G04 #@! TO.C,U3*
X118380000Y-65360000D03*
G36*
G01*
X114555000Y-62660000D02*
X115330000Y-62660000D01*
G75*
G02*
X115380000Y-62710000I0J-50000D01*
G01*
X115380000Y-62810000D01*
G75*
G02*
X115330000Y-62860000I-50000J0D01*
G01*
X114555000Y-62860000D01*
G75*
G02*
X114505000Y-62810000I0J50000D01*
G01*
X114505000Y-62710000D01*
G75*
G02*
X114555000Y-62660000I50000J0D01*
G01*
G37*
G36*
G01*
X114555000Y-63060000D02*
X115330000Y-63060000D01*
G75*
G02*
X115380000Y-63110000I0J-50000D01*
G01*
X115380000Y-63210000D01*
G75*
G02*
X115330000Y-63260000I-50000J0D01*
G01*
X114555000Y-63260000D01*
G75*
G02*
X114505000Y-63210000I0J50000D01*
G01*
X114505000Y-63110000D01*
G75*
G02*
X114555000Y-63060000I50000J0D01*
G01*
G37*
G36*
G01*
X114555000Y-63460000D02*
X115330000Y-63460000D01*
G75*
G02*
X115380000Y-63510000I0J-50000D01*
G01*
X115380000Y-63610000D01*
G75*
G02*
X115330000Y-63660000I-50000J0D01*
G01*
X114555000Y-63660000D01*
G75*
G02*
X114505000Y-63610000I0J50000D01*
G01*
X114505000Y-63510000D01*
G75*
G02*
X114555000Y-63460000I50000J0D01*
G01*
G37*
G36*
G01*
X114555000Y-63860000D02*
X115330000Y-63860000D01*
G75*
G02*
X115380000Y-63910000I0J-50000D01*
G01*
X115380000Y-64010000D01*
G75*
G02*
X115330000Y-64060000I-50000J0D01*
G01*
X114555000Y-64060000D01*
G75*
G02*
X114505000Y-64010000I0J50000D01*
G01*
X114505000Y-63910000D01*
G75*
G02*
X114555000Y-63860000I50000J0D01*
G01*
G37*
G36*
G01*
X114555000Y-64260000D02*
X115330000Y-64260000D01*
G75*
G02*
X115380000Y-64310000I0J-50000D01*
G01*
X115380000Y-64410000D01*
G75*
G02*
X115330000Y-64460000I-50000J0D01*
G01*
X114555000Y-64460000D01*
G75*
G02*
X114505000Y-64410000I0J50000D01*
G01*
X114505000Y-64310000D01*
G75*
G02*
X114555000Y-64260000I50000J0D01*
G01*
G37*
G36*
G01*
X114555000Y-64660000D02*
X115330000Y-64660000D01*
G75*
G02*
X115380000Y-64710000I0J-50000D01*
G01*
X115380000Y-64810000D01*
G75*
G02*
X115330000Y-64860000I-50000J0D01*
G01*
X114555000Y-64860000D01*
G75*
G02*
X114505000Y-64810000I0J50000D01*
G01*
X114505000Y-64710000D01*
G75*
G02*
X114555000Y-64660000I50000J0D01*
G01*
G37*
G36*
G01*
X114555000Y-65060000D02*
X115330000Y-65060000D01*
G75*
G02*
X115380000Y-65110000I0J-50000D01*
G01*
X115380000Y-65210000D01*
G75*
G02*
X115330000Y-65260000I-50000J0D01*
G01*
X114555000Y-65260000D01*
G75*
G02*
X114505000Y-65210000I0J50000D01*
G01*
X114505000Y-65110000D01*
G75*
G02*
X114555000Y-65060000I50000J0D01*
G01*
G37*
G36*
G01*
X114555000Y-65460000D02*
X115330000Y-65460000D01*
G75*
G02*
X115380000Y-65510000I0J-50000D01*
G01*
X115380000Y-65610000D01*
G75*
G02*
X115330000Y-65660000I-50000J0D01*
G01*
X114555000Y-65660000D01*
G75*
G02*
X114505000Y-65610000I0J50000D01*
G01*
X114505000Y-65510000D01*
G75*
G02*
X114555000Y-65460000I50000J0D01*
G01*
G37*
G36*
G01*
X114555000Y-65860000D02*
X115330000Y-65860000D01*
G75*
G02*
X115380000Y-65910000I0J-50000D01*
G01*
X115380000Y-66010000D01*
G75*
G02*
X115330000Y-66060000I-50000J0D01*
G01*
X114555000Y-66060000D01*
G75*
G02*
X114505000Y-66010000I0J50000D01*
G01*
X114505000Y-65910000D01*
G75*
G02*
X114555000Y-65860000I50000J0D01*
G01*
G37*
G36*
G01*
X114555000Y-66260000D02*
X115330000Y-66260000D01*
G75*
G02*
X115380000Y-66310000I0J-50000D01*
G01*
X115380000Y-66410000D01*
G75*
G02*
X115330000Y-66460000I-50000J0D01*
G01*
X114555000Y-66460000D01*
G75*
G02*
X114505000Y-66410000I0J50000D01*
G01*
X114505000Y-66310000D01*
G75*
G02*
X114555000Y-66260000I50000J0D01*
G01*
G37*
G36*
G01*
X114555000Y-66660000D02*
X115330000Y-66660000D01*
G75*
G02*
X115380000Y-66710000I0J-50000D01*
G01*
X115380000Y-66810000D01*
G75*
G02*
X115330000Y-66860000I-50000J0D01*
G01*
X114555000Y-66860000D01*
G75*
G02*
X114505000Y-66810000I0J50000D01*
G01*
X114505000Y-66710000D01*
G75*
G02*
X114555000Y-66660000I50000J0D01*
G01*
G37*
G36*
G01*
X114555000Y-67060000D02*
X115330000Y-67060000D01*
G75*
G02*
X115380000Y-67110000I0J-50000D01*
G01*
X115380000Y-67210000D01*
G75*
G02*
X115330000Y-67260000I-50000J0D01*
G01*
X114555000Y-67260000D01*
G75*
G02*
X114505000Y-67210000I0J50000D01*
G01*
X114505000Y-67110000D01*
G75*
G02*
X114555000Y-67060000I50000J0D01*
G01*
G37*
G36*
G01*
X114555000Y-67460000D02*
X115330000Y-67460000D01*
G75*
G02*
X115380000Y-67510000I0J-50000D01*
G01*
X115380000Y-67610000D01*
G75*
G02*
X115330000Y-67660000I-50000J0D01*
G01*
X114555000Y-67660000D01*
G75*
G02*
X114505000Y-67610000I0J50000D01*
G01*
X114505000Y-67510000D01*
G75*
G02*
X114555000Y-67460000I50000J0D01*
G01*
G37*
G36*
G01*
X114555000Y-67860000D02*
X115330000Y-67860000D01*
G75*
G02*
X115380000Y-67910000I0J-50000D01*
G01*
X115380000Y-68010000D01*
G75*
G02*
X115330000Y-68060000I-50000J0D01*
G01*
X114555000Y-68060000D01*
G75*
G02*
X114505000Y-68010000I0J50000D01*
G01*
X114505000Y-67910000D01*
G75*
G02*
X114555000Y-67860000I50000J0D01*
G01*
G37*
G36*
G01*
X115730000Y-68360000D02*
X115830000Y-68360000D01*
G75*
G02*
X115880000Y-68410000I0J-50000D01*
G01*
X115880000Y-69185000D01*
G75*
G02*
X115830000Y-69235000I-50000J0D01*
G01*
X115730000Y-69235000D01*
G75*
G02*
X115680000Y-69185000I0J50000D01*
G01*
X115680000Y-68410000D01*
G75*
G02*
X115730000Y-68360000I50000J0D01*
G01*
G37*
G36*
G01*
X116130000Y-68360000D02*
X116230000Y-68360000D01*
G75*
G02*
X116280000Y-68410000I0J-50000D01*
G01*
X116280000Y-69185000D01*
G75*
G02*
X116230000Y-69235000I-50000J0D01*
G01*
X116130000Y-69235000D01*
G75*
G02*
X116080000Y-69185000I0J50000D01*
G01*
X116080000Y-68410000D01*
G75*
G02*
X116130000Y-68360000I50000J0D01*
G01*
G37*
G36*
G01*
X116530000Y-68360000D02*
X116630000Y-68360000D01*
G75*
G02*
X116680000Y-68410000I0J-50000D01*
G01*
X116680000Y-69185000D01*
G75*
G02*
X116630000Y-69235000I-50000J0D01*
G01*
X116530000Y-69235000D01*
G75*
G02*
X116480000Y-69185000I0J50000D01*
G01*
X116480000Y-68410000D01*
G75*
G02*
X116530000Y-68360000I50000J0D01*
G01*
G37*
G36*
G01*
X116930000Y-68360000D02*
X117030000Y-68360000D01*
G75*
G02*
X117080000Y-68410000I0J-50000D01*
G01*
X117080000Y-69185000D01*
G75*
G02*
X117030000Y-69235000I-50000J0D01*
G01*
X116930000Y-69235000D01*
G75*
G02*
X116880000Y-69185000I0J50000D01*
G01*
X116880000Y-68410000D01*
G75*
G02*
X116930000Y-68360000I50000J0D01*
G01*
G37*
G36*
G01*
X117330000Y-68360000D02*
X117430000Y-68360000D01*
G75*
G02*
X117480000Y-68410000I0J-50000D01*
G01*
X117480000Y-69185000D01*
G75*
G02*
X117430000Y-69235000I-50000J0D01*
G01*
X117330000Y-69235000D01*
G75*
G02*
X117280000Y-69185000I0J50000D01*
G01*
X117280000Y-68410000D01*
G75*
G02*
X117330000Y-68360000I50000J0D01*
G01*
G37*
G36*
G01*
X117730000Y-68360000D02*
X117830000Y-68360000D01*
G75*
G02*
X117880000Y-68410000I0J-50000D01*
G01*
X117880000Y-69185000D01*
G75*
G02*
X117830000Y-69235000I-50000J0D01*
G01*
X117730000Y-69235000D01*
G75*
G02*
X117680000Y-69185000I0J50000D01*
G01*
X117680000Y-68410000D01*
G75*
G02*
X117730000Y-68360000I50000J0D01*
G01*
G37*
G36*
G01*
X118130000Y-68360000D02*
X118230000Y-68360000D01*
G75*
G02*
X118280000Y-68410000I0J-50000D01*
G01*
X118280000Y-69185000D01*
G75*
G02*
X118230000Y-69235000I-50000J0D01*
G01*
X118130000Y-69235000D01*
G75*
G02*
X118080000Y-69185000I0J50000D01*
G01*
X118080000Y-68410000D01*
G75*
G02*
X118130000Y-68360000I50000J0D01*
G01*
G37*
G36*
G01*
X118530000Y-68360000D02*
X118630000Y-68360000D01*
G75*
G02*
X118680000Y-68410000I0J-50000D01*
G01*
X118680000Y-69185000D01*
G75*
G02*
X118630000Y-69235000I-50000J0D01*
G01*
X118530000Y-69235000D01*
G75*
G02*
X118480000Y-69185000I0J50000D01*
G01*
X118480000Y-68410000D01*
G75*
G02*
X118530000Y-68360000I50000J0D01*
G01*
G37*
G36*
G01*
X118930000Y-68360000D02*
X119030000Y-68360000D01*
G75*
G02*
X119080000Y-68410000I0J-50000D01*
G01*
X119080000Y-69185000D01*
G75*
G02*
X119030000Y-69235000I-50000J0D01*
G01*
X118930000Y-69235000D01*
G75*
G02*
X118880000Y-69185000I0J50000D01*
G01*
X118880000Y-68410000D01*
G75*
G02*
X118930000Y-68360000I50000J0D01*
G01*
G37*
G36*
G01*
X119330000Y-68360000D02*
X119430000Y-68360000D01*
G75*
G02*
X119480000Y-68410000I0J-50000D01*
G01*
X119480000Y-69185000D01*
G75*
G02*
X119430000Y-69235000I-50000J0D01*
G01*
X119330000Y-69235000D01*
G75*
G02*
X119280000Y-69185000I0J50000D01*
G01*
X119280000Y-68410000D01*
G75*
G02*
X119330000Y-68360000I50000J0D01*
G01*
G37*
G36*
G01*
X119730000Y-68360000D02*
X119830000Y-68360000D01*
G75*
G02*
X119880000Y-68410000I0J-50000D01*
G01*
X119880000Y-69185000D01*
G75*
G02*
X119830000Y-69235000I-50000J0D01*
G01*
X119730000Y-69235000D01*
G75*
G02*
X119680000Y-69185000I0J50000D01*
G01*
X119680000Y-68410000D01*
G75*
G02*
X119730000Y-68360000I50000J0D01*
G01*
G37*
G36*
G01*
X120130000Y-68360000D02*
X120230000Y-68360000D01*
G75*
G02*
X120280000Y-68410000I0J-50000D01*
G01*
X120280000Y-69185000D01*
G75*
G02*
X120230000Y-69235000I-50000J0D01*
G01*
X120130000Y-69235000D01*
G75*
G02*
X120080000Y-69185000I0J50000D01*
G01*
X120080000Y-68410000D01*
G75*
G02*
X120130000Y-68360000I50000J0D01*
G01*
G37*
G36*
G01*
X120530000Y-68360000D02*
X120630000Y-68360000D01*
G75*
G02*
X120680000Y-68410000I0J-50000D01*
G01*
X120680000Y-69185000D01*
G75*
G02*
X120630000Y-69235000I-50000J0D01*
G01*
X120530000Y-69235000D01*
G75*
G02*
X120480000Y-69185000I0J50000D01*
G01*
X120480000Y-68410000D01*
G75*
G02*
X120530000Y-68360000I50000J0D01*
G01*
G37*
G36*
G01*
X120930000Y-68360000D02*
X121030000Y-68360000D01*
G75*
G02*
X121080000Y-68410000I0J-50000D01*
G01*
X121080000Y-69185000D01*
G75*
G02*
X121030000Y-69235000I-50000J0D01*
G01*
X120930000Y-69235000D01*
G75*
G02*
X120880000Y-69185000I0J50000D01*
G01*
X120880000Y-68410000D01*
G75*
G02*
X120930000Y-68360000I50000J0D01*
G01*
G37*
G36*
G01*
X121430000Y-67860000D02*
X122205000Y-67860000D01*
G75*
G02*
X122255000Y-67910000I0J-50000D01*
G01*
X122255000Y-68010000D01*
G75*
G02*
X122205000Y-68060000I-50000J0D01*
G01*
X121430000Y-68060000D01*
G75*
G02*
X121380000Y-68010000I0J50000D01*
G01*
X121380000Y-67910000D01*
G75*
G02*
X121430000Y-67860000I50000J0D01*
G01*
G37*
G36*
G01*
X121430000Y-67460000D02*
X122205000Y-67460000D01*
G75*
G02*
X122255000Y-67510000I0J-50000D01*
G01*
X122255000Y-67610000D01*
G75*
G02*
X122205000Y-67660000I-50000J0D01*
G01*
X121430000Y-67660000D01*
G75*
G02*
X121380000Y-67610000I0J50000D01*
G01*
X121380000Y-67510000D01*
G75*
G02*
X121430000Y-67460000I50000J0D01*
G01*
G37*
G36*
G01*
X121430000Y-67060000D02*
X122205000Y-67060000D01*
G75*
G02*
X122255000Y-67110000I0J-50000D01*
G01*
X122255000Y-67210000D01*
G75*
G02*
X122205000Y-67260000I-50000J0D01*
G01*
X121430000Y-67260000D01*
G75*
G02*
X121380000Y-67210000I0J50000D01*
G01*
X121380000Y-67110000D01*
G75*
G02*
X121430000Y-67060000I50000J0D01*
G01*
G37*
G36*
G01*
X121430000Y-66660000D02*
X122205000Y-66660000D01*
G75*
G02*
X122255000Y-66710000I0J-50000D01*
G01*
X122255000Y-66810000D01*
G75*
G02*
X122205000Y-66860000I-50000J0D01*
G01*
X121430000Y-66860000D01*
G75*
G02*
X121380000Y-66810000I0J50000D01*
G01*
X121380000Y-66710000D01*
G75*
G02*
X121430000Y-66660000I50000J0D01*
G01*
G37*
G36*
G01*
X121430000Y-66260000D02*
X122205000Y-66260000D01*
G75*
G02*
X122255000Y-66310000I0J-50000D01*
G01*
X122255000Y-66410000D01*
G75*
G02*
X122205000Y-66460000I-50000J0D01*
G01*
X121430000Y-66460000D01*
G75*
G02*
X121380000Y-66410000I0J50000D01*
G01*
X121380000Y-66310000D01*
G75*
G02*
X121430000Y-66260000I50000J0D01*
G01*
G37*
G36*
G01*
X121430000Y-65860000D02*
X122205000Y-65860000D01*
G75*
G02*
X122255000Y-65910000I0J-50000D01*
G01*
X122255000Y-66010000D01*
G75*
G02*
X122205000Y-66060000I-50000J0D01*
G01*
X121430000Y-66060000D01*
G75*
G02*
X121380000Y-66010000I0J50000D01*
G01*
X121380000Y-65910000D01*
G75*
G02*
X121430000Y-65860000I50000J0D01*
G01*
G37*
G36*
G01*
X121430000Y-65460000D02*
X122205000Y-65460000D01*
G75*
G02*
X122255000Y-65510000I0J-50000D01*
G01*
X122255000Y-65610000D01*
G75*
G02*
X122205000Y-65660000I-50000J0D01*
G01*
X121430000Y-65660000D01*
G75*
G02*
X121380000Y-65610000I0J50000D01*
G01*
X121380000Y-65510000D01*
G75*
G02*
X121430000Y-65460000I50000J0D01*
G01*
G37*
G36*
G01*
X121430000Y-65060000D02*
X122205000Y-65060000D01*
G75*
G02*
X122255000Y-65110000I0J-50000D01*
G01*
X122255000Y-65210000D01*
G75*
G02*
X122205000Y-65260000I-50000J0D01*
G01*
X121430000Y-65260000D01*
G75*
G02*
X121380000Y-65210000I0J50000D01*
G01*
X121380000Y-65110000D01*
G75*
G02*
X121430000Y-65060000I50000J0D01*
G01*
G37*
G36*
G01*
X121430000Y-64660000D02*
X122205000Y-64660000D01*
G75*
G02*
X122255000Y-64710000I0J-50000D01*
G01*
X122255000Y-64810000D01*
G75*
G02*
X122205000Y-64860000I-50000J0D01*
G01*
X121430000Y-64860000D01*
G75*
G02*
X121380000Y-64810000I0J50000D01*
G01*
X121380000Y-64710000D01*
G75*
G02*
X121430000Y-64660000I50000J0D01*
G01*
G37*
G36*
G01*
X121430000Y-64260000D02*
X122205000Y-64260000D01*
G75*
G02*
X122255000Y-64310000I0J-50000D01*
G01*
X122255000Y-64410000D01*
G75*
G02*
X122205000Y-64460000I-50000J0D01*
G01*
X121430000Y-64460000D01*
G75*
G02*
X121380000Y-64410000I0J50000D01*
G01*
X121380000Y-64310000D01*
G75*
G02*
X121430000Y-64260000I50000J0D01*
G01*
G37*
G36*
G01*
X121430000Y-63860000D02*
X122205000Y-63860000D01*
G75*
G02*
X122255000Y-63910000I0J-50000D01*
G01*
X122255000Y-64010000D01*
G75*
G02*
X122205000Y-64060000I-50000J0D01*
G01*
X121430000Y-64060000D01*
G75*
G02*
X121380000Y-64010000I0J50000D01*
G01*
X121380000Y-63910000D01*
G75*
G02*
X121430000Y-63860000I50000J0D01*
G01*
G37*
G36*
G01*
X121430000Y-63460000D02*
X122205000Y-63460000D01*
G75*
G02*
X122255000Y-63510000I0J-50000D01*
G01*
X122255000Y-63610000D01*
G75*
G02*
X122205000Y-63660000I-50000J0D01*
G01*
X121430000Y-63660000D01*
G75*
G02*
X121380000Y-63610000I0J50000D01*
G01*
X121380000Y-63510000D01*
G75*
G02*
X121430000Y-63460000I50000J0D01*
G01*
G37*
G36*
G01*
X121430000Y-63060000D02*
X122205000Y-63060000D01*
G75*
G02*
X122255000Y-63110000I0J-50000D01*
G01*
X122255000Y-63210000D01*
G75*
G02*
X122205000Y-63260000I-50000J0D01*
G01*
X121430000Y-63260000D01*
G75*
G02*
X121380000Y-63210000I0J50000D01*
G01*
X121380000Y-63110000D01*
G75*
G02*
X121430000Y-63060000I50000J0D01*
G01*
G37*
G36*
G01*
X121430000Y-62660000D02*
X122205000Y-62660000D01*
G75*
G02*
X122255000Y-62710000I0J-50000D01*
G01*
X122255000Y-62810000D01*
G75*
G02*
X122205000Y-62860000I-50000J0D01*
G01*
X121430000Y-62860000D01*
G75*
G02*
X121380000Y-62810000I0J50000D01*
G01*
X121380000Y-62710000D01*
G75*
G02*
X121430000Y-62660000I50000J0D01*
G01*
G37*
G36*
G01*
X120930000Y-61485000D02*
X121030000Y-61485000D01*
G75*
G02*
X121080000Y-61535000I0J-50000D01*
G01*
X121080000Y-62310000D01*
G75*
G02*
X121030000Y-62360000I-50000J0D01*
G01*
X120930000Y-62360000D01*
G75*
G02*
X120880000Y-62310000I0J50000D01*
G01*
X120880000Y-61535000D01*
G75*
G02*
X120930000Y-61485000I50000J0D01*
G01*
G37*
G36*
G01*
X120530000Y-61485000D02*
X120630000Y-61485000D01*
G75*
G02*
X120680000Y-61535000I0J-50000D01*
G01*
X120680000Y-62310000D01*
G75*
G02*
X120630000Y-62360000I-50000J0D01*
G01*
X120530000Y-62360000D01*
G75*
G02*
X120480000Y-62310000I0J50000D01*
G01*
X120480000Y-61535000D01*
G75*
G02*
X120530000Y-61485000I50000J0D01*
G01*
G37*
G36*
G01*
X120130000Y-61485000D02*
X120230000Y-61485000D01*
G75*
G02*
X120280000Y-61535000I0J-50000D01*
G01*
X120280000Y-62310000D01*
G75*
G02*
X120230000Y-62360000I-50000J0D01*
G01*
X120130000Y-62360000D01*
G75*
G02*
X120080000Y-62310000I0J50000D01*
G01*
X120080000Y-61535000D01*
G75*
G02*
X120130000Y-61485000I50000J0D01*
G01*
G37*
G36*
G01*
X119730000Y-61485000D02*
X119830000Y-61485000D01*
G75*
G02*
X119880000Y-61535000I0J-50000D01*
G01*
X119880000Y-62310000D01*
G75*
G02*
X119830000Y-62360000I-50000J0D01*
G01*
X119730000Y-62360000D01*
G75*
G02*
X119680000Y-62310000I0J50000D01*
G01*
X119680000Y-61535000D01*
G75*
G02*
X119730000Y-61485000I50000J0D01*
G01*
G37*
G36*
G01*
X119330000Y-61485000D02*
X119430000Y-61485000D01*
G75*
G02*
X119480000Y-61535000I0J-50000D01*
G01*
X119480000Y-62310000D01*
G75*
G02*
X119430000Y-62360000I-50000J0D01*
G01*
X119330000Y-62360000D01*
G75*
G02*
X119280000Y-62310000I0J50000D01*
G01*
X119280000Y-61535000D01*
G75*
G02*
X119330000Y-61485000I50000J0D01*
G01*
G37*
G36*
G01*
X118930000Y-61485000D02*
X119030000Y-61485000D01*
G75*
G02*
X119080000Y-61535000I0J-50000D01*
G01*
X119080000Y-62310000D01*
G75*
G02*
X119030000Y-62360000I-50000J0D01*
G01*
X118930000Y-62360000D01*
G75*
G02*
X118880000Y-62310000I0J50000D01*
G01*
X118880000Y-61535000D01*
G75*
G02*
X118930000Y-61485000I50000J0D01*
G01*
G37*
G36*
G01*
X118530000Y-61485000D02*
X118630000Y-61485000D01*
G75*
G02*
X118680000Y-61535000I0J-50000D01*
G01*
X118680000Y-62310000D01*
G75*
G02*
X118630000Y-62360000I-50000J0D01*
G01*
X118530000Y-62360000D01*
G75*
G02*
X118480000Y-62310000I0J50000D01*
G01*
X118480000Y-61535000D01*
G75*
G02*
X118530000Y-61485000I50000J0D01*
G01*
G37*
G36*
G01*
X118130000Y-61485000D02*
X118230000Y-61485000D01*
G75*
G02*
X118280000Y-61535000I0J-50000D01*
G01*
X118280000Y-62310000D01*
G75*
G02*
X118230000Y-62360000I-50000J0D01*
G01*
X118130000Y-62360000D01*
G75*
G02*
X118080000Y-62310000I0J50000D01*
G01*
X118080000Y-61535000D01*
G75*
G02*
X118130000Y-61485000I50000J0D01*
G01*
G37*
G36*
G01*
X117730000Y-61485000D02*
X117830000Y-61485000D01*
G75*
G02*
X117880000Y-61535000I0J-50000D01*
G01*
X117880000Y-62310000D01*
G75*
G02*
X117830000Y-62360000I-50000J0D01*
G01*
X117730000Y-62360000D01*
G75*
G02*
X117680000Y-62310000I0J50000D01*
G01*
X117680000Y-61535000D01*
G75*
G02*
X117730000Y-61485000I50000J0D01*
G01*
G37*
G36*
G01*
X117330000Y-61485000D02*
X117430000Y-61485000D01*
G75*
G02*
X117480000Y-61535000I0J-50000D01*
G01*
X117480000Y-62310000D01*
G75*
G02*
X117430000Y-62360000I-50000J0D01*
G01*
X117330000Y-62360000D01*
G75*
G02*
X117280000Y-62310000I0J50000D01*
G01*
X117280000Y-61535000D01*
G75*
G02*
X117330000Y-61485000I50000J0D01*
G01*
G37*
G36*
G01*
X116930000Y-61485000D02*
X117030000Y-61485000D01*
G75*
G02*
X117080000Y-61535000I0J-50000D01*
G01*
X117080000Y-62310000D01*
G75*
G02*
X117030000Y-62360000I-50000J0D01*
G01*
X116930000Y-62360000D01*
G75*
G02*
X116880000Y-62310000I0J50000D01*
G01*
X116880000Y-61535000D01*
G75*
G02*
X116930000Y-61485000I50000J0D01*
G01*
G37*
G36*
G01*
X116530000Y-61485000D02*
X116630000Y-61485000D01*
G75*
G02*
X116680000Y-61535000I0J-50000D01*
G01*
X116680000Y-62310000D01*
G75*
G02*
X116630000Y-62360000I-50000J0D01*
G01*
X116530000Y-62360000D01*
G75*
G02*
X116480000Y-62310000I0J50000D01*
G01*
X116480000Y-61535000D01*
G75*
G02*
X116530000Y-61485000I50000J0D01*
G01*
G37*
G36*
G01*
X116130000Y-61485000D02*
X116230000Y-61485000D01*
G75*
G02*
X116280000Y-61535000I0J-50000D01*
G01*
X116280000Y-62310000D01*
G75*
G02*
X116230000Y-62360000I-50000J0D01*
G01*
X116130000Y-62360000D01*
G75*
G02*
X116080000Y-62310000I0J50000D01*
G01*
X116080000Y-61535000D01*
G75*
G02*
X116130000Y-61485000I50000J0D01*
G01*
G37*
G36*
G01*
X115730000Y-61485000D02*
X115830000Y-61485000D01*
G75*
G02*
X115880000Y-61535000I0J-50000D01*
G01*
X115880000Y-62310000D01*
G75*
G02*
X115830000Y-62360000I-50000J0D01*
G01*
X115730000Y-62360000D01*
G75*
G02*
X115680000Y-62310000I0J50000D01*
G01*
X115680000Y-61535000D01*
G75*
G02*
X115730000Y-61485000I50000J0D01*
G01*
G37*
G04 #@! TD*
D16*
G04 #@! TO.C,U1*
X123920000Y-64050000D03*
X125820000Y-64050000D03*
X125820000Y-61850000D03*
X124870000Y-61850000D03*
X123920000Y-61850000D03*
G04 #@! TD*
G04 #@! TO.C,R6*
G36*
G01*
X109925000Y-65535000D02*
X109925000Y-66085000D01*
G75*
G02*
X109725000Y-66285000I-200000J0D01*
G01*
X109325000Y-66285000D01*
G75*
G02*
X109125000Y-66085000I0J200000D01*
G01*
X109125000Y-65535000D01*
G75*
G02*
X109325000Y-65335000I200000J0D01*
G01*
X109725000Y-65335000D01*
G75*
G02*
X109925000Y-65535000I0J-200000D01*
G01*
G37*
G36*
G01*
X111575000Y-65535000D02*
X111575000Y-66085000D01*
G75*
G02*
X111375000Y-66285000I-200000J0D01*
G01*
X110975000Y-66285000D01*
G75*
G02*
X110775000Y-66085000I0J200000D01*
G01*
X110775000Y-65535000D01*
G75*
G02*
X110975000Y-65335000I200000J0D01*
G01*
X111375000Y-65335000D01*
G75*
G02*
X111575000Y-65535000I0J-200000D01*
G01*
G37*
G04 #@! TD*
G04 #@! TO.C,R5*
G36*
G01*
X109925000Y-67065000D02*
X109925000Y-67615000D01*
G75*
G02*
X109725000Y-67815000I-200000J0D01*
G01*
X109325000Y-67815000D01*
G75*
G02*
X109125000Y-67615000I0J200000D01*
G01*
X109125000Y-67065000D01*
G75*
G02*
X109325000Y-66865000I200000J0D01*
G01*
X109725000Y-66865000D01*
G75*
G02*
X109925000Y-67065000I0J-200000D01*
G01*
G37*
G36*
G01*
X111575000Y-67065000D02*
X111575000Y-67615000D01*
G75*
G02*
X111375000Y-67815000I-200000J0D01*
G01*
X110975000Y-67815000D01*
G75*
G02*
X110775000Y-67615000I0J200000D01*
G01*
X110775000Y-67065000D01*
G75*
G02*
X110975000Y-66865000I200000J0D01*
G01*
X111375000Y-66865000D01*
G75*
G02*
X111575000Y-67065000I0J-200000D01*
G01*
G37*
G04 #@! TD*
G04 #@! TO.C,R4*
G36*
G01*
X103025000Y-67675000D02*
X102475000Y-67675000D01*
G75*
G02*
X102275000Y-67475000I0J200000D01*
G01*
X102275000Y-67075000D01*
G75*
G02*
X102475000Y-66875000I200000J0D01*
G01*
X103025000Y-66875000D01*
G75*
G02*
X103225000Y-67075000I0J-200000D01*
G01*
X103225000Y-67475000D01*
G75*
G02*
X103025000Y-67675000I-200000J0D01*
G01*
G37*
G36*
G01*
X103025000Y-69325000D02*
X102475000Y-69325000D01*
G75*
G02*
X102275000Y-69125000I0J200000D01*
G01*
X102275000Y-68725000D01*
G75*
G02*
X102475000Y-68525000I200000J0D01*
G01*
X103025000Y-68525000D01*
G75*
G02*
X103225000Y-68725000I0J-200000D01*
G01*
X103225000Y-69125000D01*
G75*
G02*
X103025000Y-69325000I-200000J0D01*
G01*
G37*
G04 #@! TD*
G04 #@! TO.C,R3*
G36*
G01*
X107175000Y-64015000D02*
X107725000Y-64015000D01*
G75*
G02*
X107925000Y-64215000I0J-200000D01*
G01*
X107925000Y-64615000D01*
G75*
G02*
X107725000Y-64815000I-200000J0D01*
G01*
X107175000Y-64815000D01*
G75*
G02*
X106975000Y-64615000I0J200000D01*
G01*
X106975000Y-64215000D01*
G75*
G02*
X107175000Y-64015000I200000J0D01*
G01*
G37*
G36*
G01*
X107175000Y-62365000D02*
X107725000Y-62365000D01*
G75*
G02*
X107925000Y-62565000I0J-200000D01*
G01*
X107925000Y-62965000D01*
G75*
G02*
X107725000Y-63165000I-200000J0D01*
G01*
X107175000Y-63165000D01*
G75*
G02*
X106975000Y-62965000I0J200000D01*
G01*
X106975000Y-62565000D01*
G75*
G02*
X107175000Y-62365000I200000J0D01*
G01*
G37*
G04 #@! TD*
D17*
G04 #@! TO.C,J1*
X101740000Y-70900000D03*
X101740000Y-62250000D03*
D18*
X105120000Y-70900000D03*
X105120000Y-62250000D03*
D19*
X104750000Y-67000000D03*
D20*
X104750000Y-69550000D03*
X104750000Y-68700000D03*
X104750000Y-67850000D03*
X104750000Y-63600000D03*
X104750000Y-65300000D03*
X104750000Y-66150000D03*
X104750000Y-64450000D03*
X106100000Y-69550000D03*
X106100000Y-68700000D03*
X106100000Y-67850000D03*
D19*
X106100000Y-67000000D03*
D20*
X106100000Y-66150000D03*
X106100000Y-65300000D03*
X106100000Y-64450000D03*
X106100000Y-63600000D03*
G04 #@! TD*
D21*
G04 #@! TO.C,H4*
X146750000Y-53250000D03*
G04 #@! TD*
G04 #@! TO.C,H3*
X103250000Y-80750000D03*
G04 #@! TD*
G04 #@! TO.C,H2*
X146750000Y-80750000D03*
G04 #@! TD*
G04 #@! TO.C,H1*
X103250000Y-53250000D03*
G04 #@! TD*
G04 #@! TO.C,C17*
G36*
G01*
X119540000Y-58955000D02*
X119040000Y-58955000D01*
G75*
G02*
X118815000Y-58730000I0J225000D01*
G01*
X118815000Y-58280000D01*
G75*
G02*
X119040000Y-58055000I225000J0D01*
G01*
X119540000Y-58055000D01*
G75*
G02*
X119765000Y-58280000I0J-225000D01*
G01*
X119765000Y-58730000D01*
G75*
G02*
X119540000Y-58955000I-225000J0D01*
G01*
G37*
G36*
G01*
X119540000Y-60505000D02*
X119040000Y-60505000D01*
G75*
G02*
X118815000Y-60280000I0J225000D01*
G01*
X118815000Y-59830000D01*
G75*
G02*
X119040000Y-59605000I225000J0D01*
G01*
X119540000Y-59605000D01*
G75*
G02*
X119765000Y-59830000I0J-225000D01*
G01*
X119765000Y-60280000D01*
G75*
G02*
X119540000Y-60505000I-225000J0D01*
G01*
G37*
G04 #@! TD*
G04 #@! TO.C,C16*
G36*
G01*
X110025000Y-60980000D02*
X110025000Y-61480000D01*
G75*
G02*
X109800000Y-61705000I-225000J0D01*
G01*
X109350000Y-61705000D01*
G75*
G02*
X109125000Y-61480000I0J225000D01*
G01*
X109125000Y-60980000D01*
G75*
G02*
X109350000Y-60755000I225000J0D01*
G01*
X109800000Y-60755000D01*
G75*
G02*
X110025000Y-60980000I0J-225000D01*
G01*
G37*
G36*
G01*
X111575000Y-60980000D02*
X111575000Y-61480000D01*
G75*
G02*
X111350000Y-61705000I-225000J0D01*
G01*
X110900000Y-61705000D01*
G75*
G02*
X110675000Y-61480000I0J225000D01*
G01*
X110675000Y-60980000D01*
G75*
G02*
X110900000Y-60755000I225000J0D01*
G01*
X111350000Y-60755000D01*
G75*
G02*
X111575000Y-60980000I0J-225000D01*
G01*
G37*
G04 #@! TD*
G04 #@! TO.C,C15*
G36*
G01*
X118540000Y-72095000D02*
X119040000Y-72095000D01*
G75*
G02*
X119265000Y-72320000I0J-225000D01*
G01*
X119265000Y-72770000D01*
G75*
G02*
X119040000Y-72995000I-225000J0D01*
G01*
X118540000Y-72995000D01*
G75*
G02*
X118315000Y-72770000I0J225000D01*
G01*
X118315000Y-72320000D01*
G75*
G02*
X118540000Y-72095000I225000J0D01*
G01*
G37*
G36*
G01*
X118540000Y-70545000D02*
X119040000Y-70545000D01*
G75*
G02*
X119265000Y-70770000I0J-225000D01*
G01*
X119265000Y-71220000D01*
G75*
G02*
X119040000Y-71445000I-225000J0D01*
G01*
X118540000Y-71445000D01*
G75*
G02*
X118315000Y-71220000I0J225000D01*
G01*
X118315000Y-70770000D01*
G75*
G02*
X118540000Y-70545000I225000J0D01*
G01*
G37*
G04 #@! TD*
G04 #@! TO.C,C14*
G36*
G01*
X125265000Y-67410000D02*
X125265000Y-66910000D01*
G75*
G02*
X125490000Y-66685000I225000J0D01*
G01*
X125940000Y-66685000D01*
G75*
G02*
X126165000Y-66910000I0J-225000D01*
G01*
X126165000Y-67410000D01*
G75*
G02*
X125940000Y-67635000I-225000J0D01*
G01*
X125490000Y-67635000D01*
G75*
G02*
X125265000Y-67410000I0J225000D01*
G01*
G37*
G36*
G01*
X123715000Y-67410000D02*
X123715000Y-66910000D01*
G75*
G02*
X123940000Y-66685000I225000J0D01*
G01*
X124390000Y-66685000D01*
G75*
G02*
X124615000Y-66910000I0J-225000D01*
G01*
X124615000Y-67410000D01*
G75*
G02*
X124390000Y-67635000I-225000J0D01*
G01*
X123940000Y-67635000D01*
G75*
G02*
X123715000Y-67410000I0J225000D01*
G01*
G37*
G04 #@! TD*
G04 #@! TO.C,C13*
G36*
G01*
X125265000Y-65890000D02*
X125265000Y-65390000D01*
G75*
G02*
X125490000Y-65165000I225000J0D01*
G01*
X125940000Y-65165000D01*
G75*
G02*
X126165000Y-65390000I0J-225000D01*
G01*
X126165000Y-65890000D01*
G75*
G02*
X125940000Y-66115000I-225000J0D01*
G01*
X125490000Y-66115000D01*
G75*
G02*
X125265000Y-65890000I0J225000D01*
G01*
G37*
G36*
G01*
X123715000Y-65890000D02*
X123715000Y-65390000D01*
G75*
G02*
X123940000Y-65165000I225000J0D01*
G01*
X124390000Y-65165000D01*
G75*
G02*
X124615000Y-65390000I0J-225000D01*
G01*
X124615000Y-65890000D01*
G75*
G02*
X124390000Y-66115000I-225000J0D01*
G01*
X123940000Y-66115000D01*
G75*
G02*
X123715000Y-65890000I0J225000D01*
G01*
G37*
G04 #@! TD*
G04 #@! TO.C,C12*
G36*
G01*
X110025000Y-68620000D02*
X110025000Y-69120000D01*
G75*
G02*
X109800000Y-69345000I-225000J0D01*
G01*
X109350000Y-69345000D01*
G75*
G02*
X109125000Y-69120000I0J225000D01*
G01*
X109125000Y-68620000D01*
G75*
G02*
X109350000Y-68395000I225000J0D01*
G01*
X109800000Y-68395000D01*
G75*
G02*
X110025000Y-68620000I0J-225000D01*
G01*
G37*
G36*
G01*
X111575000Y-68620000D02*
X111575000Y-69120000D01*
G75*
G02*
X111350000Y-69345000I-225000J0D01*
G01*
X110900000Y-69345000D01*
G75*
G02*
X110675000Y-69120000I0J225000D01*
G01*
X110675000Y-68620000D01*
G75*
G02*
X110900000Y-68395000I225000J0D01*
G01*
X111350000Y-68395000D01*
G75*
G02*
X111575000Y-68620000I0J-225000D01*
G01*
G37*
G04 #@! TD*
G04 #@! TO.C,C11*
G36*
G01*
X115530000Y-72095000D02*
X116030000Y-72095000D01*
G75*
G02*
X116255000Y-72320000I0J-225000D01*
G01*
X116255000Y-72770000D01*
G75*
G02*
X116030000Y-72995000I-225000J0D01*
G01*
X115530000Y-72995000D01*
G75*
G02*
X115305000Y-72770000I0J225000D01*
G01*
X115305000Y-72320000D01*
G75*
G02*
X115530000Y-72095000I225000J0D01*
G01*
G37*
G36*
G01*
X115530000Y-70545000D02*
X116030000Y-70545000D01*
G75*
G02*
X116255000Y-70770000I0J-225000D01*
G01*
X116255000Y-71220000D01*
G75*
G02*
X116030000Y-71445000I-225000J0D01*
G01*
X115530000Y-71445000D01*
G75*
G02*
X115305000Y-71220000I0J225000D01*
G01*
X115305000Y-70770000D01*
G75*
G02*
X115530000Y-70545000I225000J0D01*
G01*
G37*
G04 #@! TD*
G04 #@! TO.C,C9*
G36*
G01*
X110025000Y-64040000D02*
X110025000Y-64540000D01*
G75*
G02*
X109800000Y-64765000I-225000J0D01*
G01*
X109350000Y-64765000D01*
G75*
G02*
X109125000Y-64540000I0J225000D01*
G01*
X109125000Y-64040000D01*
G75*
G02*
X109350000Y-63815000I225000J0D01*
G01*
X109800000Y-63815000D01*
G75*
G02*
X110025000Y-64040000I0J-225000D01*
G01*
G37*
G36*
G01*
X111575000Y-64040000D02*
X111575000Y-64540000D01*
G75*
G02*
X111350000Y-64765000I-225000J0D01*
G01*
X110900000Y-64765000D01*
G75*
G02*
X110675000Y-64540000I0J225000D01*
G01*
X110675000Y-64040000D01*
G75*
G02*
X110900000Y-63815000I225000J0D01*
G01*
X111350000Y-63815000D01*
G75*
G02*
X111575000Y-64040000I0J-225000D01*
G01*
G37*
G04 #@! TD*
G04 #@! TO.C,C8*
G36*
G01*
X110025000Y-62520000D02*
X110025000Y-63020000D01*
G75*
G02*
X109800000Y-63245000I-225000J0D01*
G01*
X109350000Y-63245000D01*
G75*
G02*
X109125000Y-63020000I0J225000D01*
G01*
X109125000Y-62520000D01*
G75*
G02*
X109350000Y-62295000I225000J0D01*
G01*
X109800000Y-62295000D01*
G75*
G02*
X110025000Y-62520000I0J-225000D01*
G01*
G37*
G36*
G01*
X111575000Y-62520000D02*
X111575000Y-63020000D01*
G75*
G02*
X111350000Y-63245000I-225000J0D01*
G01*
X110900000Y-63245000D01*
G75*
G02*
X110675000Y-63020000I0J225000D01*
G01*
X110675000Y-62520000D01*
G75*
G02*
X110900000Y-62295000I225000J0D01*
G01*
X111350000Y-62295000D01*
G75*
G02*
X111575000Y-62520000I0J-225000D01*
G01*
G37*
G04 #@! TD*
G04 #@! TO.C,C6*
G36*
G01*
X114000000Y-72105000D02*
X114500000Y-72105000D01*
G75*
G02*
X114725000Y-72330000I0J-225000D01*
G01*
X114725000Y-72780000D01*
G75*
G02*
X114500000Y-73005000I-225000J0D01*
G01*
X114000000Y-73005000D01*
G75*
G02*
X113775000Y-72780000I0J225000D01*
G01*
X113775000Y-72330000D01*
G75*
G02*
X114000000Y-72105000I225000J0D01*
G01*
G37*
G36*
G01*
X114000000Y-70555000D02*
X114500000Y-70555000D01*
G75*
G02*
X114725000Y-70780000I0J-225000D01*
G01*
X114725000Y-71230000D01*
G75*
G02*
X114500000Y-71455000I-225000J0D01*
G01*
X114000000Y-71455000D01*
G75*
G02*
X113775000Y-71230000I0J225000D01*
G01*
X113775000Y-70780000D01*
G75*
G02*
X114000000Y-70555000I225000J0D01*
G01*
G37*
G04 #@! TD*
G04 #@! TO.C,C5*
G36*
G01*
X111585000Y-70130000D02*
X111585000Y-70630000D01*
G75*
G02*
X111360000Y-70855000I-225000J0D01*
G01*
X110910000Y-70855000D01*
G75*
G02*
X110685000Y-70630000I0J225000D01*
G01*
X110685000Y-70130000D01*
G75*
G02*
X110910000Y-69905000I225000J0D01*
G01*
X111360000Y-69905000D01*
G75*
G02*
X111585000Y-70130000I0J-225000D01*
G01*
G37*
G36*
G01*
X110035000Y-70130000D02*
X110035000Y-70630000D01*
G75*
G02*
X109810000Y-70855000I-225000J0D01*
G01*
X109360000Y-70855000D01*
G75*
G02*
X109135000Y-70630000I0J225000D01*
G01*
X109135000Y-70130000D01*
G75*
G02*
X109360000Y-69905000I225000J0D01*
G01*
X109810000Y-69905000D01*
G75*
G02*
X110035000Y-70130000I0J-225000D01*
G01*
G37*
G04 #@! TD*
G04 #@! TO.C,C2*
G36*
G01*
X127730000Y-62955000D02*
X127230000Y-62955000D01*
G75*
G02*
X127005000Y-62730000I0J225000D01*
G01*
X127005000Y-62280000D01*
G75*
G02*
X127230000Y-62055000I225000J0D01*
G01*
X127730000Y-62055000D01*
G75*
G02*
X127955000Y-62280000I0J-225000D01*
G01*
X127955000Y-62730000D01*
G75*
G02*
X127730000Y-62955000I-225000J0D01*
G01*
G37*
G36*
G01*
X127730000Y-64505000D02*
X127230000Y-64505000D01*
G75*
G02*
X127005000Y-64280000I0J225000D01*
G01*
X127005000Y-63830000D01*
G75*
G02*
X127230000Y-63605000I225000J0D01*
G01*
X127730000Y-63605000D01*
G75*
G02*
X127955000Y-63830000I0J-225000D01*
G01*
X127955000Y-64280000D01*
G75*
G02*
X127730000Y-64505000I-225000J0D01*
G01*
G37*
G04 #@! TD*
M02*
