G04 #@! TF.GenerationSoftware,KiCad,Pcbnew,(5.1.10-1-10_14)*
G04 #@! TF.CreationDate,2022-04-15T02:56:20+09:00*
G04 #@! TF.ProjectId,cmsis-dap_rp2040,636d7369-732d-4646-9170-5f7270323034,rev?*
G04 #@! TF.SameCoordinates,Original*
G04 #@! TF.FileFunction,Copper,L1,Top*
G04 #@! TF.FilePolarity,Positive*
%FSLAX46Y46*%
G04 Gerber Fmt 4.6, Leading zero omitted, Abs format (unit mm)*
G04 Created by KiCad (PCBNEW (5.1.10-1-10_14)) date 2022-04-15 02:56:20*
%MOMM*%
%LPD*%
G01*
G04 APERTURE LIST*
G04 #@! TA.AperFunction,ComponentPad*
%ADD10O,1.700000X1.700000*%
G04 #@! TD*
G04 #@! TA.AperFunction,ComponentPad*
%ADD11R,1.700000X1.700000*%
G04 #@! TD*
G04 #@! TA.AperFunction,ComponentPad*
%ADD12R,2.000000X2.000000*%
G04 #@! TD*
G04 #@! TA.AperFunction,SMDPad,CuDef*
%ADD13C,1.000000*%
G04 #@! TD*
G04 #@! TA.AperFunction,SMDPad,CuDef*
%ADD14R,1.100000X1.100000*%
G04 #@! TD*
G04 #@! TA.AperFunction,ComponentPad*
%ADD15C,1.700000*%
G04 #@! TD*
G04 #@! TA.AperFunction,SMDPad,CuDef*
%ADD16R,2.000000X1.500000*%
G04 #@! TD*
G04 #@! TA.AperFunction,SMDPad,CuDef*
%ADD17R,2.000000X3.800000*%
G04 #@! TD*
G04 #@! TA.AperFunction,ComponentPad*
%ADD18O,1.700000X0.900000*%
G04 #@! TD*
G04 #@! TA.AperFunction,ComponentPad*
%ADD19O,2.400000X0.900000*%
G04 #@! TD*
G04 #@! TA.AperFunction,ComponentPad*
%ADD20C,0.700000*%
G04 #@! TD*
G04 #@! TA.AperFunction,ComponentPad*
%ADD21C,0.600000*%
G04 #@! TD*
G04 #@! TA.AperFunction,SMDPad,CuDef*
%ADD22R,1.000000X1.400000*%
G04 #@! TD*
G04 #@! TA.AperFunction,SMDPad,CuDef*
%ADD23R,1.200000X1.400000*%
G04 #@! TD*
G04 #@! TA.AperFunction,ViaPad*
%ADD24C,0.600000*%
G04 #@! TD*
G04 #@! TA.AperFunction,ViaPad*
%ADD25C,0.500000*%
G04 #@! TD*
G04 #@! TA.AperFunction,ViaPad*
%ADD26C,0.800000*%
G04 #@! TD*
G04 #@! TA.AperFunction,Conductor*
%ADD27C,0.500000*%
G04 #@! TD*
G04 #@! TA.AperFunction,Conductor*
%ADD28C,0.400000*%
G04 #@! TD*
G04 #@! TA.AperFunction,Conductor*
%ADD29C,0.250000*%
G04 #@! TD*
G04 #@! TA.AperFunction,Conductor*
%ADD30C,0.200000*%
G04 #@! TD*
G04 #@! TA.AperFunction,Conductor*
%ADD31C,0.300000*%
G04 #@! TD*
G04 #@! TA.AperFunction,Conductor*
%ADD32C,0.100000*%
G04 #@! TD*
G04 #@! TA.AperFunction,Conductor*
%ADD33C,0.254000*%
G04 #@! TD*
G04 APERTURE END LIST*
D10*
G04 #@! TO.P,J2,4*
G04 #@! TO.N,GND*
X128410000Y-52740000D03*
G04 #@! TO.P,J2,3*
G04 #@! TO.N,/UART_TX*
X125870000Y-52740000D03*
G04 #@! TO.P,J2,2*
G04 #@! TO.N,/UART_RX*
X123330000Y-52740000D03*
D11*
G04 #@! TO.P,J2,1*
G04 #@! TO.N,+3V3*
X120790000Y-52740000D03*
G04 #@! TD*
D12*
G04 #@! TO.P,TP4,1*
G04 #@! TO.N,GND*
X118160000Y-65360000D03*
G04 #@! TD*
D13*
G04 #@! TO.P,TP1,1*
G04 #@! TO.N,Net-(D2-Pad1)*
X108700000Y-78670000D03*
G04 #@! TD*
G04 #@! TO.P,TP6,1*
G04 #@! TO.N,GND*
X105140000Y-76190000D03*
G04 #@! TD*
G04 #@! TO.P,R7,2*
G04 #@! TO.N,Net-(D3-Pad2)*
G04 #@! TA.AperFunction,SMDPad,CuDef*
G36*
G01*
X129745000Y-77455000D02*
X130295000Y-77455000D01*
G75*
G02*
X130495000Y-77655000I0J-200000D01*
G01*
X130495000Y-78055000D01*
G75*
G02*
X130295000Y-78255000I-200000J0D01*
G01*
X129745000Y-78255000D01*
G75*
G02*
X129545000Y-78055000I0J200000D01*
G01*
X129545000Y-77655000D01*
G75*
G02*
X129745000Y-77455000I200000J0D01*
G01*
G37*
G04 #@! TD.AperFunction*
G04 #@! TO.P,R7,1*
G04 #@! TO.N,+3V3*
G04 #@! TA.AperFunction,SMDPad,CuDef*
G36*
G01*
X129745000Y-75805000D02*
X130295000Y-75805000D01*
G75*
G02*
X130495000Y-76005000I0J-200000D01*
G01*
X130495000Y-76405000D01*
G75*
G02*
X130295000Y-76605000I-200000J0D01*
G01*
X129745000Y-76605000D01*
G75*
G02*
X129545000Y-76405000I0J200000D01*
G01*
X129545000Y-76005000D01*
G75*
G02*
X129745000Y-75805000I200000J0D01*
G01*
G37*
G04 #@! TD.AperFunction*
G04 #@! TD*
G04 #@! TO.P,D3,2*
G04 #@! TO.N,Net-(D3-Pad2)*
G04 #@! TA.AperFunction,SMDPad,CuDef*
G36*
G01*
X130276250Y-79710000D02*
X129763750Y-79710000D01*
G75*
G02*
X129545000Y-79491250I0J218750D01*
G01*
X129545000Y-79053750D01*
G75*
G02*
X129763750Y-78835000I218750J0D01*
G01*
X130276250Y-78835000D01*
G75*
G02*
X130495000Y-79053750I0J-218750D01*
G01*
X130495000Y-79491250D01*
G75*
G02*
X130276250Y-79710000I-218750J0D01*
G01*
G37*
G04 #@! TD.AperFunction*
G04 #@! TO.P,D3,1*
G04 #@! TO.N,GND*
G04 #@! TA.AperFunction,SMDPad,CuDef*
G36*
G01*
X130276250Y-81285000D02*
X129763750Y-81285000D01*
G75*
G02*
X129545000Y-81066250I0J218750D01*
G01*
X129545000Y-80628750D01*
G75*
G02*
X129763750Y-80410000I218750J0D01*
G01*
X130276250Y-80410000D01*
G75*
G02*
X130495000Y-80628750I0J-218750D01*
G01*
X130495000Y-81066250D01*
G75*
G02*
X130276250Y-81285000I-218750J0D01*
G01*
G37*
G04 #@! TD.AperFunction*
G04 #@! TD*
D14*
G04 #@! TO.P,D2,2*
G04 #@! TO.N,/VBUS*
X108700000Y-73990000D03*
G04 #@! TO.P,D2,1*
G04 #@! TO.N,Net-(D2-Pad1)*
X108700000Y-76790000D03*
G04 #@! TD*
D11*
G04 #@! TO.P,J3,1*
G04 #@! TO.N,/SWCLK*
X130180000Y-62580000D03*
D10*
G04 #@! TO.P,J3,2*
G04 #@! TO.N,GND*
X130180000Y-65120000D03*
G04 #@! TO.P,J3,3*
G04 #@! TO.N,/SWDIO*
X130180000Y-67660000D03*
G04 #@! TD*
D15*
G04 #@! TO.P,J4,20*
G04 #@! TO.N,GND*
X139790000Y-78420000D03*
G04 #@! TO.P,J4,18*
X139790000Y-75880000D03*
G04 #@! TO.P,J4,16*
X139790000Y-73340000D03*
G04 #@! TO.P,J4,14*
X139790000Y-70800000D03*
G04 #@! TO.P,J4,12*
X139790000Y-68260000D03*
G04 #@! TO.P,J4,10*
X139790000Y-65720000D03*
G04 #@! TO.P,J4,8*
X139790000Y-63180000D03*
G04 #@! TO.P,J4,6*
X139790000Y-60640000D03*
G04 #@! TO.P,J4,4*
X139790000Y-58100000D03*
G04 #@! TO.P,J4,2*
G04 #@! TO.N,N/C*
X139790000Y-55560000D03*
G04 #@! TO.P,J4,19*
X137250000Y-78420000D03*
G04 #@! TO.P,J4,17*
X137250000Y-75880000D03*
G04 #@! TO.P,J4,15*
G04 #@! TO.N,Net-(J4-Pad15)*
X137250000Y-73340000D03*
G04 #@! TO.P,J4,13*
G04 #@! TO.N,Net-(J4-Pad13)*
X137250000Y-70800000D03*
G04 #@! TO.P,J4,11*
G04 #@! TO.N,Net-(J4-Pad11)*
X137250000Y-68260000D03*
G04 #@! TO.P,J4,9*
G04 #@! TO.N,Net-(J4-Pad9)*
X137250000Y-65720000D03*
G04 #@! TO.P,J4,7*
G04 #@! TO.N,Net-(J4-Pad7)*
X137250000Y-63180000D03*
G04 #@! TO.P,J4,5*
G04 #@! TO.N,Net-(J4-Pad5)*
X137250000Y-60640000D03*
G04 #@! TO.P,J4,3*
G04 #@! TO.N,Net-(J4-Pad3)*
X137250000Y-58100000D03*
G04 #@! TO.P,J4,1*
G04 #@! TO.N,N/C*
G04 #@! TA.AperFunction,ComponentPad*
G36*
G01*
X136400000Y-56160000D02*
X136400000Y-54960000D01*
G75*
G02*
X136650000Y-54710000I250000J0D01*
G01*
X137850000Y-54710000D01*
G75*
G02*
X138100000Y-54960000I0J-250000D01*
G01*
X138100000Y-56160000D01*
G75*
G02*
X137850000Y-56410000I-250000J0D01*
G01*
X136650000Y-56410000D01*
G75*
G02*
X136400000Y-56160000I0J250000D01*
G01*
G37*
G04 #@! TD.AperFunction*
G04 #@! TD*
G04 #@! TO.P,L2,2*
G04 #@! TO.N,+3V3*
G04 #@! TA.AperFunction,SMDPad,CuDef*
G36*
G01*
X112076250Y-77590000D02*
X111563750Y-77590000D01*
G75*
G02*
X111345000Y-77371250I0J218750D01*
G01*
X111345000Y-76933750D01*
G75*
G02*
X111563750Y-76715000I218750J0D01*
G01*
X112076250Y-76715000D01*
G75*
G02*
X112295000Y-76933750I0J-218750D01*
G01*
X112295000Y-77371250D01*
G75*
G02*
X112076250Y-77590000I-218750J0D01*
G01*
G37*
G04 #@! TD.AperFunction*
G04 #@! TO.P,L2,1*
G04 #@! TO.N,/VO*
G04 #@! TA.AperFunction,SMDPad,CuDef*
G36*
G01*
X112076250Y-79165000D02*
X111563750Y-79165000D01*
G75*
G02*
X111345000Y-78946250I0J218750D01*
G01*
X111345000Y-78508750D01*
G75*
G02*
X111563750Y-78290000I218750J0D01*
G01*
X112076250Y-78290000D01*
G75*
G02*
X112295000Y-78508750I0J-218750D01*
G01*
X112295000Y-78946250D01*
G75*
G02*
X112076250Y-79165000I-218750J0D01*
G01*
G37*
G04 #@! TD.AperFunction*
G04 #@! TD*
D16*
G04 #@! TO.P,U4,1*
G04 #@! TO.N,GND*
X118120000Y-76110000D03*
G04 #@! TO.P,U4,3*
G04 #@! TO.N,+5V*
X118120000Y-80710000D03*
G04 #@! TO.P,U4,2*
G04 #@! TO.N,/VO*
X118120000Y-78410000D03*
D17*
X124420000Y-78410000D03*
G04 #@! TD*
D13*
G04 #@! TO.P,TP5,1*
G04 #@! TO.N,GND*
X115316000Y-75946000D03*
G04 #@! TD*
G04 #@! TO.P,TP3,1*
G04 #@! TO.N,+5V*
X113990000Y-80710000D03*
G04 #@! TD*
G04 #@! TO.P,TP2,1*
G04 #@! TO.N,+3V3*
X111810000Y-73660000D03*
G04 #@! TD*
G04 #@! TO.P,SW2,1*
G04 #@! TO.N,GND*
G04 #@! TA.AperFunction,SMDPad,CuDef*
G36*
G01*
X127970000Y-66400000D02*
X127970000Y-68000000D01*
G75*
G02*
X127770000Y-68200000I-200000J0D01*
G01*
X127370000Y-68200000D01*
G75*
G02*
X127170000Y-68000000I0J200000D01*
G01*
X127170000Y-66400000D01*
G75*
G02*
X127370000Y-66200000I200000J0D01*
G01*
X127770000Y-66200000D01*
G75*
G02*
X127970000Y-66400000I0J-200000D01*
G01*
G37*
G04 #@! TD.AperFunction*
G04 #@! TO.P,SW2,2*
G04 #@! TO.N,/RUN*
G04 #@! TA.AperFunction,SMDPad,CuDef*
G36*
G01*
X123770000Y-66400000D02*
X123770000Y-68000000D01*
G75*
G02*
X123570000Y-68200000I-200000J0D01*
G01*
X123170000Y-68200000D01*
G75*
G02*
X122970000Y-68000000I0J200000D01*
G01*
X122970000Y-66400000D01*
G75*
G02*
X123170000Y-66200000I200000J0D01*
G01*
X123570000Y-66200000D01*
G75*
G02*
X123770000Y-66400000I0J-200000D01*
G01*
G37*
G04 #@! TD.AperFunction*
G04 #@! TD*
G04 #@! TO.P,SW1,1*
G04 #@! TO.N,GND*
G04 #@! TA.AperFunction,SMDPad,CuDef*
G36*
G01*
X118530000Y-53290000D02*
X118530000Y-54890000D01*
G75*
G02*
X118330000Y-55090000I-200000J0D01*
G01*
X117930000Y-55090000D01*
G75*
G02*
X117730000Y-54890000I0J200000D01*
G01*
X117730000Y-53290000D01*
G75*
G02*
X117930000Y-53090000I200000J0D01*
G01*
X118330000Y-53090000D01*
G75*
G02*
X118530000Y-53290000I0J-200000D01*
G01*
G37*
G04 #@! TD.AperFunction*
G04 #@! TO.P,SW1,2*
G04 #@! TO.N,/QSPI_CSN*
G04 #@! TA.AperFunction,SMDPad,CuDef*
G36*
G01*
X114330000Y-53290000D02*
X114330000Y-54890000D01*
G75*
G02*
X114130000Y-55090000I-200000J0D01*
G01*
X113730000Y-55090000D01*
G75*
G02*
X113530000Y-54890000I0J200000D01*
G01*
X113530000Y-53290000D01*
G75*
G02*
X113730000Y-53090000I200000J0D01*
G01*
X114130000Y-53090000D01*
G75*
G02*
X114330000Y-53290000I0J-200000D01*
G01*
G37*
G04 #@! TD.AperFunction*
G04 #@! TD*
G04 #@! TO.P,R10,2*
G04 #@! TO.N,Net-(D4-Pad2)*
G04 #@! TA.AperFunction,SMDPad,CuDef*
G36*
G01*
X131275000Y-77455000D02*
X131825000Y-77455000D01*
G75*
G02*
X132025000Y-77655000I0J-200000D01*
G01*
X132025000Y-78055000D01*
G75*
G02*
X131825000Y-78255000I-200000J0D01*
G01*
X131275000Y-78255000D01*
G75*
G02*
X131075000Y-78055000I0J200000D01*
G01*
X131075000Y-77655000D01*
G75*
G02*
X131275000Y-77455000I200000J0D01*
G01*
G37*
G04 #@! TD.AperFunction*
G04 #@! TO.P,R10,1*
G04 #@! TO.N,/LED*
G04 #@! TA.AperFunction,SMDPad,CuDef*
G36*
G01*
X131275000Y-75805000D02*
X131825000Y-75805000D01*
G75*
G02*
X132025000Y-76005000I0J-200000D01*
G01*
X132025000Y-76405000D01*
G75*
G02*
X131825000Y-76605000I-200000J0D01*
G01*
X131275000Y-76605000D01*
G75*
G02*
X131075000Y-76405000I0J200000D01*
G01*
X131075000Y-76005000D01*
G75*
G02*
X131275000Y-75805000I200000J0D01*
G01*
G37*
G04 #@! TD.AperFunction*
G04 #@! TD*
G04 #@! TO.P,R8,2*
G04 #@! TO.N,/RUN*
G04 #@! TA.AperFunction,SMDPad,CuDef*
G36*
G01*
X120115000Y-67255000D02*
X120665000Y-67255000D01*
G75*
G02*
X120865000Y-67455000I0J-200000D01*
G01*
X120865000Y-67855000D01*
G75*
G02*
X120665000Y-68055000I-200000J0D01*
G01*
X120115000Y-68055000D01*
G75*
G02*
X119915000Y-67855000I0J200000D01*
G01*
X119915000Y-67455000D01*
G75*
G02*
X120115000Y-67255000I200000J0D01*
G01*
G37*
G04 #@! TD.AperFunction*
G04 #@! TO.P,R8,1*
G04 #@! TO.N,+3V3*
G04 #@! TA.AperFunction,SMDPad,CuDef*
G36*
G01*
X120115000Y-65605000D02*
X120665000Y-65605000D01*
G75*
G02*
X120865000Y-65805000I0J-200000D01*
G01*
X120865000Y-66205000D01*
G75*
G02*
X120665000Y-66405000I-200000J0D01*
G01*
X120115000Y-66405000D01*
G75*
G02*
X119915000Y-66205000I0J200000D01*
G01*
X119915000Y-65805000D01*
G75*
G02*
X120115000Y-65605000I200000J0D01*
G01*
G37*
G04 #@! TD.AperFunction*
G04 #@! TD*
G04 #@! TO.P,R2,2*
G04 #@! TO.N,+3V3*
G04 #@! TA.AperFunction,SMDPad,CuDef*
G36*
G01*
X112705000Y-52695000D02*
X112155000Y-52695000D01*
G75*
G02*
X111955000Y-52495000I0J200000D01*
G01*
X111955000Y-52095000D01*
G75*
G02*
X112155000Y-51895000I200000J0D01*
G01*
X112705000Y-51895000D01*
G75*
G02*
X112905000Y-52095000I0J-200000D01*
G01*
X112905000Y-52495000D01*
G75*
G02*
X112705000Y-52695000I-200000J0D01*
G01*
G37*
G04 #@! TD.AperFunction*
G04 #@! TO.P,R2,1*
G04 #@! TO.N,/QSPI_CSN*
G04 #@! TA.AperFunction,SMDPad,CuDef*
G36*
G01*
X112705000Y-54345000D02*
X112155000Y-54345000D01*
G75*
G02*
X111955000Y-54145000I0J200000D01*
G01*
X111955000Y-53745000D01*
G75*
G02*
X112155000Y-53545000I200000J0D01*
G01*
X112705000Y-53545000D01*
G75*
G02*
X112905000Y-53745000I0J-200000D01*
G01*
X112905000Y-54145000D01*
G75*
G02*
X112705000Y-54345000I-200000J0D01*
G01*
G37*
G04 #@! TD.AperFunction*
G04 #@! TD*
G04 #@! TO.P,R1,2*
G04 #@! TO.N,+3V3*
G04 #@! TA.AperFunction,SMDPad,CuDef*
G36*
G01*
X127205000Y-63695000D02*
X127755000Y-63695000D01*
G75*
G02*
X127955000Y-63895000I0J-200000D01*
G01*
X127955000Y-64295000D01*
G75*
G02*
X127755000Y-64495000I-200000J0D01*
G01*
X127205000Y-64495000D01*
G75*
G02*
X127005000Y-64295000I0J200000D01*
G01*
X127005000Y-63895000D01*
G75*
G02*
X127205000Y-63695000I200000J0D01*
G01*
G37*
G04 #@! TD.AperFunction*
G04 #@! TO.P,R1,1*
G04 #@! TO.N,Net-(R1-Pad1)*
G04 #@! TA.AperFunction,SMDPad,CuDef*
G36*
G01*
X127205000Y-62045000D02*
X127755000Y-62045000D01*
G75*
G02*
X127955000Y-62245000I0J-200000D01*
G01*
X127955000Y-62645000D01*
G75*
G02*
X127755000Y-62845000I-200000J0D01*
G01*
X127205000Y-62845000D01*
G75*
G02*
X127005000Y-62645000I0J200000D01*
G01*
X127005000Y-62245000D01*
G75*
G02*
X127205000Y-62045000I200000J0D01*
G01*
G37*
G04 #@! TD.AperFunction*
G04 #@! TD*
G04 #@! TO.P,L1,2*
G04 #@! TO.N,+5V*
G04 #@! TA.AperFunction,SMDPad,CuDef*
G36*
G01*
X109850000Y-80976250D02*
X109850000Y-80463750D01*
G75*
G02*
X110068750Y-80245000I218750J0D01*
G01*
X110506250Y-80245000D01*
G75*
G02*
X110725000Y-80463750I0J-218750D01*
G01*
X110725000Y-80976250D01*
G75*
G02*
X110506250Y-81195000I-218750J0D01*
G01*
X110068750Y-81195000D01*
G75*
G02*
X109850000Y-80976250I0J218750D01*
G01*
G37*
G04 #@! TD.AperFunction*
G04 #@! TO.P,L1,1*
G04 #@! TO.N,Net-(D2-Pad1)*
G04 #@! TA.AperFunction,SMDPad,CuDef*
G36*
G01*
X108275000Y-80976250D02*
X108275000Y-80463750D01*
G75*
G02*
X108493750Y-80245000I218750J0D01*
G01*
X108931250Y-80245000D01*
G75*
G02*
X109150000Y-80463750I0J-218750D01*
G01*
X109150000Y-80976250D01*
G75*
G02*
X108931250Y-81195000I-218750J0D01*
G01*
X108493750Y-81195000D01*
G75*
G02*
X108275000Y-80976250I0J218750D01*
G01*
G37*
G04 #@! TD.AperFunction*
G04 #@! TD*
D18*
G04 #@! TO.P,J1,S1*
G04 #@! TO.N,GND*
X101740000Y-70900000D03*
X101740000Y-62250000D03*
D19*
X105120000Y-70900000D03*
X105120000Y-62250000D03*
D20*
G04 #@! TO.P,J1,B6*
G04 #@! TO.N,/D+*
X104750000Y-67000000D03*
D21*
G04 #@! TO.P,J1,B1*
G04 #@! TO.N,GND*
X104750000Y-69550000D03*
G04 #@! TO.P,J1,B4*
G04 #@! TO.N,/VBUS*
X104750000Y-68700000D03*
G04 #@! TO.P,J1,B5*
G04 #@! TO.N,Net-(J1-PadB5)*
X104750000Y-67850000D03*
G04 #@! TO.P,J1,B12*
G04 #@! TO.N,GND*
X104750000Y-63600000D03*
G04 #@! TO.P,J1,B8*
G04 #@! TO.N,N/C*
X104750000Y-65300000D03*
G04 #@! TO.P,J1,B7*
G04 #@! TO.N,/D-*
X104750000Y-66150000D03*
G04 #@! TO.P,J1,B9*
G04 #@! TO.N,/VBUS*
X104750000Y-64450000D03*
G04 #@! TO.P,J1,A12*
G04 #@! TO.N,GND*
X106100000Y-69550000D03*
G04 #@! TO.P,J1,A9*
G04 #@! TO.N,/VBUS*
X106100000Y-68700000D03*
G04 #@! TO.P,J1,A8*
G04 #@! TO.N,N/C*
X106100000Y-67850000D03*
D20*
G04 #@! TO.P,J1,A7*
G04 #@! TO.N,/D-*
X106100000Y-67000000D03*
D21*
G04 #@! TO.P,J1,A6*
G04 #@! TO.N,/D+*
X106100000Y-66150000D03*
G04 #@! TO.P,J1,A5*
G04 #@! TO.N,Net-(J1-PadA5)*
X106100000Y-65300000D03*
G04 #@! TO.P,J1,A4*
G04 #@! TO.N,/VBUS*
X106100000Y-64450000D03*
G04 #@! TO.P,J1,A1*
G04 #@! TO.N,GND*
X106100000Y-63600000D03*
G04 #@! TD*
G04 #@! TO.P,D4,2*
G04 #@! TO.N,Net-(D4-Pad2)*
G04 #@! TA.AperFunction,SMDPad,CuDef*
G36*
G01*
X131800250Y-79706000D02*
X131287750Y-79706000D01*
G75*
G02*
X131069000Y-79487250I0J218750D01*
G01*
X131069000Y-79049750D01*
G75*
G02*
X131287750Y-78831000I218750J0D01*
G01*
X131800250Y-78831000D01*
G75*
G02*
X132019000Y-79049750I0J-218750D01*
G01*
X132019000Y-79487250D01*
G75*
G02*
X131800250Y-79706000I-218750J0D01*
G01*
G37*
G04 #@! TD.AperFunction*
G04 #@! TO.P,D4,1*
G04 #@! TO.N,GND*
G04 #@! TA.AperFunction,SMDPad,CuDef*
G36*
G01*
X131800250Y-81281000D02*
X131287750Y-81281000D01*
G75*
G02*
X131069000Y-81062250I0J218750D01*
G01*
X131069000Y-80624750D01*
G75*
G02*
X131287750Y-80406000I218750J0D01*
G01*
X131800250Y-80406000D01*
G75*
G02*
X132019000Y-80624750I0J-218750D01*
G01*
X132019000Y-81062250D01*
G75*
G02*
X131800250Y-81281000I-218750J0D01*
G01*
G37*
G04 #@! TD.AperFunction*
G04 #@! TD*
D22*
G04 #@! TO.P,D1,4*
G04 #@! TO.N,/VBUS*
X110390000Y-67690000D03*
G04 #@! TO.P,D1,3*
G04 #@! TO.N,/D-*
X108490000Y-67690000D03*
G04 #@! TO.P,D1,2*
G04 #@! TO.N,/D+*
X108490000Y-65490000D03*
D23*
G04 #@! TO.P,D1,1*
G04 #@! TO.N,GND*
X110210000Y-65490000D03*
G04 #@! TD*
G04 #@! TO.P,C10,2*
G04 #@! TO.N,GND*
G04 #@! TA.AperFunction,SMDPad,CuDef*
G36*
G01*
X112905000Y-75910000D02*
X112905000Y-75410000D01*
G75*
G02*
X113130000Y-75185000I225000J0D01*
G01*
X113580000Y-75185000D01*
G75*
G02*
X113805000Y-75410000I0J-225000D01*
G01*
X113805000Y-75910000D01*
G75*
G02*
X113580000Y-76135000I-225000J0D01*
G01*
X113130000Y-76135000D01*
G75*
G02*
X112905000Y-75910000I0J225000D01*
G01*
G37*
G04 #@! TD.AperFunction*
G04 #@! TO.P,C10,1*
G04 #@! TO.N,+3V3*
G04 #@! TA.AperFunction,SMDPad,CuDef*
G36*
G01*
X111355000Y-75910000D02*
X111355000Y-75410000D01*
G75*
G02*
X111580000Y-75185000I225000J0D01*
G01*
X112030000Y-75185000D01*
G75*
G02*
X112255000Y-75410000I0J-225000D01*
G01*
X112255000Y-75910000D01*
G75*
G02*
X112030000Y-76135000I-225000J0D01*
G01*
X111580000Y-76135000D01*
G75*
G02*
X111355000Y-75910000I0J225000D01*
G01*
G37*
G04 #@! TD.AperFunction*
G04 #@! TD*
G04 #@! TO.P,C7,2*
G04 #@! TO.N,GND*
G04 #@! TA.AperFunction,SMDPad,CuDef*
G36*
G01*
X122150000Y-66505000D02*
X121650000Y-66505000D01*
G75*
G02*
X121425000Y-66280000I0J225000D01*
G01*
X121425000Y-65830000D01*
G75*
G02*
X121650000Y-65605000I225000J0D01*
G01*
X122150000Y-65605000D01*
G75*
G02*
X122375000Y-65830000I0J-225000D01*
G01*
X122375000Y-66280000D01*
G75*
G02*
X122150000Y-66505000I-225000J0D01*
G01*
G37*
G04 #@! TD.AperFunction*
G04 #@! TO.P,C7,1*
G04 #@! TO.N,/RUN*
G04 #@! TA.AperFunction,SMDPad,CuDef*
G36*
G01*
X122150000Y-68055000D02*
X121650000Y-68055000D01*
G75*
G02*
X121425000Y-67830000I0J225000D01*
G01*
X121425000Y-67380000D01*
G75*
G02*
X121650000Y-67155000I225000J0D01*
G01*
X122150000Y-67155000D01*
G75*
G02*
X122375000Y-67380000I0J-225000D01*
G01*
X122375000Y-67830000D01*
G75*
G02*
X122150000Y-68055000I-225000J0D01*
G01*
G37*
G04 #@! TD.AperFunction*
G04 #@! TD*
G04 #@! TO.P,C4,2*
G04 #@! TO.N,GND*
G04 #@! TA.AperFunction,SMDPad,CuDef*
G36*
G01*
X115470000Y-81815000D02*
X115970000Y-81815000D01*
G75*
G02*
X116195000Y-82040000I0J-225000D01*
G01*
X116195000Y-82490000D01*
G75*
G02*
X115970000Y-82715000I-225000J0D01*
G01*
X115470000Y-82715000D01*
G75*
G02*
X115245000Y-82490000I0J225000D01*
G01*
X115245000Y-82040000D01*
G75*
G02*
X115470000Y-81815000I225000J0D01*
G01*
G37*
G04 #@! TD.AperFunction*
G04 #@! TO.P,C4,1*
G04 #@! TO.N,+5V*
G04 #@! TA.AperFunction,SMDPad,CuDef*
G36*
G01*
X115470000Y-80265000D02*
X115970000Y-80265000D01*
G75*
G02*
X116195000Y-80490000I0J-225000D01*
G01*
X116195000Y-80940000D01*
G75*
G02*
X115970000Y-81165000I-225000J0D01*
G01*
X115470000Y-81165000D01*
G75*
G02*
X115245000Y-80940000I0J225000D01*
G01*
X115245000Y-80490000D01*
G75*
G02*
X115470000Y-80265000I225000J0D01*
G01*
G37*
G04 #@! TD.AperFunction*
G04 #@! TD*
G04 #@! TO.P,C3,2*
G04 #@! TO.N,GND*
G04 #@! TA.AperFunction,SMDPad,CuDef*
G36*
G01*
X112010000Y-81805000D02*
X112510000Y-81805000D01*
G75*
G02*
X112735000Y-82030000I0J-225000D01*
G01*
X112735000Y-82480000D01*
G75*
G02*
X112510000Y-82705000I-225000J0D01*
G01*
X112010000Y-82705000D01*
G75*
G02*
X111785000Y-82480000I0J225000D01*
G01*
X111785000Y-82030000D01*
G75*
G02*
X112010000Y-81805000I225000J0D01*
G01*
G37*
G04 #@! TD.AperFunction*
G04 #@! TO.P,C3,1*
G04 #@! TO.N,+5V*
G04 #@! TA.AperFunction,SMDPad,CuDef*
G36*
G01*
X112010000Y-80255000D02*
X112510000Y-80255000D01*
G75*
G02*
X112735000Y-80480000I0J-225000D01*
G01*
X112735000Y-80930000D01*
G75*
G02*
X112510000Y-81155000I-225000J0D01*
G01*
X112010000Y-81155000D01*
G75*
G02*
X111785000Y-80930000I0J225000D01*
G01*
X111785000Y-80480000D01*
G75*
G02*
X112010000Y-80255000I225000J0D01*
G01*
G37*
G04 #@! TD.AperFunction*
G04 #@! TD*
G04 #@! TO.P,C1,2*
G04 #@! TO.N,GND*
G04 #@! TA.AperFunction,SMDPad,CuDef*
G36*
G01*
X110660000Y-53445000D02*
X111160000Y-53445000D01*
G75*
G02*
X111385000Y-53670000I0J-225000D01*
G01*
X111385000Y-54120000D01*
G75*
G02*
X111160000Y-54345000I-225000J0D01*
G01*
X110660000Y-54345000D01*
G75*
G02*
X110435000Y-54120000I0J225000D01*
G01*
X110435000Y-53670000D01*
G75*
G02*
X110660000Y-53445000I225000J0D01*
G01*
G37*
G04 #@! TD.AperFunction*
G04 #@! TO.P,C1,1*
G04 #@! TO.N,+3V3*
G04 #@! TA.AperFunction,SMDPad,CuDef*
G36*
G01*
X110660000Y-51895000D02*
X111160000Y-51895000D01*
G75*
G02*
X111385000Y-52120000I0J-225000D01*
G01*
X111385000Y-52570000D01*
G75*
G02*
X111160000Y-52795000I-225000J0D01*
G01*
X110660000Y-52795000D01*
G75*
G02*
X110435000Y-52570000I0J225000D01*
G01*
X110435000Y-52120000D01*
G75*
G02*
X110660000Y-51895000I225000J0D01*
G01*
G37*
G04 #@! TD.AperFunction*
G04 #@! TD*
D24*
G04 #@! TO.N,GND*
X120720000Y-65040000D03*
X120760000Y-62900000D03*
X118680000Y-67490000D03*
X115940000Y-67500000D03*
X115950000Y-62930000D03*
X114260000Y-73680000D03*
X115790000Y-73680000D03*
X108590000Y-62770000D03*
D25*
X127580000Y-68940000D03*
D24*
X118120000Y-74350000D03*
X117330000Y-74350000D03*
X118880000Y-74370000D03*
X113370000Y-74450000D03*
X144700000Y-50620000D03*
X105420000Y-50600000D03*
X109600000Y-50600000D03*
X112600000Y-50600000D03*
X115600000Y-50600000D03*
X118600000Y-50600000D03*
X121600000Y-50600000D03*
X124600000Y-50600000D03*
X127600000Y-50600000D03*
X130600000Y-50600000D03*
X133600000Y-50600000D03*
X136600000Y-50600000D03*
X139600000Y-50600000D03*
X142600000Y-50600000D03*
X100600000Y-55330000D03*
X100600000Y-59600000D03*
X100600000Y-74600000D03*
X100590000Y-78570000D03*
X105320000Y-83440000D03*
X108320000Y-83440000D03*
X111320000Y-83440000D03*
X114320000Y-83440000D03*
X117320000Y-83440000D03*
X120320000Y-83440000D03*
X123320000Y-83440000D03*
X126320000Y-83440000D03*
X129320000Y-83440000D03*
X132320000Y-83440000D03*
X135320000Y-83440000D03*
X138320000Y-83440000D03*
X141320000Y-83440000D03*
X144320000Y-83440000D03*
X149460000Y-55340000D03*
X149460000Y-58340000D03*
X149460000Y-61340000D03*
X149460000Y-64340000D03*
X149460000Y-67340000D03*
X149460000Y-70340000D03*
X149460000Y-73340000D03*
X149460000Y-76340000D03*
X149470000Y-78820000D03*
X131290000Y-66670000D03*
X131570000Y-62440000D03*
X131940000Y-68760000D03*
X135780000Y-70370000D03*
X135840000Y-73170000D03*
X135780000Y-67580000D03*
X135900000Y-64530000D03*
X135880000Y-58830000D03*
X106940000Y-76150000D03*
X106890000Y-59300000D03*
X105550000Y-57520000D03*
X106700000Y-53460000D03*
X135840000Y-55610000D03*
X110280000Y-75470000D03*
X110290000Y-79580000D03*
X124420000Y-60710000D03*
X123000000Y-64100000D03*
X119290000Y-57550000D03*
X122810000Y-61880000D03*
X121760000Y-62020000D03*
X110280000Y-73880000D03*
X134500000Y-63840000D03*
X133970000Y-67030000D03*
X134080000Y-69390000D03*
X134740000Y-71540000D03*
X134180000Y-74710000D03*
X132880000Y-62380000D03*
X121570000Y-73050000D03*
X117280000Y-72670000D03*
X127560000Y-65620000D03*
X123270000Y-68890000D03*
X107880000Y-72650000D03*
X110980000Y-81640000D03*
X123940000Y-63000000D03*
X113090000Y-72580000D03*
X121710000Y-68860000D03*
X107880000Y-71120000D03*
D26*
X100850000Y-66660000D03*
X100830000Y-68690000D03*
X100880000Y-64790000D03*
D24*
X107860000Y-69900000D03*
X108590000Y-64160000D03*
X114240000Y-56150000D03*
X110920000Y-54850000D03*
X110680000Y-71340000D03*
X116940000Y-58590000D03*
X119950000Y-54180000D03*
X119320000Y-53410000D03*
X119390000Y-51780000D03*
X121320000Y-55570000D03*
X118170000Y-56090000D03*
X119360000Y-54950000D03*
X113120000Y-58040000D03*
X111630000Y-58010000D03*
X110910000Y-56170000D03*
X112990000Y-54840000D03*
X109680000Y-53180000D03*
X111670000Y-51500000D03*
X109710000Y-56050000D03*
X107940000Y-60400000D03*
X135880000Y-61840000D03*
X120810000Y-58690000D03*
X122870000Y-58900000D03*
X124370000Y-58840000D03*
X122390000Y-70620000D03*
X123590000Y-70660000D03*
X123340000Y-72620000D03*
X125210000Y-72850000D03*
X125820000Y-70850000D03*
X123340000Y-74830000D03*
X133290000Y-72810000D03*
X132590000Y-70840000D03*
X129840000Y-69030000D03*
X129860000Y-70860000D03*
X127550000Y-70820000D03*
X127520000Y-72860000D03*
X129800000Y-72880000D03*
X129810000Y-74730000D03*
X132070000Y-74750000D03*
X126940000Y-74830000D03*
X121000000Y-74880000D03*
X132720000Y-76510000D03*
X125210000Y-74830000D03*
X131330000Y-60590000D03*
X134030000Y-60440000D03*
X132600000Y-58930000D03*
X129090000Y-58800000D03*
X125960000Y-58800000D03*
X126020000Y-56820000D03*
X134200000Y-56920000D03*
X131380000Y-56820000D03*
X128450000Y-56790000D03*
X122620000Y-56830000D03*
X125220000Y-54870000D03*
X126250000Y-55280000D03*
X129700000Y-55270000D03*
X132950000Y-55280000D03*
X129090000Y-60590000D03*
X127370000Y-60760000D03*
X130800000Y-75300000D03*
X132780000Y-80870000D03*
X130070000Y-82050000D03*
X132750000Y-78620000D03*
X143470000Y-52720000D03*
X144190000Y-55440000D03*
X147560000Y-56540000D03*
X146930000Y-77420000D03*
X144030000Y-78810000D03*
X143450000Y-81320000D03*
X105710000Y-78480000D03*
X106540000Y-81340000D03*
X103160000Y-77420000D03*
X105850000Y-55470000D03*
X103440000Y-56570000D03*
X131970000Y-65060000D03*
G04 #@! TO.N,+3V3*
X127480000Y-64820000D03*
X111780000Y-71060000D03*
X109670000Y-52340000D03*
X116590000Y-59480000D03*
X118660000Y-59420000D03*
X113240000Y-71060000D03*
X117900000Y-71060000D03*
X116670000Y-71060000D03*
X113329966Y-68320032D03*
X110410000Y-62110000D03*
G04 #@! TO.N,+1V1*
X124930000Y-66400000D03*
X110350000Y-69600000D03*
X110380000Y-60494999D03*
G04 #@! TO.N,/D-*
X107500000Y-67000000D03*
G04 #@! TO.N,/D+*
X107490000Y-66150000D03*
G04 #@! TO.N,/LED*
X132680000Y-77690000D03*
G04 #@! TO.N,Net-(R1-Pad1)*
X126670000Y-61460010D03*
G04 #@! TO.N,/QSPI_CSN*
X113110000Y-53090000D03*
G04 #@! TO.N,/RUN*
X122579998Y-68450000D03*
G04 #@! TD*
D27*
G04 #@! TO.N,GND*
X115800000Y-73690000D02*
X115790000Y-73680000D01*
X118110000Y-76120000D02*
X118120000Y-76110000D01*
X115480000Y-76110000D02*
X115316000Y-75946000D01*
X118120000Y-76110000D02*
X115480000Y-76110000D01*
X115094000Y-75946000D02*
X114808000Y-75660000D01*
X115316000Y-75946000D02*
X115094000Y-75946000D01*
X113355000Y-75660000D02*
X114808000Y-75660000D01*
X106950000Y-78070000D02*
X105120000Y-76240000D01*
X106950000Y-80475000D02*
X106950000Y-78070000D01*
X118120000Y-74350000D02*
X118120000Y-74350000D01*
X118120000Y-76110000D02*
X118120000Y-74350000D01*
X113985000Y-82255000D02*
X114010000Y-82280000D01*
X112260000Y-82255000D02*
X113985000Y-82255000D01*
X115705000Y-82280000D02*
X115720000Y-82265000D01*
X114010000Y-82280000D02*
X115705000Y-82280000D01*
X104750000Y-69550000D02*
X103510000Y-69550000D01*
D28*
X122100000Y-65200000D02*
X123950000Y-65200000D01*
X121900000Y-65400000D02*
X122100000Y-65200000D01*
X123950000Y-65200000D02*
X124150010Y-65400010D01*
X121900000Y-66055000D02*
X121900000Y-65400000D01*
D27*
X110210000Y-64310000D02*
X109500000Y-63600000D01*
X109500000Y-63600000D02*
X106100000Y-63600000D01*
X110210000Y-65490000D02*
X110210000Y-64310000D01*
D29*
X100350010Y-74350010D02*
X100600000Y-74600000D01*
X100350010Y-69169990D02*
X100350010Y-74350010D01*
X100830000Y-68690000D02*
X100350010Y-69169990D01*
X100350000Y-64260000D02*
X100880000Y-64790000D01*
X100350000Y-59850000D02*
X100350000Y-64260000D01*
X100600000Y-59600000D02*
X100350000Y-59850000D01*
D27*
X105090000Y-62280000D02*
X105120000Y-62250000D01*
X105090000Y-63600000D02*
X105090000Y-62280000D01*
X104750000Y-63600000D02*
X105090000Y-63600000D01*
X104750000Y-63600000D02*
X104030000Y-63600000D01*
X104750000Y-63600000D02*
X106100000Y-63600000D01*
X105120000Y-70900000D02*
X105120000Y-69670000D01*
X105120000Y-69670000D02*
X105240000Y-69550000D01*
X105240000Y-69550000D02*
X106100000Y-69550000D01*
X104750000Y-69550000D02*
X105240000Y-69550000D01*
X110910000Y-54840000D02*
X110920000Y-54850000D01*
X110910000Y-53895000D02*
X110910000Y-54840000D01*
G04 #@! TO.N,+3V3*
X127480000Y-64095000D02*
X127480000Y-64820000D01*
X111820000Y-74190000D02*
X111810000Y-74180000D01*
X111820000Y-77152500D02*
X111820000Y-74190000D01*
X111810000Y-71090000D02*
X111780000Y-71060000D01*
X111810000Y-74180000D02*
X111810000Y-71090000D01*
X126665000Y-64095000D02*
X126600000Y-64030000D01*
X127480000Y-64095000D02*
X126665000Y-64095000D01*
D30*
X111887500Y-77220000D02*
X111820000Y-77152500D01*
D27*
X120639990Y-52589990D02*
X114059990Y-52589990D01*
X120790000Y-52740000D02*
X120639990Y-52589990D01*
X113765000Y-52295000D02*
X112430000Y-52295000D01*
X114059990Y-52589990D02*
X113765000Y-52295000D01*
X110960000Y-52295000D02*
X110910000Y-52345000D01*
X112430000Y-52295000D02*
X110960000Y-52295000D01*
X109675000Y-52345000D02*
X109670000Y-52340000D01*
X110910000Y-52345000D02*
X109675000Y-52345000D01*
X125900000Y-61079998D02*
X124500002Y-59680000D01*
X118920000Y-59680000D02*
X118660000Y-59420000D01*
X125900000Y-61990000D02*
X125900000Y-61079998D01*
X126554990Y-62644990D02*
X125900000Y-61990000D01*
X126554990Y-62914244D02*
X126554990Y-62644990D01*
X126600000Y-62959254D02*
X126554990Y-62914244D01*
X124500002Y-59680000D02*
X118920000Y-59680000D01*
X126600000Y-64030000D02*
X126600000Y-62959254D01*
X113240000Y-71060000D02*
X111780000Y-71060000D01*
X116670000Y-71060000D02*
X113240000Y-71060000D01*
D28*
X119514990Y-66880010D02*
X119514990Y-67765010D01*
X119514990Y-67765010D02*
X118959968Y-68320032D01*
X118959968Y-68320032D02*
X113329966Y-68320032D01*
X120390000Y-66005000D02*
X119514990Y-66880010D01*
D27*
X123880000Y-71600000D02*
X126600000Y-68880000D01*
X118620000Y-71600000D02*
X123880000Y-71600000D01*
X118080000Y-71060000D02*
X118620000Y-71600000D01*
X126600000Y-68880000D02*
X126600000Y-64030000D01*
X116670000Y-71060000D02*
X118080000Y-71060000D01*
X118539999Y-59299999D02*
X118660000Y-59420000D01*
X118539999Y-57189999D02*
X118539999Y-59299999D01*
X120790000Y-54939998D02*
X118539999Y-57189999D01*
X120790000Y-52740000D02*
X120790000Y-54939998D01*
X116790000Y-59680000D02*
X116590000Y-59480000D01*
X118400000Y-59680000D02*
X116790000Y-59680000D01*
X118660000Y-59420000D02*
X118400000Y-59680000D01*
X108720000Y-61260000D02*
X109570000Y-62110000D01*
X108720000Y-59690000D02*
X108720000Y-61260000D01*
X109560000Y-58850000D02*
X108720000Y-59690000D01*
X115960000Y-58850000D02*
X109560000Y-58850000D01*
X109570000Y-62110000D02*
X110410000Y-62110000D01*
X116590000Y-59480000D02*
X115960000Y-58850000D01*
D30*
X112440000Y-75660000D02*
X111805000Y-75660000D01*
X112604990Y-75824990D02*
X112440000Y-75660000D01*
X112604990Y-76459990D02*
X112604990Y-75824990D01*
X113365000Y-77220000D02*
X112604990Y-76459990D01*
X129255000Y-76205000D02*
X128530001Y-75480001D01*
X119300002Y-77220000D02*
X113365000Y-77220000D01*
X121040001Y-75480001D02*
X119300002Y-77220000D01*
X128530001Y-75480001D02*
X121040001Y-75480001D01*
X130020000Y-76205000D02*
X129255000Y-76205000D01*
D27*
G04 #@! TO.N,/VBUS*
X104750000Y-68700000D02*
X106100000Y-68700000D01*
X106100000Y-64450000D02*
X104750000Y-64450000D01*
X106100000Y-68700000D02*
X106594974Y-68700000D01*
X106934000Y-69039026D02*
X106594974Y-68700000D01*
X106934000Y-69088000D02*
X106934000Y-69039026D01*
X108690000Y-73980000D02*
X108700000Y-73990000D01*
X108690000Y-69078002D02*
X108690000Y-73980000D01*
X108680002Y-69088000D02*
X108690000Y-69078002D01*
X106934000Y-69088000D02*
X108680002Y-69088000D01*
X106594974Y-68748974D02*
X106934000Y-69088000D01*
X106594974Y-68700000D02*
X106594974Y-68748974D01*
X110390000Y-67690000D02*
X110390000Y-67730000D01*
X110390000Y-67730000D02*
X109032000Y-69088000D01*
X109032000Y-69088000D02*
X106934000Y-69088000D01*
X104325736Y-68700000D02*
X104750000Y-68700000D01*
X103949999Y-68324263D02*
X104325736Y-68700000D01*
X104325736Y-64450000D02*
X103949999Y-64825737D01*
X103949999Y-64825737D02*
X103949999Y-68324263D01*
X104750000Y-64450000D02*
X104325736Y-64450000D01*
G04 #@! TO.N,+5V*
X118110000Y-80720000D02*
X118120000Y-80710000D01*
X112245000Y-80720000D02*
X112260000Y-80705000D01*
X110287500Y-80720000D02*
X112245000Y-80720000D01*
X113985000Y-80705000D02*
X113990000Y-80710000D01*
X112260000Y-80705000D02*
X113985000Y-80705000D01*
X115715000Y-80710000D02*
X115720000Y-80715000D01*
X113990000Y-80710000D02*
X115715000Y-80710000D01*
X118115000Y-80715000D02*
X118120000Y-80710000D01*
X115720000Y-80715000D02*
X118115000Y-80715000D01*
G04 #@! TO.N,+1V1*
X110460000Y-69710000D02*
X110350000Y-69600000D01*
X125120000Y-66590000D02*
X125120000Y-68120000D01*
X125120000Y-68120000D02*
X123530000Y-69710000D01*
X124930000Y-66400000D02*
X125120000Y-66590000D01*
X123530000Y-69710000D02*
X110460000Y-69710000D01*
X112440000Y-60490000D02*
X110384999Y-60490000D01*
X123260000Y-61130000D02*
X113080000Y-61130000D01*
X110384999Y-60490000D02*
X110380000Y-60494999D01*
X125230000Y-63100000D02*
X123260000Y-61130000D01*
X125230000Y-66100000D02*
X125230000Y-63100000D01*
X113080000Y-61130000D02*
X112440000Y-60490000D01*
X124930000Y-66400000D02*
X125230000Y-66100000D01*
D30*
G04 #@! TO.N,/D-*
X108490000Y-67690000D02*
X108290000Y-67690000D01*
X108490000Y-67460000D02*
X108490000Y-67690000D01*
X108490000Y-67460000D02*
X108490000Y-67460000D01*
D29*
X108490000Y-67560000D02*
X108490000Y-67690000D01*
X107930000Y-67000000D02*
X108490000Y-67560000D01*
X106100000Y-67000000D02*
X107500000Y-67000000D01*
X107500000Y-67000000D02*
X107930000Y-67000000D01*
D30*
X105840000Y-67000000D02*
X106100000Y-67000000D01*
X104990000Y-66150000D02*
X105840000Y-67000000D01*
X104750000Y-66150000D02*
X104990000Y-66150000D01*
G04 #@! TO.N,/D+*
X108490000Y-65490000D02*
X108290000Y-65490000D01*
X108490000Y-65680000D02*
X108490000Y-65680000D01*
X108490000Y-65680000D02*
X108490000Y-65490000D01*
D29*
X108490000Y-65650000D02*
X108490000Y-65490000D01*
X107990000Y-66150000D02*
X108490000Y-65650000D01*
X106100000Y-66150000D02*
X107490000Y-66150000D01*
X107490000Y-66150000D02*
X107990000Y-66150000D01*
D30*
G04 #@! TO.N,Net-(D4-Pad2)*
X131550000Y-79262500D02*
X131544000Y-79268500D01*
X131550000Y-77855000D02*
X131550000Y-79262500D01*
G04 #@! TO.N,/LED*
X131550000Y-76205000D02*
X131550000Y-76560000D01*
X131550000Y-76560000D02*
X132680000Y-77690000D01*
G04 #@! TO.N,Net-(R1-Pad1)*
X127480000Y-62445000D02*
X126670000Y-61635000D01*
X126670000Y-61635000D02*
X126670000Y-61460010D01*
G04 #@! TO.N,/QSPI_CSN*
X113785000Y-53945000D02*
X113930000Y-54090000D01*
X112430000Y-53945000D02*
X113785000Y-53945000D01*
X112680000Y-53090000D02*
X113110000Y-53090000D01*
X112430000Y-53340000D02*
X112680000Y-53090000D01*
X112430000Y-53945000D02*
X112430000Y-53340000D01*
G04 #@! TO.N,/RUN*
X123370000Y-67200000D02*
X123260000Y-67200000D01*
X121910000Y-67805000D02*
X122555000Y-68450000D01*
X122555000Y-68450000D02*
X122579998Y-68450000D01*
X121850000Y-67655000D02*
X121900000Y-67605000D01*
X120390000Y-67655000D02*
X121850000Y-67655000D01*
X122965000Y-67605000D02*
X123370000Y-67200000D01*
X121900000Y-67605000D02*
X122965000Y-67605000D01*
G04 #@! TO.N,Net-(D3-Pad2)*
X130020000Y-77855000D02*
X130020000Y-79272500D01*
D27*
G04 #@! TO.N,/VO*
X118120000Y-78410000D02*
X124420000Y-78410000D01*
X117802500Y-78727500D02*
X118120000Y-78410000D01*
X111820000Y-78727500D02*
X117802500Y-78727500D01*
G04 #@! TO.N,Net-(D2-Pad1)*
X108700000Y-76790000D02*
X108700000Y-78670000D01*
X108700000Y-80707500D02*
X108712500Y-80720000D01*
X108700000Y-78670000D02*
X108700000Y-80707500D01*
G04 #@! TD*
D31*
G04 #@! TO.N,GND*
X145257915Y-50458506D02*
X144741992Y-50803235D01*
X144303235Y-51241992D01*
X143958506Y-51757915D01*
X143721052Y-52331179D01*
X143600000Y-52939752D01*
X143600000Y-53560248D01*
X143721052Y-54168821D01*
X143958506Y-54742085D01*
X144303235Y-55258008D01*
X144741992Y-55696765D01*
X145257915Y-56041494D01*
X145831179Y-56278948D01*
X146439752Y-56400000D01*
X147060248Y-56400000D01*
X147668821Y-56278948D01*
X148242085Y-56041494D01*
X148758008Y-55696765D01*
X149196765Y-55258008D01*
X149541494Y-54742085D01*
X149625000Y-54540484D01*
X149625001Y-79459518D01*
X149541494Y-79257915D01*
X149196765Y-78741992D01*
X148758008Y-78303235D01*
X148242085Y-77958506D01*
X147668821Y-77721052D01*
X147060248Y-77600000D01*
X146439752Y-77600000D01*
X145831179Y-77721052D01*
X145257915Y-77958506D01*
X144741992Y-78303235D01*
X144303235Y-78741992D01*
X143958506Y-79257915D01*
X143721052Y-79831179D01*
X143600000Y-80439752D01*
X143600000Y-81060248D01*
X143721052Y-81668821D01*
X143958506Y-82242085D01*
X144303235Y-82758008D01*
X144741992Y-83196765D01*
X145257915Y-83541494D01*
X145459516Y-83625000D01*
X104540484Y-83625000D01*
X104742085Y-83541494D01*
X105258008Y-83196765D01*
X105696765Y-82758008D01*
X105732183Y-82705000D01*
X111232339Y-82705000D01*
X111242958Y-82812819D01*
X111274408Y-82916494D01*
X111325479Y-83012042D01*
X111394210Y-83095790D01*
X111477958Y-83164521D01*
X111573506Y-83215592D01*
X111677181Y-83247042D01*
X111785000Y-83257661D01*
X112072500Y-83255000D01*
X112210000Y-83117500D01*
X112210000Y-82305000D01*
X112310000Y-82305000D01*
X112310000Y-83117500D01*
X112447500Y-83255000D01*
X112735000Y-83257661D01*
X112842819Y-83247042D01*
X112946494Y-83215592D01*
X113042042Y-83164521D01*
X113125790Y-83095790D01*
X113194521Y-83012042D01*
X113245592Y-82916494D01*
X113277042Y-82812819D01*
X113286676Y-82715000D01*
X114692339Y-82715000D01*
X114702958Y-82822819D01*
X114734408Y-82926494D01*
X114785479Y-83022042D01*
X114854210Y-83105790D01*
X114937958Y-83174521D01*
X115033506Y-83225592D01*
X115137181Y-83257042D01*
X115245000Y-83267661D01*
X115532500Y-83265000D01*
X115670000Y-83127500D01*
X115670000Y-82315000D01*
X114832500Y-82315000D01*
X114695000Y-82452500D01*
X114692339Y-82715000D01*
X113286676Y-82715000D01*
X113287661Y-82705000D01*
X113285000Y-82442500D01*
X113147500Y-82305000D01*
X112310000Y-82305000D01*
X112210000Y-82305000D01*
X111372500Y-82305000D01*
X111235000Y-82442500D01*
X111232339Y-82705000D01*
X105732183Y-82705000D01*
X106041494Y-82242085D01*
X106278948Y-81668821D01*
X106400000Y-81060248D01*
X106400000Y-80439752D01*
X106278948Y-79831179D01*
X106041494Y-79257915D01*
X105696765Y-78741992D01*
X105258008Y-78303235D01*
X104742085Y-77958506D01*
X104168821Y-77721052D01*
X103560248Y-77600000D01*
X102939752Y-77600000D01*
X102331179Y-77721052D01*
X101757915Y-77958506D01*
X101241992Y-78303235D01*
X100803235Y-78741992D01*
X100458506Y-79257915D01*
X100375000Y-79459516D01*
X100375000Y-76873219D01*
X104527491Y-76873219D01*
X104560986Y-77072009D01*
X104744184Y-77168021D01*
X104942591Y-77226449D01*
X105148586Y-77245046D01*
X105354250Y-77223098D01*
X105551680Y-77161449D01*
X105719014Y-77072009D01*
X105752509Y-76873219D01*
X105140000Y-76260711D01*
X104527491Y-76873219D01*
X100375000Y-76873219D01*
X100375000Y-76198586D01*
X104084954Y-76198586D01*
X104106902Y-76404250D01*
X104168551Y-76601680D01*
X104257991Y-76769014D01*
X104456781Y-76802509D01*
X105069289Y-76190000D01*
X105210711Y-76190000D01*
X105823219Y-76802509D01*
X106022009Y-76769014D01*
X106118021Y-76585816D01*
X106176449Y-76387409D01*
X106189756Y-76240000D01*
X107798307Y-76240000D01*
X107798307Y-77340000D01*
X107805065Y-77408612D01*
X107825078Y-77474587D01*
X107857578Y-77535390D01*
X107901315Y-77588685D01*
X107954610Y-77632422D01*
X108015413Y-77664922D01*
X108081388Y-77684935D01*
X108100000Y-77686768D01*
X108100001Y-78067917D01*
X108039762Y-78128156D01*
X107946740Y-78267374D01*
X107882665Y-78422064D01*
X107850000Y-78586282D01*
X107850000Y-78753718D01*
X107882665Y-78917936D01*
X107946740Y-79072626D01*
X108039762Y-79211844D01*
X108100000Y-79272082D01*
X108100001Y-80052495D01*
X108090386Y-80060386D01*
X108019444Y-80146829D01*
X107966729Y-80245451D01*
X107934268Y-80352462D01*
X107923307Y-80463750D01*
X107923307Y-80976250D01*
X107934268Y-81087538D01*
X107966729Y-81194549D01*
X108019444Y-81293171D01*
X108090386Y-81379614D01*
X108176829Y-81450556D01*
X108275451Y-81503271D01*
X108382462Y-81535732D01*
X108493750Y-81546693D01*
X108931250Y-81546693D01*
X109042538Y-81535732D01*
X109149549Y-81503271D01*
X109248171Y-81450556D01*
X109334614Y-81379614D01*
X109405556Y-81293171D01*
X109458271Y-81194549D01*
X109490732Y-81087538D01*
X109500000Y-80993439D01*
X109509268Y-81087538D01*
X109541729Y-81194549D01*
X109594444Y-81293171D01*
X109665386Y-81379614D01*
X109751829Y-81450556D01*
X109850451Y-81503271D01*
X109957462Y-81535732D01*
X110068750Y-81546693D01*
X110506250Y-81546693D01*
X110617538Y-81535732D01*
X110724549Y-81503271D01*
X110823171Y-81450556D01*
X110909614Y-81379614D01*
X110958538Y-81320000D01*
X111525626Y-81320000D01*
X111477958Y-81345479D01*
X111394210Y-81414210D01*
X111325479Y-81497958D01*
X111274408Y-81593506D01*
X111242958Y-81697181D01*
X111232339Y-81805000D01*
X111235000Y-82067500D01*
X111372500Y-82205000D01*
X112210000Y-82205000D01*
X112210000Y-82185000D01*
X112310000Y-82185000D01*
X112310000Y-82205000D01*
X113147500Y-82205000D01*
X113212500Y-82140000D01*
X114757500Y-82140000D01*
X114832500Y-82215000D01*
X115670000Y-82215000D01*
X115670000Y-82195000D01*
X115770000Y-82195000D01*
X115770000Y-82215000D01*
X115790000Y-82215000D01*
X115790000Y-82315000D01*
X115770000Y-82315000D01*
X115770000Y-83127500D01*
X115907500Y-83265000D01*
X116195000Y-83267661D01*
X116302819Y-83257042D01*
X116406494Y-83225592D01*
X116502042Y-83174521D01*
X116585790Y-83105790D01*
X116654521Y-83022042D01*
X116705592Y-82926494D01*
X116737042Y-82822819D01*
X116747661Y-82715000D01*
X116747062Y-82655892D01*
X116870000Y-82668000D01*
X129250000Y-82668000D01*
X129376333Y-82655758D01*
X129499887Y-82618704D01*
X129613838Y-82558257D01*
X129713806Y-82476742D01*
X129795951Y-82377289D01*
X129857115Y-82263722D01*
X129894949Y-82140405D01*
X129907997Y-82012076D01*
X129908796Y-81758704D01*
X129970000Y-81697500D01*
X129970000Y-80897500D01*
X130070000Y-80897500D01*
X130070000Y-81697500D01*
X130207500Y-81835000D01*
X130495000Y-81837661D01*
X130602819Y-81827042D01*
X130706494Y-81795592D01*
X130785742Y-81753234D01*
X130857506Y-81791592D01*
X130961181Y-81823042D01*
X131069000Y-81833661D01*
X131356500Y-81831000D01*
X131494000Y-81693500D01*
X131494000Y-80893500D01*
X131594000Y-80893500D01*
X131594000Y-81693500D01*
X131731500Y-81831000D01*
X132019000Y-81833661D01*
X132126819Y-81823042D01*
X132230494Y-81791592D01*
X132326042Y-81740521D01*
X132409790Y-81671790D01*
X132478521Y-81588042D01*
X132529592Y-81492494D01*
X132561042Y-81388819D01*
X132571661Y-81281000D01*
X132569000Y-81031000D01*
X132431500Y-80893500D01*
X131594000Y-80893500D01*
X131494000Y-80893500D01*
X130656500Y-80893500D01*
X130652500Y-80897500D01*
X130070000Y-80897500D01*
X129970000Y-80897500D01*
X129950000Y-80897500D01*
X129950000Y-80797500D01*
X129970000Y-80797500D01*
X129970000Y-80777500D01*
X130070000Y-80777500D01*
X130070000Y-80797500D01*
X130907500Y-80797500D01*
X130911500Y-80793500D01*
X131494000Y-80793500D01*
X131494000Y-80773500D01*
X131594000Y-80773500D01*
X131594000Y-80793500D01*
X132431500Y-80793500D01*
X132569000Y-80656000D01*
X132571661Y-80406000D01*
X132561042Y-80298181D01*
X132529592Y-80194506D01*
X132478521Y-80098958D01*
X132409790Y-80015210D01*
X132326042Y-79946479D01*
X132230494Y-79895408D01*
X132205822Y-79887924D01*
X132274556Y-79804171D01*
X132327271Y-79705549D01*
X132359732Y-79598538D01*
X132370693Y-79487250D01*
X132370693Y-79049750D01*
X132359732Y-78938462D01*
X132327271Y-78831451D01*
X132274556Y-78732829D01*
X132203614Y-78646386D01*
X132117171Y-78575444D01*
X132066595Y-78548411D01*
X132131504Y-78513716D01*
X132215106Y-78445106D01*
X132283716Y-78361504D01*
X132334698Y-78266124D01*
X132341029Y-78245254D01*
X132372110Y-78266022D01*
X132490402Y-78315021D01*
X132615981Y-78340000D01*
X132744019Y-78340000D01*
X132869598Y-78315021D01*
X132901491Y-78301810D01*
X136050000Y-78301810D01*
X136050000Y-78538190D01*
X136096116Y-78770027D01*
X136186574Y-78988413D01*
X136317899Y-79184955D01*
X136485045Y-79352101D01*
X136681587Y-79483426D01*
X136899973Y-79573884D01*
X137131810Y-79620000D01*
X137368190Y-79620000D01*
X137600027Y-79573884D01*
X137818413Y-79483426D01*
X138014850Y-79352171D01*
X138928540Y-79352171D01*
X139004093Y-79586774D01*
X139246820Y-79717677D01*
X139510421Y-79798713D01*
X139784767Y-79826764D01*
X140059313Y-79800755D01*
X140323510Y-79721684D01*
X140567204Y-79592590D01*
X140575907Y-79586774D01*
X140651460Y-79352171D01*
X139790000Y-78490711D01*
X138928540Y-79352171D01*
X138014850Y-79352171D01*
X138014955Y-79352101D01*
X138182101Y-79184955D01*
X138313426Y-78988413D01*
X138403884Y-78770027D01*
X138415669Y-78710779D01*
X138488316Y-78953510D01*
X138617410Y-79197204D01*
X138623226Y-79205907D01*
X138857829Y-79281460D01*
X139719289Y-78420000D01*
X139860711Y-78420000D01*
X140722171Y-79281460D01*
X140956774Y-79205907D01*
X141087677Y-78963180D01*
X141168713Y-78699579D01*
X141196764Y-78425233D01*
X141170755Y-78150687D01*
X141091684Y-77886490D01*
X140962590Y-77642796D01*
X140956774Y-77634093D01*
X140722171Y-77558540D01*
X139860711Y-78420000D01*
X139719289Y-78420000D01*
X138857829Y-77558540D01*
X138623226Y-77634093D01*
X138492323Y-77876820D01*
X138415300Y-78127366D01*
X138403884Y-78069973D01*
X138313426Y-77851587D01*
X138182101Y-77655045D01*
X138014955Y-77487899D01*
X137818413Y-77356574D01*
X137600027Y-77266116D01*
X137368190Y-77220000D01*
X137131810Y-77220000D01*
X136899973Y-77266116D01*
X136681587Y-77356574D01*
X136485045Y-77487899D01*
X136317899Y-77655045D01*
X136186574Y-77851587D01*
X136096116Y-78069973D01*
X136050000Y-78301810D01*
X132901491Y-78301810D01*
X132987890Y-78266022D01*
X133094351Y-78194888D01*
X133184888Y-78104351D01*
X133256022Y-77997890D01*
X133305021Y-77879598D01*
X133330000Y-77754019D01*
X133330000Y-77625981D01*
X133305021Y-77500402D01*
X133256022Y-77382110D01*
X133184888Y-77275649D01*
X133094351Y-77185112D01*
X132987890Y-77113978D01*
X132869598Y-77064979D01*
X132744019Y-77040000D01*
X132666396Y-77040000D01*
X132410000Y-76783605D01*
X132410000Y-76610000D01*
X132407118Y-76580736D01*
X132398582Y-76552597D01*
X132384720Y-76526664D01*
X132366854Y-76504894D01*
X132376693Y-76405000D01*
X132376693Y-76005000D01*
X132366092Y-75897370D01*
X132334698Y-75793876D01*
X132317559Y-75761810D01*
X136050000Y-75761810D01*
X136050000Y-75998190D01*
X136096116Y-76230027D01*
X136186574Y-76448413D01*
X136317899Y-76644955D01*
X136485045Y-76812101D01*
X136681587Y-76943426D01*
X136899973Y-77033884D01*
X137131810Y-77080000D01*
X137368190Y-77080000D01*
X137600027Y-77033884D01*
X137818413Y-76943426D01*
X138014850Y-76812171D01*
X138928540Y-76812171D01*
X139004093Y-77046774D01*
X139196084Y-77150315D01*
X139012796Y-77247410D01*
X139004093Y-77253226D01*
X138928540Y-77487829D01*
X139790000Y-78349289D01*
X140651460Y-77487829D01*
X140575907Y-77253226D01*
X140383916Y-77149685D01*
X140567204Y-77052590D01*
X140575907Y-77046774D01*
X140651460Y-76812171D01*
X139790000Y-75950711D01*
X138928540Y-76812171D01*
X138014850Y-76812171D01*
X138014955Y-76812101D01*
X138182101Y-76644955D01*
X138313426Y-76448413D01*
X138403884Y-76230027D01*
X138415669Y-76170779D01*
X138488316Y-76413510D01*
X138617410Y-76657204D01*
X138623226Y-76665907D01*
X138857829Y-76741460D01*
X139719289Y-75880000D01*
X139860711Y-75880000D01*
X140722171Y-76741460D01*
X140956774Y-76665907D01*
X141087677Y-76423180D01*
X141168713Y-76159579D01*
X141196764Y-75885233D01*
X141170755Y-75610687D01*
X141091684Y-75346490D01*
X140962590Y-75102796D01*
X140956774Y-75094093D01*
X140722171Y-75018540D01*
X139860711Y-75880000D01*
X139719289Y-75880000D01*
X138857829Y-75018540D01*
X138623226Y-75094093D01*
X138492323Y-75336820D01*
X138415300Y-75587366D01*
X138403884Y-75529973D01*
X138313426Y-75311587D01*
X138182101Y-75115045D01*
X138014955Y-74947899D01*
X137818413Y-74816574D01*
X137600027Y-74726116D01*
X137368190Y-74680000D01*
X137131810Y-74680000D01*
X136899973Y-74726116D01*
X136681587Y-74816574D01*
X136485045Y-74947899D01*
X136317899Y-75115045D01*
X136186574Y-75311587D01*
X136096116Y-75529973D01*
X136050000Y-75761810D01*
X132317559Y-75761810D01*
X132283716Y-75698496D01*
X132215106Y-75614894D01*
X132131504Y-75546284D01*
X132036124Y-75495302D01*
X131932630Y-75463908D01*
X131825000Y-75453307D01*
X131275000Y-75453307D01*
X131167370Y-75463908D01*
X131063876Y-75495302D01*
X130968496Y-75546284D01*
X130884894Y-75614894D01*
X130816284Y-75698496D01*
X130785000Y-75757024D01*
X130753716Y-75698496D01*
X130685106Y-75614894D01*
X130601504Y-75546284D01*
X130506124Y-75495302D01*
X130402630Y-75463908D01*
X130295000Y-75453307D01*
X129888564Y-75453307D01*
X129877913Y-75418194D01*
X129817107Y-75304435D01*
X129735276Y-75204724D01*
X129635565Y-75122893D01*
X129521806Y-75062087D01*
X129398369Y-75024643D01*
X129270000Y-75012000D01*
X119545907Y-75012000D01*
X119510790Y-74969210D01*
X119427042Y-74900479D01*
X119331494Y-74849408D01*
X119227819Y-74817958D01*
X119120000Y-74807339D01*
X118307500Y-74810000D01*
X118170000Y-74947500D01*
X118170000Y-75012000D01*
X118070000Y-75012000D01*
X118070000Y-74947500D01*
X117932500Y-74810000D01*
X117120000Y-74807339D01*
X117012181Y-74817958D01*
X116908506Y-74849408D01*
X116812958Y-74900479D01*
X116729210Y-74969210D01*
X116660479Y-75052958D01*
X116659059Y-75055614D01*
X116640113Y-75061296D01*
X116526162Y-75121743D01*
X116426194Y-75203258D01*
X116344049Y-75302711D01*
X116282885Y-75416278D01*
X116261541Y-75485848D01*
X116198009Y-75366986D01*
X115999219Y-75333491D01*
X115392711Y-75940000D01*
X115239289Y-75940000D01*
X114632781Y-75333491D01*
X114433991Y-75366986D01*
X114337979Y-75550184D01*
X114320365Y-75609998D01*
X114217502Y-75609998D01*
X114355000Y-75472500D01*
X114356941Y-75262781D01*
X114703491Y-75262781D01*
X115316000Y-75875289D01*
X115928509Y-75262781D01*
X115895014Y-75063991D01*
X115711816Y-74967979D01*
X115513409Y-74909551D01*
X115307414Y-74890954D01*
X115101750Y-74912902D01*
X114904320Y-74974551D01*
X114736986Y-75063991D01*
X114703491Y-75262781D01*
X114356941Y-75262781D01*
X114357661Y-75185000D01*
X114347042Y-75077181D01*
X114315592Y-74973506D01*
X114264521Y-74877958D01*
X114195790Y-74794210D01*
X114112042Y-74725479D01*
X114016494Y-74674408D01*
X113912819Y-74642958D01*
X113805000Y-74632339D01*
X113542500Y-74635000D01*
X113405000Y-74772500D01*
X113405000Y-75610000D01*
X113425000Y-75610000D01*
X113425000Y-75710000D01*
X113405000Y-75710000D01*
X113405000Y-75730000D01*
X113305000Y-75730000D01*
X113305000Y-75710000D01*
X113285000Y-75710000D01*
X113285000Y-75610000D01*
X113305000Y-75610000D01*
X113305000Y-74772500D01*
X113167500Y-74635000D01*
X112905000Y-74632339D01*
X112797181Y-74642958D01*
X112693506Y-74674408D01*
X112597958Y-74725479D01*
X112514210Y-74794210D01*
X112445479Y-74877958D01*
X112420000Y-74925626D01*
X112420000Y-74252082D01*
X112470238Y-74201844D01*
X112563260Y-74062626D01*
X112627335Y-73907936D01*
X112660000Y-73743718D01*
X112660000Y-73576282D01*
X112627335Y-73412064D01*
X112563260Y-73257374D01*
X112539498Y-73221810D01*
X136050000Y-73221810D01*
X136050000Y-73458190D01*
X136096116Y-73690027D01*
X136186574Y-73908413D01*
X136317899Y-74104955D01*
X136485045Y-74272101D01*
X136681587Y-74403426D01*
X136899973Y-74493884D01*
X137131810Y-74540000D01*
X137368190Y-74540000D01*
X137600027Y-74493884D01*
X137818413Y-74403426D01*
X138014850Y-74272171D01*
X138928540Y-74272171D01*
X139004093Y-74506774D01*
X139196084Y-74610315D01*
X139012796Y-74707410D01*
X139004093Y-74713226D01*
X138928540Y-74947829D01*
X139790000Y-75809289D01*
X140651460Y-74947829D01*
X140575907Y-74713226D01*
X140383916Y-74609685D01*
X140567204Y-74512590D01*
X140575907Y-74506774D01*
X140651460Y-74272171D01*
X139790000Y-73410711D01*
X138928540Y-74272171D01*
X138014850Y-74272171D01*
X138014955Y-74272101D01*
X138182101Y-74104955D01*
X138313426Y-73908413D01*
X138403884Y-73690027D01*
X138415669Y-73630779D01*
X138488316Y-73873510D01*
X138617410Y-74117204D01*
X138623226Y-74125907D01*
X138857829Y-74201460D01*
X139719289Y-73340000D01*
X139860711Y-73340000D01*
X140722171Y-74201460D01*
X140956774Y-74125907D01*
X141087677Y-73883180D01*
X141168713Y-73619579D01*
X141196764Y-73345233D01*
X141170755Y-73070687D01*
X141091684Y-72806490D01*
X140962590Y-72562796D01*
X140956774Y-72554093D01*
X140722171Y-72478540D01*
X139860711Y-73340000D01*
X139719289Y-73340000D01*
X138857829Y-72478540D01*
X138623226Y-72554093D01*
X138492323Y-72796820D01*
X138415300Y-73047366D01*
X138403884Y-72989973D01*
X138313426Y-72771587D01*
X138182101Y-72575045D01*
X138014955Y-72407899D01*
X137818413Y-72276574D01*
X137600027Y-72186116D01*
X137368190Y-72140000D01*
X137131810Y-72140000D01*
X136899973Y-72186116D01*
X136681587Y-72276574D01*
X136485045Y-72407899D01*
X136317899Y-72575045D01*
X136186574Y-72771587D01*
X136096116Y-72989973D01*
X136050000Y-73221810D01*
X112539498Y-73221810D01*
X112470238Y-73118156D01*
X112410000Y-73057918D01*
X112410000Y-72915313D01*
X113930444Y-71660000D01*
X116419997Y-71660000D01*
X116480402Y-71685021D01*
X116605981Y-71710000D01*
X116734019Y-71710000D01*
X116859598Y-71685021D01*
X116920003Y-71660000D01*
X117649997Y-71660000D01*
X117710402Y-71685021D01*
X117835981Y-71710000D01*
X117881472Y-71710000D01*
X118174895Y-72003424D01*
X118193683Y-72026317D01*
X118285045Y-72101296D01*
X118389279Y-72157010D01*
X118460825Y-72178713D01*
X118502378Y-72191318D01*
X118619999Y-72202903D01*
X118649473Y-72200000D01*
X123850526Y-72200000D01*
X123880000Y-72202903D01*
X123909474Y-72200000D01*
X123997621Y-72191318D01*
X124110721Y-72157010D01*
X124214955Y-72101296D01*
X124306317Y-72026317D01*
X124325113Y-72003414D01*
X125646717Y-70681810D01*
X136050000Y-70681810D01*
X136050000Y-70918190D01*
X136096116Y-71150027D01*
X136186574Y-71368413D01*
X136317899Y-71564955D01*
X136485045Y-71732101D01*
X136681587Y-71863426D01*
X136899973Y-71953884D01*
X137131810Y-72000000D01*
X137368190Y-72000000D01*
X137600027Y-71953884D01*
X137818413Y-71863426D01*
X138014850Y-71732171D01*
X138928540Y-71732171D01*
X139004093Y-71966774D01*
X139196084Y-72070315D01*
X139012796Y-72167410D01*
X139004093Y-72173226D01*
X138928540Y-72407829D01*
X139790000Y-73269289D01*
X140651460Y-72407829D01*
X140575907Y-72173226D01*
X140383916Y-72069685D01*
X140567204Y-71972590D01*
X140575907Y-71966774D01*
X140651460Y-71732171D01*
X139790000Y-70870711D01*
X138928540Y-71732171D01*
X138014850Y-71732171D01*
X138014955Y-71732101D01*
X138182101Y-71564955D01*
X138313426Y-71368413D01*
X138403884Y-71150027D01*
X138415669Y-71090779D01*
X138488316Y-71333510D01*
X138617410Y-71577204D01*
X138623226Y-71585907D01*
X138857829Y-71661460D01*
X139719289Y-70800000D01*
X139860711Y-70800000D01*
X140722171Y-71661460D01*
X140956774Y-71585907D01*
X141087677Y-71343180D01*
X141168713Y-71079579D01*
X141196764Y-70805233D01*
X141170755Y-70530687D01*
X141091684Y-70266490D01*
X140962590Y-70022796D01*
X140956774Y-70014093D01*
X140722171Y-69938540D01*
X139860711Y-70800000D01*
X139719289Y-70800000D01*
X138857829Y-69938540D01*
X138623226Y-70014093D01*
X138492323Y-70256820D01*
X138415300Y-70507366D01*
X138403884Y-70449973D01*
X138313426Y-70231587D01*
X138182101Y-70035045D01*
X138014955Y-69867899D01*
X137818413Y-69736574D01*
X137600027Y-69646116D01*
X137368190Y-69600000D01*
X137131810Y-69600000D01*
X136899973Y-69646116D01*
X136681587Y-69736574D01*
X136485045Y-69867899D01*
X136317899Y-70035045D01*
X136186574Y-70231587D01*
X136096116Y-70449973D01*
X136050000Y-70681810D01*
X125646717Y-70681810D01*
X127003420Y-69325108D01*
X127026317Y-69306317D01*
X127101296Y-69214955D01*
X127148674Y-69126317D01*
X127157010Y-69110722D01*
X127191318Y-68997621D01*
X127202903Y-68880000D01*
X127200000Y-68850526D01*
X127200000Y-68752285D01*
X127382500Y-68750000D01*
X127520000Y-68612500D01*
X127520000Y-67250000D01*
X127620000Y-67250000D01*
X127620000Y-68612500D01*
X127757500Y-68750000D01*
X127970000Y-68752661D01*
X128077819Y-68742042D01*
X128181494Y-68710592D01*
X128277042Y-68659521D01*
X128360790Y-68590790D01*
X128429521Y-68507042D01*
X128480592Y-68411494D01*
X128512042Y-68307819D01*
X128522661Y-68200000D01*
X128520000Y-67387500D01*
X128382500Y-67250000D01*
X127620000Y-67250000D01*
X127520000Y-67250000D01*
X127500000Y-67250000D01*
X127500000Y-67150000D01*
X127520000Y-67150000D01*
X127520000Y-65787500D01*
X127620000Y-65787500D01*
X127620000Y-67150000D01*
X128382500Y-67150000D01*
X128520000Y-67012500D01*
X128522661Y-66200000D01*
X128512042Y-66092181D01*
X128480592Y-65988506D01*
X128429521Y-65892958D01*
X128360790Y-65809210D01*
X128277042Y-65740479D01*
X128181494Y-65689408D01*
X128077819Y-65657958D01*
X127970000Y-65647339D01*
X127757500Y-65650000D01*
X127620000Y-65787500D01*
X127520000Y-65787500D01*
X127382500Y-65650000D01*
X127200000Y-65647715D01*
X127200000Y-65407575D01*
X127290402Y-65445021D01*
X127415981Y-65470000D01*
X127544019Y-65470000D01*
X127669598Y-65445021D01*
X127787890Y-65396022D01*
X127799517Y-65388253D01*
X128805940Y-65388253D01*
X128807876Y-65397999D01*
X128888476Y-65660345D01*
X129018708Y-65901926D01*
X129193568Y-66113458D01*
X129406336Y-66286812D01*
X129648835Y-66415326D01*
X129903296Y-66491531D01*
X129829973Y-66506116D01*
X129611587Y-66596574D01*
X129415045Y-66727899D01*
X129247899Y-66895045D01*
X129116574Y-67091587D01*
X129026116Y-67309973D01*
X128980000Y-67541810D01*
X128980000Y-67778190D01*
X129026116Y-68010027D01*
X129116574Y-68228413D01*
X129247899Y-68424955D01*
X129415045Y-68592101D01*
X129611587Y-68723426D01*
X129829973Y-68813884D01*
X130061810Y-68860000D01*
X130298190Y-68860000D01*
X130530027Y-68813884D01*
X130748413Y-68723426D01*
X130944955Y-68592101D01*
X131112101Y-68424955D01*
X131243426Y-68228413D01*
X131279297Y-68141810D01*
X136050000Y-68141810D01*
X136050000Y-68378190D01*
X136096116Y-68610027D01*
X136186574Y-68828413D01*
X136317899Y-69024955D01*
X136485045Y-69192101D01*
X136681587Y-69323426D01*
X136899973Y-69413884D01*
X137131810Y-69460000D01*
X137368190Y-69460000D01*
X137600027Y-69413884D01*
X137818413Y-69323426D01*
X138014850Y-69192171D01*
X138928540Y-69192171D01*
X139004093Y-69426774D01*
X139196084Y-69530315D01*
X139012796Y-69627410D01*
X139004093Y-69633226D01*
X138928540Y-69867829D01*
X139790000Y-70729289D01*
X140651460Y-69867829D01*
X140575907Y-69633226D01*
X140383916Y-69529685D01*
X140567204Y-69432590D01*
X140575907Y-69426774D01*
X140651460Y-69192171D01*
X139790000Y-68330711D01*
X138928540Y-69192171D01*
X138014850Y-69192171D01*
X138014955Y-69192101D01*
X138182101Y-69024955D01*
X138313426Y-68828413D01*
X138403884Y-68610027D01*
X138415669Y-68550779D01*
X138488316Y-68793510D01*
X138617410Y-69037204D01*
X138623226Y-69045907D01*
X138857829Y-69121460D01*
X139719289Y-68260000D01*
X139860711Y-68260000D01*
X140722171Y-69121460D01*
X140956774Y-69045907D01*
X141087677Y-68803180D01*
X141168713Y-68539579D01*
X141196764Y-68265233D01*
X141170755Y-67990687D01*
X141091684Y-67726490D01*
X140962590Y-67482796D01*
X140956774Y-67474093D01*
X140722171Y-67398540D01*
X139860711Y-68260000D01*
X139719289Y-68260000D01*
X138857829Y-67398540D01*
X138623226Y-67474093D01*
X138492323Y-67716820D01*
X138415300Y-67967366D01*
X138403884Y-67909973D01*
X138313426Y-67691587D01*
X138182101Y-67495045D01*
X138014955Y-67327899D01*
X137818413Y-67196574D01*
X137600027Y-67106116D01*
X137368190Y-67060000D01*
X137131810Y-67060000D01*
X136899973Y-67106116D01*
X136681587Y-67196574D01*
X136485045Y-67327899D01*
X136317899Y-67495045D01*
X136186574Y-67691587D01*
X136096116Y-67909973D01*
X136050000Y-68141810D01*
X131279297Y-68141810D01*
X131333884Y-68010027D01*
X131380000Y-67778190D01*
X131380000Y-67541810D01*
X131333884Y-67309973D01*
X131243426Y-67091587D01*
X131112101Y-66895045D01*
X130944955Y-66727899D01*
X130748413Y-66596574D01*
X130530027Y-66506116D01*
X130456704Y-66491531D01*
X130711165Y-66415326D01*
X130953664Y-66286812D01*
X131166432Y-66113458D01*
X131341292Y-65901926D01*
X131471524Y-65660345D01*
X131489507Y-65601810D01*
X136050000Y-65601810D01*
X136050000Y-65838190D01*
X136096116Y-66070027D01*
X136186574Y-66288413D01*
X136317899Y-66484955D01*
X136485045Y-66652101D01*
X136681587Y-66783426D01*
X136899973Y-66873884D01*
X137131810Y-66920000D01*
X137368190Y-66920000D01*
X137600027Y-66873884D01*
X137818413Y-66783426D01*
X138014850Y-66652171D01*
X138928540Y-66652171D01*
X139004093Y-66886774D01*
X139196084Y-66990315D01*
X139012796Y-67087410D01*
X139004093Y-67093226D01*
X138928540Y-67327829D01*
X139790000Y-68189289D01*
X140651460Y-67327829D01*
X140575907Y-67093226D01*
X140383916Y-66989685D01*
X140567204Y-66892590D01*
X140575907Y-66886774D01*
X140651460Y-66652171D01*
X139790000Y-65790711D01*
X138928540Y-66652171D01*
X138014850Y-66652171D01*
X138014955Y-66652101D01*
X138182101Y-66484955D01*
X138313426Y-66288413D01*
X138403884Y-66070027D01*
X138415669Y-66010779D01*
X138488316Y-66253510D01*
X138617410Y-66497204D01*
X138623226Y-66505907D01*
X138857829Y-66581460D01*
X139719289Y-65720000D01*
X139860711Y-65720000D01*
X140722171Y-66581460D01*
X140956774Y-66505907D01*
X141087677Y-66263180D01*
X141168713Y-65999579D01*
X141196764Y-65725233D01*
X141170755Y-65450687D01*
X141091684Y-65186490D01*
X140962590Y-64942796D01*
X140956774Y-64934093D01*
X140722171Y-64858540D01*
X139860711Y-65720000D01*
X139719289Y-65720000D01*
X138857829Y-64858540D01*
X138623226Y-64934093D01*
X138492323Y-65176820D01*
X138415300Y-65427366D01*
X138403884Y-65369973D01*
X138313426Y-65151587D01*
X138182101Y-64955045D01*
X138014955Y-64787899D01*
X137818413Y-64656574D01*
X137600027Y-64566116D01*
X137368190Y-64520000D01*
X137131810Y-64520000D01*
X136899973Y-64566116D01*
X136681587Y-64656574D01*
X136485045Y-64787899D01*
X136317899Y-64955045D01*
X136186574Y-65151587D01*
X136096116Y-65369973D01*
X136050000Y-65601810D01*
X131489507Y-65601810D01*
X131552124Y-65397999D01*
X131554060Y-65388253D01*
X131441510Y-65170000D01*
X130230000Y-65170000D01*
X130230000Y-65190000D01*
X130130000Y-65190000D01*
X130130000Y-65170000D01*
X128918490Y-65170000D01*
X128805940Y-65388253D01*
X127799517Y-65388253D01*
X127894351Y-65324888D01*
X127984888Y-65234351D01*
X128056022Y-65127890D01*
X128105021Y-65009598D01*
X128130000Y-64884019D01*
X128130000Y-64851747D01*
X128805940Y-64851747D01*
X128918490Y-65070000D01*
X130130000Y-65070000D01*
X130130000Y-65050000D01*
X130230000Y-65050000D01*
X130230000Y-65070000D01*
X131441510Y-65070000D01*
X131554060Y-64851747D01*
X131552124Y-64842001D01*
X131471524Y-64579655D01*
X131341292Y-64338074D01*
X131166432Y-64126542D01*
X130953664Y-63953188D01*
X130711165Y-63824674D01*
X130567645Y-63781693D01*
X131030000Y-63781693D01*
X131098612Y-63774935D01*
X131164587Y-63754922D01*
X131225390Y-63722422D01*
X131278685Y-63678685D01*
X131322422Y-63625390D01*
X131354922Y-63564587D01*
X131374935Y-63498612D01*
X131381693Y-63430000D01*
X131381693Y-63061810D01*
X136050000Y-63061810D01*
X136050000Y-63298190D01*
X136096116Y-63530027D01*
X136186574Y-63748413D01*
X136317899Y-63944955D01*
X136485045Y-64112101D01*
X136681587Y-64243426D01*
X136899973Y-64333884D01*
X137131810Y-64380000D01*
X137368190Y-64380000D01*
X137600027Y-64333884D01*
X137818413Y-64243426D01*
X138014850Y-64112171D01*
X138928540Y-64112171D01*
X139004093Y-64346774D01*
X139196084Y-64450315D01*
X139012796Y-64547410D01*
X139004093Y-64553226D01*
X138928540Y-64787829D01*
X139790000Y-65649289D01*
X140651460Y-64787829D01*
X140575907Y-64553226D01*
X140383916Y-64449685D01*
X140567204Y-64352590D01*
X140575907Y-64346774D01*
X140651460Y-64112171D01*
X139790000Y-63250711D01*
X138928540Y-64112171D01*
X138014850Y-64112171D01*
X138014955Y-64112101D01*
X138182101Y-63944955D01*
X138313426Y-63748413D01*
X138403884Y-63530027D01*
X138415669Y-63470779D01*
X138488316Y-63713510D01*
X138617410Y-63957204D01*
X138623226Y-63965907D01*
X138857829Y-64041460D01*
X139719289Y-63180000D01*
X139860711Y-63180000D01*
X140722171Y-64041460D01*
X140956774Y-63965907D01*
X141087677Y-63723180D01*
X141168713Y-63459579D01*
X141196764Y-63185233D01*
X141170755Y-62910687D01*
X141091684Y-62646490D01*
X140962590Y-62402796D01*
X140956774Y-62394093D01*
X140722171Y-62318540D01*
X139860711Y-63180000D01*
X139719289Y-63180000D01*
X138857829Y-62318540D01*
X138623226Y-62394093D01*
X138492323Y-62636820D01*
X138415300Y-62887366D01*
X138403884Y-62829973D01*
X138313426Y-62611587D01*
X138182101Y-62415045D01*
X138014955Y-62247899D01*
X137818413Y-62116574D01*
X137600027Y-62026116D01*
X137368190Y-61980000D01*
X137131810Y-61980000D01*
X136899973Y-62026116D01*
X136681587Y-62116574D01*
X136485045Y-62247899D01*
X136317899Y-62415045D01*
X136186574Y-62611587D01*
X136096116Y-62829973D01*
X136050000Y-63061810D01*
X131381693Y-63061810D01*
X131381693Y-61730000D01*
X131374935Y-61661388D01*
X131354922Y-61595413D01*
X131322422Y-61534610D01*
X131278685Y-61481315D01*
X131225390Y-61437578D01*
X131164587Y-61405078D01*
X131098612Y-61385065D01*
X131030000Y-61378307D01*
X129330000Y-61378307D01*
X129261388Y-61385065D01*
X129195413Y-61405078D01*
X129134610Y-61437578D01*
X129081315Y-61481315D01*
X129037578Y-61534610D01*
X129005078Y-61595413D01*
X128985065Y-61661388D01*
X128978307Y-61730000D01*
X128978307Y-63430000D01*
X128985065Y-63498612D01*
X129005078Y-63564587D01*
X129037578Y-63625390D01*
X129081315Y-63678685D01*
X129134610Y-63722422D01*
X129195413Y-63754922D01*
X129261388Y-63774935D01*
X129330000Y-63781693D01*
X129792355Y-63781693D01*
X129648835Y-63824674D01*
X129406336Y-63953188D01*
X129193568Y-64126542D01*
X129018708Y-64338074D01*
X128888476Y-64579655D01*
X128807876Y-64842001D01*
X128805940Y-64851747D01*
X128130000Y-64851747D01*
X128130000Y-64755981D01*
X128120000Y-64705709D01*
X128145106Y-64685106D01*
X128213716Y-64601504D01*
X128264698Y-64506124D01*
X128296092Y-64402630D01*
X128306693Y-64295000D01*
X128306693Y-63895000D01*
X128298176Y-63808525D01*
X128300000Y-63790000D01*
X128300000Y-62720000D01*
X128299653Y-62716476D01*
X128306693Y-62645000D01*
X128306693Y-62245000D01*
X128296092Y-62137370D01*
X128264698Y-62033876D01*
X128213716Y-61938496D01*
X128145106Y-61854894D01*
X128061504Y-61786284D01*
X127966124Y-61735302D01*
X127862630Y-61703908D01*
X127755000Y-61693307D01*
X127364702Y-61693307D01*
X127299332Y-61627936D01*
X127320000Y-61524029D01*
X127320000Y-61395991D01*
X127295021Y-61270412D01*
X127246022Y-61152120D01*
X127174888Y-61045659D01*
X127084351Y-60955122D01*
X126977890Y-60883988D01*
X126859598Y-60834989D01*
X126734019Y-60810010D01*
X126605981Y-60810010D01*
X126480402Y-60834989D01*
X126454998Y-60845512D01*
X126401296Y-60745043D01*
X126326317Y-60653681D01*
X126303419Y-60634889D01*
X126190340Y-60521810D01*
X136050000Y-60521810D01*
X136050000Y-60758190D01*
X136096116Y-60990027D01*
X136186574Y-61208413D01*
X136317899Y-61404955D01*
X136485045Y-61572101D01*
X136681587Y-61703426D01*
X136899973Y-61793884D01*
X137131810Y-61840000D01*
X137368190Y-61840000D01*
X137600027Y-61793884D01*
X137818413Y-61703426D01*
X138014850Y-61572171D01*
X138928540Y-61572171D01*
X139004093Y-61806774D01*
X139196084Y-61910315D01*
X139012796Y-62007410D01*
X139004093Y-62013226D01*
X138928540Y-62247829D01*
X139790000Y-63109289D01*
X140651460Y-62247829D01*
X140575907Y-62013226D01*
X140383916Y-61909685D01*
X140567204Y-61812590D01*
X140575907Y-61806774D01*
X140651460Y-61572171D01*
X139790000Y-60710711D01*
X138928540Y-61572171D01*
X138014850Y-61572171D01*
X138014955Y-61572101D01*
X138182101Y-61404955D01*
X138313426Y-61208413D01*
X138403884Y-60990027D01*
X138415669Y-60930779D01*
X138488316Y-61173510D01*
X138617410Y-61417204D01*
X138623226Y-61425907D01*
X138857829Y-61501460D01*
X139719289Y-60640000D01*
X139860711Y-60640000D01*
X140722171Y-61501460D01*
X140956774Y-61425907D01*
X141087677Y-61183180D01*
X141168713Y-60919579D01*
X141196764Y-60645233D01*
X141170755Y-60370687D01*
X141091684Y-60106490D01*
X140962590Y-59862796D01*
X140956774Y-59854093D01*
X140722171Y-59778540D01*
X139860711Y-60640000D01*
X139719289Y-60640000D01*
X138857829Y-59778540D01*
X138623226Y-59854093D01*
X138492323Y-60096820D01*
X138415300Y-60347366D01*
X138403884Y-60289973D01*
X138313426Y-60071587D01*
X138182101Y-59875045D01*
X138014955Y-59707899D01*
X137818413Y-59576574D01*
X137600027Y-59486116D01*
X137368190Y-59440000D01*
X137131810Y-59440000D01*
X136899973Y-59486116D01*
X136681587Y-59576574D01*
X136485045Y-59707899D01*
X136317899Y-59875045D01*
X136186574Y-60071587D01*
X136096116Y-60289973D01*
X136050000Y-60521810D01*
X126190340Y-60521810D01*
X124945115Y-59276586D01*
X124926319Y-59253683D01*
X124834957Y-59178704D01*
X124730723Y-59122990D01*
X124617623Y-59088682D01*
X124529476Y-59080000D01*
X124500002Y-59077097D01*
X124470528Y-59080000D01*
X119714948Y-59080000D01*
X119139999Y-58134422D01*
X119139999Y-57981810D01*
X136050000Y-57981810D01*
X136050000Y-58218190D01*
X136096116Y-58450027D01*
X136186574Y-58668413D01*
X136317899Y-58864955D01*
X136485045Y-59032101D01*
X136681587Y-59163426D01*
X136899973Y-59253884D01*
X137131810Y-59300000D01*
X137368190Y-59300000D01*
X137600027Y-59253884D01*
X137818413Y-59163426D01*
X138014850Y-59032171D01*
X138928540Y-59032171D01*
X139004093Y-59266774D01*
X139196084Y-59370315D01*
X139012796Y-59467410D01*
X139004093Y-59473226D01*
X138928540Y-59707829D01*
X139790000Y-60569289D01*
X140651460Y-59707829D01*
X140575907Y-59473226D01*
X140383916Y-59369685D01*
X140567204Y-59272590D01*
X140575907Y-59266774D01*
X140651460Y-59032171D01*
X139790000Y-58170711D01*
X138928540Y-59032171D01*
X138014850Y-59032171D01*
X138014955Y-59032101D01*
X138182101Y-58864955D01*
X138313426Y-58668413D01*
X138403884Y-58450027D01*
X138415669Y-58390779D01*
X138488316Y-58633510D01*
X138617410Y-58877204D01*
X138623226Y-58885907D01*
X138857829Y-58961460D01*
X139719289Y-58100000D01*
X139860711Y-58100000D01*
X140722171Y-58961460D01*
X140956774Y-58885907D01*
X141087677Y-58643180D01*
X141168713Y-58379579D01*
X141196764Y-58105233D01*
X141170755Y-57830687D01*
X141091684Y-57566490D01*
X140962590Y-57322796D01*
X140956774Y-57314093D01*
X140722171Y-57238540D01*
X139860711Y-58100000D01*
X139719289Y-58100000D01*
X138857829Y-57238540D01*
X138623226Y-57314093D01*
X138492323Y-57556820D01*
X138415300Y-57807366D01*
X138403884Y-57749973D01*
X138313426Y-57531587D01*
X138182101Y-57335045D01*
X138014955Y-57167899D01*
X137818413Y-57036574D01*
X137600027Y-56946116D01*
X137368190Y-56900000D01*
X137131810Y-56900000D01*
X136899973Y-56946116D01*
X136681587Y-57036574D01*
X136485045Y-57167899D01*
X136317899Y-57335045D01*
X136186574Y-57531587D01*
X136096116Y-57749973D01*
X136050000Y-57981810D01*
X119139999Y-57981810D01*
X119139999Y-57438526D01*
X121193419Y-55385107D01*
X121216317Y-55366315D01*
X121291296Y-55274953D01*
X121347010Y-55170719D01*
X121381318Y-55057619D01*
X121390000Y-54969472D01*
X121390932Y-54960000D01*
X136048307Y-54960000D01*
X136048307Y-56160000D01*
X136059868Y-56277384D01*
X136094108Y-56390258D01*
X136149711Y-56494283D01*
X136224539Y-56585461D01*
X136315717Y-56660289D01*
X136419742Y-56715892D01*
X136532616Y-56750132D01*
X136650000Y-56761693D01*
X137850000Y-56761693D01*
X137967384Y-56750132D01*
X138080258Y-56715892D01*
X138184283Y-56660289D01*
X138275461Y-56585461D01*
X138350289Y-56494283D01*
X138405892Y-56390258D01*
X138440132Y-56277384D01*
X138451693Y-56160000D01*
X138451693Y-55441810D01*
X138590000Y-55441810D01*
X138590000Y-55678190D01*
X138636116Y-55910027D01*
X138726574Y-56128413D01*
X138857899Y-56324955D01*
X139025045Y-56492101D01*
X139221587Y-56623426D01*
X139439973Y-56713884D01*
X139499221Y-56725669D01*
X139256490Y-56798316D01*
X139012796Y-56927410D01*
X139004093Y-56933226D01*
X138928540Y-57167829D01*
X139790000Y-58029289D01*
X140651460Y-57167829D01*
X140575907Y-56933226D01*
X140333180Y-56802323D01*
X140082634Y-56725300D01*
X140140027Y-56713884D01*
X140358413Y-56623426D01*
X140554955Y-56492101D01*
X140722101Y-56324955D01*
X140853426Y-56128413D01*
X140943884Y-55910027D01*
X140990000Y-55678190D01*
X140990000Y-55441810D01*
X140943884Y-55209973D01*
X140853426Y-54991587D01*
X140722101Y-54795045D01*
X140554955Y-54627899D01*
X140358413Y-54496574D01*
X140140027Y-54406116D01*
X139908190Y-54360000D01*
X139671810Y-54360000D01*
X139439973Y-54406116D01*
X139221587Y-54496574D01*
X139025045Y-54627899D01*
X138857899Y-54795045D01*
X138726574Y-54991587D01*
X138636116Y-55209973D01*
X138590000Y-55441810D01*
X138451693Y-55441810D01*
X138451693Y-54960000D01*
X138440132Y-54842616D01*
X138405892Y-54729742D01*
X138350289Y-54625717D01*
X138275461Y-54534539D01*
X138184283Y-54459711D01*
X138080258Y-54404108D01*
X137967384Y-54369868D01*
X137850000Y-54358307D01*
X136650000Y-54358307D01*
X136532616Y-54369868D01*
X136419742Y-54404108D01*
X136315717Y-54459711D01*
X136224539Y-54534539D01*
X136149711Y-54625717D01*
X136094108Y-54729742D01*
X136059868Y-54842616D01*
X136048307Y-54960000D01*
X121390932Y-54960000D01*
X121392903Y-54939998D01*
X121390000Y-54910524D01*
X121390000Y-53941693D01*
X121640000Y-53941693D01*
X121708612Y-53934935D01*
X121774587Y-53914922D01*
X121835390Y-53882422D01*
X121888685Y-53838685D01*
X121932422Y-53785390D01*
X121964922Y-53724587D01*
X121984935Y-53658612D01*
X121991693Y-53590000D01*
X121991693Y-52621810D01*
X122130000Y-52621810D01*
X122130000Y-52858190D01*
X122176116Y-53090027D01*
X122266574Y-53308413D01*
X122397899Y-53504955D01*
X122565045Y-53672101D01*
X122761587Y-53803426D01*
X122979973Y-53893884D01*
X123211810Y-53940000D01*
X123448190Y-53940000D01*
X123680027Y-53893884D01*
X123898413Y-53803426D01*
X124094955Y-53672101D01*
X124262101Y-53504955D01*
X124393426Y-53308413D01*
X124483884Y-53090027D01*
X124530000Y-52858190D01*
X124530000Y-52621810D01*
X124670000Y-52621810D01*
X124670000Y-52858190D01*
X124716116Y-53090027D01*
X124806574Y-53308413D01*
X124937899Y-53504955D01*
X125105045Y-53672101D01*
X125301587Y-53803426D01*
X125519973Y-53893884D01*
X125751810Y-53940000D01*
X125988190Y-53940000D01*
X126220027Y-53893884D01*
X126438413Y-53803426D01*
X126634955Y-53672101D01*
X126802101Y-53504955D01*
X126933426Y-53308413D01*
X127023884Y-53090027D01*
X127038469Y-53016704D01*
X127114674Y-53271165D01*
X127243188Y-53513664D01*
X127416542Y-53726432D01*
X127628074Y-53901292D01*
X127869655Y-54031524D01*
X128132001Y-54112124D01*
X128141747Y-54114060D01*
X128360000Y-54001510D01*
X128360000Y-52790000D01*
X128460000Y-52790000D01*
X128460000Y-54001510D01*
X128678253Y-54114060D01*
X128687999Y-54112124D01*
X128950345Y-54031524D01*
X129191926Y-53901292D01*
X129403458Y-53726432D01*
X129576812Y-53513664D01*
X129705326Y-53271165D01*
X129784062Y-53008253D01*
X129671609Y-52790000D01*
X128460000Y-52790000D01*
X128360000Y-52790000D01*
X128340000Y-52790000D01*
X128340000Y-52690000D01*
X128360000Y-52690000D01*
X128360000Y-51478490D01*
X128460000Y-51478490D01*
X128460000Y-52690000D01*
X129671609Y-52690000D01*
X129784062Y-52471747D01*
X129705326Y-52208835D01*
X129576812Y-51966336D01*
X129403458Y-51753568D01*
X129191926Y-51578708D01*
X128950345Y-51448476D01*
X128687999Y-51367876D01*
X128678253Y-51365940D01*
X128460000Y-51478490D01*
X128360000Y-51478490D01*
X128141747Y-51365940D01*
X128132001Y-51367876D01*
X127869655Y-51448476D01*
X127628074Y-51578708D01*
X127416542Y-51753568D01*
X127243188Y-51966336D01*
X127114674Y-52208835D01*
X127038469Y-52463296D01*
X127023884Y-52389973D01*
X126933426Y-52171587D01*
X126802101Y-51975045D01*
X126634955Y-51807899D01*
X126438413Y-51676574D01*
X126220027Y-51586116D01*
X125988190Y-51540000D01*
X125751810Y-51540000D01*
X125519973Y-51586116D01*
X125301587Y-51676574D01*
X125105045Y-51807899D01*
X124937899Y-51975045D01*
X124806574Y-52171587D01*
X124716116Y-52389973D01*
X124670000Y-52621810D01*
X124530000Y-52621810D01*
X124483884Y-52389973D01*
X124393426Y-52171587D01*
X124262101Y-51975045D01*
X124094955Y-51807899D01*
X123898413Y-51676574D01*
X123680027Y-51586116D01*
X123448190Y-51540000D01*
X123211810Y-51540000D01*
X122979973Y-51586116D01*
X122761587Y-51676574D01*
X122565045Y-51807899D01*
X122397899Y-51975045D01*
X122266574Y-52171587D01*
X122176116Y-52389973D01*
X122130000Y-52621810D01*
X121991693Y-52621810D01*
X121991693Y-51890000D01*
X121984935Y-51821388D01*
X121964922Y-51755413D01*
X121932422Y-51694610D01*
X121888685Y-51641315D01*
X121835390Y-51597578D01*
X121774587Y-51565078D01*
X121708612Y-51545065D01*
X121640000Y-51538307D01*
X119940000Y-51538307D01*
X119871388Y-51545065D01*
X119805413Y-51565078D01*
X119744610Y-51597578D01*
X119691315Y-51641315D01*
X119647578Y-51694610D01*
X119615078Y-51755413D01*
X119595065Y-51821388D01*
X119588307Y-51890000D01*
X119588307Y-51989990D01*
X114308517Y-51989990D01*
X114210113Y-51891586D01*
X114191317Y-51868683D01*
X114099955Y-51793704D01*
X113995721Y-51737990D01*
X113882621Y-51703682D01*
X113794474Y-51695000D01*
X113765000Y-51692097D01*
X113735526Y-51695000D01*
X113083050Y-51695000D01*
X113011504Y-51636284D01*
X112916124Y-51585302D01*
X112812630Y-51553908D01*
X112705000Y-51543307D01*
X112155000Y-51543307D01*
X112047370Y-51553908D01*
X111943876Y-51585302D01*
X111848496Y-51636284D01*
X111776950Y-51695000D01*
X111546806Y-51695000D01*
X111480393Y-51640497D01*
X111380691Y-51587205D01*
X111272507Y-51554388D01*
X111160000Y-51543307D01*
X110660000Y-51543307D01*
X110547493Y-51554388D01*
X110439309Y-51587205D01*
X110339607Y-51640497D01*
X110252216Y-51712216D01*
X110225311Y-51745000D01*
X109932074Y-51745000D01*
X109859598Y-51714979D01*
X109734019Y-51690000D01*
X109605981Y-51690000D01*
X109480402Y-51714979D01*
X109362110Y-51763978D01*
X109255649Y-51835112D01*
X109165112Y-51925649D01*
X109093978Y-52032110D01*
X109044979Y-52150402D01*
X109020000Y-52275981D01*
X109020000Y-52404019D01*
X109044979Y-52529598D01*
X109093978Y-52647890D01*
X109165112Y-52754351D01*
X109255649Y-52844888D01*
X109362110Y-52916022D01*
X109480402Y-52965021D01*
X109605981Y-52990000D01*
X109734019Y-52990000D01*
X109859598Y-52965021D01*
X109907932Y-52945000D01*
X110203690Y-52945000D01*
X110127958Y-52985479D01*
X110044210Y-53054210D01*
X109975479Y-53137958D01*
X109924408Y-53233506D01*
X109892958Y-53337181D01*
X109882339Y-53445000D01*
X109885000Y-53707500D01*
X110022500Y-53845000D01*
X110860000Y-53845000D01*
X110860000Y-53825000D01*
X110960000Y-53825000D01*
X110960000Y-53845000D01*
X110980000Y-53845000D01*
X110980000Y-53945000D01*
X110960000Y-53945000D01*
X110960000Y-54757500D01*
X111097500Y-54895000D01*
X111385000Y-54897661D01*
X111492819Y-54887042D01*
X111596494Y-54855592D01*
X111692042Y-54804521D01*
X111775790Y-54735790D01*
X111844521Y-54652042D01*
X111865495Y-54612802D01*
X111943876Y-54654698D01*
X112047370Y-54686092D01*
X112155000Y-54696693D01*
X112705000Y-54696693D01*
X112812630Y-54686092D01*
X112916124Y-54654698D01*
X113011504Y-54603716D01*
X113095106Y-54535106D01*
X113163716Y-54451504D01*
X113178307Y-54424206D01*
X113178307Y-54890000D01*
X113188908Y-54997630D01*
X113220302Y-55101124D01*
X113271284Y-55196504D01*
X113339894Y-55280106D01*
X113423496Y-55348716D01*
X113518876Y-55399698D01*
X113622370Y-55431092D01*
X113730000Y-55441693D01*
X114130000Y-55441693D01*
X114237630Y-55431092D01*
X114341124Y-55399698D01*
X114433094Y-55350539D01*
X114445280Y-55373336D01*
X114463934Y-55396066D01*
X114486664Y-55414720D01*
X114512597Y-55428582D01*
X114540736Y-55437118D01*
X114570000Y-55440000D01*
X117305734Y-55440000D01*
X117339210Y-55480790D01*
X117422958Y-55549521D01*
X117518506Y-55600592D01*
X117622181Y-55632042D01*
X117730000Y-55642661D01*
X117942500Y-55640000D01*
X118080000Y-55502500D01*
X118080000Y-54140000D01*
X118180000Y-54140000D01*
X118180000Y-55502500D01*
X118317500Y-55640000D01*
X118530000Y-55642661D01*
X118637819Y-55632042D01*
X118741494Y-55600592D01*
X118837042Y-55549521D01*
X118920790Y-55480790D01*
X118989521Y-55397042D01*
X119040592Y-55301494D01*
X119072042Y-55197819D01*
X119082661Y-55090000D01*
X119080000Y-54277500D01*
X118942500Y-54140000D01*
X118180000Y-54140000D01*
X118080000Y-54140000D01*
X118060000Y-54140000D01*
X118060000Y-54040000D01*
X118080000Y-54040000D01*
X118080000Y-54020000D01*
X118180000Y-54020000D01*
X118180000Y-54040000D01*
X118942500Y-54040000D01*
X119080000Y-53902500D01*
X119082334Y-53189990D01*
X119588307Y-53189990D01*
X119588307Y-53590000D01*
X119595065Y-53658612D01*
X119615078Y-53724587D01*
X119647578Y-53785390D01*
X119691315Y-53838685D01*
X119744610Y-53882422D01*
X119805413Y-53914922D01*
X119871388Y-53934935D01*
X119940000Y-53941693D01*
X120190001Y-53941693D01*
X120190001Y-54691469D01*
X118136585Y-56744886D01*
X118113682Y-56763682D01*
X118038703Y-56855045D01*
X117982989Y-56959279D01*
X117959542Y-57036574D01*
X117948681Y-57072379D01*
X117937096Y-57189999D01*
X117939999Y-57219473D01*
X117940000Y-58283694D01*
X117529368Y-59080000D01*
X117104477Y-59080000D01*
X117094888Y-59065649D01*
X117004351Y-58975112D01*
X116897890Y-58903978D01*
X116837484Y-58878957D01*
X116405113Y-58446586D01*
X116386317Y-58423683D01*
X116294955Y-58348704D01*
X116190721Y-58292990D01*
X116077621Y-58258682D01*
X115989474Y-58250000D01*
X115960000Y-58247097D01*
X115930526Y-58250000D01*
X109589473Y-58250000D01*
X109559999Y-58247097D01*
X109442378Y-58258682D01*
X109408070Y-58269089D01*
X109329279Y-58292990D01*
X109225045Y-58348704D01*
X109133683Y-58423683D01*
X109114895Y-58446576D01*
X108316586Y-59244887D01*
X108293683Y-59263683D01*
X108218704Y-59355046D01*
X108162990Y-59459280D01*
X108141319Y-59530720D01*
X108128682Y-59572380D01*
X108117097Y-59690000D01*
X108120000Y-59719474D01*
X108120001Y-61230517D01*
X108117097Y-61260000D01*
X108128682Y-61377620D01*
X108155175Y-61464954D01*
X108162991Y-61490721D01*
X108218705Y-61594955D01*
X108293684Y-61686317D01*
X108316581Y-61705108D01*
X109124891Y-62513419D01*
X109143683Y-62536317D01*
X109235045Y-62611296D01*
X109320037Y-62656725D01*
X109339279Y-62667010D01*
X109452379Y-62701319D01*
X109570000Y-62712903D01*
X109599476Y-62710000D01*
X110159997Y-62710000D01*
X110220402Y-62735021D01*
X110345981Y-62760000D01*
X110474019Y-62760000D01*
X110599598Y-62735021D01*
X110717890Y-62686022D01*
X110824351Y-62614888D01*
X110914888Y-62524351D01*
X110986022Y-62417890D01*
X111035021Y-62299598D01*
X111060000Y-62174019D01*
X111060000Y-62045981D01*
X111035021Y-61920402D01*
X110986022Y-61802110D01*
X110914888Y-61695649D01*
X110824351Y-61605112D01*
X110717890Y-61533978D01*
X110599598Y-61484979D01*
X110474019Y-61460000D01*
X110345981Y-61460000D01*
X110220402Y-61484979D01*
X110159997Y-61510000D01*
X109818528Y-61510000D01*
X109320000Y-61011473D01*
X109320000Y-59938527D01*
X109808529Y-59450000D01*
X115711473Y-59450000D01*
X115988957Y-59727484D01*
X116013978Y-59787890D01*
X116085112Y-59894351D01*
X116175649Y-59984888D01*
X116282110Y-60056022D01*
X116342517Y-60081044D01*
X116344887Y-60083414D01*
X116363683Y-60106317D01*
X116455045Y-60181296D01*
X116559279Y-60237010D01*
X116592242Y-60247009D01*
X116672379Y-60271318D01*
X116790000Y-60282903D01*
X116819474Y-60280000D01*
X118370526Y-60280000D01*
X118400000Y-60282903D01*
X118429474Y-60280000D01*
X118517621Y-60271318D01*
X118536829Y-60265491D01*
X118779717Y-60264444D01*
X118802379Y-60271319D01*
X118920000Y-60282903D01*
X118949476Y-60280000D01*
X124251475Y-60280000D01*
X125300000Y-61328526D01*
X125300000Y-61960526D01*
X125297097Y-61990000D01*
X125300000Y-62019473D01*
X125308682Y-62107620D01*
X125342990Y-62220720D01*
X125398704Y-62324954D01*
X125473683Y-62416317D01*
X125496586Y-62435113D01*
X125954206Y-62892733D01*
X125952087Y-62914244D01*
X125954990Y-62943717D01*
X125963672Y-63031864D01*
X125997980Y-63144964D01*
X126000001Y-63148745D01*
X126000000Y-64000526D01*
X125997097Y-64030000D01*
X126000001Y-64059484D01*
X126000000Y-68631472D01*
X123631473Y-71000000D01*
X118868528Y-71000000D01*
X118525113Y-70656585D01*
X118506317Y-70633683D01*
X118414955Y-70558704D01*
X118310721Y-70502990D01*
X118197621Y-70468682D01*
X118162646Y-70465237D01*
X118089598Y-70434979D01*
X117964019Y-70410000D01*
X117835981Y-70410000D01*
X117710402Y-70434979D01*
X117649997Y-70460000D01*
X116920003Y-70460000D01*
X116859598Y-70434979D01*
X116734019Y-70410000D01*
X116605981Y-70410000D01*
X116480402Y-70434979D01*
X116419997Y-70460000D01*
X113982482Y-70460000D01*
X113917556Y-70424501D01*
X113794481Y-70385889D01*
X113666237Y-70372030D01*
X111556237Y-70352030D01*
X111420714Y-70364826D01*
X111297331Y-70402446D01*
X111183658Y-70463413D01*
X111084063Y-70545385D01*
X111002374Y-70645212D01*
X110941730Y-70759058D01*
X110904462Y-70882547D01*
X110892001Y-71010935D01*
X110894501Y-72770935D01*
X110897861Y-72836425D01*
X110923399Y-72962862D01*
X110973112Y-73081888D01*
X111045092Y-73188928D01*
X111079571Y-73223205D01*
X111056740Y-73257374D01*
X110992665Y-73412064D01*
X110960000Y-73576282D01*
X110960000Y-73743718D01*
X110992665Y-73907936D01*
X111056740Y-74062626D01*
X111149762Y-74201844D01*
X111215748Y-74267830D01*
X111218682Y-74297620D01*
X111220001Y-74301968D01*
X111220001Y-74963001D01*
X111172216Y-75002216D01*
X111100497Y-75089607D01*
X111047205Y-75189309D01*
X111014388Y-75297493D01*
X111003307Y-75410000D01*
X111003307Y-75910000D01*
X111014388Y-76022507D01*
X111047205Y-76130691D01*
X111100497Y-76230393D01*
X111172216Y-76317784D01*
X111220000Y-76356999D01*
X111220000Y-76481462D01*
X111160386Y-76530386D01*
X111089444Y-76616829D01*
X111036729Y-76715451D01*
X111004268Y-76822462D01*
X110993307Y-76933750D01*
X110993307Y-76982288D01*
X110906670Y-77052786D01*
X110824424Y-77152154D01*
X110763144Y-77265659D01*
X110725185Y-77388938D01*
X110712006Y-77517254D01*
X110704382Y-79343836D01*
X110716407Y-79471832D01*
X110753254Y-79595448D01*
X110813509Y-79709500D01*
X110880000Y-79791322D01*
X110880000Y-80036082D01*
X110823171Y-79989444D01*
X110724549Y-79936729D01*
X110617538Y-79904268D01*
X110506250Y-79893307D01*
X110068750Y-79893307D01*
X109957462Y-79904268D01*
X109850451Y-79936729D01*
X109751829Y-79989444D01*
X109665386Y-80060386D01*
X109594444Y-80146829D01*
X109541729Y-80245451D01*
X109509268Y-80352462D01*
X109500000Y-80446561D01*
X109490732Y-80352462D01*
X109458271Y-80245451D01*
X109405556Y-80146829D01*
X109334614Y-80060386D01*
X109300000Y-80031979D01*
X109300000Y-79272082D01*
X109360238Y-79211844D01*
X109453260Y-79072626D01*
X109517335Y-78917936D01*
X109550000Y-78753718D01*
X109550000Y-78586282D01*
X109517335Y-78422064D01*
X109453260Y-78267374D01*
X109360238Y-78128156D01*
X109300000Y-78067918D01*
X109300000Y-77686768D01*
X109318612Y-77684935D01*
X109384587Y-77664922D01*
X109445390Y-77632422D01*
X109498685Y-77588685D01*
X109542422Y-77535390D01*
X109574922Y-77474587D01*
X109594935Y-77408612D01*
X109601693Y-77340000D01*
X109601693Y-76240000D01*
X109594935Y-76171388D01*
X109574922Y-76105413D01*
X109542422Y-76044610D01*
X109498685Y-75991315D01*
X109445390Y-75947578D01*
X109384587Y-75915078D01*
X109318612Y-75895065D01*
X109250000Y-75888307D01*
X108150000Y-75888307D01*
X108081388Y-75895065D01*
X108015413Y-75915078D01*
X107954610Y-75947578D01*
X107901315Y-75991315D01*
X107857578Y-76044610D01*
X107825078Y-76105413D01*
X107805065Y-76171388D01*
X107798307Y-76240000D01*
X106189756Y-76240000D01*
X106195046Y-76181414D01*
X106173098Y-75975750D01*
X106111449Y-75778320D01*
X106022009Y-75610986D01*
X105823219Y-75577491D01*
X105210711Y-76190000D01*
X105069289Y-76190000D01*
X104456781Y-75577491D01*
X104257991Y-75610986D01*
X104161979Y-75794184D01*
X104103551Y-75992591D01*
X104084954Y-76198586D01*
X100375000Y-76198586D01*
X100375000Y-75506781D01*
X104527491Y-75506781D01*
X105140000Y-76119289D01*
X105752509Y-75506781D01*
X105719014Y-75307991D01*
X105535816Y-75211979D01*
X105337409Y-75153551D01*
X105131414Y-75134954D01*
X104925750Y-75156902D01*
X104728320Y-75218551D01*
X104560986Y-75307991D01*
X104527491Y-75506781D01*
X100375000Y-75506781D01*
X100375000Y-71155709D01*
X100396985Y-71236490D01*
X100480751Y-71413997D01*
X100597537Y-71571752D01*
X100742856Y-71703692D01*
X100911122Y-71804746D01*
X101095870Y-71871031D01*
X101290000Y-71900000D01*
X101690000Y-71900000D01*
X101690000Y-70950000D01*
X101790000Y-70950000D01*
X101790000Y-71900000D01*
X102190000Y-71900000D01*
X102384130Y-71871031D01*
X102568878Y-71804746D01*
X102737144Y-71703692D01*
X102882463Y-71571752D01*
X102999249Y-71413997D01*
X103083015Y-71236490D01*
X103118631Y-71105623D01*
X103391369Y-71105623D01*
X103426985Y-71236490D01*
X103510751Y-71413997D01*
X103627537Y-71571752D01*
X103772856Y-71703692D01*
X103941122Y-71804746D01*
X104125870Y-71871031D01*
X104320000Y-71900000D01*
X105070000Y-71900000D01*
X105070000Y-70950000D01*
X105170000Y-70950000D01*
X105170000Y-71900000D01*
X105920000Y-71900000D01*
X106114130Y-71871031D01*
X106298878Y-71804746D01*
X106467144Y-71703692D01*
X106612463Y-71571752D01*
X106729249Y-71413997D01*
X106813015Y-71236490D01*
X106848631Y-71105623D01*
X106731050Y-70950000D01*
X105170000Y-70950000D01*
X105070000Y-70950000D01*
X103508950Y-70950000D01*
X103391369Y-71105623D01*
X103118631Y-71105623D01*
X103001050Y-70950000D01*
X101790000Y-70950000D01*
X101690000Y-70950000D01*
X101670000Y-70950000D01*
X101670000Y-70850000D01*
X101690000Y-70850000D01*
X101690000Y-69900000D01*
X101790000Y-69900000D01*
X101790000Y-70850000D01*
X103001050Y-70850000D01*
X103118631Y-70694377D01*
X103083015Y-70563510D01*
X102999249Y-70386003D01*
X102882463Y-70228248D01*
X102737144Y-70096308D01*
X102568878Y-69995254D01*
X102384130Y-69928969D01*
X102190000Y-69900000D01*
X101790000Y-69900000D01*
X101690000Y-69900000D01*
X101290000Y-69900000D01*
X101095870Y-69928969D01*
X100911122Y-69995254D01*
X100742856Y-70096308D01*
X100597537Y-70228248D01*
X100480751Y-70386003D01*
X100396985Y-70563510D01*
X100375000Y-70644291D01*
X100375000Y-64825737D01*
X103347096Y-64825737D01*
X103349999Y-64855211D01*
X103350000Y-68294779D01*
X103347096Y-68324263D01*
X103358681Y-68441883D01*
X103385874Y-68531526D01*
X103392990Y-68554984D01*
X103448704Y-68659218D01*
X103523683Y-68750580D01*
X103546580Y-68769371D01*
X103880627Y-69103419D01*
X103899419Y-69126317D01*
X103978726Y-69191402D01*
X103954740Y-69238438D01*
X103909238Y-69399572D01*
X103896046Y-69566488D01*
X103915671Y-69732769D01*
X103967359Y-69892027D01*
X104009435Y-69970744D01*
X103941122Y-69995254D01*
X103772856Y-70096308D01*
X103627537Y-70228248D01*
X103510751Y-70386003D01*
X103426985Y-70563510D01*
X103391369Y-70694377D01*
X103508950Y-70850000D01*
X105070000Y-70850000D01*
X105070000Y-70339790D01*
X105092027Y-70332641D01*
X105170000Y-70290963D01*
X105170000Y-70850000D01*
X106731050Y-70850000D01*
X106848631Y-70694377D01*
X106813015Y-70563510D01*
X106729249Y-70386003D01*
X106612463Y-70228248D01*
X106565149Y-70185290D01*
X106570132Y-70090843D01*
X106100000Y-69620711D01*
X106085858Y-69634853D01*
X106015147Y-69564142D01*
X106029289Y-69550000D01*
X106015147Y-69535858D01*
X106085858Y-69465147D01*
X106100000Y-69479289D01*
X106114142Y-69465147D01*
X106184853Y-69535858D01*
X106170711Y-69550000D01*
X106640843Y-70020132D01*
X106819196Y-70010723D01*
X106895260Y-69861562D01*
X106940762Y-69700428D01*
X106941574Y-69690157D01*
X106963474Y-69688000D01*
X108090000Y-69688000D01*
X108090001Y-73094217D01*
X108081388Y-73095065D01*
X108015413Y-73115078D01*
X107954610Y-73147578D01*
X107901315Y-73191315D01*
X107857578Y-73244610D01*
X107825078Y-73305413D01*
X107805065Y-73371388D01*
X107798307Y-73440000D01*
X107798307Y-74540000D01*
X107805065Y-74608612D01*
X107825078Y-74674587D01*
X107857578Y-74735390D01*
X107901315Y-74788685D01*
X107954610Y-74832422D01*
X108015413Y-74864922D01*
X108081388Y-74884935D01*
X108150000Y-74891693D01*
X109250000Y-74891693D01*
X109318612Y-74884935D01*
X109384587Y-74864922D01*
X109445390Y-74832422D01*
X109498685Y-74788685D01*
X109542422Y-74735390D01*
X109574922Y-74674587D01*
X109594935Y-74608612D01*
X109601693Y-74540000D01*
X109601693Y-73440000D01*
X109594935Y-73371388D01*
X109574922Y-73305413D01*
X109542422Y-73244610D01*
X109498685Y-73191315D01*
X109445390Y-73147578D01*
X109384587Y-73115078D01*
X109318612Y-73095065D01*
X109290000Y-73092247D01*
X109290000Y-69714807D01*
X109373278Y-69584107D01*
X109431919Y-69535981D01*
X109700000Y-69535981D01*
X109700000Y-69664019D01*
X109724979Y-69789598D01*
X109773978Y-69907890D01*
X109845112Y-70014351D01*
X109935649Y-70104888D01*
X110042110Y-70176022D01*
X110122780Y-70209437D01*
X110125045Y-70211296D01*
X110229279Y-70267010D01*
X110342379Y-70301318D01*
X110430526Y-70310000D01*
X110430533Y-70310000D01*
X110459999Y-70312902D01*
X110489465Y-70310000D01*
X123500526Y-70310000D01*
X123530000Y-70312903D01*
X123559474Y-70310000D01*
X123647621Y-70301318D01*
X123760721Y-70267010D01*
X123864955Y-70211296D01*
X123956317Y-70136317D01*
X123975113Y-70113414D01*
X125523419Y-68565109D01*
X125546317Y-68546317D01*
X125621296Y-68454955D01*
X125677010Y-68350721D01*
X125685929Y-68321318D01*
X125711319Y-68237621D01*
X125722903Y-68120000D01*
X125720000Y-68090524D01*
X125720000Y-66619476D01*
X125722903Y-66590000D01*
X125711319Y-66472379D01*
X125708422Y-66462828D01*
X125731296Y-66434955D01*
X125787010Y-66330721D01*
X125821318Y-66217621D01*
X125830000Y-66129474D01*
X125830000Y-66129473D01*
X125832903Y-66100001D01*
X125830000Y-66070527D01*
X125830000Y-63129474D01*
X125832903Y-63100000D01*
X125821318Y-62982379D01*
X125787010Y-62869279D01*
X125783524Y-62862757D01*
X125731296Y-62765045D01*
X125656317Y-62673683D01*
X125633419Y-62654891D01*
X123705113Y-60726586D01*
X123686317Y-60703683D01*
X123594955Y-60628704D01*
X123490721Y-60572990D01*
X123377621Y-60538682D01*
X123289474Y-60530000D01*
X123260000Y-60527097D01*
X123230526Y-60530000D01*
X113328528Y-60530000D01*
X112885113Y-60086586D01*
X112866317Y-60063683D01*
X112774955Y-59988704D01*
X112670721Y-59932990D01*
X112557621Y-59898682D01*
X112469474Y-59890000D01*
X112440000Y-59887097D01*
X112410526Y-59890000D01*
X110617935Y-59890000D01*
X110569598Y-59869978D01*
X110444019Y-59844999D01*
X110315981Y-59844999D01*
X110190402Y-59869978D01*
X110072110Y-59918977D01*
X109965649Y-59990111D01*
X109875112Y-60080648D01*
X109803978Y-60187109D01*
X109754979Y-60305401D01*
X109730000Y-60430980D01*
X109730000Y-60559018D01*
X109754979Y-60684597D01*
X109803978Y-60802889D01*
X109875112Y-60909350D01*
X109965649Y-60999887D01*
X110072110Y-61071021D01*
X110190402Y-61120020D01*
X110315981Y-61144999D01*
X110444019Y-61144999D01*
X110569598Y-61120020D01*
X110642071Y-61090000D01*
X112191473Y-61090000D01*
X112634891Y-61533419D01*
X112653683Y-61556317D01*
X112745045Y-61631296D01*
X112849279Y-61687010D01*
X112962379Y-61721318D01*
X113080000Y-61732903D01*
X113109474Y-61730000D01*
X123011473Y-61730000D01*
X124630001Y-63348529D01*
X124630000Y-65820710D01*
X124622110Y-65823978D01*
X124515649Y-65895112D01*
X124425112Y-65985649D01*
X124353978Y-66092110D01*
X124304979Y-66210402D01*
X124280000Y-66335981D01*
X124280000Y-66464019D01*
X124304979Y-66589598D01*
X124353978Y-66707890D01*
X124425112Y-66814351D01*
X124515649Y-66904888D01*
X124520000Y-66907795D01*
X124520001Y-67871471D01*
X123281473Y-69110000D01*
X110779239Y-69110000D01*
X110764351Y-69095112D01*
X110657890Y-69023978D01*
X110539598Y-68974979D01*
X110414019Y-68950000D01*
X110285981Y-68950000D01*
X110160402Y-68974979D01*
X110042110Y-69023978D01*
X109935649Y-69095112D01*
X109845112Y-69185649D01*
X109773978Y-69292110D01*
X109724979Y-69410402D01*
X109700000Y-69535981D01*
X109431919Y-69535981D01*
X109458317Y-69514317D01*
X109477113Y-69491414D01*
X110226835Y-68741693D01*
X110890000Y-68741693D01*
X110958612Y-68734935D01*
X111024587Y-68714922D01*
X111085390Y-68682422D01*
X111138685Y-68638685D01*
X111182422Y-68585390D01*
X111214922Y-68524587D01*
X111234935Y-68458612D01*
X111241693Y-68390000D01*
X111241693Y-68256013D01*
X112679966Y-68256013D01*
X112679966Y-68384051D01*
X112704945Y-68509630D01*
X112753944Y-68627922D01*
X112825078Y-68734383D01*
X112915615Y-68824920D01*
X113022076Y-68896054D01*
X113140368Y-68945053D01*
X113265947Y-68970032D01*
X113393985Y-68970032D01*
X113519564Y-68945053D01*
X113637856Y-68896054D01*
X113676801Y-68870032D01*
X118932960Y-68870032D01*
X118959968Y-68872692D01*
X118986976Y-68870032D01*
X118986986Y-68870032D01*
X119067787Y-68862074D01*
X119171462Y-68830624D01*
X119267010Y-68779553D01*
X119350758Y-68710822D01*
X119367981Y-68689836D01*
X119773127Y-68284690D01*
X119808496Y-68313716D01*
X119903876Y-68364698D01*
X120007370Y-68396092D01*
X120115000Y-68406693D01*
X120665000Y-68406693D01*
X120772630Y-68396092D01*
X120876124Y-68364698D01*
X120971504Y-68313716D01*
X121055106Y-68245106D01*
X121123716Y-68161504D01*
X121150076Y-68112188D01*
X121170497Y-68150393D01*
X121242216Y-68237784D01*
X121329607Y-68309503D01*
X121429309Y-68362795D01*
X121537493Y-68395612D01*
X121650000Y-68406693D01*
X121875298Y-68406693D01*
X121929998Y-68461394D01*
X121929998Y-68514019D01*
X121954977Y-68639598D01*
X122003976Y-68757890D01*
X122075110Y-68864351D01*
X122165647Y-68954888D01*
X122272108Y-69026022D01*
X122390400Y-69075021D01*
X122515979Y-69100000D01*
X122644017Y-69100000D01*
X122769596Y-69075021D01*
X122887888Y-69026022D01*
X122994349Y-68954888D01*
X123084886Y-68864351D01*
X123156020Y-68757890D01*
X123205019Y-68639598D01*
X123222504Y-68551693D01*
X123570000Y-68551693D01*
X123677630Y-68541092D01*
X123781124Y-68509698D01*
X123876504Y-68458716D01*
X123960106Y-68390106D01*
X124028716Y-68306504D01*
X124079698Y-68211124D01*
X124111092Y-68107630D01*
X124121693Y-68000000D01*
X124121693Y-66400000D01*
X124111092Y-66292370D01*
X124079698Y-66188876D01*
X124028716Y-66093496D01*
X123960106Y-66009894D01*
X123876504Y-65941284D01*
X123781124Y-65890302D01*
X123677630Y-65858908D01*
X123570000Y-65848307D01*
X123170000Y-65848307D01*
X123062370Y-65858908D01*
X122958876Y-65890302D01*
X122863496Y-65941284D01*
X122795017Y-65997483D01*
X122925000Y-65867500D01*
X122927661Y-65605000D01*
X122917042Y-65497181D01*
X122885592Y-65393506D01*
X122834521Y-65297958D01*
X122765790Y-65214210D01*
X122687551Y-65150000D01*
X124430742Y-65150000D01*
X124459161Y-65147283D01*
X124487349Y-65138909D01*
X124513361Y-65125196D01*
X124536198Y-65106673D01*
X124554982Y-65084049D01*
X124568992Y-65058196D01*
X124577690Y-65030107D01*
X124580740Y-65000860D01*
X124589916Y-63400860D01*
X124587036Y-63370736D01*
X124578500Y-63342597D01*
X124564638Y-63316664D01*
X124545984Y-63293934D01*
X124523254Y-63275280D01*
X124497321Y-63261418D01*
X124469182Y-63252882D01*
X124439918Y-63250000D01*
X123380082Y-63250000D01*
X123350830Y-63252880D01*
X123322690Y-63261414D01*
X123296756Y-63275273D01*
X123274024Y-63293926D01*
X123255368Y-63316655D01*
X123241504Y-63342587D01*
X123232966Y-63370725D01*
X123230082Y-63399989D01*
X123230011Y-64320000D01*
X121360000Y-64320000D01*
X121333724Y-64322319D01*
X121305417Y-64330283D01*
X121279209Y-64343616D01*
X121256105Y-64361806D01*
X121236994Y-64384154D01*
X121222610Y-64409801D01*
X121213505Y-64437761D01*
X121210031Y-64466960D01*
X121199289Y-64996960D01*
X121202140Y-65029264D01*
X121210676Y-65057403D01*
X121224538Y-65083336D01*
X121229614Y-65089522D01*
X121213506Y-65094408D01*
X121117958Y-65145479D01*
X121034210Y-65214210D01*
X120965479Y-65297958D01*
X120946727Y-65333040D01*
X120876124Y-65295302D01*
X120772630Y-65263908D01*
X120665000Y-65253307D01*
X120115000Y-65253307D01*
X120007370Y-65263908D01*
X119903876Y-65295302D01*
X119808496Y-65346284D01*
X119724894Y-65414894D01*
X119658408Y-65495908D01*
X119572500Y-65410000D01*
X118210000Y-65410000D01*
X118210000Y-66772500D01*
X118347500Y-66910000D01*
X118964990Y-66912022D01*
X118964990Y-67537193D01*
X118732151Y-67770032D01*
X113676801Y-67770032D01*
X113637856Y-67744010D01*
X113519564Y-67695011D01*
X113393985Y-67670032D01*
X113265947Y-67670032D01*
X113140368Y-67695011D01*
X113022076Y-67744010D01*
X112915615Y-67815144D01*
X112825078Y-67905681D01*
X112753944Y-68012142D01*
X112704945Y-68130434D01*
X112679966Y-68256013D01*
X111241693Y-68256013D01*
X111241693Y-66990000D01*
X111234935Y-66921388D01*
X111214922Y-66855413D01*
X111182422Y-66794610D01*
X111138685Y-66741315D01*
X111085390Y-66697578D01*
X111056262Y-66682008D01*
X111117042Y-66649521D01*
X111200790Y-66580790D01*
X111269521Y-66497042D01*
X111320592Y-66401494D01*
X111333179Y-66360000D01*
X116607339Y-66360000D01*
X116617958Y-66467819D01*
X116649408Y-66571494D01*
X116700479Y-66667042D01*
X116769210Y-66750790D01*
X116852958Y-66819521D01*
X116948506Y-66870592D01*
X117052181Y-66902042D01*
X117160000Y-66912661D01*
X117972500Y-66910000D01*
X118110000Y-66772500D01*
X118110000Y-65410000D01*
X116747500Y-65410000D01*
X116610000Y-65547500D01*
X116607339Y-66360000D01*
X111333179Y-66360000D01*
X111352042Y-66297819D01*
X111362661Y-66190000D01*
X111360000Y-65677500D01*
X111222500Y-65540000D01*
X110260000Y-65540000D01*
X110260000Y-65560000D01*
X110160000Y-65560000D01*
X110160000Y-65540000D01*
X110140000Y-65540000D01*
X110140000Y-65440000D01*
X110160000Y-65440000D01*
X110160000Y-64377500D01*
X110260000Y-64377500D01*
X110260000Y-65440000D01*
X111222500Y-65440000D01*
X111360000Y-65302500D01*
X111362661Y-64790000D01*
X111352042Y-64682181D01*
X111320592Y-64578506D01*
X111269521Y-64482958D01*
X111200790Y-64399210D01*
X111153014Y-64360000D01*
X116607339Y-64360000D01*
X116610000Y-65172500D01*
X116747500Y-65310000D01*
X118110000Y-65310000D01*
X118110000Y-63947500D01*
X118210000Y-63947500D01*
X118210000Y-65310000D01*
X119572500Y-65310000D01*
X119710000Y-65172500D01*
X119712661Y-64360000D01*
X119702042Y-64252181D01*
X119670592Y-64148506D01*
X119619521Y-64052958D01*
X119550790Y-63969210D01*
X119467042Y-63900479D01*
X119371494Y-63849408D01*
X119267819Y-63817958D01*
X119160000Y-63807339D01*
X118347500Y-63810000D01*
X118210000Y-63947500D01*
X118110000Y-63947500D01*
X117972500Y-63810000D01*
X117160000Y-63807339D01*
X117052181Y-63817958D01*
X116948506Y-63849408D01*
X116852958Y-63900479D01*
X116769210Y-63969210D01*
X116700479Y-64052958D01*
X116649408Y-64148506D01*
X116617958Y-64252181D01*
X116607339Y-64360000D01*
X111153014Y-64360000D01*
X111117042Y-64330479D01*
X111021494Y-64279408D01*
X110917819Y-64247958D01*
X110810000Y-64237339D01*
X110397500Y-64240000D01*
X110260000Y-64377500D01*
X110160000Y-64377500D01*
X110022500Y-64240000D01*
X109610000Y-64237339D01*
X109502181Y-64247958D01*
X109398506Y-64279408D01*
X109302958Y-64330479D01*
X109254802Y-64370000D01*
X106746821Y-64370000D01*
X106725021Y-64260402D01*
X106676022Y-64142110D01*
X106604888Y-64035649D01*
X106514351Y-63945112D01*
X106407890Y-63873978D01*
X106289598Y-63824979D01*
X106245496Y-63816207D01*
X106100000Y-63670711D01*
X106085858Y-63684853D01*
X106015147Y-63614142D01*
X106029289Y-63600000D01*
X106170711Y-63600000D01*
X106640843Y-64070132D01*
X106819196Y-64060723D01*
X106895260Y-63911562D01*
X106940762Y-63750428D01*
X106953954Y-63583512D01*
X106934329Y-63417231D01*
X106882641Y-63257973D01*
X106819196Y-63139277D01*
X106640843Y-63129868D01*
X106170711Y-63600000D01*
X106029289Y-63600000D01*
X106015147Y-63585858D01*
X106085858Y-63515147D01*
X106100000Y-63529289D01*
X106570132Y-63059157D01*
X106565149Y-62964710D01*
X106612463Y-62921752D01*
X106729249Y-62763997D01*
X106813015Y-62586490D01*
X106848631Y-62455623D01*
X106731050Y-62300000D01*
X105170000Y-62300000D01*
X105170000Y-62860037D01*
X105070000Y-62809043D01*
X105070000Y-62300000D01*
X103508950Y-62300000D01*
X103391369Y-62455623D01*
X103426985Y-62586490D01*
X103510751Y-62763997D01*
X103627537Y-62921752D01*
X103772856Y-63053692D01*
X103941122Y-63154746D01*
X104010265Y-63179554D01*
X103954740Y-63288438D01*
X103909238Y-63449572D01*
X103896046Y-63616488D01*
X103915671Y-63782769D01*
X103967359Y-63942027D01*
X103976981Y-63960029D01*
X103899419Y-64023683D01*
X103880627Y-64046581D01*
X103546585Y-64380624D01*
X103523682Y-64399420D01*
X103448703Y-64490783D01*
X103392989Y-64595017D01*
X103365661Y-64685106D01*
X103358681Y-64708117D01*
X103347096Y-64825737D01*
X100375000Y-64825737D01*
X100375000Y-62505709D01*
X100396985Y-62586490D01*
X100480751Y-62763997D01*
X100597537Y-62921752D01*
X100742856Y-63053692D01*
X100911122Y-63154746D01*
X101095870Y-63221031D01*
X101290000Y-63250000D01*
X101690000Y-63250000D01*
X101690000Y-62300000D01*
X101790000Y-62300000D01*
X101790000Y-63250000D01*
X102190000Y-63250000D01*
X102384130Y-63221031D01*
X102568878Y-63154746D01*
X102737144Y-63053692D01*
X102882463Y-62921752D01*
X102999249Y-62763997D01*
X103083015Y-62586490D01*
X103118631Y-62455623D01*
X103001050Y-62300000D01*
X101790000Y-62300000D01*
X101690000Y-62300000D01*
X101670000Y-62300000D01*
X101670000Y-62200000D01*
X101690000Y-62200000D01*
X101690000Y-61250000D01*
X101790000Y-61250000D01*
X101790000Y-62200000D01*
X103001050Y-62200000D01*
X103118631Y-62044377D01*
X103391369Y-62044377D01*
X103508950Y-62200000D01*
X105070000Y-62200000D01*
X105070000Y-61250000D01*
X105170000Y-61250000D01*
X105170000Y-62200000D01*
X106731050Y-62200000D01*
X106848631Y-62044377D01*
X106813015Y-61913510D01*
X106729249Y-61736003D01*
X106612463Y-61578248D01*
X106467144Y-61446308D01*
X106298878Y-61345254D01*
X106114130Y-61278969D01*
X105920000Y-61250000D01*
X105170000Y-61250000D01*
X105070000Y-61250000D01*
X104320000Y-61250000D01*
X104125870Y-61278969D01*
X103941122Y-61345254D01*
X103772856Y-61446308D01*
X103627537Y-61578248D01*
X103510751Y-61736003D01*
X103426985Y-61913510D01*
X103391369Y-62044377D01*
X103118631Y-62044377D01*
X103083015Y-61913510D01*
X102999249Y-61736003D01*
X102882463Y-61578248D01*
X102737144Y-61446308D01*
X102568878Y-61345254D01*
X102384130Y-61278969D01*
X102190000Y-61250000D01*
X101790000Y-61250000D01*
X101690000Y-61250000D01*
X101290000Y-61250000D01*
X101095870Y-61278969D01*
X100911122Y-61345254D01*
X100742856Y-61446308D01*
X100597537Y-61578248D01*
X100480751Y-61736003D01*
X100396985Y-61913510D01*
X100375000Y-61994291D01*
X100375000Y-54540484D01*
X100458506Y-54742085D01*
X100803235Y-55258008D01*
X101241992Y-55696765D01*
X101757915Y-56041494D01*
X102331179Y-56278948D01*
X102939752Y-56400000D01*
X103560248Y-56400000D01*
X104168821Y-56278948D01*
X104742085Y-56041494D01*
X105258008Y-55696765D01*
X105696765Y-55258008D01*
X106041494Y-54742085D01*
X106205972Y-54345000D01*
X109882339Y-54345000D01*
X109892958Y-54452819D01*
X109924408Y-54556494D01*
X109975479Y-54652042D01*
X110044210Y-54735790D01*
X110127958Y-54804521D01*
X110223506Y-54855592D01*
X110327181Y-54887042D01*
X110435000Y-54897661D01*
X110722500Y-54895000D01*
X110860000Y-54757500D01*
X110860000Y-53945000D01*
X110022500Y-53945000D01*
X109885000Y-54082500D01*
X109882339Y-54345000D01*
X106205972Y-54345000D01*
X106278948Y-54168821D01*
X106400000Y-53560248D01*
X106400000Y-52939752D01*
X106278948Y-52331179D01*
X106041494Y-51757915D01*
X105696765Y-51241992D01*
X105258008Y-50803235D01*
X104742085Y-50458506D01*
X104540484Y-50375000D01*
X145459516Y-50375000D01*
X145257915Y-50458506D01*
G04 #@! TA.AperFunction,Conductor*
D32*
G36*
X145257915Y-50458506D02*
G01*
X144741992Y-50803235D01*
X144303235Y-51241992D01*
X143958506Y-51757915D01*
X143721052Y-52331179D01*
X143600000Y-52939752D01*
X143600000Y-53560248D01*
X143721052Y-54168821D01*
X143958506Y-54742085D01*
X144303235Y-55258008D01*
X144741992Y-55696765D01*
X145257915Y-56041494D01*
X145831179Y-56278948D01*
X146439752Y-56400000D01*
X147060248Y-56400000D01*
X147668821Y-56278948D01*
X148242085Y-56041494D01*
X148758008Y-55696765D01*
X149196765Y-55258008D01*
X149541494Y-54742085D01*
X149625000Y-54540484D01*
X149625001Y-79459518D01*
X149541494Y-79257915D01*
X149196765Y-78741992D01*
X148758008Y-78303235D01*
X148242085Y-77958506D01*
X147668821Y-77721052D01*
X147060248Y-77600000D01*
X146439752Y-77600000D01*
X145831179Y-77721052D01*
X145257915Y-77958506D01*
X144741992Y-78303235D01*
X144303235Y-78741992D01*
X143958506Y-79257915D01*
X143721052Y-79831179D01*
X143600000Y-80439752D01*
X143600000Y-81060248D01*
X143721052Y-81668821D01*
X143958506Y-82242085D01*
X144303235Y-82758008D01*
X144741992Y-83196765D01*
X145257915Y-83541494D01*
X145459516Y-83625000D01*
X104540484Y-83625000D01*
X104742085Y-83541494D01*
X105258008Y-83196765D01*
X105696765Y-82758008D01*
X105732183Y-82705000D01*
X111232339Y-82705000D01*
X111242958Y-82812819D01*
X111274408Y-82916494D01*
X111325479Y-83012042D01*
X111394210Y-83095790D01*
X111477958Y-83164521D01*
X111573506Y-83215592D01*
X111677181Y-83247042D01*
X111785000Y-83257661D01*
X112072500Y-83255000D01*
X112210000Y-83117500D01*
X112210000Y-82305000D01*
X112310000Y-82305000D01*
X112310000Y-83117500D01*
X112447500Y-83255000D01*
X112735000Y-83257661D01*
X112842819Y-83247042D01*
X112946494Y-83215592D01*
X113042042Y-83164521D01*
X113125790Y-83095790D01*
X113194521Y-83012042D01*
X113245592Y-82916494D01*
X113277042Y-82812819D01*
X113286676Y-82715000D01*
X114692339Y-82715000D01*
X114702958Y-82822819D01*
X114734408Y-82926494D01*
X114785479Y-83022042D01*
X114854210Y-83105790D01*
X114937958Y-83174521D01*
X115033506Y-83225592D01*
X115137181Y-83257042D01*
X115245000Y-83267661D01*
X115532500Y-83265000D01*
X115670000Y-83127500D01*
X115670000Y-82315000D01*
X114832500Y-82315000D01*
X114695000Y-82452500D01*
X114692339Y-82715000D01*
X113286676Y-82715000D01*
X113287661Y-82705000D01*
X113285000Y-82442500D01*
X113147500Y-82305000D01*
X112310000Y-82305000D01*
X112210000Y-82305000D01*
X111372500Y-82305000D01*
X111235000Y-82442500D01*
X111232339Y-82705000D01*
X105732183Y-82705000D01*
X106041494Y-82242085D01*
X106278948Y-81668821D01*
X106400000Y-81060248D01*
X106400000Y-80439752D01*
X106278948Y-79831179D01*
X106041494Y-79257915D01*
X105696765Y-78741992D01*
X105258008Y-78303235D01*
X104742085Y-77958506D01*
X104168821Y-77721052D01*
X103560248Y-77600000D01*
X102939752Y-77600000D01*
X102331179Y-77721052D01*
X101757915Y-77958506D01*
X101241992Y-78303235D01*
X100803235Y-78741992D01*
X100458506Y-79257915D01*
X100375000Y-79459516D01*
X100375000Y-76873219D01*
X104527491Y-76873219D01*
X104560986Y-77072009D01*
X104744184Y-77168021D01*
X104942591Y-77226449D01*
X105148586Y-77245046D01*
X105354250Y-77223098D01*
X105551680Y-77161449D01*
X105719014Y-77072009D01*
X105752509Y-76873219D01*
X105140000Y-76260711D01*
X104527491Y-76873219D01*
X100375000Y-76873219D01*
X100375000Y-76198586D01*
X104084954Y-76198586D01*
X104106902Y-76404250D01*
X104168551Y-76601680D01*
X104257991Y-76769014D01*
X104456781Y-76802509D01*
X105069289Y-76190000D01*
X105210711Y-76190000D01*
X105823219Y-76802509D01*
X106022009Y-76769014D01*
X106118021Y-76585816D01*
X106176449Y-76387409D01*
X106189756Y-76240000D01*
X107798307Y-76240000D01*
X107798307Y-77340000D01*
X107805065Y-77408612D01*
X107825078Y-77474587D01*
X107857578Y-77535390D01*
X107901315Y-77588685D01*
X107954610Y-77632422D01*
X108015413Y-77664922D01*
X108081388Y-77684935D01*
X108100000Y-77686768D01*
X108100001Y-78067917D01*
X108039762Y-78128156D01*
X107946740Y-78267374D01*
X107882665Y-78422064D01*
X107850000Y-78586282D01*
X107850000Y-78753718D01*
X107882665Y-78917936D01*
X107946740Y-79072626D01*
X108039762Y-79211844D01*
X108100000Y-79272082D01*
X108100001Y-80052495D01*
X108090386Y-80060386D01*
X108019444Y-80146829D01*
X107966729Y-80245451D01*
X107934268Y-80352462D01*
X107923307Y-80463750D01*
X107923307Y-80976250D01*
X107934268Y-81087538D01*
X107966729Y-81194549D01*
X108019444Y-81293171D01*
X108090386Y-81379614D01*
X108176829Y-81450556D01*
X108275451Y-81503271D01*
X108382462Y-81535732D01*
X108493750Y-81546693D01*
X108931250Y-81546693D01*
X109042538Y-81535732D01*
X109149549Y-81503271D01*
X109248171Y-81450556D01*
X109334614Y-81379614D01*
X109405556Y-81293171D01*
X109458271Y-81194549D01*
X109490732Y-81087538D01*
X109500000Y-80993439D01*
X109509268Y-81087538D01*
X109541729Y-81194549D01*
X109594444Y-81293171D01*
X109665386Y-81379614D01*
X109751829Y-81450556D01*
X109850451Y-81503271D01*
X109957462Y-81535732D01*
X110068750Y-81546693D01*
X110506250Y-81546693D01*
X110617538Y-81535732D01*
X110724549Y-81503271D01*
X110823171Y-81450556D01*
X110909614Y-81379614D01*
X110958538Y-81320000D01*
X111525626Y-81320000D01*
X111477958Y-81345479D01*
X111394210Y-81414210D01*
X111325479Y-81497958D01*
X111274408Y-81593506D01*
X111242958Y-81697181D01*
X111232339Y-81805000D01*
X111235000Y-82067500D01*
X111372500Y-82205000D01*
X112210000Y-82205000D01*
X112210000Y-82185000D01*
X112310000Y-82185000D01*
X112310000Y-82205000D01*
X113147500Y-82205000D01*
X113212500Y-82140000D01*
X114757500Y-82140000D01*
X114832500Y-82215000D01*
X115670000Y-82215000D01*
X115670000Y-82195000D01*
X115770000Y-82195000D01*
X115770000Y-82215000D01*
X115790000Y-82215000D01*
X115790000Y-82315000D01*
X115770000Y-82315000D01*
X115770000Y-83127500D01*
X115907500Y-83265000D01*
X116195000Y-83267661D01*
X116302819Y-83257042D01*
X116406494Y-83225592D01*
X116502042Y-83174521D01*
X116585790Y-83105790D01*
X116654521Y-83022042D01*
X116705592Y-82926494D01*
X116737042Y-82822819D01*
X116747661Y-82715000D01*
X116747062Y-82655892D01*
X116870000Y-82668000D01*
X129250000Y-82668000D01*
X129376333Y-82655758D01*
X129499887Y-82618704D01*
X129613838Y-82558257D01*
X129713806Y-82476742D01*
X129795951Y-82377289D01*
X129857115Y-82263722D01*
X129894949Y-82140405D01*
X129907997Y-82012076D01*
X129908796Y-81758704D01*
X129970000Y-81697500D01*
X129970000Y-80897500D01*
X130070000Y-80897500D01*
X130070000Y-81697500D01*
X130207500Y-81835000D01*
X130495000Y-81837661D01*
X130602819Y-81827042D01*
X130706494Y-81795592D01*
X130785742Y-81753234D01*
X130857506Y-81791592D01*
X130961181Y-81823042D01*
X131069000Y-81833661D01*
X131356500Y-81831000D01*
X131494000Y-81693500D01*
X131494000Y-80893500D01*
X131594000Y-80893500D01*
X131594000Y-81693500D01*
X131731500Y-81831000D01*
X132019000Y-81833661D01*
X132126819Y-81823042D01*
X132230494Y-81791592D01*
X132326042Y-81740521D01*
X132409790Y-81671790D01*
X132478521Y-81588042D01*
X132529592Y-81492494D01*
X132561042Y-81388819D01*
X132571661Y-81281000D01*
X132569000Y-81031000D01*
X132431500Y-80893500D01*
X131594000Y-80893500D01*
X131494000Y-80893500D01*
X130656500Y-80893500D01*
X130652500Y-80897500D01*
X130070000Y-80897500D01*
X129970000Y-80897500D01*
X129950000Y-80897500D01*
X129950000Y-80797500D01*
X129970000Y-80797500D01*
X129970000Y-80777500D01*
X130070000Y-80777500D01*
X130070000Y-80797500D01*
X130907500Y-80797500D01*
X130911500Y-80793500D01*
X131494000Y-80793500D01*
X131494000Y-80773500D01*
X131594000Y-80773500D01*
X131594000Y-80793500D01*
X132431500Y-80793500D01*
X132569000Y-80656000D01*
X132571661Y-80406000D01*
X132561042Y-80298181D01*
X132529592Y-80194506D01*
X132478521Y-80098958D01*
X132409790Y-80015210D01*
X132326042Y-79946479D01*
X132230494Y-79895408D01*
X132205822Y-79887924D01*
X132274556Y-79804171D01*
X132327271Y-79705549D01*
X132359732Y-79598538D01*
X132370693Y-79487250D01*
X132370693Y-79049750D01*
X132359732Y-78938462D01*
X132327271Y-78831451D01*
X132274556Y-78732829D01*
X132203614Y-78646386D01*
X132117171Y-78575444D01*
X132066595Y-78548411D01*
X132131504Y-78513716D01*
X132215106Y-78445106D01*
X132283716Y-78361504D01*
X132334698Y-78266124D01*
X132341029Y-78245254D01*
X132372110Y-78266022D01*
X132490402Y-78315021D01*
X132615981Y-78340000D01*
X132744019Y-78340000D01*
X132869598Y-78315021D01*
X132901491Y-78301810D01*
X136050000Y-78301810D01*
X136050000Y-78538190D01*
X136096116Y-78770027D01*
X136186574Y-78988413D01*
X136317899Y-79184955D01*
X136485045Y-79352101D01*
X136681587Y-79483426D01*
X136899973Y-79573884D01*
X137131810Y-79620000D01*
X137368190Y-79620000D01*
X137600027Y-79573884D01*
X137818413Y-79483426D01*
X138014850Y-79352171D01*
X138928540Y-79352171D01*
X139004093Y-79586774D01*
X139246820Y-79717677D01*
X139510421Y-79798713D01*
X139784767Y-79826764D01*
X140059313Y-79800755D01*
X140323510Y-79721684D01*
X140567204Y-79592590D01*
X140575907Y-79586774D01*
X140651460Y-79352171D01*
X139790000Y-78490711D01*
X138928540Y-79352171D01*
X138014850Y-79352171D01*
X138014955Y-79352101D01*
X138182101Y-79184955D01*
X138313426Y-78988413D01*
X138403884Y-78770027D01*
X138415669Y-78710779D01*
X138488316Y-78953510D01*
X138617410Y-79197204D01*
X138623226Y-79205907D01*
X138857829Y-79281460D01*
X139719289Y-78420000D01*
X139860711Y-78420000D01*
X140722171Y-79281460D01*
X140956774Y-79205907D01*
X141087677Y-78963180D01*
X141168713Y-78699579D01*
X141196764Y-78425233D01*
X141170755Y-78150687D01*
X141091684Y-77886490D01*
X140962590Y-77642796D01*
X140956774Y-77634093D01*
X140722171Y-77558540D01*
X139860711Y-78420000D01*
X139719289Y-78420000D01*
X138857829Y-77558540D01*
X138623226Y-77634093D01*
X138492323Y-77876820D01*
X138415300Y-78127366D01*
X138403884Y-78069973D01*
X138313426Y-77851587D01*
X138182101Y-77655045D01*
X138014955Y-77487899D01*
X137818413Y-77356574D01*
X137600027Y-77266116D01*
X137368190Y-77220000D01*
X137131810Y-77220000D01*
X136899973Y-77266116D01*
X136681587Y-77356574D01*
X136485045Y-77487899D01*
X136317899Y-77655045D01*
X136186574Y-77851587D01*
X136096116Y-78069973D01*
X136050000Y-78301810D01*
X132901491Y-78301810D01*
X132987890Y-78266022D01*
X133094351Y-78194888D01*
X133184888Y-78104351D01*
X133256022Y-77997890D01*
X133305021Y-77879598D01*
X133330000Y-77754019D01*
X133330000Y-77625981D01*
X133305021Y-77500402D01*
X133256022Y-77382110D01*
X133184888Y-77275649D01*
X133094351Y-77185112D01*
X132987890Y-77113978D01*
X132869598Y-77064979D01*
X132744019Y-77040000D01*
X132666396Y-77040000D01*
X132410000Y-76783605D01*
X132410000Y-76610000D01*
X132407118Y-76580736D01*
X132398582Y-76552597D01*
X132384720Y-76526664D01*
X132366854Y-76504894D01*
X132376693Y-76405000D01*
X132376693Y-76005000D01*
X132366092Y-75897370D01*
X132334698Y-75793876D01*
X132317559Y-75761810D01*
X136050000Y-75761810D01*
X136050000Y-75998190D01*
X136096116Y-76230027D01*
X136186574Y-76448413D01*
X136317899Y-76644955D01*
X136485045Y-76812101D01*
X136681587Y-76943426D01*
X136899973Y-77033884D01*
X137131810Y-77080000D01*
X137368190Y-77080000D01*
X137600027Y-77033884D01*
X137818413Y-76943426D01*
X138014850Y-76812171D01*
X138928540Y-76812171D01*
X139004093Y-77046774D01*
X139196084Y-77150315D01*
X139012796Y-77247410D01*
X139004093Y-77253226D01*
X138928540Y-77487829D01*
X139790000Y-78349289D01*
X140651460Y-77487829D01*
X140575907Y-77253226D01*
X140383916Y-77149685D01*
X140567204Y-77052590D01*
X140575907Y-77046774D01*
X140651460Y-76812171D01*
X139790000Y-75950711D01*
X138928540Y-76812171D01*
X138014850Y-76812171D01*
X138014955Y-76812101D01*
X138182101Y-76644955D01*
X138313426Y-76448413D01*
X138403884Y-76230027D01*
X138415669Y-76170779D01*
X138488316Y-76413510D01*
X138617410Y-76657204D01*
X138623226Y-76665907D01*
X138857829Y-76741460D01*
X139719289Y-75880000D01*
X139860711Y-75880000D01*
X140722171Y-76741460D01*
X140956774Y-76665907D01*
X141087677Y-76423180D01*
X141168713Y-76159579D01*
X141196764Y-75885233D01*
X141170755Y-75610687D01*
X141091684Y-75346490D01*
X140962590Y-75102796D01*
X140956774Y-75094093D01*
X140722171Y-75018540D01*
X139860711Y-75880000D01*
X139719289Y-75880000D01*
X138857829Y-75018540D01*
X138623226Y-75094093D01*
X138492323Y-75336820D01*
X138415300Y-75587366D01*
X138403884Y-75529973D01*
X138313426Y-75311587D01*
X138182101Y-75115045D01*
X138014955Y-74947899D01*
X137818413Y-74816574D01*
X137600027Y-74726116D01*
X137368190Y-74680000D01*
X137131810Y-74680000D01*
X136899973Y-74726116D01*
X136681587Y-74816574D01*
X136485045Y-74947899D01*
X136317899Y-75115045D01*
X136186574Y-75311587D01*
X136096116Y-75529973D01*
X136050000Y-75761810D01*
X132317559Y-75761810D01*
X132283716Y-75698496D01*
X132215106Y-75614894D01*
X132131504Y-75546284D01*
X132036124Y-75495302D01*
X131932630Y-75463908D01*
X131825000Y-75453307D01*
X131275000Y-75453307D01*
X131167370Y-75463908D01*
X131063876Y-75495302D01*
X130968496Y-75546284D01*
X130884894Y-75614894D01*
X130816284Y-75698496D01*
X130785000Y-75757024D01*
X130753716Y-75698496D01*
X130685106Y-75614894D01*
X130601504Y-75546284D01*
X130506124Y-75495302D01*
X130402630Y-75463908D01*
X130295000Y-75453307D01*
X129888564Y-75453307D01*
X129877913Y-75418194D01*
X129817107Y-75304435D01*
X129735276Y-75204724D01*
X129635565Y-75122893D01*
X129521806Y-75062087D01*
X129398369Y-75024643D01*
X129270000Y-75012000D01*
X119545907Y-75012000D01*
X119510790Y-74969210D01*
X119427042Y-74900479D01*
X119331494Y-74849408D01*
X119227819Y-74817958D01*
X119120000Y-74807339D01*
X118307500Y-74810000D01*
X118170000Y-74947500D01*
X118170000Y-75012000D01*
X118070000Y-75012000D01*
X118070000Y-74947500D01*
X117932500Y-74810000D01*
X117120000Y-74807339D01*
X117012181Y-74817958D01*
X116908506Y-74849408D01*
X116812958Y-74900479D01*
X116729210Y-74969210D01*
X116660479Y-75052958D01*
X116659059Y-75055614D01*
X116640113Y-75061296D01*
X116526162Y-75121743D01*
X116426194Y-75203258D01*
X116344049Y-75302711D01*
X116282885Y-75416278D01*
X116261541Y-75485848D01*
X116198009Y-75366986D01*
X115999219Y-75333491D01*
X115392711Y-75940000D01*
X115239289Y-75940000D01*
X114632781Y-75333491D01*
X114433991Y-75366986D01*
X114337979Y-75550184D01*
X114320365Y-75609998D01*
X114217502Y-75609998D01*
X114355000Y-75472500D01*
X114356941Y-75262781D01*
X114703491Y-75262781D01*
X115316000Y-75875289D01*
X115928509Y-75262781D01*
X115895014Y-75063991D01*
X115711816Y-74967979D01*
X115513409Y-74909551D01*
X115307414Y-74890954D01*
X115101750Y-74912902D01*
X114904320Y-74974551D01*
X114736986Y-75063991D01*
X114703491Y-75262781D01*
X114356941Y-75262781D01*
X114357661Y-75185000D01*
X114347042Y-75077181D01*
X114315592Y-74973506D01*
X114264521Y-74877958D01*
X114195790Y-74794210D01*
X114112042Y-74725479D01*
X114016494Y-74674408D01*
X113912819Y-74642958D01*
X113805000Y-74632339D01*
X113542500Y-74635000D01*
X113405000Y-74772500D01*
X113405000Y-75610000D01*
X113425000Y-75610000D01*
X113425000Y-75710000D01*
X113405000Y-75710000D01*
X113405000Y-75730000D01*
X113305000Y-75730000D01*
X113305000Y-75710000D01*
X113285000Y-75710000D01*
X113285000Y-75610000D01*
X113305000Y-75610000D01*
X113305000Y-74772500D01*
X113167500Y-74635000D01*
X112905000Y-74632339D01*
X112797181Y-74642958D01*
X112693506Y-74674408D01*
X112597958Y-74725479D01*
X112514210Y-74794210D01*
X112445479Y-74877958D01*
X112420000Y-74925626D01*
X112420000Y-74252082D01*
X112470238Y-74201844D01*
X112563260Y-74062626D01*
X112627335Y-73907936D01*
X112660000Y-73743718D01*
X112660000Y-73576282D01*
X112627335Y-73412064D01*
X112563260Y-73257374D01*
X112539498Y-73221810D01*
X136050000Y-73221810D01*
X136050000Y-73458190D01*
X136096116Y-73690027D01*
X136186574Y-73908413D01*
X136317899Y-74104955D01*
X136485045Y-74272101D01*
X136681587Y-74403426D01*
X136899973Y-74493884D01*
X137131810Y-74540000D01*
X137368190Y-74540000D01*
X137600027Y-74493884D01*
X137818413Y-74403426D01*
X138014850Y-74272171D01*
X138928540Y-74272171D01*
X139004093Y-74506774D01*
X139196084Y-74610315D01*
X139012796Y-74707410D01*
X139004093Y-74713226D01*
X138928540Y-74947829D01*
X139790000Y-75809289D01*
X140651460Y-74947829D01*
X140575907Y-74713226D01*
X140383916Y-74609685D01*
X140567204Y-74512590D01*
X140575907Y-74506774D01*
X140651460Y-74272171D01*
X139790000Y-73410711D01*
X138928540Y-74272171D01*
X138014850Y-74272171D01*
X138014955Y-74272101D01*
X138182101Y-74104955D01*
X138313426Y-73908413D01*
X138403884Y-73690027D01*
X138415669Y-73630779D01*
X138488316Y-73873510D01*
X138617410Y-74117204D01*
X138623226Y-74125907D01*
X138857829Y-74201460D01*
X139719289Y-73340000D01*
X139860711Y-73340000D01*
X140722171Y-74201460D01*
X140956774Y-74125907D01*
X141087677Y-73883180D01*
X141168713Y-73619579D01*
X141196764Y-73345233D01*
X141170755Y-73070687D01*
X141091684Y-72806490D01*
X140962590Y-72562796D01*
X140956774Y-72554093D01*
X140722171Y-72478540D01*
X139860711Y-73340000D01*
X139719289Y-73340000D01*
X138857829Y-72478540D01*
X138623226Y-72554093D01*
X138492323Y-72796820D01*
X138415300Y-73047366D01*
X138403884Y-72989973D01*
X138313426Y-72771587D01*
X138182101Y-72575045D01*
X138014955Y-72407899D01*
X137818413Y-72276574D01*
X137600027Y-72186116D01*
X137368190Y-72140000D01*
X137131810Y-72140000D01*
X136899973Y-72186116D01*
X136681587Y-72276574D01*
X136485045Y-72407899D01*
X136317899Y-72575045D01*
X136186574Y-72771587D01*
X136096116Y-72989973D01*
X136050000Y-73221810D01*
X112539498Y-73221810D01*
X112470238Y-73118156D01*
X112410000Y-73057918D01*
X112410000Y-72915313D01*
X113930444Y-71660000D01*
X116419997Y-71660000D01*
X116480402Y-71685021D01*
X116605981Y-71710000D01*
X116734019Y-71710000D01*
X116859598Y-71685021D01*
X116920003Y-71660000D01*
X117649997Y-71660000D01*
X117710402Y-71685021D01*
X117835981Y-71710000D01*
X117881472Y-71710000D01*
X118174895Y-72003424D01*
X118193683Y-72026317D01*
X118285045Y-72101296D01*
X118389279Y-72157010D01*
X118460825Y-72178713D01*
X118502378Y-72191318D01*
X118619999Y-72202903D01*
X118649473Y-72200000D01*
X123850526Y-72200000D01*
X123880000Y-72202903D01*
X123909474Y-72200000D01*
X123997621Y-72191318D01*
X124110721Y-72157010D01*
X124214955Y-72101296D01*
X124306317Y-72026317D01*
X124325113Y-72003414D01*
X125646717Y-70681810D01*
X136050000Y-70681810D01*
X136050000Y-70918190D01*
X136096116Y-71150027D01*
X136186574Y-71368413D01*
X136317899Y-71564955D01*
X136485045Y-71732101D01*
X136681587Y-71863426D01*
X136899973Y-71953884D01*
X137131810Y-72000000D01*
X137368190Y-72000000D01*
X137600027Y-71953884D01*
X137818413Y-71863426D01*
X138014850Y-71732171D01*
X138928540Y-71732171D01*
X139004093Y-71966774D01*
X139196084Y-72070315D01*
X139012796Y-72167410D01*
X139004093Y-72173226D01*
X138928540Y-72407829D01*
X139790000Y-73269289D01*
X140651460Y-72407829D01*
X140575907Y-72173226D01*
X140383916Y-72069685D01*
X140567204Y-71972590D01*
X140575907Y-71966774D01*
X140651460Y-71732171D01*
X139790000Y-70870711D01*
X138928540Y-71732171D01*
X138014850Y-71732171D01*
X138014955Y-71732101D01*
X138182101Y-71564955D01*
X138313426Y-71368413D01*
X138403884Y-71150027D01*
X138415669Y-71090779D01*
X138488316Y-71333510D01*
X138617410Y-71577204D01*
X138623226Y-71585907D01*
X138857829Y-71661460D01*
X139719289Y-70800000D01*
X139860711Y-70800000D01*
X140722171Y-71661460D01*
X140956774Y-71585907D01*
X141087677Y-71343180D01*
X141168713Y-71079579D01*
X141196764Y-70805233D01*
X141170755Y-70530687D01*
X141091684Y-70266490D01*
X140962590Y-70022796D01*
X140956774Y-70014093D01*
X140722171Y-69938540D01*
X139860711Y-70800000D01*
X139719289Y-70800000D01*
X138857829Y-69938540D01*
X138623226Y-70014093D01*
X138492323Y-70256820D01*
X138415300Y-70507366D01*
X138403884Y-70449973D01*
X138313426Y-70231587D01*
X138182101Y-70035045D01*
X138014955Y-69867899D01*
X137818413Y-69736574D01*
X137600027Y-69646116D01*
X137368190Y-69600000D01*
X137131810Y-69600000D01*
X136899973Y-69646116D01*
X136681587Y-69736574D01*
X136485045Y-69867899D01*
X136317899Y-70035045D01*
X136186574Y-70231587D01*
X136096116Y-70449973D01*
X136050000Y-70681810D01*
X125646717Y-70681810D01*
X127003420Y-69325108D01*
X127026317Y-69306317D01*
X127101296Y-69214955D01*
X127148674Y-69126317D01*
X127157010Y-69110722D01*
X127191318Y-68997621D01*
X127202903Y-68880000D01*
X127200000Y-68850526D01*
X127200000Y-68752285D01*
X127382500Y-68750000D01*
X127520000Y-68612500D01*
X127520000Y-67250000D01*
X127620000Y-67250000D01*
X127620000Y-68612500D01*
X127757500Y-68750000D01*
X127970000Y-68752661D01*
X128077819Y-68742042D01*
X128181494Y-68710592D01*
X128277042Y-68659521D01*
X128360790Y-68590790D01*
X128429521Y-68507042D01*
X128480592Y-68411494D01*
X128512042Y-68307819D01*
X128522661Y-68200000D01*
X128520000Y-67387500D01*
X128382500Y-67250000D01*
X127620000Y-67250000D01*
X127520000Y-67250000D01*
X127500000Y-67250000D01*
X127500000Y-67150000D01*
X127520000Y-67150000D01*
X127520000Y-65787500D01*
X127620000Y-65787500D01*
X127620000Y-67150000D01*
X128382500Y-67150000D01*
X128520000Y-67012500D01*
X128522661Y-66200000D01*
X128512042Y-66092181D01*
X128480592Y-65988506D01*
X128429521Y-65892958D01*
X128360790Y-65809210D01*
X128277042Y-65740479D01*
X128181494Y-65689408D01*
X128077819Y-65657958D01*
X127970000Y-65647339D01*
X127757500Y-65650000D01*
X127620000Y-65787500D01*
X127520000Y-65787500D01*
X127382500Y-65650000D01*
X127200000Y-65647715D01*
X127200000Y-65407575D01*
X127290402Y-65445021D01*
X127415981Y-65470000D01*
X127544019Y-65470000D01*
X127669598Y-65445021D01*
X127787890Y-65396022D01*
X127799517Y-65388253D01*
X128805940Y-65388253D01*
X128807876Y-65397999D01*
X128888476Y-65660345D01*
X129018708Y-65901926D01*
X129193568Y-66113458D01*
X129406336Y-66286812D01*
X129648835Y-66415326D01*
X129903296Y-66491531D01*
X129829973Y-66506116D01*
X129611587Y-66596574D01*
X129415045Y-66727899D01*
X129247899Y-66895045D01*
X129116574Y-67091587D01*
X129026116Y-67309973D01*
X128980000Y-67541810D01*
X128980000Y-67778190D01*
X129026116Y-68010027D01*
X129116574Y-68228413D01*
X129247899Y-68424955D01*
X129415045Y-68592101D01*
X129611587Y-68723426D01*
X129829973Y-68813884D01*
X130061810Y-68860000D01*
X130298190Y-68860000D01*
X130530027Y-68813884D01*
X130748413Y-68723426D01*
X130944955Y-68592101D01*
X131112101Y-68424955D01*
X131243426Y-68228413D01*
X131279297Y-68141810D01*
X136050000Y-68141810D01*
X136050000Y-68378190D01*
X136096116Y-68610027D01*
X136186574Y-68828413D01*
X136317899Y-69024955D01*
X136485045Y-69192101D01*
X136681587Y-69323426D01*
X136899973Y-69413884D01*
X137131810Y-69460000D01*
X137368190Y-69460000D01*
X137600027Y-69413884D01*
X137818413Y-69323426D01*
X138014850Y-69192171D01*
X138928540Y-69192171D01*
X139004093Y-69426774D01*
X139196084Y-69530315D01*
X139012796Y-69627410D01*
X139004093Y-69633226D01*
X138928540Y-69867829D01*
X139790000Y-70729289D01*
X140651460Y-69867829D01*
X140575907Y-69633226D01*
X140383916Y-69529685D01*
X140567204Y-69432590D01*
X140575907Y-69426774D01*
X140651460Y-69192171D01*
X139790000Y-68330711D01*
X138928540Y-69192171D01*
X138014850Y-69192171D01*
X138014955Y-69192101D01*
X138182101Y-69024955D01*
X138313426Y-68828413D01*
X138403884Y-68610027D01*
X138415669Y-68550779D01*
X138488316Y-68793510D01*
X138617410Y-69037204D01*
X138623226Y-69045907D01*
X138857829Y-69121460D01*
X139719289Y-68260000D01*
X139860711Y-68260000D01*
X140722171Y-69121460D01*
X140956774Y-69045907D01*
X141087677Y-68803180D01*
X141168713Y-68539579D01*
X141196764Y-68265233D01*
X141170755Y-67990687D01*
X141091684Y-67726490D01*
X140962590Y-67482796D01*
X140956774Y-67474093D01*
X140722171Y-67398540D01*
X139860711Y-68260000D01*
X139719289Y-68260000D01*
X138857829Y-67398540D01*
X138623226Y-67474093D01*
X138492323Y-67716820D01*
X138415300Y-67967366D01*
X138403884Y-67909973D01*
X138313426Y-67691587D01*
X138182101Y-67495045D01*
X138014955Y-67327899D01*
X137818413Y-67196574D01*
X137600027Y-67106116D01*
X137368190Y-67060000D01*
X137131810Y-67060000D01*
X136899973Y-67106116D01*
X136681587Y-67196574D01*
X136485045Y-67327899D01*
X136317899Y-67495045D01*
X136186574Y-67691587D01*
X136096116Y-67909973D01*
X136050000Y-68141810D01*
X131279297Y-68141810D01*
X131333884Y-68010027D01*
X131380000Y-67778190D01*
X131380000Y-67541810D01*
X131333884Y-67309973D01*
X131243426Y-67091587D01*
X131112101Y-66895045D01*
X130944955Y-66727899D01*
X130748413Y-66596574D01*
X130530027Y-66506116D01*
X130456704Y-66491531D01*
X130711165Y-66415326D01*
X130953664Y-66286812D01*
X131166432Y-66113458D01*
X131341292Y-65901926D01*
X131471524Y-65660345D01*
X131489507Y-65601810D01*
X136050000Y-65601810D01*
X136050000Y-65838190D01*
X136096116Y-66070027D01*
X136186574Y-66288413D01*
X136317899Y-66484955D01*
X136485045Y-66652101D01*
X136681587Y-66783426D01*
X136899973Y-66873884D01*
X137131810Y-66920000D01*
X137368190Y-66920000D01*
X137600027Y-66873884D01*
X137818413Y-66783426D01*
X138014850Y-66652171D01*
X138928540Y-66652171D01*
X139004093Y-66886774D01*
X139196084Y-66990315D01*
X139012796Y-67087410D01*
X139004093Y-67093226D01*
X138928540Y-67327829D01*
X139790000Y-68189289D01*
X140651460Y-67327829D01*
X140575907Y-67093226D01*
X140383916Y-66989685D01*
X140567204Y-66892590D01*
X140575907Y-66886774D01*
X140651460Y-66652171D01*
X139790000Y-65790711D01*
X138928540Y-66652171D01*
X138014850Y-66652171D01*
X138014955Y-66652101D01*
X138182101Y-66484955D01*
X138313426Y-66288413D01*
X138403884Y-66070027D01*
X138415669Y-66010779D01*
X138488316Y-66253510D01*
X138617410Y-66497204D01*
X138623226Y-66505907D01*
X138857829Y-66581460D01*
X139719289Y-65720000D01*
X139860711Y-65720000D01*
X140722171Y-66581460D01*
X140956774Y-66505907D01*
X141087677Y-66263180D01*
X141168713Y-65999579D01*
X141196764Y-65725233D01*
X141170755Y-65450687D01*
X141091684Y-65186490D01*
X140962590Y-64942796D01*
X140956774Y-64934093D01*
X140722171Y-64858540D01*
X139860711Y-65720000D01*
X139719289Y-65720000D01*
X138857829Y-64858540D01*
X138623226Y-64934093D01*
X138492323Y-65176820D01*
X138415300Y-65427366D01*
X138403884Y-65369973D01*
X138313426Y-65151587D01*
X138182101Y-64955045D01*
X138014955Y-64787899D01*
X137818413Y-64656574D01*
X137600027Y-64566116D01*
X137368190Y-64520000D01*
X137131810Y-64520000D01*
X136899973Y-64566116D01*
X136681587Y-64656574D01*
X136485045Y-64787899D01*
X136317899Y-64955045D01*
X136186574Y-65151587D01*
X136096116Y-65369973D01*
X136050000Y-65601810D01*
X131489507Y-65601810D01*
X131552124Y-65397999D01*
X131554060Y-65388253D01*
X131441510Y-65170000D01*
X130230000Y-65170000D01*
X130230000Y-65190000D01*
X130130000Y-65190000D01*
X130130000Y-65170000D01*
X128918490Y-65170000D01*
X128805940Y-65388253D01*
X127799517Y-65388253D01*
X127894351Y-65324888D01*
X127984888Y-65234351D01*
X128056022Y-65127890D01*
X128105021Y-65009598D01*
X128130000Y-64884019D01*
X128130000Y-64851747D01*
X128805940Y-64851747D01*
X128918490Y-65070000D01*
X130130000Y-65070000D01*
X130130000Y-65050000D01*
X130230000Y-65050000D01*
X130230000Y-65070000D01*
X131441510Y-65070000D01*
X131554060Y-64851747D01*
X131552124Y-64842001D01*
X131471524Y-64579655D01*
X131341292Y-64338074D01*
X131166432Y-64126542D01*
X130953664Y-63953188D01*
X130711165Y-63824674D01*
X130567645Y-63781693D01*
X131030000Y-63781693D01*
X131098612Y-63774935D01*
X131164587Y-63754922D01*
X131225390Y-63722422D01*
X131278685Y-63678685D01*
X131322422Y-63625390D01*
X131354922Y-63564587D01*
X131374935Y-63498612D01*
X131381693Y-63430000D01*
X131381693Y-63061810D01*
X136050000Y-63061810D01*
X136050000Y-63298190D01*
X136096116Y-63530027D01*
X136186574Y-63748413D01*
X136317899Y-63944955D01*
X136485045Y-64112101D01*
X136681587Y-64243426D01*
X136899973Y-64333884D01*
X137131810Y-64380000D01*
X137368190Y-64380000D01*
X137600027Y-64333884D01*
X137818413Y-64243426D01*
X138014850Y-64112171D01*
X138928540Y-64112171D01*
X139004093Y-64346774D01*
X139196084Y-64450315D01*
X139012796Y-64547410D01*
X139004093Y-64553226D01*
X138928540Y-64787829D01*
X139790000Y-65649289D01*
X140651460Y-64787829D01*
X140575907Y-64553226D01*
X140383916Y-64449685D01*
X140567204Y-64352590D01*
X140575907Y-64346774D01*
X140651460Y-64112171D01*
X139790000Y-63250711D01*
X138928540Y-64112171D01*
X138014850Y-64112171D01*
X138014955Y-64112101D01*
X138182101Y-63944955D01*
X138313426Y-63748413D01*
X138403884Y-63530027D01*
X138415669Y-63470779D01*
X138488316Y-63713510D01*
X138617410Y-63957204D01*
X138623226Y-63965907D01*
X138857829Y-64041460D01*
X139719289Y-63180000D01*
X139860711Y-63180000D01*
X140722171Y-64041460D01*
X140956774Y-63965907D01*
X141087677Y-63723180D01*
X141168713Y-63459579D01*
X141196764Y-63185233D01*
X141170755Y-62910687D01*
X141091684Y-62646490D01*
X140962590Y-62402796D01*
X140956774Y-62394093D01*
X140722171Y-62318540D01*
X139860711Y-63180000D01*
X139719289Y-63180000D01*
X138857829Y-62318540D01*
X138623226Y-62394093D01*
X138492323Y-62636820D01*
X138415300Y-62887366D01*
X138403884Y-62829973D01*
X138313426Y-62611587D01*
X138182101Y-62415045D01*
X138014955Y-62247899D01*
X137818413Y-62116574D01*
X137600027Y-62026116D01*
X137368190Y-61980000D01*
X137131810Y-61980000D01*
X136899973Y-62026116D01*
X136681587Y-62116574D01*
X136485045Y-62247899D01*
X136317899Y-62415045D01*
X136186574Y-62611587D01*
X136096116Y-62829973D01*
X136050000Y-63061810D01*
X131381693Y-63061810D01*
X131381693Y-61730000D01*
X131374935Y-61661388D01*
X131354922Y-61595413D01*
X131322422Y-61534610D01*
X131278685Y-61481315D01*
X131225390Y-61437578D01*
X131164587Y-61405078D01*
X131098612Y-61385065D01*
X131030000Y-61378307D01*
X129330000Y-61378307D01*
X129261388Y-61385065D01*
X129195413Y-61405078D01*
X129134610Y-61437578D01*
X129081315Y-61481315D01*
X129037578Y-61534610D01*
X129005078Y-61595413D01*
X128985065Y-61661388D01*
X128978307Y-61730000D01*
X128978307Y-63430000D01*
X128985065Y-63498612D01*
X129005078Y-63564587D01*
X129037578Y-63625390D01*
X129081315Y-63678685D01*
X129134610Y-63722422D01*
X129195413Y-63754922D01*
X129261388Y-63774935D01*
X129330000Y-63781693D01*
X129792355Y-63781693D01*
X129648835Y-63824674D01*
X129406336Y-63953188D01*
X129193568Y-64126542D01*
X129018708Y-64338074D01*
X128888476Y-64579655D01*
X128807876Y-64842001D01*
X128805940Y-64851747D01*
X128130000Y-64851747D01*
X128130000Y-64755981D01*
X128120000Y-64705709D01*
X128145106Y-64685106D01*
X128213716Y-64601504D01*
X128264698Y-64506124D01*
X128296092Y-64402630D01*
X128306693Y-64295000D01*
X128306693Y-63895000D01*
X128298176Y-63808525D01*
X128300000Y-63790000D01*
X128300000Y-62720000D01*
X128299653Y-62716476D01*
X128306693Y-62645000D01*
X128306693Y-62245000D01*
X128296092Y-62137370D01*
X128264698Y-62033876D01*
X128213716Y-61938496D01*
X128145106Y-61854894D01*
X128061504Y-61786284D01*
X127966124Y-61735302D01*
X127862630Y-61703908D01*
X127755000Y-61693307D01*
X127364702Y-61693307D01*
X127299332Y-61627936D01*
X127320000Y-61524029D01*
X127320000Y-61395991D01*
X127295021Y-61270412D01*
X127246022Y-61152120D01*
X127174888Y-61045659D01*
X127084351Y-60955122D01*
X126977890Y-60883988D01*
X126859598Y-60834989D01*
X126734019Y-60810010D01*
X126605981Y-60810010D01*
X126480402Y-60834989D01*
X126454998Y-60845512D01*
X126401296Y-60745043D01*
X126326317Y-60653681D01*
X126303419Y-60634889D01*
X126190340Y-60521810D01*
X136050000Y-60521810D01*
X136050000Y-60758190D01*
X136096116Y-60990027D01*
X136186574Y-61208413D01*
X136317899Y-61404955D01*
X136485045Y-61572101D01*
X136681587Y-61703426D01*
X136899973Y-61793884D01*
X137131810Y-61840000D01*
X137368190Y-61840000D01*
X137600027Y-61793884D01*
X137818413Y-61703426D01*
X138014850Y-61572171D01*
X138928540Y-61572171D01*
X139004093Y-61806774D01*
X139196084Y-61910315D01*
X139012796Y-62007410D01*
X139004093Y-62013226D01*
X138928540Y-62247829D01*
X139790000Y-63109289D01*
X140651460Y-62247829D01*
X140575907Y-62013226D01*
X140383916Y-61909685D01*
X140567204Y-61812590D01*
X140575907Y-61806774D01*
X140651460Y-61572171D01*
X139790000Y-60710711D01*
X138928540Y-61572171D01*
X138014850Y-61572171D01*
X138014955Y-61572101D01*
X138182101Y-61404955D01*
X138313426Y-61208413D01*
X138403884Y-60990027D01*
X138415669Y-60930779D01*
X138488316Y-61173510D01*
X138617410Y-61417204D01*
X138623226Y-61425907D01*
X138857829Y-61501460D01*
X139719289Y-60640000D01*
X139860711Y-60640000D01*
X140722171Y-61501460D01*
X140956774Y-61425907D01*
X141087677Y-61183180D01*
X141168713Y-60919579D01*
X141196764Y-60645233D01*
X141170755Y-60370687D01*
X141091684Y-60106490D01*
X140962590Y-59862796D01*
X140956774Y-59854093D01*
X140722171Y-59778540D01*
X139860711Y-60640000D01*
X139719289Y-60640000D01*
X138857829Y-59778540D01*
X138623226Y-59854093D01*
X138492323Y-60096820D01*
X138415300Y-60347366D01*
X138403884Y-60289973D01*
X138313426Y-60071587D01*
X138182101Y-59875045D01*
X138014955Y-59707899D01*
X137818413Y-59576574D01*
X137600027Y-59486116D01*
X137368190Y-59440000D01*
X137131810Y-59440000D01*
X136899973Y-59486116D01*
X136681587Y-59576574D01*
X136485045Y-59707899D01*
X136317899Y-59875045D01*
X136186574Y-60071587D01*
X136096116Y-60289973D01*
X136050000Y-60521810D01*
X126190340Y-60521810D01*
X124945115Y-59276586D01*
X124926319Y-59253683D01*
X124834957Y-59178704D01*
X124730723Y-59122990D01*
X124617623Y-59088682D01*
X124529476Y-59080000D01*
X124500002Y-59077097D01*
X124470528Y-59080000D01*
X119714948Y-59080000D01*
X119139999Y-58134422D01*
X119139999Y-57981810D01*
X136050000Y-57981810D01*
X136050000Y-58218190D01*
X136096116Y-58450027D01*
X136186574Y-58668413D01*
X136317899Y-58864955D01*
X136485045Y-59032101D01*
X136681587Y-59163426D01*
X136899973Y-59253884D01*
X137131810Y-59300000D01*
X137368190Y-59300000D01*
X137600027Y-59253884D01*
X137818413Y-59163426D01*
X138014850Y-59032171D01*
X138928540Y-59032171D01*
X139004093Y-59266774D01*
X139196084Y-59370315D01*
X139012796Y-59467410D01*
X139004093Y-59473226D01*
X138928540Y-59707829D01*
X139790000Y-60569289D01*
X140651460Y-59707829D01*
X140575907Y-59473226D01*
X140383916Y-59369685D01*
X140567204Y-59272590D01*
X140575907Y-59266774D01*
X140651460Y-59032171D01*
X139790000Y-58170711D01*
X138928540Y-59032171D01*
X138014850Y-59032171D01*
X138014955Y-59032101D01*
X138182101Y-58864955D01*
X138313426Y-58668413D01*
X138403884Y-58450027D01*
X138415669Y-58390779D01*
X138488316Y-58633510D01*
X138617410Y-58877204D01*
X138623226Y-58885907D01*
X138857829Y-58961460D01*
X139719289Y-58100000D01*
X139860711Y-58100000D01*
X140722171Y-58961460D01*
X140956774Y-58885907D01*
X141087677Y-58643180D01*
X141168713Y-58379579D01*
X141196764Y-58105233D01*
X141170755Y-57830687D01*
X141091684Y-57566490D01*
X140962590Y-57322796D01*
X140956774Y-57314093D01*
X140722171Y-57238540D01*
X139860711Y-58100000D01*
X139719289Y-58100000D01*
X138857829Y-57238540D01*
X138623226Y-57314093D01*
X138492323Y-57556820D01*
X138415300Y-57807366D01*
X138403884Y-57749973D01*
X138313426Y-57531587D01*
X138182101Y-57335045D01*
X138014955Y-57167899D01*
X137818413Y-57036574D01*
X137600027Y-56946116D01*
X137368190Y-56900000D01*
X137131810Y-56900000D01*
X136899973Y-56946116D01*
X136681587Y-57036574D01*
X136485045Y-57167899D01*
X136317899Y-57335045D01*
X136186574Y-57531587D01*
X136096116Y-57749973D01*
X136050000Y-57981810D01*
X119139999Y-57981810D01*
X119139999Y-57438526D01*
X121193419Y-55385107D01*
X121216317Y-55366315D01*
X121291296Y-55274953D01*
X121347010Y-55170719D01*
X121381318Y-55057619D01*
X121390000Y-54969472D01*
X121390932Y-54960000D01*
X136048307Y-54960000D01*
X136048307Y-56160000D01*
X136059868Y-56277384D01*
X136094108Y-56390258D01*
X136149711Y-56494283D01*
X136224539Y-56585461D01*
X136315717Y-56660289D01*
X136419742Y-56715892D01*
X136532616Y-56750132D01*
X136650000Y-56761693D01*
X137850000Y-56761693D01*
X137967384Y-56750132D01*
X138080258Y-56715892D01*
X138184283Y-56660289D01*
X138275461Y-56585461D01*
X138350289Y-56494283D01*
X138405892Y-56390258D01*
X138440132Y-56277384D01*
X138451693Y-56160000D01*
X138451693Y-55441810D01*
X138590000Y-55441810D01*
X138590000Y-55678190D01*
X138636116Y-55910027D01*
X138726574Y-56128413D01*
X138857899Y-56324955D01*
X139025045Y-56492101D01*
X139221587Y-56623426D01*
X139439973Y-56713884D01*
X139499221Y-56725669D01*
X139256490Y-56798316D01*
X139012796Y-56927410D01*
X139004093Y-56933226D01*
X138928540Y-57167829D01*
X139790000Y-58029289D01*
X140651460Y-57167829D01*
X140575907Y-56933226D01*
X140333180Y-56802323D01*
X140082634Y-56725300D01*
X140140027Y-56713884D01*
X140358413Y-56623426D01*
X140554955Y-56492101D01*
X140722101Y-56324955D01*
X140853426Y-56128413D01*
X140943884Y-55910027D01*
X140990000Y-55678190D01*
X140990000Y-55441810D01*
X140943884Y-55209973D01*
X140853426Y-54991587D01*
X140722101Y-54795045D01*
X140554955Y-54627899D01*
X140358413Y-54496574D01*
X140140027Y-54406116D01*
X139908190Y-54360000D01*
X139671810Y-54360000D01*
X139439973Y-54406116D01*
X139221587Y-54496574D01*
X139025045Y-54627899D01*
X138857899Y-54795045D01*
X138726574Y-54991587D01*
X138636116Y-55209973D01*
X138590000Y-55441810D01*
X138451693Y-55441810D01*
X138451693Y-54960000D01*
X138440132Y-54842616D01*
X138405892Y-54729742D01*
X138350289Y-54625717D01*
X138275461Y-54534539D01*
X138184283Y-54459711D01*
X138080258Y-54404108D01*
X137967384Y-54369868D01*
X137850000Y-54358307D01*
X136650000Y-54358307D01*
X136532616Y-54369868D01*
X136419742Y-54404108D01*
X136315717Y-54459711D01*
X136224539Y-54534539D01*
X136149711Y-54625717D01*
X136094108Y-54729742D01*
X136059868Y-54842616D01*
X136048307Y-54960000D01*
X121390932Y-54960000D01*
X121392903Y-54939998D01*
X121390000Y-54910524D01*
X121390000Y-53941693D01*
X121640000Y-53941693D01*
X121708612Y-53934935D01*
X121774587Y-53914922D01*
X121835390Y-53882422D01*
X121888685Y-53838685D01*
X121932422Y-53785390D01*
X121964922Y-53724587D01*
X121984935Y-53658612D01*
X121991693Y-53590000D01*
X121991693Y-52621810D01*
X122130000Y-52621810D01*
X122130000Y-52858190D01*
X122176116Y-53090027D01*
X122266574Y-53308413D01*
X122397899Y-53504955D01*
X122565045Y-53672101D01*
X122761587Y-53803426D01*
X122979973Y-53893884D01*
X123211810Y-53940000D01*
X123448190Y-53940000D01*
X123680027Y-53893884D01*
X123898413Y-53803426D01*
X124094955Y-53672101D01*
X124262101Y-53504955D01*
X124393426Y-53308413D01*
X124483884Y-53090027D01*
X124530000Y-52858190D01*
X124530000Y-52621810D01*
X124670000Y-52621810D01*
X124670000Y-52858190D01*
X124716116Y-53090027D01*
X124806574Y-53308413D01*
X124937899Y-53504955D01*
X125105045Y-53672101D01*
X125301587Y-53803426D01*
X125519973Y-53893884D01*
X125751810Y-53940000D01*
X125988190Y-53940000D01*
X126220027Y-53893884D01*
X126438413Y-53803426D01*
X126634955Y-53672101D01*
X126802101Y-53504955D01*
X126933426Y-53308413D01*
X127023884Y-53090027D01*
X127038469Y-53016704D01*
X127114674Y-53271165D01*
X127243188Y-53513664D01*
X127416542Y-53726432D01*
X127628074Y-53901292D01*
X127869655Y-54031524D01*
X128132001Y-54112124D01*
X128141747Y-54114060D01*
X128360000Y-54001510D01*
X128360000Y-52790000D01*
X128460000Y-52790000D01*
X128460000Y-54001510D01*
X128678253Y-54114060D01*
X128687999Y-54112124D01*
X128950345Y-54031524D01*
X129191926Y-53901292D01*
X129403458Y-53726432D01*
X129576812Y-53513664D01*
X129705326Y-53271165D01*
X129784062Y-53008253D01*
X129671609Y-52790000D01*
X128460000Y-52790000D01*
X128360000Y-52790000D01*
X128340000Y-52790000D01*
X128340000Y-52690000D01*
X128360000Y-52690000D01*
X128360000Y-51478490D01*
X128460000Y-51478490D01*
X128460000Y-52690000D01*
X129671609Y-52690000D01*
X129784062Y-52471747D01*
X129705326Y-52208835D01*
X129576812Y-51966336D01*
X129403458Y-51753568D01*
X129191926Y-51578708D01*
X128950345Y-51448476D01*
X128687999Y-51367876D01*
X128678253Y-51365940D01*
X128460000Y-51478490D01*
X128360000Y-51478490D01*
X128141747Y-51365940D01*
X128132001Y-51367876D01*
X127869655Y-51448476D01*
X127628074Y-51578708D01*
X127416542Y-51753568D01*
X127243188Y-51966336D01*
X127114674Y-52208835D01*
X127038469Y-52463296D01*
X127023884Y-52389973D01*
X126933426Y-52171587D01*
X126802101Y-51975045D01*
X126634955Y-51807899D01*
X126438413Y-51676574D01*
X126220027Y-51586116D01*
X125988190Y-51540000D01*
X125751810Y-51540000D01*
X125519973Y-51586116D01*
X125301587Y-51676574D01*
X125105045Y-51807899D01*
X124937899Y-51975045D01*
X124806574Y-52171587D01*
X124716116Y-52389973D01*
X124670000Y-52621810D01*
X124530000Y-52621810D01*
X124483884Y-52389973D01*
X124393426Y-52171587D01*
X124262101Y-51975045D01*
X124094955Y-51807899D01*
X123898413Y-51676574D01*
X123680027Y-51586116D01*
X123448190Y-51540000D01*
X123211810Y-51540000D01*
X122979973Y-51586116D01*
X122761587Y-51676574D01*
X122565045Y-51807899D01*
X122397899Y-51975045D01*
X122266574Y-52171587D01*
X122176116Y-52389973D01*
X122130000Y-52621810D01*
X121991693Y-52621810D01*
X121991693Y-51890000D01*
X121984935Y-51821388D01*
X121964922Y-51755413D01*
X121932422Y-51694610D01*
X121888685Y-51641315D01*
X121835390Y-51597578D01*
X121774587Y-51565078D01*
X121708612Y-51545065D01*
X121640000Y-51538307D01*
X119940000Y-51538307D01*
X119871388Y-51545065D01*
X119805413Y-51565078D01*
X119744610Y-51597578D01*
X119691315Y-51641315D01*
X119647578Y-51694610D01*
X119615078Y-51755413D01*
X119595065Y-51821388D01*
X119588307Y-51890000D01*
X119588307Y-51989990D01*
X114308517Y-51989990D01*
X114210113Y-51891586D01*
X114191317Y-51868683D01*
X114099955Y-51793704D01*
X113995721Y-51737990D01*
X113882621Y-51703682D01*
X113794474Y-51695000D01*
X113765000Y-51692097D01*
X113735526Y-51695000D01*
X113083050Y-51695000D01*
X113011504Y-51636284D01*
X112916124Y-51585302D01*
X112812630Y-51553908D01*
X112705000Y-51543307D01*
X112155000Y-51543307D01*
X112047370Y-51553908D01*
X111943876Y-51585302D01*
X111848496Y-51636284D01*
X111776950Y-51695000D01*
X111546806Y-51695000D01*
X111480393Y-51640497D01*
X111380691Y-51587205D01*
X111272507Y-51554388D01*
X111160000Y-51543307D01*
X110660000Y-51543307D01*
X110547493Y-51554388D01*
X110439309Y-51587205D01*
X110339607Y-51640497D01*
X110252216Y-51712216D01*
X110225311Y-51745000D01*
X109932074Y-51745000D01*
X109859598Y-51714979D01*
X109734019Y-51690000D01*
X109605981Y-51690000D01*
X109480402Y-51714979D01*
X109362110Y-51763978D01*
X109255649Y-51835112D01*
X109165112Y-51925649D01*
X109093978Y-52032110D01*
X109044979Y-52150402D01*
X109020000Y-52275981D01*
X109020000Y-52404019D01*
X109044979Y-52529598D01*
X109093978Y-52647890D01*
X109165112Y-52754351D01*
X109255649Y-52844888D01*
X109362110Y-52916022D01*
X109480402Y-52965021D01*
X109605981Y-52990000D01*
X109734019Y-52990000D01*
X109859598Y-52965021D01*
X109907932Y-52945000D01*
X110203690Y-52945000D01*
X110127958Y-52985479D01*
X110044210Y-53054210D01*
X109975479Y-53137958D01*
X109924408Y-53233506D01*
X109892958Y-53337181D01*
X109882339Y-53445000D01*
X109885000Y-53707500D01*
X110022500Y-53845000D01*
X110860000Y-53845000D01*
X110860000Y-53825000D01*
X110960000Y-53825000D01*
X110960000Y-53845000D01*
X110980000Y-53845000D01*
X110980000Y-53945000D01*
X110960000Y-53945000D01*
X110960000Y-54757500D01*
X111097500Y-54895000D01*
X111385000Y-54897661D01*
X111492819Y-54887042D01*
X111596494Y-54855592D01*
X111692042Y-54804521D01*
X111775790Y-54735790D01*
X111844521Y-54652042D01*
X111865495Y-54612802D01*
X111943876Y-54654698D01*
X112047370Y-54686092D01*
X112155000Y-54696693D01*
X112705000Y-54696693D01*
X112812630Y-54686092D01*
X112916124Y-54654698D01*
X113011504Y-54603716D01*
X113095106Y-54535106D01*
X113163716Y-54451504D01*
X113178307Y-54424206D01*
X113178307Y-54890000D01*
X113188908Y-54997630D01*
X113220302Y-55101124D01*
X113271284Y-55196504D01*
X113339894Y-55280106D01*
X113423496Y-55348716D01*
X113518876Y-55399698D01*
X113622370Y-55431092D01*
X113730000Y-55441693D01*
X114130000Y-55441693D01*
X114237630Y-55431092D01*
X114341124Y-55399698D01*
X114433094Y-55350539D01*
X114445280Y-55373336D01*
X114463934Y-55396066D01*
X114486664Y-55414720D01*
X114512597Y-55428582D01*
X114540736Y-55437118D01*
X114570000Y-55440000D01*
X117305734Y-55440000D01*
X117339210Y-55480790D01*
X117422958Y-55549521D01*
X117518506Y-55600592D01*
X117622181Y-55632042D01*
X117730000Y-55642661D01*
X117942500Y-55640000D01*
X118080000Y-55502500D01*
X118080000Y-54140000D01*
X118180000Y-54140000D01*
X118180000Y-55502500D01*
X118317500Y-55640000D01*
X118530000Y-55642661D01*
X118637819Y-55632042D01*
X118741494Y-55600592D01*
X118837042Y-55549521D01*
X118920790Y-55480790D01*
X118989521Y-55397042D01*
X119040592Y-55301494D01*
X119072042Y-55197819D01*
X119082661Y-55090000D01*
X119080000Y-54277500D01*
X118942500Y-54140000D01*
X118180000Y-54140000D01*
X118080000Y-54140000D01*
X118060000Y-54140000D01*
X118060000Y-54040000D01*
X118080000Y-54040000D01*
X118080000Y-54020000D01*
X118180000Y-54020000D01*
X118180000Y-54040000D01*
X118942500Y-54040000D01*
X119080000Y-53902500D01*
X119082334Y-53189990D01*
X119588307Y-53189990D01*
X119588307Y-53590000D01*
X119595065Y-53658612D01*
X119615078Y-53724587D01*
X119647578Y-53785390D01*
X119691315Y-53838685D01*
X119744610Y-53882422D01*
X119805413Y-53914922D01*
X119871388Y-53934935D01*
X119940000Y-53941693D01*
X120190001Y-53941693D01*
X120190001Y-54691469D01*
X118136585Y-56744886D01*
X118113682Y-56763682D01*
X118038703Y-56855045D01*
X117982989Y-56959279D01*
X117959542Y-57036574D01*
X117948681Y-57072379D01*
X117937096Y-57189999D01*
X117939999Y-57219473D01*
X117940000Y-58283694D01*
X117529368Y-59080000D01*
X117104477Y-59080000D01*
X117094888Y-59065649D01*
X117004351Y-58975112D01*
X116897890Y-58903978D01*
X116837484Y-58878957D01*
X116405113Y-58446586D01*
X116386317Y-58423683D01*
X116294955Y-58348704D01*
X116190721Y-58292990D01*
X116077621Y-58258682D01*
X115989474Y-58250000D01*
X115960000Y-58247097D01*
X115930526Y-58250000D01*
X109589473Y-58250000D01*
X109559999Y-58247097D01*
X109442378Y-58258682D01*
X109408070Y-58269089D01*
X109329279Y-58292990D01*
X109225045Y-58348704D01*
X109133683Y-58423683D01*
X109114895Y-58446576D01*
X108316586Y-59244887D01*
X108293683Y-59263683D01*
X108218704Y-59355046D01*
X108162990Y-59459280D01*
X108141319Y-59530720D01*
X108128682Y-59572380D01*
X108117097Y-59690000D01*
X108120000Y-59719474D01*
X108120001Y-61230517D01*
X108117097Y-61260000D01*
X108128682Y-61377620D01*
X108155175Y-61464954D01*
X108162991Y-61490721D01*
X108218705Y-61594955D01*
X108293684Y-61686317D01*
X108316581Y-61705108D01*
X109124891Y-62513419D01*
X109143683Y-62536317D01*
X109235045Y-62611296D01*
X109320037Y-62656725D01*
X109339279Y-62667010D01*
X109452379Y-62701319D01*
X109570000Y-62712903D01*
X109599476Y-62710000D01*
X110159997Y-62710000D01*
X110220402Y-62735021D01*
X110345981Y-62760000D01*
X110474019Y-62760000D01*
X110599598Y-62735021D01*
X110717890Y-62686022D01*
X110824351Y-62614888D01*
X110914888Y-62524351D01*
X110986022Y-62417890D01*
X111035021Y-62299598D01*
X111060000Y-62174019D01*
X111060000Y-62045981D01*
X111035021Y-61920402D01*
X110986022Y-61802110D01*
X110914888Y-61695649D01*
X110824351Y-61605112D01*
X110717890Y-61533978D01*
X110599598Y-61484979D01*
X110474019Y-61460000D01*
X110345981Y-61460000D01*
X110220402Y-61484979D01*
X110159997Y-61510000D01*
X109818528Y-61510000D01*
X109320000Y-61011473D01*
X109320000Y-59938527D01*
X109808529Y-59450000D01*
X115711473Y-59450000D01*
X115988957Y-59727484D01*
X116013978Y-59787890D01*
X116085112Y-59894351D01*
X116175649Y-59984888D01*
X116282110Y-60056022D01*
X116342517Y-60081044D01*
X116344887Y-60083414D01*
X116363683Y-60106317D01*
X116455045Y-60181296D01*
X116559279Y-60237010D01*
X116592242Y-60247009D01*
X116672379Y-60271318D01*
X116790000Y-60282903D01*
X116819474Y-60280000D01*
X118370526Y-60280000D01*
X118400000Y-60282903D01*
X118429474Y-60280000D01*
X118517621Y-60271318D01*
X118536829Y-60265491D01*
X118779717Y-60264444D01*
X118802379Y-60271319D01*
X118920000Y-60282903D01*
X118949476Y-60280000D01*
X124251475Y-60280000D01*
X125300000Y-61328526D01*
X125300000Y-61960526D01*
X125297097Y-61990000D01*
X125300000Y-62019473D01*
X125308682Y-62107620D01*
X125342990Y-62220720D01*
X125398704Y-62324954D01*
X125473683Y-62416317D01*
X125496586Y-62435113D01*
X125954206Y-62892733D01*
X125952087Y-62914244D01*
X125954990Y-62943717D01*
X125963672Y-63031864D01*
X125997980Y-63144964D01*
X126000001Y-63148745D01*
X126000000Y-64000526D01*
X125997097Y-64030000D01*
X126000001Y-64059484D01*
X126000000Y-68631472D01*
X123631473Y-71000000D01*
X118868528Y-71000000D01*
X118525113Y-70656585D01*
X118506317Y-70633683D01*
X118414955Y-70558704D01*
X118310721Y-70502990D01*
X118197621Y-70468682D01*
X118162646Y-70465237D01*
X118089598Y-70434979D01*
X117964019Y-70410000D01*
X117835981Y-70410000D01*
X117710402Y-70434979D01*
X117649997Y-70460000D01*
X116920003Y-70460000D01*
X116859598Y-70434979D01*
X116734019Y-70410000D01*
X116605981Y-70410000D01*
X116480402Y-70434979D01*
X116419997Y-70460000D01*
X113982482Y-70460000D01*
X113917556Y-70424501D01*
X113794481Y-70385889D01*
X113666237Y-70372030D01*
X111556237Y-70352030D01*
X111420714Y-70364826D01*
X111297331Y-70402446D01*
X111183658Y-70463413D01*
X111084063Y-70545385D01*
X111002374Y-70645212D01*
X110941730Y-70759058D01*
X110904462Y-70882547D01*
X110892001Y-71010935D01*
X110894501Y-72770935D01*
X110897861Y-72836425D01*
X110923399Y-72962862D01*
X110973112Y-73081888D01*
X111045092Y-73188928D01*
X111079571Y-73223205D01*
X111056740Y-73257374D01*
X110992665Y-73412064D01*
X110960000Y-73576282D01*
X110960000Y-73743718D01*
X110992665Y-73907936D01*
X111056740Y-74062626D01*
X111149762Y-74201844D01*
X111215748Y-74267830D01*
X111218682Y-74297620D01*
X111220001Y-74301968D01*
X111220001Y-74963001D01*
X111172216Y-75002216D01*
X111100497Y-75089607D01*
X111047205Y-75189309D01*
X111014388Y-75297493D01*
X111003307Y-75410000D01*
X111003307Y-75910000D01*
X111014388Y-76022507D01*
X111047205Y-76130691D01*
X111100497Y-76230393D01*
X111172216Y-76317784D01*
X111220000Y-76356999D01*
X111220000Y-76481462D01*
X111160386Y-76530386D01*
X111089444Y-76616829D01*
X111036729Y-76715451D01*
X111004268Y-76822462D01*
X110993307Y-76933750D01*
X110993307Y-76982288D01*
X110906670Y-77052786D01*
X110824424Y-77152154D01*
X110763144Y-77265659D01*
X110725185Y-77388938D01*
X110712006Y-77517254D01*
X110704382Y-79343836D01*
X110716407Y-79471832D01*
X110753254Y-79595448D01*
X110813509Y-79709500D01*
X110880000Y-79791322D01*
X110880000Y-80036082D01*
X110823171Y-79989444D01*
X110724549Y-79936729D01*
X110617538Y-79904268D01*
X110506250Y-79893307D01*
X110068750Y-79893307D01*
X109957462Y-79904268D01*
X109850451Y-79936729D01*
X109751829Y-79989444D01*
X109665386Y-80060386D01*
X109594444Y-80146829D01*
X109541729Y-80245451D01*
X109509268Y-80352462D01*
X109500000Y-80446561D01*
X109490732Y-80352462D01*
X109458271Y-80245451D01*
X109405556Y-80146829D01*
X109334614Y-80060386D01*
X109300000Y-80031979D01*
X109300000Y-79272082D01*
X109360238Y-79211844D01*
X109453260Y-79072626D01*
X109517335Y-78917936D01*
X109550000Y-78753718D01*
X109550000Y-78586282D01*
X109517335Y-78422064D01*
X109453260Y-78267374D01*
X109360238Y-78128156D01*
X109300000Y-78067918D01*
X109300000Y-77686768D01*
X109318612Y-77684935D01*
X109384587Y-77664922D01*
X109445390Y-77632422D01*
X109498685Y-77588685D01*
X109542422Y-77535390D01*
X109574922Y-77474587D01*
X109594935Y-77408612D01*
X109601693Y-77340000D01*
X109601693Y-76240000D01*
X109594935Y-76171388D01*
X109574922Y-76105413D01*
X109542422Y-76044610D01*
X109498685Y-75991315D01*
X109445390Y-75947578D01*
X109384587Y-75915078D01*
X109318612Y-75895065D01*
X109250000Y-75888307D01*
X108150000Y-75888307D01*
X108081388Y-75895065D01*
X108015413Y-75915078D01*
X107954610Y-75947578D01*
X107901315Y-75991315D01*
X107857578Y-76044610D01*
X107825078Y-76105413D01*
X107805065Y-76171388D01*
X107798307Y-76240000D01*
X106189756Y-76240000D01*
X106195046Y-76181414D01*
X106173098Y-75975750D01*
X106111449Y-75778320D01*
X106022009Y-75610986D01*
X105823219Y-75577491D01*
X105210711Y-76190000D01*
X105069289Y-76190000D01*
X104456781Y-75577491D01*
X104257991Y-75610986D01*
X104161979Y-75794184D01*
X104103551Y-75992591D01*
X104084954Y-76198586D01*
X100375000Y-76198586D01*
X100375000Y-75506781D01*
X104527491Y-75506781D01*
X105140000Y-76119289D01*
X105752509Y-75506781D01*
X105719014Y-75307991D01*
X105535816Y-75211979D01*
X105337409Y-75153551D01*
X105131414Y-75134954D01*
X104925750Y-75156902D01*
X104728320Y-75218551D01*
X104560986Y-75307991D01*
X104527491Y-75506781D01*
X100375000Y-75506781D01*
X100375000Y-71155709D01*
X100396985Y-71236490D01*
X100480751Y-71413997D01*
X100597537Y-71571752D01*
X100742856Y-71703692D01*
X100911122Y-71804746D01*
X101095870Y-71871031D01*
X101290000Y-71900000D01*
X101690000Y-71900000D01*
X101690000Y-70950000D01*
X101790000Y-70950000D01*
X101790000Y-71900000D01*
X102190000Y-71900000D01*
X102384130Y-71871031D01*
X102568878Y-71804746D01*
X102737144Y-71703692D01*
X102882463Y-71571752D01*
X102999249Y-71413997D01*
X103083015Y-71236490D01*
X103118631Y-71105623D01*
X103391369Y-71105623D01*
X103426985Y-71236490D01*
X103510751Y-71413997D01*
X103627537Y-71571752D01*
X103772856Y-71703692D01*
X103941122Y-71804746D01*
X104125870Y-71871031D01*
X104320000Y-71900000D01*
X105070000Y-71900000D01*
X105070000Y-70950000D01*
X105170000Y-70950000D01*
X105170000Y-71900000D01*
X105920000Y-71900000D01*
X106114130Y-71871031D01*
X106298878Y-71804746D01*
X106467144Y-71703692D01*
X106612463Y-71571752D01*
X106729249Y-71413997D01*
X106813015Y-71236490D01*
X106848631Y-71105623D01*
X106731050Y-70950000D01*
X105170000Y-70950000D01*
X105070000Y-70950000D01*
X103508950Y-70950000D01*
X103391369Y-71105623D01*
X103118631Y-71105623D01*
X103001050Y-70950000D01*
X101790000Y-70950000D01*
X101690000Y-70950000D01*
X101670000Y-70950000D01*
X101670000Y-70850000D01*
X101690000Y-70850000D01*
X101690000Y-69900000D01*
X101790000Y-69900000D01*
X101790000Y-70850000D01*
X103001050Y-70850000D01*
X103118631Y-70694377D01*
X103083015Y-70563510D01*
X102999249Y-70386003D01*
X102882463Y-70228248D01*
X102737144Y-70096308D01*
X102568878Y-69995254D01*
X102384130Y-69928969D01*
X102190000Y-69900000D01*
X101790000Y-69900000D01*
X101690000Y-69900000D01*
X101290000Y-69900000D01*
X101095870Y-69928969D01*
X100911122Y-69995254D01*
X100742856Y-70096308D01*
X100597537Y-70228248D01*
X100480751Y-70386003D01*
X100396985Y-70563510D01*
X100375000Y-70644291D01*
X100375000Y-64825737D01*
X103347096Y-64825737D01*
X103349999Y-64855211D01*
X103350000Y-68294779D01*
X103347096Y-68324263D01*
X103358681Y-68441883D01*
X103385874Y-68531526D01*
X103392990Y-68554984D01*
X103448704Y-68659218D01*
X103523683Y-68750580D01*
X103546580Y-68769371D01*
X103880627Y-69103419D01*
X103899419Y-69126317D01*
X103978726Y-69191402D01*
X103954740Y-69238438D01*
X103909238Y-69399572D01*
X103896046Y-69566488D01*
X103915671Y-69732769D01*
X103967359Y-69892027D01*
X104009435Y-69970744D01*
X103941122Y-69995254D01*
X103772856Y-70096308D01*
X103627537Y-70228248D01*
X103510751Y-70386003D01*
X103426985Y-70563510D01*
X103391369Y-70694377D01*
X103508950Y-70850000D01*
X105070000Y-70850000D01*
X105070000Y-70339790D01*
X105092027Y-70332641D01*
X105170000Y-70290963D01*
X105170000Y-70850000D01*
X106731050Y-70850000D01*
X106848631Y-70694377D01*
X106813015Y-70563510D01*
X106729249Y-70386003D01*
X106612463Y-70228248D01*
X106565149Y-70185290D01*
X106570132Y-70090843D01*
X106100000Y-69620711D01*
X106085858Y-69634853D01*
X106015147Y-69564142D01*
X106029289Y-69550000D01*
X106015147Y-69535858D01*
X106085858Y-69465147D01*
X106100000Y-69479289D01*
X106114142Y-69465147D01*
X106184853Y-69535858D01*
X106170711Y-69550000D01*
X106640843Y-70020132D01*
X106819196Y-70010723D01*
X106895260Y-69861562D01*
X106940762Y-69700428D01*
X106941574Y-69690157D01*
X106963474Y-69688000D01*
X108090000Y-69688000D01*
X108090001Y-73094217D01*
X108081388Y-73095065D01*
X108015413Y-73115078D01*
X107954610Y-73147578D01*
X107901315Y-73191315D01*
X107857578Y-73244610D01*
X107825078Y-73305413D01*
X107805065Y-73371388D01*
X107798307Y-73440000D01*
X107798307Y-74540000D01*
X107805065Y-74608612D01*
X107825078Y-74674587D01*
X107857578Y-74735390D01*
X107901315Y-74788685D01*
X107954610Y-74832422D01*
X108015413Y-74864922D01*
X108081388Y-74884935D01*
X108150000Y-74891693D01*
X109250000Y-74891693D01*
X109318612Y-74884935D01*
X109384587Y-74864922D01*
X109445390Y-74832422D01*
X109498685Y-74788685D01*
X109542422Y-74735390D01*
X109574922Y-74674587D01*
X109594935Y-74608612D01*
X109601693Y-74540000D01*
X109601693Y-73440000D01*
X109594935Y-73371388D01*
X109574922Y-73305413D01*
X109542422Y-73244610D01*
X109498685Y-73191315D01*
X109445390Y-73147578D01*
X109384587Y-73115078D01*
X109318612Y-73095065D01*
X109290000Y-73092247D01*
X109290000Y-69714807D01*
X109373278Y-69584107D01*
X109431919Y-69535981D01*
X109700000Y-69535981D01*
X109700000Y-69664019D01*
X109724979Y-69789598D01*
X109773978Y-69907890D01*
X109845112Y-70014351D01*
X109935649Y-70104888D01*
X110042110Y-70176022D01*
X110122780Y-70209437D01*
X110125045Y-70211296D01*
X110229279Y-70267010D01*
X110342379Y-70301318D01*
X110430526Y-70310000D01*
X110430533Y-70310000D01*
X110459999Y-70312902D01*
X110489465Y-70310000D01*
X123500526Y-70310000D01*
X123530000Y-70312903D01*
X123559474Y-70310000D01*
X123647621Y-70301318D01*
X123760721Y-70267010D01*
X123864955Y-70211296D01*
X123956317Y-70136317D01*
X123975113Y-70113414D01*
X125523419Y-68565109D01*
X125546317Y-68546317D01*
X125621296Y-68454955D01*
X125677010Y-68350721D01*
X125685929Y-68321318D01*
X125711319Y-68237621D01*
X125722903Y-68120000D01*
X125720000Y-68090524D01*
X125720000Y-66619476D01*
X125722903Y-66590000D01*
X125711319Y-66472379D01*
X125708422Y-66462828D01*
X125731296Y-66434955D01*
X125787010Y-66330721D01*
X125821318Y-66217621D01*
X125830000Y-66129474D01*
X125830000Y-66129473D01*
X125832903Y-66100001D01*
X125830000Y-66070527D01*
X125830000Y-63129474D01*
X125832903Y-63100000D01*
X125821318Y-62982379D01*
X125787010Y-62869279D01*
X125783524Y-62862757D01*
X125731296Y-62765045D01*
X125656317Y-62673683D01*
X125633419Y-62654891D01*
X123705113Y-60726586D01*
X123686317Y-60703683D01*
X123594955Y-60628704D01*
X123490721Y-60572990D01*
X123377621Y-60538682D01*
X123289474Y-60530000D01*
X123260000Y-60527097D01*
X123230526Y-60530000D01*
X113328528Y-60530000D01*
X112885113Y-60086586D01*
X112866317Y-60063683D01*
X112774955Y-59988704D01*
X112670721Y-59932990D01*
X112557621Y-59898682D01*
X112469474Y-59890000D01*
X112440000Y-59887097D01*
X112410526Y-59890000D01*
X110617935Y-59890000D01*
X110569598Y-59869978D01*
X110444019Y-59844999D01*
X110315981Y-59844999D01*
X110190402Y-59869978D01*
X110072110Y-59918977D01*
X109965649Y-59990111D01*
X109875112Y-60080648D01*
X109803978Y-60187109D01*
X109754979Y-60305401D01*
X109730000Y-60430980D01*
X109730000Y-60559018D01*
X109754979Y-60684597D01*
X109803978Y-60802889D01*
X109875112Y-60909350D01*
X109965649Y-60999887D01*
X110072110Y-61071021D01*
X110190402Y-61120020D01*
X110315981Y-61144999D01*
X110444019Y-61144999D01*
X110569598Y-61120020D01*
X110642071Y-61090000D01*
X112191473Y-61090000D01*
X112634891Y-61533419D01*
X112653683Y-61556317D01*
X112745045Y-61631296D01*
X112849279Y-61687010D01*
X112962379Y-61721318D01*
X113080000Y-61732903D01*
X113109474Y-61730000D01*
X123011473Y-61730000D01*
X124630001Y-63348529D01*
X124630000Y-65820710D01*
X124622110Y-65823978D01*
X124515649Y-65895112D01*
X124425112Y-65985649D01*
X124353978Y-66092110D01*
X124304979Y-66210402D01*
X124280000Y-66335981D01*
X124280000Y-66464019D01*
X124304979Y-66589598D01*
X124353978Y-66707890D01*
X124425112Y-66814351D01*
X124515649Y-66904888D01*
X124520000Y-66907795D01*
X124520001Y-67871471D01*
X123281473Y-69110000D01*
X110779239Y-69110000D01*
X110764351Y-69095112D01*
X110657890Y-69023978D01*
X110539598Y-68974979D01*
X110414019Y-68950000D01*
X110285981Y-68950000D01*
X110160402Y-68974979D01*
X110042110Y-69023978D01*
X109935649Y-69095112D01*
X109845112Y-69185649D01*
X109773978Y-69292110D01*
X109724979Y-69410402D01*
X109700000Y-69535981D01*
X109431919Y-69535981D01*
X109458317Y-69514317D01*
X109477113Y-69491414D01*
X110226835Y-68741693D01*
X110890000Y-68741693D01*
X110958612Y-68734935D01*
X111024587Y-68714922D01*
X111085390Y-68682422D01*
X111138685Y-68638685D01*
X111182422Y-68585390D01*
X111214922Y-68524587D01*
X111234935Y-68458612D01*
X111241693Y-68390000D01*
X111241693Y-68256013D01*
X112679966Y-68256013D01*
X112679966Y-68384051D01*
X112704945Y-68509630D01*
X112753944Y-68627922D01*
X112825078Y-68734383D01*
X112915615Y-68824920D01*
X113022076Y-68896054D01*
X113140368Y-68945053D01*
X113265947Y-68970032D01*
X113393985Y-68970032D01*
X113519564Y-68945053D01*
X113637856Y-68896054D01*
X113676801Y-68870032D01*
X118932960Y-68870032D01*
X118959968Y-68872692D01*
X118986976Y-68870032D01*
X118986986Y-68870032D01*
X119067787Y-68862074D01*
X119171462Y-68830624D01*
X119267010Y-68779553D01*
X119350758Y-68710822D01*
X119367981Y-68689836D01*
X119773127Y-68284690D01*
X119808496Y-68313716D01*
X119903876Y-68364698D01*
X120007370Y-68396092D01*
X120115000Y-68406693D01*
X120665000Y-68406693D01*
X120772630Y-68396092D01*
X120876124Y-68364698D01*
X120971504Y-68313716D01*
X121055106Y-68245106D01*
X121123716Y-68161504D01*
X121150076Y-68112188D01*
X121170497Y-68150393D01*
X121242216Y-68237784D01*
X121329607Y-68309503D01*
X121429309Y-68362795D01*
X121537493Y-68395612D01*
X121650000Y-68406693D01*
X121875298Y-68406693D01*
X121929998Y-68461394D01*
X121929998Y-68514019D01*
X121954977Y-68639598D01*
X122003976Y-68757890D01*
X122075110Y-68864351D01*
X122165647Y-68954888D01*
X122272108Y-69026022D01*
X122390400Y-69075021D01*
X122515979Y-69100000D01*
X122644017Y-69100000D01*
X122769596Y-69075021D01*
X122887888Y-69026022D01*
X122994349Y-68954888D01*
X123084886Y-68864351D01*
X123156020Y-68757890D01*
X123205019Y-68639598D01*
X123222504Y-68551693D01*
X123570000Y-68551693D01*
X123677630Y-68541092D01*
X123781124Y-68509698D01*
X123876504Y-68458716D01*
X123960106Y-68390106D01*
X124028716Y-68306504D01*
X124079698Y-68211124D01*
X124111092Y-68107630D01*
X124121693Y-68000000D01*
X124121693Y-66400000D01*
X124111092Y-66292370D01*
X124079698Y-66188876D01*
X124028716Y-66093496D01*
X123960106Y-66009894D01*
X123876504Y-65941284D01*
X123781124Y-65890302D01*
X123677630Y-65858908D01*
X123570000Y-65848307D01*
X123170000Y-65848307D01*
X123062370Y-65858908D01*
X122958876Y-65890302D01*
X122863496Y-65941284D01*
X122795017Y-65997483D01*
X122925000Y-65867500D01*
X122927661Y-65605000D01*
X122917042Y-65497181D01*
X122885592Y-65393506D01*
X122834521Y-65297958D01*
X122765790Y-65214210D01*
X122687551Y-65150000D01*
X124430742Y-65150000D01*
X124459161Y-65147283D01*
X124487349Y-65138909D01*
X124513361Y-65125196D01*
X124536198Y-65106673D01*
X124554982Y-65084049D01*
X124568992Y-65058196D01*
X124577690Y-65030107D01*
X124580740Y-65000860D01*
X124589916Y-63400860D01*
X124587036Y-63370736D01*
X124578500Y-63342597D01*
X124564638Y-63316664D01*
X124545984Y-63293934D01*
X124523254Y-63275280D01*
X124497321Y-63261418D01*
X124469182Y-63252882D01*
X124439918Y-63250000D01*
X123380082Y-63250000D01*
X123350830Y-63252880D01*
X123322690Y-63261414D01*
X123296756Y-63275273D01*
X123274024Y-63293926D01*
X123255368Y-63316655D01*
X123241504Y-63342587D01*
X123232966Y-63370725D01*
X123230082Y-63399989D01*
X123230011Y-64320000D01*
X121360000Y-64320000D01*
X121333724Y-64322319D01*
X121305417Y-64330283D01*
X121279209Y-64343616D01*
X121256105Y-64361806D01*
X121236994Y-64384154D01*
X121222610Y-64409801D01*
X121213505Y-64437761D01*
X121210031Y-64466960D01*
X121199289Y-64996960D01*
X121202140Y-65029264D01*
X121210676Y-65057403D01*
X121224538Y-65083336D01*
X121229614Y-65089522D01*
X121213506Y-65094408D01*
X121117958Y-65145479D01*
X121034210Y-65214210D01*
X120965479Y-65297958D01*
X120946727Y-65333040D01*
X120876124Y-65295302D01*
X120772630Y-65263908D01*
X120665000Y-65253307D01*
X120115000Y-65253307D01*
X120007370Y-65263908D01*
X119903876Y-65295302D01*
X119808496Y-65346284D01*
X119724894Y-65414894D01*
X119658408Y-65495908D01*
X119572500Y-65410000D01*
X118210000Y-65410000D01*
X118210000Y-66772500D01*
X118347500Y-66910000D01*
X118964990Y-66912022D01*
X118964990Y-67537193D01*
X118732151Y-67770032D01*
X113676801Y-67770032D01*
X113637856Y-67744010D01*
X113519564Y-67695011D01*
X113393985Y-67670032D01*
X113265947Y-67670032D01*
X113140368Y-67695011D01*
X113022076Y-67744010D01*
X112915615Y-67815144D01*
X112825078Y-67905681D01*
X112753944Y-68012142D01*
X112704945Y-68130434D01*
X112679966Y-68256013D01*
X111241693Y-68256013D01*
X111241693Y-66990000D01*
X111234935Y-66921388D01*
X111214922Y-66855413D01*
X111182422Y-66794610D01*
X111138685Y-66741315D01*
X111085390Y-66697578D01*
X111056262Y-66682008D01*
X111117042Y-66649521D01*
X111200790Y-66580790D01*
X111269521Y-66497042D01*
X111320592Y-66401494D01*
X111333179Y-66360000D01*
X116607339Y-66360000D01*
X116617958Y-66467819D01*
X116649408Y-66571494D01*
X116700479Y-66667042D01*
X116769210Y-66750790D01*
X116852958Y-66819521D01*
X116948506Y-66870592D01*
X117052181Y-66902042D01*
X117160000Y-66912661D01*
X117972500Y-66910000D01*
X118110000Y-66772500D01*
X118110000Y-65410000D01*
X116747500Y-65410000D01*
X116610000Y-65547500D01*
X116607339Y-66360000D01*
X111333179Y-66360000D01*
X111352042Y-66297819D01*
X111362661Y-66190000D01*
X111360000Y-65677500D01*
X111222500Y-65540000D01*
X110260000Y-65540000D01*
X110260000Y-65560000D01*
X110160000Y-65560000D01*
X110160000Y-65540000D01*
X110140000Y-65540000D01*
X110140000Y-65440000D01*
X110160000Y-65440000D01*
X110160000Y-64377500D01*
X110260000Y-64377500D01*
X110260000Y-65440000D01*
X111222500Y-65440000D01*
X111360000Y-65302500D01*
X111362661Y-64790000D01*
X111352042Y-64682181D01*
X111320592Y-64578506D01*
X111269521Y-64482958D01*
X111200790Y-64399210D01*
X111153014Y-64360000D01*
X116607339Y-64360000D01*
X116610000Y-65172500D01*
X116747500Y-65310000D01*
X118110000Y-65310000D01*
X118110000Y-63947500D01*
X118210000Y-63947500D01*
X118210000Y-65310000D01*
X119572500Y-65310000D01*
X119710000Y-65172500D01*
X119712661Y-64360000D01*
X119702042Y-64252181D01*
X119670592Y-64148506D01*
X119619521Y-64052958D01*
X119550790Y-63969210D01*
X119467042Y-63900479D01*
X119371494Y-63849408D01*
X119267819Y-63817958D01*
X119160000Y-63807339D01*
X118347500Y-63810000D01*
X118210000Y-63947500D01*
X118110000Y-63947500D01*
X117972500Y-63810000D01*
X117160000Y-63807339D01*
X117052181Y-63817958D01*
X116948506Y-63849408D01*
X116852958Y-63900479D01*
X116769210Y-63969210D01*
X116700479Y-64052958D01*
X116649408Y-64148506D01*
X116617958Y-64252181D01*
X116607339Y-64360000D01*
X111153014Y-64360000D01*
X111117042Y-64330479D01*
X111021494Y-64279408D01*
X110917819Y-64247958D01*
X110810000Y-64237339D01*
X110397500Y-64240000D01*
X110260000Y-64377500D01*
X110160000Y-64377500D01*
X110022500Y-64240000D01*
X109610000Y-64237339D01*
X109502181Y-64247958D01*
X109398506Y-64279408D01*
X109302958Y-64330479D01*
X109254802Y-64370000D01*
X106746821Y-64370000D01*
X106725021Y-64260402D01*
X106676022Y-64142110D01*
X106604888Y-64035649D01*
X106514351Y-63945112D01*
X106407890Y-63873978D01*
X106289598Y-63824979D01*
X106245496Y-63816207D01*
X106100000Y-63670711D01*
X106085858Y-63684853D01*
X106015147Y-63614142D01*
X106029289Y-63600000D01*
X106170711Y-63600000D01*
X106640843Y-64070132D01*
X106819196Y-64060723D01*
X106895260Y-63911562D01*
X106940762Y-63750428D01*
X106953954Y-63583512D01*
X106934329Y-63417231D01*
X106882641Y-63257973D01*
X106819196Y-63139277D01*
X106640843Y-63129868D01*
X106170711Y-63600000D01*
X106029289Y-63600000D01*
X106015147Y-63585858D01*
X106085858Y-63515147D01*
X106100000Y-63529289D01*
X106570132Y-63059157D01*
X106565149Y-62964710D01*
X106612463Y-62921752D01*
X106729249Y-62763997D01*
X106813015Y-62586490D01*
X106848631Y-62455623D01*
X106731050Y-62300000D01*
X105170000Y-62300000D01*
X105170000Y-62860037D01*
X105070000Y-62809043D01*
X105070000Y-62300000D01*
X103508950Y-62300000D01*
X103391369Y-62455623D01*
X103426985Y-62586490D01*
X103510751Y-62763997D01*
X103627537Y-62921752D01*
X103772856Y-63053692D01*
X103941122Y-63154746D01*
X104010265Y-63179554D01*
X103954740Y-63288438D01*
X103909238Y-63449572D01*
X103896046Y-63616488D01*
X103915671Y-63782769D01*
X103967359Y-63942027D01*
X103976981Y-63960029D01*
X103899419Y-64023683D01*
X103880627Y-64046581D01*
X103546585Y-64380624D01*
X103523682Y-64399420D01*
X103448703Y-64490783D01*
X103392989Y-64595017D01*
X103365661Y-64685106D01*
X103358681Y-64708117D01*
X103347096Y-64825737D01*
X100375000Y-64825737D01*
X100375000Y-62505709D01*
X100396985Y-62586490D01*
X100480751Y-62763997D01*
X100597537Y-62921752D01*
X100742856Y-63053692D01*
X100911122Y-63154746D01*
X101095870Y-63221031D01*
X101290000Y-63250000D01*
X101690000Y-63250000D01*
X101690000Y-62300000D01*
X101790000Y-62300000D01*
X101790000Y-63250000D01*
X102190000Y-63250000D01*
X102384130Y-63221031D01*
X102568878Y-63154746D01*
X102737144Y-63053692D01*
X102882463Y-62921752D01*
X102999249Y-62763997D01*
X103083015Y-62586490D01*
X103118631Y-62455623D01*
X103001050Y-62300000D01*
X101790000Y-62300000D01*
X101690000Y-62300000D01*
X101670000Y-62300000D01*
X101670000Y-62200000D01*
X101690000Y-62200000D01*
X101690000Y-61250000D01*
X101790000Y-61250000D01*
X101790000Y-62200000D01*
X103001050Y-62200000D01*
X103118631Y-62044377D01*
X103391369Y-62044377D01*
X103508950Y-62200000D01*
X105070000Y-62200000D01*
X105070000Y-61250000D01*
X105170000Y-61250000D01*
X105170000Y-62200000D01*
X106731050Y-62200000D01*
X106848631Y-62044377D01*
X106813015Y-61913510D01*
X106729249Y-61736003D01*
X106612463Y-61578248D01*
X106467144Y-61446308D01*
X106298878Y-61345254D01*
X106114130Y-61278969D01*
X105920000Y-61250000D01*
X105170000Y-61250000D01*
X105070000Y-61250000D01*
X104320000Y-61250000D01*
X104125870Y-61278969D01*
X103941122Y-61345254D01*
X103772856Y-61446308D01*
X103627537Y-61578248D01*
X103510751Y-61736003D01*
X103426985Y-61913510D01*
X103391369Y-62044377D01*
X103118631Y-62044377D01*
X103083015Y-61913510D01*
X102999249Y-61736003D01*
X102882463Y-61578248D01*
X102737144Y-61446308D01*
X102568878Y-61345254D01*
X102384130Y-61278969D01*
X102190000Y-61250000D01*
X101790000Y-61250000D01*
X101690000Y-61250000D01*
X101290000Y-61250000D01*
X101095870Y-61278969D01*
X100911122Y-61345254D01*
X100742856Y-61446308D01*
X100597537Y-61578248D01*
X100480751Y-61736003D01*
X100396985Y-61913510D01*
X100375000Y-61994291D01*
X100375000Y-54540484D01*
X100458506Y-54742085D01*
X100803235Y-55258008D01*
X101241992Y-55696765D01*
X101757915Y-56041494D01*
X102331179Y-56278948D01*
X102939752Y-56400000D01*
X103560248Y-56400000D01*
X104168821Y-56278948D01*
X104742085Y-56041494D01*
X105258008Y-55696765D01*
X105696765Y-55258008D01*
X106041494Y-54742085D01*
X106205972Y-54345000D01*
X109882339Y-54345000D01*
X109892958Y-54452819D01*
X109924408Y-54556494D01*
X109975479Y-54652042D01*
X110044210Y-54735790D01*
X110127958Y-54804521D01*
X110223506Y-54855592D01*
X110327181Y-54887042D01*
X110435000Y-54897661D01*
X110722500Y-54895000D01*
X110860000Y-54757500D01*
X110860000Y-53945000D01*
X110022500Y-53945000D01*
X109885000Y-54082500D01*
X109882339Y-54345000D01*
X106205972Y-54345000D01*
X106278948Y-54168821D01*
X106400000Y-53560248D01*
X106400000Y-52939752D01*
X106278948Y-52331179D01*
X106041494Y-51757915D01*
X105696765Y-51241992D01*
X105258008Y-50803235D01*
X104742085Y-50458506D01*
X104540484Y-50375000D01*
X145459516Y-50375000D01*
X145257915Y-50458506D01*
G37*
G04 #@! TD.AperFunction*
D31*
X104834853Y-69535858D02*
X104820711Y-69550000D01*
X104834853Y-69564142D01*
X104764142Y-69634853D01*
X104750000Y-69620711D01*
X104735858Y-69634853D01*
X104665147Y-69564142D01*
X104679289Y-69550000D01*
X104665147Y-69535858D01*
X104735858Y-69465147D01*
X104750000Y-69479289D01*
X104764142Y-69465147D01*
X104834853Y-69535858D01*
G04 #@! TA.AperFunction,Conductor*
D32*
G36*
X104834853Y-69535858D02*
G01*
X104820711Y-69550000D01*
X104834853Y-69564142D01*
X104764142Y-69634853D01*
X104750000Y-69620711D01*
X104735858Y-69634853D01*
X104665147Y-69564142D01*
X104679289Y-69550000D01*
X104665147Y-69535858D01*
X104735858Y-69465147D01*
X104750000Y-69479289D01*
X104764142Y-69465147D01*
X104834853Y-69535858D01*
G37*
G04 #@! TD.AperFunction*
D31*
X104834853Y-63585858D02*
X104820711Y-63600000D01*
X104834853Y-63614142D01*
X104764142Y-63684853D01*
X104750000Y-63670711D01*
X104735858Y-63684853D01*
X104665147Y-63614142D01*
X104679289Y-63600000D01*
X104665147Y-63585858D01*
X104735858Y-63515147D01*
X104750000Y-63529289D01*
X104764142Y-63515147D01*
X104834853Y-63585858D01*
G04 #@! TA.AperFunction,Conductor*
D32*
G36*
X104834853Y-63585858D02*
G01*
X104820711Y-63600000D01*
X104834853Y-63614142D01*
X104764142Y-63684853D01*
X104750000Y-63670711D01*
X104735858Y-63684853D01*
X104665147Y-63614142D01*
X104679289Y-63600000D01*
X104665147Y-63585858D01*
X104735858Y-63515147D01*
X104750000Y-63529289D01*
X104764142Y-63515147D01*
X104834853Y-63585858D01*
G37*
G04 #@! TD.AperFunction*
D31*
X121950000Y-66005000D02*
X121970000Y-66005000D01*
X121970000Y-66105000D01*
X121950000Y-66105000D01*
X121950000Y-66125000D01*
X121850000Y-66125000D01*
X121850000Y-66105000D01*
X121830000Y-66105000D01*
X121830000Y-66005000D01*
X121850000Y-66005000D01*
X121850000Y-65985000D01*
X121950000Y-65985000D01*
X121950000Y-66005000D01*
G04 #@! TA.AperFunction,Conductor*
D32*
G36*
X121950000Y-66005000D02*
G01*
X121970000Y-66005000D01*
X121970000Y-66105000D01*
X121950000Y-66105000D01*
X121950000Y-66125000D01*
X121850000Y-66125000D01*
X121850000Y-66105000D01*
X121830000Y-66105000D01*
X121830000Y-66005000D01*
X121850000Y-66005000D01*
X121850000Y-65985000D01*
X121950000Y-65985000D01*
X121950000Y-66005000D01*
G37*
G04 #@! TD.AperFunction*
D31*
X121950002Y-65192498D02*
X121950002Y-65150000D01*
X121992500Y-65150000D01*
X121950002Y-65192498D01*
G04 #@! TA.AperFunction,Conductor*
D32*
G36*
X121950002Y-65192498D02*
G01*
X121950002Y-65150000D01*
X121992500Y-65150000D01*
X121950002Y-65192498D01*
G37*
G04 #@! TD.AperFunction*
G04 #@! TD*
D33*
G04 #@! TO.N,/VO*
X128709746Y-76699193D02*
X128732762Y-76727238D01*
X128844680Y-76819087D01*
X128972367Y-76887337D01*
X129091575Y-76923498D01*
X129138864Y-76981119D01*
X129138554Y-77079258D01*
X129048169Y-77189392D01*
X128970722Y-77334284D01*
X128923031Y-77491500D01*
X128906928Y-77655000D01*
X128906928Y-78055000D01*
X128923031Y-78218500D01*
X128970722Y-78375716D01*
X129048169Y-78520608D01*
X129073186Y-78551092D01*
X129051329Y-78577725D01*
X128972150Y-78725858D01*
X128923392Y-78886592D01*
X128906928Y-79053750D01*
X128906928Y-79491250D01*
X128923392Y-79658408D01*
X128972150Y-79819142D01*
X129051329Y-79967275D01*
X129127426Y-80060000D01*
X129051329Y-80152725D01*
X128972150Y-80300858D01*
X128923392Y-80461592D01*
X128906928Y-80628750D01*
X128906928Y-81066250D01*
X128923392Y-81233408D01*
X128972150Y-81394142D01*
X129051329Y-81542275D01*
X129124195Y-81631063D01*
X129123400Y-81883000D01*
X119594316Y-81883000D01*
X119650537Y-81814494D01*
X119709502Y-81704180D01*
X119745812Y-81584482D01*
X119758072Y-81460000D01*
X119758072Y-79960000D01*
X119745812Y-79835518D01*
X119709502Y-79715820D01*
X119650537Y-79605506D01*
X119571185Y-79508815D01*
X119474494Y-79429463D01*
X119364180Y-79370498D01*
X119244482Y-79334188D01*
X119120000Y-79321928D01*
X117120000Y-79321928D01*
X116995518Y-79334188D01*
X116993425Y-79334823D01*
X116991518Y-79315679D01*
X116984264Y-79291863D01*
X116972503Y-79269919D01*
X116956687Y-79250692D01*
X116937424Y-79234920D01*
X116915454Y-79223208D01*
X116891622Y-79216008D01*
X116866403Y-79213597D01*
X112814433Y-79232212D01*
X112810721Y-79230807D01*
X112778239Y-79226420D01*
X111489905Y-79220196D01*
X111494074Y-78221209D01*
X111563750Y-78228072D01*
X112076250Y-78228072D01*
X112243408Y-78211608D01*
X112404142Y-78162850D01*
X112552275Y-78083671D01*
X112682115Y-77977115D01*
X112788671Y-77847275D01*
X112844189Y-77743409D01*
X112954680Y-77834087D01*
X113082367Y-77902337D01*
X113220915Y-77944365D01*
X113328895Y-77955000D01*
X113328904Y-77955000D01*
X113364999Y-77958555D01*
X113401094Y-77955000D01*
X119263897Y-77955000D01*
X119300002Y-77958556D01*
X119336107Y-77955000D01*
X119444087Y-77944365D01*
X119582635Y-77902337D01*
X119710322Y-77834087D01*
X119822240Y-77742238D01*
X119845260Y-77714188D01*
X121344448Y-76215001D01*
X128225555Y-76215001D01*
X128709746Y-76699193D01*
G04 #@! TA.AperFunction,Conductor*
D32*
G36*
X128709746Y-76699193D02*
G01*
X128732762Y-76727238D01*
X128844680Y-76819087D01*
X128972367Y-76887337D01*
X129091575Y-76923498D01*
X129138864Y-76981119D01*
X129138554Y-77079258D01*
X129048169Y-77189392D01*
X128970722Y-77334284D01*
X128923031Y-77491500D01*
X128906928Y-77655000D01*
X128906928Y-78055000D01*
X128923031Y-78218500D01*
X128970722Y-78375716D01*
X129048169Y-78520608D01*
X129073186Y-78551092D01*
X129051329Y-78577725D01*
X128972150Y-78725858D01*
X128923392Y-78886592D01*
X128906928Y-79053750D01*
X128906928Y-79491250D01*
X128923392Y-79658408D01*
X128972150Y-79819142D01*
X129051329Y-79967275D01*
X129127426Y-80060000D01*
X129051329Y-80152725D01*
X128972150Y-80300858D01*
X128923392Y-80461592D01*
X128906928Y-80628750D01*
X128906928Y-81066250D01*
X128923392Y-81233408D01*
X128972150Y-81394142D01*
X129051329Y-81542275D01*
X129124195Y-81631063D01*
X129123400Y-81883000D01*
X119594316Y-81883000D01*
X119650537Y-81814494D01*
X119709502Y-81704180D01*
X119745812Y-81584482D01*
X119758072Y-81460000D01*
X119758072Y-79960000D01*
X119745812Y-79835518D01*
X119709502Y-79715820D01*
X119650537Y-79605506D01*
X119571185Y-79508815D01*
X119474494Y-79429463D01*
X119364180Y-79370498D01*
X119244482Y-79334188D01*
X119120000Y-79321928D01*
X117120000Y-79321928D01*
X116995518Y-79334188D01*
X116993425Y-79334823D01*
X116991518Y-79315679D01*
X116984264Y-79291863D01*
X116972503Y-79269919D01*
X116956687Y-79250692D01*
X116937424Y-79234920D01*
X116915454Y-79223208D01*
X116891622Y-79216008D01*
X116866403Y-79213597D01*
X112814433Y-79232212D01*
X112810721Y-79230807D01*
X112778239Y-79226420D01*
X111489905Y-79220196D01*
X111494074Y-78221209D01*
X111563750Y-78228072D01*
X112076250Y-78228072D01*
X112243408Y-78211608D01*
X112404142Y-78162850D01*
X112552275Y-78083671D01*
X112682115Y-77977115D01*
X112788671Y-77847275D01*
X112844189Y-77743409D01*
X112954680Y-77834087D01*
X113082367Y-77902337D01*
X113220915Y-77944365D01*
X113328895Y-77955000D01*
X113328904Y-77955000D01*
X113364999Y-77958555D01*
X113401094Y-77955000D01*
X119263897Y-77955000D01*
X119300002Y-77958556D01*
X119336107Y-77955000D01*
X119444087Y-77944365D01*
X119582635Y-77902337D01*
X119710322Y-77834087D01*
X119822240Y-77742238D01*
X119845260Y-77714188D01*
X121344448Y-76215001D01*
X128225555Y-76215001D01*
X128709746Y-76699193D01*
G37*
G04 #@! TD.AperFunction*
G04 #@! TD*
D33*
G04 #@! TO.N,+3V3*
X127307423Y-64107029D02*
X126507000Y-64856975D01*
X126507000Y-63306606D01*
X127307423Y-64107029D01*
G04 #@! TA.AperFunction,Conductor*
D32*
G36*
X127307423Y-64107029D02*
G01*
X126507000Y-64856975D01*
X126507000Y-63306606D01*
X127307423Y-64107029D01*
G37*
G04 #@! TD.AperFunction*
G04 #@! TD*
D33*
G04 #@! TO.N,+3V3*
X113310705Y-71153695D02*
X111679118Y-72500770D01*
X111677182Y-71138211D01*
X113310705Y-71153695D01*
G04 #@! TA.AperFunction,Conductor*
D32*
G36*
X113310705Y-71153695D02*
G01*
X111679118Y-72500770D01*
X111677182Y-71138211D01*
X113310705Y-71153695D01*
G37*
G04 #@! TD.AperFunction*
G04 #@! TD*
D30*
G04 #@! TO.N,/VBUS*
X108707917Y-69790925D02*
X108146464Y-68952489D01*
X109246911Y-68945003D01*
X108707917Y-69790925D01*
G04 #@! TA.AperFunction,Conductor*
D32*
G36*
X108707917Y-69790925D02*
G01*
X108146464Y-68952489D01*
X109246911Y-68945003D01*
X108707917Y-69790925D01*
G37*
G04 #@! TD.AperFunction*
G04 #@! TD*
D33*
G04 #@! TO.N,GND*
X119943000Y-65307469D02*
X119912720Y-65316654D01*
X119821336Y-65365500D01*
X119741236Y-65431236D01*
X119675500Y-65511336D01*
X119626654Y-65602720D01*
X119596575Y-65701879D01*
X119586418Y-65805000D01*
X119586418Y-66063292D01*
X119160656Y-66489055D01*
X119140542Y-66505562D01*
X119074686Y-66585808D01*
X119043315Y-66644500D01*
X119025751Y-66677361D01*
X118995616Y-66776701D01*
X118985441Y-66880010D01*
X118987990Y-66905891D01*
X118987990Y-66993000D01*
X116597000Y-66993000D01*
X116597000Y-63747000D01*
X119943000Y-63747000D01*
X119943000Y-65307469D01*
G04 #@! TA.AperFunction,Conductor*
D32*
G36*
X119943000Y-65307469D02*
G01*
X119912720Y-65316654D01*
X119821336Y-65365500D01*
X119741236Y-65431236D01*
X119675500Y-65511336D01*
X119626654Y-65602720D01*
X119596575Y-65701879D01*
X119586418Y-65805000D01*
X119586418Y-66063292D01*
X119160656Y-66489055D01*
X119140542Y-66505562D01*
X119074686Y-66585808D01*
X119043315Y-66644500D01*
X119025751Y-66677361D01*
X118995616Y-66776701D01*
X118985441Y-66880010D01*
X118987990Y-66905891D01*
X118987990Y-66993000D01*
X116597000Y-66993000D01*
X116597000Y-63747000D01*
X119943000Y-63747000D01*
X119943000Y-65307469D01*
G37*
G04 #@! TD.AperFunction*
G04 #@! TD*
D31*
G04 #@! TO.N,+3V3*
X119543938Y-59761145D02*
X117736669Y-59768935D01*
X118568197Y-58156415D01*
X119543938Y-59761145D01*
G04 #@! TA.AperFunction,Conductor*
D32*
G36*
X119543938Y-59761145D02*
G01*
X117736669Y-59768935D01*
X118568197Y-58156415D01*
X119543938Y-59761145D01*
G37*
G04 #@! TD.AperFunction*
G04 #@! TD*
M02*
