M48
; DRILL file {KiCad (5.1.10-1-10_14)} date Saturday, June 04, 2022 at 01:49:55 AM
; FORMAT={-:-/ absolute / metric / decimal}
; #@! TF.CreationDate,2022-06-04T01:49:55+09:00
; #@! TF.GenerationSoftware,Kicad,Pcbnew,(5.1.10-1-10_14)
FMAT,2
METRIC
T1C0.300
T2C0.400
T3C0.600
T4C1.000
T5C3.000
%
G90
G05
T1
X100.59Y-78.57
X100.6Y-55.33
X100.6Y-59.6
X100.6Y-74.6
X103.12Y-66.29
X103.16Y-77.42
X103.44Y-56.57
X105.32Y-83.44
X105.42Y-50.6
X105.55Y-57.52
X105.71Y-78.48
X105.85Y-55.47
X106.54Y-81.34
X106.7Y-53.46
X106.89Y-59.3
X107.02Y-64.16
X107.26Y-75.47
X107.35Y-69.86
X107.88Y-71.12
X107.88Y-72.65
X108.02Y-60.98
X108.32Y-83.44
X109.08Y-64.08
X109.18Y-69.87
X109.6Y-50.6
X109.67Y-52.34
X109.68Y-53.18
X109.71Y-56.05
X110.15Y-61.02
X110.21Y-64.03
X110.28Y-75.47
X110.29Y-79.58
X110.98Y-81.64
X111.17Y-71.32
X111.195Y-69.82
X111.32Y-83.44
X111.379Y-60.769
X111.46Y-64.02
X111.67Y-61.61
X112.08Y-56.21
X112.12Y-53.11
X112.6Y-50.6
X113.115Y-70.585
X113.15Y-71.76
X113.15Y-73.71
X114.24Y-56.15
X114.27Y-53.11
X114.32Y-83.44
X114.68Y-72.72
X115.11Y-70.6
X115.6Y-50.6
X115.77Y-60.621
X115.91Y-67.82
X115.92Y-63.97
X116.91Y-63.33
X117.12Y-70.59
X117.15Y-71.76
X117.32Y-83.44
X117.33Y-74.35
X118.03Y-60.68
X118.08Y-53.17
X118.12Y-73.52
X118.12Y-74.35
X118.39Y-63.36
X118.4Y-67.84
X118.6Y-50.6
X119.135Y-70.585
X119.58Y-73.52
X119.58Y-71.76
X119.98Y-75.66
X120.32Y-83.44
X120.52Y-67.79
X120.8Y-65.37
X120.84Y-62.89
X121.09Y-55.01
X121.6Y-50.6
X121.66Y-68.61
X122.44Y-72.94
X122.44Y-61.21
X122.44Y-70.59
X122.53Y-75.03
X122.55Y-56.65
X122.575Y-69.26
X123.32Y-83.44
X123.545Y-54.645
X123.7Y-65.82
X123.773Y-69.193
X124.55Y-70.94
X124.57Y-63.11
X124.58Y-60.63
X124.6Y-50.6
X124.85Y-58.69
X124.93Y-72.94
X124.98Y-75.03
X125.435Y-56.645
X126.315Y-76.995
X126.32Y-83.44
X126.47Y-77.795
X126.59Y-70.94
X126.725Y-54.645
X126.73Y-59.65
X127.35Y-53.11
X127.525Y-58.645
X127.53Y-65.27
X127.53Y-62.11
X127.6Y-72.94
X127.6Y-50.6
X127.6Y-75.03
X127.66Y-66.45
X128.373Y-56.645
X128.786Y-70.94
X129.13Y-60.34
X129.13Y-65.59
X129.165Y-54.645
X129.32Y-83.44
X130.1Y-72.94
X130.25Y-53.39
X130.473Y-69.253
X130.478Y-55.922
X130.574Y-58.846
X130.6Y-50.6
X130.62Y-75.03
X130.985Y-62.085
X131.823Y-57.267
X131.983Y-67.743
X132.16Y-55.4
X132.239Y-60.511
X132.28Y-75.79
X132.31Y-70.73
X132.32Y-83.44
X132.775Y-63.875
X133.122Y-72.772
X133.463Y-66.263
X133.533Y-58.977
X133.6Y-50.6
X133.95Y-61.98
X134.0Y-74.16
X134.09Y-57.22
X134.25Y-68.79
X134.28Y-64.52
X135.32Y-83.44
X135.595Y-59.465
X136.035Y-56.925
X136.09Y-74.68
X136.13Y-61.98
X136.17Y-72.14
X136.24Y-67.06
X136.26Y-64.52
X136.6Y-50.6
X138.32Y-83.44
X139.6Y-50.6
X141.32Y-83.44
X142.6Y-50.6
X143.45Y-81.32
X143.47Y-52.72
X144.03Y-78.81
X144.19Y-55.44
X144.32Y-83.44
X144.7Y-50.62
X146.93Y-77.42
X147.56Y-56.54
X149.46Y-55.34
X149.46Y-58.34
X149.46Y-61.34
X149.46Y-64.34
X149.46Y-67.34
X149.46Y-70.34
X149.46Y-73.34
X149.46Y-76.34
X149.47Y-78.82
T2
X100.83Y-68.69
X100.85Y-66.66
X100.88Y-64.79
X104.75Y-63.6
X104.75Y-64.45
X104.75Y-65.3
X104.75Y-66.15
X104.75Y-67.0
X104.75Y-67.85
X104.75Y-68.7
X104.75Y-69.55
X106.1Y-63.6
X106.1Y-64.45
X106.1Y-65.3
X106.1Y-66.15
X106.1Y-67.0
X106.1Y-67.85
X106.1Y-68.7
X106.1Y-69.55
X107.32Y-66.07
X107.35Y-67.12
T4
X118.38Y-65.36
X121.44Y-52.35
X123.98Y-52.35
X137.25Y-55.56
X137.25Y-58.1
X137.25Y-60.64
X137.25Y-63.18
X137.25Y-65.72
X137.25Y-68.26
X137.25Y-70.8
X137.25Y-73.34
X137.25Y-75.88
X137.25Y-78.42
X139.79Y-55.56
X139.79Y-58.1
X139.79Y-60.64
X139.79Y-63.18
X139.79Y-65.72
X139.79Y-68.26
X139.79Y-70.8
X139.79Y-73.34
X139.79Y-75.88
X139.79Y-78.42
T5
X103.25Y-53.25
X103.25Y-80.75
X146.75Y-53.25
X146.75Y-80.75
T3
G00X102.14Y-62.25
M15
G01X101.34Y-62.25
M16
G05
G00X102.14Y-70.9
M15
G01X101.34Y-70.9
M16
G05
G00X105.87Y-62.25
M15
G01X104.37Y-62.25
M16
G05
G00X105.87Y-70.9
M15
G01X104.37Y-70.9
M16
G05
T0
M30
