%TF.GenerationSoftware,KiCad,Pcbnew,(5.1.10-1-10_14)*%
%TF.CreationDate,2022-06-03T02:51:19+09:00*%
%TF.ProjectId,jtag_sniffer_jig,6a746167-5f73-46e6-9966-6665725f6a69,rev?*%
%TF.SameCoordinates,Original*%
%TF.FileFunction,Soldermask,Top*%
%TF.FilePolarity,Negative*%
%FSLAX46Y46*%
G04 Gerber Fmt 4.6, Leading zero omitted, Abs format (unit mm)*
G04 Created by KiCad (PCBNEW (5.1.10-1-10_14)) date 2022-06-03 02:51:19*
%MOMM*%
%LPD*%
G01*
G04 APERTURE LIST*
%ADD10R,1.700000X1.700000*%
%ADD11O,1.700000X1.700000*%
%ADD12C,1.700000*%
G04 APERTURE END LIST*
D10*
%TO.C,J1*%
X206720000Y-147880000D03*
D11*
X204180000Y-147880000D03*
X206720000Y-150420000D03*
X204180000Y-150420000D03*
X206720000Y-152960000D03*
X204180000Y-152960000D03*
X206720000Y-155500000D03*
X204180000Y-155500000D03*
X206720000Y-158040000D03*
X204180000Y-158040000D03*
X206720000Y-160580000D03*
X204180000Y-160580000D03*
X206720000Y-163120000D03*
X204180000Y-163120000D03*
X206720000Y-165660000D03*
X204180000Y-165660000D03*
X206720000Y-168200000D03*
X204180000Y-168200000D03*
X206720000Y-170740000D03*
X204180000Y-170740000D03*
%TD*%
D10*
%TO.C,J1*%
X178360000Y-147880000D03*
D11*
X175820000Y-147880000D03*
X178360000Y-150420000D03*
X175820000Y-150420000D03*
X178360000Y-152960000D03*
X175820000Y-152960000D03*
X178360000Y-155500000D03*
X175820000Y-155500000D03*
X178360000Y-158040000D03*
X175820000Y-158040000D03*
X178360000Y-160580000D03*
X175820000Y-160580000D03*
X178360000Y-163120000D03*
X175820000Y-163120000D03*
X178360000Y-165660000D03*
X175820000Y-165660000D03*
X178360000Y-168200000D03*
X175820000Y-168200000D03*
X178360000Y-170740000D03*
X175820000Y-170740000D03*
%TD*%
D10*
%TO.C,J1*%
X150000000Y-147880000D03*
D11*
X147460000Y-147880000D03*
X150000000Y-150420000D03*
X147460000Y-150420000D03*
X150000000Y-152960000D03*
X147460000Y-152960000D03*
X150000000Y-155500000D03*
X147460000Y-155500000D03*
X150000000Y-158040000D03*
X147460000Y-158040000D03*
X150000000Y-160580000D03*
X147460000Y-160580000D03*
X150000000Y-163120000D03*
X147460000Y-163120000D03*
X150000000Y-165660000D03*
X147460000Y-165660000D03*
X150000000Y-168200000D03*
X147460000Y-168200000D03*
X150000000Y-170740000D03*
X147460000Y-170740000D03*
%TD*%
D10*
%TO.C,J1*%
X206720000Y-100000000D03*
D11*
X204180000Y-100000000D03*
X206720000Y-102540000D03*
X204180000Y-102540000D03*
X206720000Y-105080000D03*
X204180000Y-105080000D03*
X206720000Y-107620000D03*
X204180000Y-107620000D03*
X206720000Y-110160000D03*
X204180000Y-110160000D03*
X206720000Y-112700000D03*
X204180000Y-112700000D03*
X206720000Y-115240000D03*
X204180000Y-115240000D03*
X206720000Y-117780000D03*
X204180000Y-117780000D03*
X206720000Y-120320000D03*
X204180000Y-120320000D03*
X206720000Y-122860000D03*
X204180000Y-122860000D03*
%TD*%
D10*
%TO.C,J1*%
X178360000Y-100000000D03*
D11*
X175820000Y-100000000D03*
X178360000Y-102540000D03*
X175820000Y-102540000D03*
X178360000Y-105080000D03*
X175820000Y-105080000D03*
X178360000Y-107620000D03*
X175820000Y-107620000D03*
X178360000Y-110160000D03*
X175820000Y-110160000D03*
X178360000Y-112700000D03*
X175820000Y-112700000D03*
X178360000Y-115240000D03*
X175820000Y-115240000D03*
X178360000Y-117780000D03*
X175820000Y-117780000D03*
X178360000Y-120320000D03*
X175820000Y-120320000D03*
X178360000Y-122860000D03*
X175820000Y-122860000D03*
%TD*%
D12*
%TO.C,J3*%
X229260000Y-170730000D03*
X229260000Y-168190000D03*
X229260000Y-165650000D03*
X229260000Y-163110000D03*
X229260000Y-160570000D03*
X229260000Y-158030000D03*
X229260000Y-155490000D03*
X229260000Y-152950000D03*
X229260000Y-150410000D03*
X229260000Y-147870000D03*
X226720000Y-170730000D03*
X226720000Y-168190000D03*
X226720000Y-165650000D03*
X226720000Y-163110000D03*
X226720000Y-160570000D03*
X226720000Y-158030000D03*
X226720000Y-155490000D03*
X226720000Y-152950000D03*
X226720000Y-150410000D03*
G36*
G01*
X225870000Y-148470000D02*
X225870000Y-147270000D01*
G75*
G02*
X226120000Y-147020000I250000J0D01*
G01*
X227320000Y-147020000D01*
G75*
G02*
X227570000Y-147270000I0J-250000D01*
G01*
X227570000Y-148470000D01*
G75*
G02*
X227320000Y-148720000I-250000J0D01*
G01*
X226120000Y-148720000D01*
G75*
G02*
X225870000Y-148470000I0J250000D01*
G01*
G37*
%TD*%
%TO.C,J3*%
X200900000Y-170730000D03*
X200900000Y-168190000D03*
X200900000Y-165650000D03*
X200900000Y-163110000D03*
X200900000Y-160570000D03*
X200900000Y-158030000D03*
X200900000Y-155490000D03*
X200900000Y-152950000D03*
X200900000Y-150410000D03*
X200900000Y-147870000D03*
X198360000Y-170730000D03*
X198360000Y-168190000D03*
X198360000Y-165650000D03*
X198360000Y-163110000D03*
X198360000Y-160570000D03*
X198360000Y-158030000D03*
X198360000Y-155490000D03*
X198360000Y-152950000D03*
X198360000Y-150410000D03*
G36*
G01*
X197510000Y-148470000D02*
X197510000Y-147270000D01*
G75*
G02*
X197760000Y-147020000I250000J0D01*
G01*
X198960000Y-147020000D01*
G75*
G02*
X199210000Y-147270000I0J-250000D01*
G01*
X199210000Y-148470000D01*
G75*
G02*
X198960000Y-148720000I-250000J0D01*
G01*
X197760000Y-148720000D01*
G75*
G02*
X197510000Y-148470000I0J250000D01*
G01*
G37*
%TD*%
%TO.C,J3*%
X172540000Y-170730000D03*
X172540000Y-168190000D03*
X172540000Y-165650000D03*
X172540000Y-163110000D03*
X172540000Y-160570000D03*
X172540000Y-158030000D03*
X172540000Y-155490000D03*
X172540000Y-152950000D03*
X172540000Y-150410000D03*
X172540000Y-147870000D03*
X170000000Y-170730000D03*
X170000000Y-168190000D03*
X170000000Y-165650000D03*
X170000000Y-163110000D03*
X170000000Y-160570000D03*
X170000000Y-158030000D03*
X170000000Y-155490000D03*
X170000000Y-152950000D03*
X170000000Y-150410000D03*
G36*
G01*
X169150000Y-148470000D02*
X169150000Y-147270000D01*
G75*
G02*
X169400000Y-147020000I250000J0D01*
G01*
X170600000Y-147020000D01*
G75*
G02*
X170850000Y-147270000I0J-250000D01*
G01*
X170850000Y-148470000D01*
G75*
G02*
X170600000Y-148720000I-250000J0D01*
G01*
X169400000Y-148720000D01*
G75*
G02*
X169150000Y-148470000I0J250000D01*
G01*
G37*
%TD*%
%TO.C,J3*%
X229260000Y-122850000D03*
X229260000Y-120310000D03*
X229260000Y-117770000D03*
X229260000Y-115230000D03*
X229260000Y-112690000D03*
X229260000Y-110150000D03*
X229260000Y-107610000D03*
X229260000Y-105070000D03*
X229260000Y-102530000D03*
X229260000Y-99990000D03*
X226720000Y-122850000D03*
X226720000Y-120310000D03*
X226720000Y-117770000D03*
X226720000Y-115230000D03*
X226720000Y-112690000D03*
X226720000Y-110150000D03*
X226720000Y-107610000D03*
X226720000Y-105070000D03*
X226720000Y-102530000D03*
G36*
G01*
X225870000Y-100590000D02*
X225870000Y-99390000D01*
G75*
G02*
X226120000Y-99140000I250000J0D01*
G01*
X227320000Y-99140000D01*
G75*
G02*
X227570000Y-99390000I0J-250000D01*
G01*
X227570000Y-100590000D01*
G75*
G02*
X227320000Y-100840000I-250000J0D01*
G01*
X226120000Y-100840000D01*
G75*
G02*
X225870000Y-100590000I0J250000D01*
G01*
G37*
%TD*%
%TO.C,J3*%
X200900000Y-122850000D03*
X200900000Y-120310000D03*
X200900000Y-117770000D03*
X200900000Y-115230000D03*
X200900000Y-112690000D03*
X200900000Y-110150000D03*
X200900000Y-107610000D03*
X200900000Y-105070000D03*
X200900000Y-102530000D03*
X200900000Y-99990000D03*
X198360000Y-122850000D03*
X198360000Y-120310000D03*
X198360000Y-117770000D03*
X198360000Y-115230000D03*
X198360000Y-112690000D03*
X198360000Y-110150000D03*
X198360000Y-107610000D03*
X198360000Y-105070000D03*
X198360000Y-102530000D03*
G36*
G01*
X197510000Y-100590000D02*
X197510000Y-99390000D01*
G75*
G02*
X197760000Y-99140000I250000J0D01*
G01*
X198960000Y-99140000D01*
G75*
G02*
X199210000Y-99390000I0J-250000D01*
G01*
X199210000Y-100590000D01*
G75*
G02*
X198960000Y-100840000I-250000J0D01*
G01*
X197760000Y-100840000D01*
G75*
G02*
X197510000Y-100590000I0J250000D01*
G01*
G37*
%TD*%
D10*
%TO.C,J2*%
X215150000Y-142800000D03*
D11*
X217690000Y-142800000D03*
X215150000Y-145340000D03*
X217690000Y-145340000D03*
X215150000Y-147880000D03*
X217690000Y-147880000D03*
X215150000Y-150420000D03*
X217690000Y-150420000D03*
X215150000Y-152960000D03*
X217690000Y-152960000D03*
X215150000Y-155500000D03*
X217690000Y-155500000D03*
X215150000Y-158040000D03*
X217690000Y-158040000D03*
X215150000Y-160580000D03*
X217690000Y-160580000D03*
X215150000Y-163120000D03*
X217690000Y-163120000D03*
X215150000Y-165660000D03*
X217690000Y-165660000D03*
%TD*%
D10*
%TO.C,J2*%
X186790000Y-142800000D03*
D11*
X189330000Y-142800000D03*
X186790000Y-145340000D03*
X189330000Y-145340000D03*
X186790000Y-147880000D03*
X189330000Y-147880000D03*
X186790000Y-150420000D03*
X189330000Y-150420000D03*
X186790000Y-152960000D03*
X189330000Y-152960000D03*
X186790000Y-155500000D03*
X189330000Y-155500000D03*
X186790000Y-158040000D03*
X189330000Y-158040000D03*
X186790000Y-160580000D03*
X189330000Y-160580000D03*
X186790000Y-163120000D03*
X189330000Y-163120000D03*
X186790000Y-165660000D03*
X189330000Y-165660000D03*
%TD*%
D10*
%TO.C,J2*%
X158430000Y-142800000D03*
D11*
X160970000Y-142800000D03*
X158430000Y-145340000D03*
X160970000Y-145340000D03*
X158430000Y-147880000D03*
X160970000Y-147880000D03*
X158430000Y-150420000D03*
X160970000Y-150420000D03*
X158430000Y-152960000D03*
X160970000Y-152960000D03*
X158430000Y-155500000D03*
X160970000Y-155500000D03*
X158430000Y-158040000D03*
X160970000Y-158040000D03*
X158430000Y-160580000D03*
X160970000Y-160580000D03*
X158430000Y-163120000D03*
X160970000Y-163120000D03*
X158430000Y-165660000D03*
X160970000Y-165660000D03*
%TD*%
D10*
%TO.C,J2*%
X215150000Y-94920000D03*
D11*
X217690000Y-94920000D03*
X215150000Y-97460000D03*
X217690000Y-97460000D03*
X215150000Y-100000000D03*
X217690000Y-100000000D03*
X215150000Y-102540000D03*
X217690000Y-102540000D03*
X215150000Y-105080000D03*
X217690000Y-105080000D03*
X215150000Y-107620000D03*
X217690000Y-107620000D03*
X215150000Y-110160000D03*
X217690000Y-110160000D03*
X215150000Y-112700000D03*
X217690000Y-112700000D03*
X215150000Y-115240000D03*
X217690000Y-115240000D03*
X215150000Y-117780000D03*
X217690000Y-117780000D03*
%TD*%
D10*
%TO.C,J2*%
X186790000Y-94920000D03*
D11*
X189330000Y-94920000D03*
X186790000Y-97460000D03*
X189330000Y-97460000D03*
X186790000Y-100000000D03*
X189330000Y-100000000D03*
X186790000Y-102540000D03*
X189330000Y-102540000D03*
X186790000Y-105080000D03*
X189330000Y-105080000D03*
X186790000Y-107620000D03*
X189330000Y-107620000D03*
X186790000Y-110160000D03*
X189330000Y-110160000D03*
X186790000Y-112700000D03*
X189330000Y-112700000D03*
X186790000Y-115240000D03*
X189330000Y-115240000D03*
X186790000Y-117780000D03*
X189330000Y-117780000D03*
%TD*%
%TO.C,J4*%
G36*
G01*
X218580000Y-182670000D02*
X218580000Y-183870000D01*
G75*
G02*
X218330000Y-184120000I-250000J0D01*
G01*
X217130000Y-184120000D01*
G75*
G02*
X216880000Y-183870000I0J250000D01*
G01*
X216880000Y-182670000D01*
G75*
G02*
X217130000Y-182420000I250000J0D01*
G01*
X218330000Y-182420000D01*
G75*
G02*
X218580000Y-182670000I0J-250000D01*
G01*
G37*
D12*
X217730000Y-180730000D03*
X217730000Y-178190000D03*
X217730000Y-175650000D03*
X217730000Y-173110000D03*
X215190000Y-183270000D03*
X215190000Y-180730000D03*
X215190000Y-178190000D03*
X215190000Y-175650000D03*
X215190000Y-173110000D03*
%TD*%
%TO.C,J4*%
G36*
G01*
X190220000Y-182670000D02*
X190220000Y-183870000D01*
G75*
G02*
X189970000Y-184120000I-250000J0D01*
G01*
X188770000Y-184120000D01*
G75*
G02*
X188520000Y-183870000I0J250000D01*
G01*
X188520000Y-182670000D01*
G75*
G02*
X188770000Y-182420000I250000J0D01*
G01*
X189970000Y-182420000D01*
G75*
G02*
X190220000Y-182670000I0J-250000D01*
G01*
G37*
X189370000Y-180730000D03*
X189370000Y-178190000D03*
X189370000Y-175650000D03*
X189370000Y-173110000D03*
X186830000Y-183270000D03*
X186830000Y-180730000D03*
X186830000Y-178190000D03*
X186830000Y-175650000D03*
X186830000Y-173110000D03*
%TD*%
%TO.C,J4*%
G36*
G01*
X161860000Y-182670000D02*
X161860000Y-183870000D01*
G75*
G02*
X161610000Y-184120000I-250000J0D01*
G01*
X160410000Y-184120000D01*
G75*
G02*
X160160000Y-183870000I0J250000D01*
G01*
X160160000Y-182670000D01*
G75*
G02*
X160410000Y-182420000I250000J0D01*
G01*
X161610000Y-182420000D01*
G75*
G02*
X161860000Y-182670000I0J-250000D01*
G01*
G37*
X161010000Y-180730000D03*
X161010000Y-178190000D03*
X161010000Y-175650000D03*
X161010000Y-173110000D03*
X158470000Y-183270000D03*
X158470000Y-180730000D03*
X158470000Y-178190000D03*
X158470000Y-175650000D03*
X158470000Y-173110000D03*
%TD*%
%TO.C,J4*%
G36*
G01*
X218580000Y-134790000D02*
X218580000Y-135990000D01*
G75*
G02*
X218330000Y-136240000I-250000J0D01*
G01*
X217130000Y-136240000D01*
G75*
G02*
X216880000Y-135990000I0J250000D01*
G01*
X216880000Y-134790000D01*
G75*
G02*
X217130000Y-134540000I250000J0D01*
G01*
X218330000Y-134540000D01*
G75*
G02*
X218580000Y-134790000I0J-250000D01*
G01*
G37*
X217730000Y-132850000D03*
X217730000Y-130310000D03*
X217730000Y-127770000D03*
X217730000Y-125230000D03*
X215190000Y-135390000D03*
X215190000Y-132850000D03*
X215190000Y-130310000D03*
X215190000Y-127770000D03*
X215190000Y-125230000D03*
%TD*%
%TO.C,J4*%
G36*
G01*
X190220000Y-134790000D02*
X190220000Y-135990000D01*
G75*
G02*
X189970000Y-136240000I-250000J0D01*
G01*
X188770000Y-136240000D01*
G75*
G02*
X188520000Y-135990000I0J250000D01*
G01*
X188520000Y-134790000D01*
G75*
G02*
X188770000Y-134540000I250000J0D01*
G01*
X189970000Y-134540000D01*
G75*
G02*
X190220000Y-134790000I0J-250000D01*
G01*
G37*
X189370000Y-132850000D03*
X189370000Y-130310000D03*
X189370000Y-127770000D03*
X189370000Y-125230000D03*
X186830000Y-135390000D03*
X186830000Y-132850000D03*
X186830000Y-130310000D03*
X186830000Y-127770000D03*
X186830000Y-125230000D03*
%TD*%
D11*
%TO.C,J2*%
X160970000Y-117780000D03*
X158430000Y-117780000D03*
X160970000Y-115240000D03*
X158430000Y-115240000D03*
X160970000Y-112700000D03*
X158430000Y-112700000D03*
X160970000Y-110160000D03*
X158430000Y-110160000D03*
X160970000Y-107620000D03*
X158430000Y-107620000D03*
X160970000Y-105080000D03*
X158430000Y-105080000D03*
X160970000Y-102540000D03*
X158430000Y-102540000D03*
X160970000Y-100000000D03*
X158430000Y-100000000D03*
X160970000Y-97460000D03*
X158430000Y-97460000D03*
X160970000Y-94920000D03*
D10*
X158430000Y-94920000D03*
%TD*%
D12*
%TO.C,J4*%
X158470000Y-125230000D03*
X158470000Y-127770000D03*
X158470000Y-130310000D03*
X158470000Y-132850000D03*
X158470000Y-135390000D03*
X161010000Y-125230000D03*
X161010000Y-127770000D03*
X161010000Y-130310000D03*
X161010000Y-132850000D03*
G36*
G01*
X161860000Y-134790000D02*
X161860000Y-135990000D01*
G75*
G02*
X161610000Y-136240000I-250000J0D01*
G01*
X160410000Y-136240000D01*
G75*
G02*
X160160000Y-135990000I0J250000D01*
G01*
X160160000Y-134790000D01*
G75*
G02*
X160410000Y-134540000I250000J0D01*
G01*
X161610000Y-134540000D01*
G75*
G02*
X161860000Y-134790000I0J-250000D01*
G01*
G37*
%TD*%
%TO.C,J3*%
G36*
G01*
X169150000Y-100590000D02*
X169150000Y-99390000D01*
G75*
G02*
X169400000Y-99140000I250000J0D01*
G01*
X170600000Y-99140000D01*
G75*
G02*
X170850000Y-99390000I0J-250000D01*
G01*
X170850000Y-100590000D01*
G75*
G02*
X170600000Y-100840000I-250000J0D01*
G01*
X169400000Y-100840000D01*
G75*
G02*
X169150000Y-100590000I0J250000D01*
G01*
G37*
X170000000Y-102530000D03*
X170000000Y-105070000D03*
X170000000Y-107610000D03*
X170000000Y-110150000D03*
X170000000Y-112690000D03*
X170000000Y-115230000D03*
X170000000Y-117770000D03*
X170000000Y-120310000D03*
X170000000Y-122850000D03*
X172540000Y-99990000D03*
X172540000Y-102530000D03*
X172540000Y-105070000D03*
X172540000Y-107610000D03*
X172540000Y-110150000D03*
X172540000Y-112690000D03*
X172540000Y-115230000D03*
X172540000Y-117770000D03*
X172540000Y-120310000D03*
X172540000Y-122850000D03*
%TD*%
D11*
%TO.C,J1*%
X147460000Y-122860000D03*
X150000000Y-122860000D03*
X147460000Y-120320000D03*
X150000000Y-120320000D03*
X147460000Y-117780000D03*
X150000000Y-117780000D03*
X147460000Y-115240000D03*
X150000000Y-115240000D03*
X147460000Y-112700000D03*
X150000000Y-112700000D03*
X147460000Y-110160000D03*
X150000000Y-110160000D03*
X147460000Y-107620000D03*
X150000000Y-107620000D03*
X147460000Y-105080000D03*
X150000000Y-105080000D03*
X147460000Y-102540000D03*
X150000000Y-102540000D03*
X147460000Y-100000000D03*
D10*
X150000000Y-100000000D03*
%TD*%
M02*
