M48
; DRILL file {KiCad (5.1.10-1-10_14)} date Friday, June 03, 2022 at 02:51:22 AM
; FORMAT={-:-/ absolute / metric / decimal}
; #@! TF.CreationDate,2022-06-03T02:51:22+09:00
; #@! TF.GenerationSoftware,Kicad,Pcbnew,(5.1.10-1-10_14)
FMAT,2
METRIC
T1C0.300
T2C0.400
T3C1.000
%
G90
G05
T1
X146.52Y-93.71
X146.52Y-95.48
X146.52Y-97.66
X146.52Y-101.26
X146.52Y-103.8
X146.52Y-106.34
X146.52Y-108.88
X146.52Y-111.42
X146.52Y-113.96
X146.52Y-116.5
X146.52Y-119.04
X146.52Y-121.58
X146.52Y-124.12
X146.52Y-126.66
X146.52Y-129.2
X146.52Y-131.74
X146.52Y-134.28
X146.52Y-140.39
X146.52Y-141.59
X146.52Y-143.36
X146.52Y-145.54
X146.52Y-149.14
X146.52Y-151.68
X146.52Y-154.22
X146.52Y-156.76
X146.52Y-159.3
X146.52Y-161.84
X146.52Y-164.38
X146.52Y-166.92
X146.52Y-169.46
X146.52Y-172.0
X146.52Y-174.54
X146.52Y-177.08
X146.52Y-179.62
X146.52Y-182.16
X146.52Y-188.27
X146.53Y-137.44
X146.53Y-185.32
X148.96Y-93.71
X148.96Y-141.59
X149.06Y-140.39
X149.06Y-188.27
X149.098Y-96.266
X149.098Y-144.146
X150.6Y-124.14
X150.6Y-172.02
X150.98Y-127.79
X150.98Y-175.67
X151.4Y-93.71
X151.4Y-141.59
X151.6Y-140.39
X151.6Y-188.27
X151.892Y-96.21
X151.892Y-98.75
X151.892Y-101.29
X151.892Y-103.83
X151.892Y-106.37
X151.892Y-108.91
X151.892Y-111.45
X151.892Y-113.99
X151.892Y-116.53
X151.892Y-119.07
X151.892Y-121.61
X151.892Y-124.15
X151.892Y-144.09
X151.892Y-146.63
X151.892Y-149.17
X151.892Y-151.71
X151.892Y-154.25
X151.892Y-156.79
X151.892Y-159.33
X151.892Y-161.87
X151.892Y-164.41
X151.892Y-166.95
X151.892Y-169.49
X151.892Y-172.03
X152.37Y-126.0
X152.37Y-173.88
X153.41Y-130.15
X153.41Y-178.03
X153.68Y-127.44
X153.68Y-175.32
X153.84Y-93.71
X153.84Y-141.59
X154.14Y-140.39
X154.14Y-188.27
X154.432Y-96.21
X154.432Y-98.75
X154.432Y-101.29
X154.432Y-103.83
X154.432Y-106.37
X154.432Y-108.91
X154.432Y-111.45
X154.432Y-113.99
X154.432Y-116.53
X154.432Y-119.07
X154.432Y-121.61
X154.432Y-123.72
X154.432Y-144.09
X154.432Y-146.63
X154.432Y-149.17
X154.432Y-151.71
X154.432Y-154.25
X154.432Y-156.79
X154.432Y-159.33
X154.432Y-161.87
X154.432Y-164.41
X154.432Y-166.95
X154.432Y-169.49
X154.432Y-171.6
X155.24Y-129.01
X155.24Y-176.89
X155.81Y-124.83
X155.81Y-172.71
X156.28Y-93.71
X156.28Y-141.59
X156.68Y-140.39
X156.68Y-188.27
X156.972Y-96.21
X156.972Y-98.75
X156.972Y-101.29
X156.972Y-103.83
X156.972Y-106.37
X156.972Y-108.91
X156.972Y-111.45
X156.972Y-113.99
X156.972Y-116.53
X156.972Y-119.07
X156.972Y-121.61
X156.972Y-129.23
X156.972Y-144.09
X156.972Y-146.63
X156.972Y-149.17
X156.972Y-151.71
X156.972Y-154.25
X156.972Y-156.79
X156.972Y-159.33
X156.972Y-161.87
X156.972Y-164.41
X156.972Y-166.95
X156.972Y-169.49
X156.972Y-177.11
X157.02Y-126.26
X157.02Y-174.14
X157.44Y-131.47
X157.44Y-179.35
X159.22Y-140.39
X159.22Y-188.27
X159.766Y-96.266
X159.766Y-98.806
X159.766Y-101.346
X159.766Y-103.886
X159.766Y-106.426
X159.766Y-108.966
X159.766Y-111.506
X159.766Y-114.046
X159.766Y-116.586
X159.766Y-119.126
X159.766Y-121.666
X159.766Y-124.206
X159.766Y-126.746
X159.766Y-129.286
X159.766Y-144.146
X159.766Y-146.686
X159.766Y-149.226
X159.766Y-151.766
X159.766Y-154.306
X159.766Y-156.846
X159.766Y-159.386
X159.766Y-161.926
X159.766Y-164.466
X159.766Y-167.006
X159.766Y-169.546
X159.766Y-172.086
X159.766Y-174.626
X159.766Y-177.166
X159.88Y-93.71
X159.88Y-141.59
X161.76Y-140.39
X161.76Y-188.27
X162.75Y-126.39
X162.75Y-174.27
X162.814Y-96.266
X162.814Y-98.806
X162.814Y-101.346
X162.814Y-103.886
X162.814Y-106.426
X162.814Y-108.966
X162.814Y-111.506
X162.814Y-114.046
X162.814Y-116.586
X162.814Y-119.126
X162.814Y-121.666
X162.814Y-124.04
X162.814Y-129.286
X162.814Y-144.146
X162.814Y-146.686
X162.814Y-149.226
X162.814Y-151.766
X162.814Y-154.306
X162.814Y-156.846
X162.814Y-159.386
X162.814Y-161.926
X162.814Y-164.466
X162.814Y-167.006
X162.814Y-169.546
X162.814Y-171.92
X162.814Y-177.166
X163.068Y-93.71
X163.068Y-141.59
X164.3Y-140.39
X164.3Y-188.27
X165.35Y-124.07
X165.35Y-171.95
X165.354Y-96.266
X165.354Y-98.806
X165.354Y-101.346
X165.354Y-103.886
X165.354Y-106.426
X165.354Y-108.966
X165.354Y-111.506
X165.354Y-114.046
X165.354Y-116.586
X165.354Y-119.126
X165.354Y-121.666
X165.354Y-126.746
X165.354Y-129.286
X165.354Y-144.146
X165.354Y-146.686
X165.354Y-149.226
X165.354Y-151.766
X165.354Y-154.306
X165.354Y-156.846
X165.354Y-159.386
X165.354Y-161.926
X165.354Y-164.466
X165.354Y-167.006
X165.354Y-169.546
X165.354Y-174.626
X165.354Y-177.166
X166.04Y-93.71
X166.04Y-141.59
X166.84Y-140.39
X166.84Y-188.27
X167.894Y-96.266
X167.894Y-98.806
X167.894Y-101.346
X167.894Y-103.886
X167.894Y-106.426
X167.894Y-108.966
X167.894Y-111.506
X167.894Y-114.046
X167.894Y-116.586
X167.894Y-119.126
X167.894Y-121.666
X167.894Y-124.206
X167.894Y-126.746
X167.894Y-129.286
X167.894Y-144.146
X167.894Y-146.686
X167.894Y-149.226
X167.894Y-151.766
X167.894Y-154.306
X167.894Y-156.846
X167.894Y-159.386
X167.894Y-161.926
X167.894Y-164.466
X167.894Y-167.006
X167.894Y-169.546
X167.894Y-172.086
X167.894Y-174.626
X167.894Y-177.166
X168.48Y-93.71
X168.48Y-141.59
X169.38Y-140.39
X169.38Y-188.27
X170.92Y-93.71
X170.92Y-141.59
X171.196Y-96.266
X171.196Y-144.146
X171.92Y-140.39
X171.92Y-188.27
X173.7Y-93.71
X173.7Y-96.25
X173.7Y-98.79
X173.7Y-101.33
X173.7Y-103.87
X173.7Y-106.41
X173.7Y-108.95
X173.7Y-111.49
X173.7Y-114.03
X173.7Y-116.57
X173.7Y-119.11
X173.7Y-121.65
X173.7Y-124.19
X173.7Y-126.73
X173.7Y-129.27
X173.7Y-131.81
X173.7Y-134.35
X173.7Y-137.7
X173.7Y-140.38
X173.7Y-141.59
X173.7Y-144.13
X173.7Y-146.67
X173.7Y-149.21
X173.7Y-151.75
X173.7Y-154.29
X173.7Y-156.83
X173.7Y-159.37
X173.7Y-161.91
X173.7Y-164.45
X173.7Y-166.99
X173.7Y-169.53
X173.7Y-172.07
X173.7Y-174.61
X173.7Y-177.15
X173.7Y-179.69
X173.7Y-182.23
X173.7Y-185.58
X173.7Y-188.26
X174.88Y-93.71
X174.88Y-95.48
X174.88Y-97.66
X174.88Y-101.26
X174.88Y-103.8
X174.88Y-106.34
X174.88Y-108.88
X174.88Y-111.42
X174.88Y-113.96
X174.88Y-116.5
X174.88Y-119.04
X174.88Y-121.58
X174.88Y-124.12
X174.88Y-126.66
X174.88Y-129.2
X174.88Y-131.74
X174.88Y-134.28
X174.88Y-140.39
X174.88Y-141.59
X174.88Y-143.36
X174.88Y-145.54
X174.88Y-149.14
X174.88Y-151.68
X174.88Y-154.22
X174.88Y-156.76
X174.88Y-159.3
X174.88Y-161.84
X174.88Y-164.38
X174.88Y-166.92
X174.88Y-169.46
X174.88Y-172.0
X174.88Y-174.54
X174.88Y-177.08
X174.88Y-179.62
X174.88Y-182.16
X174.88Y-188.27
X174.89Y-137.44
X174.89Y-185.32
X177.32Y-93.71
X177.32Y-141.59
X177.42Y-140.39
X177.42Y-188.27
X177.458Y-96.266
X177.458Y-144.146
X178.96Y-124.14
X178.96Y-172.02
X179.34Y-127.79
X179.34Y-175.67
X179.76Y-93.71
X179.76Y-141.59
X179.96Y-140.39
X179.96Y-188.27
X180.252Y-96.21
X180.252Y-98.75
X180.252Y-101.29
X180.252Y-103.83
X180.252Y-106.37
X180.252Y-108.91
X180.252Y-111.45
X180.252Y-113.99
X180.252Y-116.53
X180.252Y-119.07
X180.252Y-121.61
X180.252Y-124.15
X180.252Y-144.09
X180.252Y-146.63
X180.252Y-149.17
X180.252Y-151.71
X180.252Y-154.25
X180.252Y-156.79
X180.252Y-159.33
X180.252Y-161.87
X180.252Y-164.41
X180.252Y-166.95
X180.252Y-169.49
X180.252Y-172.03
X180.73Y-126.0
X180.73Y-173.88
X181.77Y-130.15
X181.77Y-178.03
X182.04Y-127.44
X182.04Y-175.32
X182.2Y-93.71
X182.2Y-141.59
X182.5Y-140.39
X182.5Y-188.27
X182.792Y-96.21
X182.792Y-98.75
X182.792Y-101.29
X182.792Y-103.83
X182.792Y-106.37
X182.792Y-108.91
X182.792Y-111.45
X182.792Y-113.99
X182.792Y-116.53
X182.792Y-119.07
X182.792Y-121.61
X182.792Y-123.72
X182.792Y-144.09
X182.792Y-146.63
X182.792Y-149.17
X182.792Y-151.71
X182.792Y-154.25
X182.792Y-156.79
X182.792Y-159.33
X182.792Y-161.87
X182.792Y-164.41
X182.792Y-166.95
X182.792Y-169.49
X182.792Y-171.6
X183.6Y-129.01
X183.6Y-176.89
X184.17Y-124.83
X184.17Y-172.71
X184.64Y-93.71
X184.64Y-141.59
X185.04Y-140.39
X185.04Y-188.27
X185.332Y-96.21
X185.332Y-98.75
X185.332Y-101.29
X185.332Y-103.83
X185.332Y-106.37
X185.332Y-108.91
X185.332Y-111.45
X185.332Y-113.99
X185.332Y-116.53
X185.332Y-119.07
X185.332Y-121.61
X185.332Y-129.23
X185.332Y-144.09
X185.332Y-146.63
X185.332Y-149.17
X185.332Y-151.71
X185.332Y-154.25
X185.332Y-156.79
X185.332Y-159.33
X185.332Y-161.87
X185.332Y-164.41
X185.332Y-166.95
X185.332Y-169.49
X185.332Y-177.11
X185.38Y-126.26
X185.38Y-174.14
X185.8Y-131.47
X185.8Y-179.35
X187.58Y-140.39
X187.58Y-188.27
X188.126Y-96.266
X188.126Y-98.806
X188.126Y-101.346
X188.126Y-103.886
X188.126Y-106.426
X188.126Y-108.966
X188.126Y-111.506
X188.126Y-114.046
X188.126Y-116.586
X188.126Y-119.126
X188.126Y-121.666
X188.126Y-124.206
X188.126Y-126.746
X188.126Y-129.286
X188.126Y-144.146
X188.126Y-146.686
X188.126Y-149.226
X188.126Y-151.766
X188.126Y-154.306
X188.126Y-156.846
X188.126Y-159.386
X188.126Y-161.926
X188.126Y-164.466
X188.126Y-167.006
X188.126Y-169.546
X188.126Y-172.086
X188.126Y-174.626
X188.126Y-177.166
X188.24Y-93.71
X188.24Y-141.59
X190.12Y-140.39
X190.12Y-188.27
X191.11Y-126.39
X191.11Y-174.27
X191.174Y-96.266
X191.174Y-98.806
X191.174Y-101.346
X191.174Y-103.886
X191.174Y-106.426
X191.174Y-108.966
X191.174Y-111.506
X191.174Y-114.046
X191.174Y-116.586
X191.174Y-119.126
X191.174Y-121.666
X191.174Y-124.04
X191.174Y-129.286
X191.174Y-144.146
X191.174Y-146.686
X191.174Y-149.226
X191.174Y-151.766
X191.174Y-154.306
X191.174Y-156.846
X191.174Y-159.386
X191.174Y-161.926
X191.174Y-164.466
X191.174Y-167.006
X191.174Y-169.546
X191.174Y-171.92
X191.174Y-177.166
X191.428Y-93.71
X191.428Y-141.59
X192.66Y-140.39
X192.66Y-188.27
X193.71Y-124.07
X193.71Y-171.95
X193.714Y-96.266
X193.714Y-98.806
X193.714Y-101.346
X193.714Y-103.886
X193.714Y-106.426
X193.714Y-108.966
X193.714Y-111.506
X193.714Y-114.046
X193.714Y-116.586
X193.714Y-119.126
X193.714Y-121.666
X193.714Y-126.746
X193.714Y-129.286
X193.714Y-144.146
X193.714Y-146.686
X193.714Y-149.226
X193.714Y-151.766
X193.714Y-154.306
X193.714Y-156.846
X193.714Y-159.386
X193.714Y-161.926
X193.714Y-164.466
X193.714Y-167.006
X193.714Y-169.546
X193.714Y-174.626
X193.714Y-177.166
X194.4Y-93.71
X194.4Y-141.59
X195.2Y-140.39
X195.2Y-188.27
X196.254Y-96.266
X196.254Y-98.806
X196.254Y-101.346
X196.254Y-103.886
X196.254Y-106.426
X196.254Y-108.966
X196.254Y-111.506
X196.254Y-114.046
X196.254Y-116.586
X196.254Y-119.126
X196.254Y-121.666
X196.254Y-124.206
X196.254Y-126.746
X196.254Y-129.286
X196.254Y-144.146
X196.254Y-146.686
X196.254Y-149.226
X196.254Y-151.766
X196.254Y-154.306
X196.254Y-156.846
X196.254Y-159.386
X196.254Y-161.926
X196.254Y-164.466
X196.254Y-167.006
X196.254Y-169.546
X196.254Y-172.086
X196.254Y-174.626
X196.254Y-177.166
X196.84Y-93.71
X196.84Y-141.59
X197.74Y-140.39
X197.74Y-188.27
X199.28Y-93.71
X199.28Y-141.59
X199.556Y-96.266
X199.556Y-144.146
X200.28Y-140.39
X200.28Y-188.27
X202.06Y-93.71
X202.06Y-96.25
X202.06Y-98.79
X202.06Y-101.33
X202.06Y-103.87
X202.06Y-106.41
X202.06Y-108.95
X202.06Y-111.49
X202.06Y-114.03
X202.06Y-116.57
X202.06Y-119.11
X202.06Y-121.65
X202.06Y-124.19
X202.06Y-126.73
X202.06Y-129.27
X202.06Y-131.81
X202.06Y-134.35
X202.06Y-137.7
X202.06Y-140.38
X202.06Y-141.59
X202.06Y-144.13
X202.06Y-146.67
X202.06Y-149.21
X202.06Y-151.75
X202.06Y-154.29
X202.06Y-156.83
X202.06Y-159.37
X202.06Y-161.91
X202.06Y-164.45
X202.06Y-166.99
X202.06Y-169.53
X202.06Y-172.07
X202.06Y-174.61
X202.06Y-177.15
X202.06Y-179.69
X202.06Y-182.23
X202.06Y-185.58
X202.06Y-188.26
X203.24Y-93.71
X203.24Y-95.48
X203.24Y-97.66
X203.24Y-101.26
X203.24Y-103.8
X203.24Y-106.34
X203.24Y-108.88
X203.24Y-111.42
X203.24Y-113.96
X203.24Y-116.5
X203.24Y-119.04
X203.24Y-121.58
X203.24Y-124.12
X203.24Y-126.66
X203.24Y-129.2
X203.24Y-131.74
X203.24Y-134.28
X203.24Y-140.39
X203.24Y-141.59
X203.24Y-143.36
X203.24Y-145.54
X203.24Y-149.14
X203.24Y-151.68
X203.24Y-154.22
X203.24Y-156.76
X203.24Y-159.3
X203.24Y-161.84
X203.24Y-164.38
X203.24Y-166.92
X203.24Y-169.46
X203.24Y-172.0
X203.24Y-174.54
X203.24Y-177.08
X203.24Y-179.62
X203.24Y-182.16
X203.24Y-188.27
X203.25Y-137.44
X203.25Y-185.32
X205.68Y-93.71
X205.68Y-141.59
X205.78Y-140.39
X205.78Y-188.27
X205.818Y-96.266
X205.818Y-144.146
X207.32Y-124.14
X207.32Y-172.02
X207.7Y-127.79
X207.7Y-175.67
X208.12Y-93.71
X208.12Y-141.59
X208.32Y-140.39
X208.32Y-188.27
X208.612Y-96.21
X208.612Y-98.75
X208.612Y-101.29
X208.612Y-103.83
X208.612Y-106.37
X208.612Y-108.91
X208.612Y-111.45
X208.612Y-113.99
X208.612Y-116.53
X208.612Y-119.07
X208.612Y-121.61
X208.612Y-124.15
X208.612Y-144.09
X208.612Y-146.63
X208.612Y-149.17
X208.612Y-151.71
X208.612Y-154.25
X208.612Y-156.79
X208.612Y-159.33
X208.612Y-161.87
X208.612Y-164.41
X208.612Y-166.95
X208.612Y-169.49
X208.612Y-172.03
X209.09Y-126.0
X209.09Y-173.88
X210.13Y-130.15
X210.13Y-178.03
X210.4Y-127.44
X210.4Y-175.32
X210.56Y-93.71
X210.56Y-141.59
X210.86Y-140.39
X210.86Y-188.27
X211.152Y-96.21
X211.152Y-98.75
X211.152Y-101.29
X211.152Y-103.83
X211.152Y-106.37
X211.152Y-108.91
X211.152Y-111.45
X211.152Y-113.99
X211.152Y-116.53
X211.152Y-119.07
X211.152Y-121.61
X211.152Y-123.72
X211.152Y-144.09
X211.152Y-146.63
X211.152Y-149.17
X211.152Y-151.71
X211.152Y-154.25
X211.152Y-156.79
X211.152Y-159.33
X211.152Y-161.87
X211.152Y-164.41
X211.152Y-166.95
X211.152Y-169.49
X211.152Y-171.6
X211.96Y-129.01
X211.96Y-176.89
X212.53Y-124.83
X212.53Y-172.71
X213.0Y-93.71
X213.0Y-141.59
X213.4Y-140.39
X213.4Y-188.27
X213.692Y-96.21
X213.692Y-98.75
X213.692Y-101.29
X213.692Y-103.83
X213.692Y-106.37
X213.692Y-108.91
X213.692Y-111.45
X213.692Y-113.99
X213.692Y-116.53
X213.692Y-119.07
X213.692Y-121.61
X213.692Y-129.23
X213.692Y-144.09
X213.692Y-146.63
X213.692Y-149.17
X213.692Y-151.71
X213.692Y-154.25
X213.692Y-156.79
X213.692Y-159.33
X213.692Y-161.87
X213.692Y-164.41
X213.692Y-166.95
X213.692Y-169.49
X213.692Y-177.11
X213.74Y-126.26
X213.74Y-174.14
X214.16Y-131.47
X214.16Y-179.35
X215.94Y-140.39
X215.94Y-188.27
X216.486Y-96.266
X216.486Y-98.806
X216.486Y-101.346
X216.486Y-103.886
X216.486Y-106.426
X216.486Y-108.966
X216.486Y-111.506
X216.486Y-114.046
X216.486Y-116.586
X216.486Y-119.126
X216.486Y-121.666
X216.486Y-124.206
X216.486Y-126.746
X216.486Y-129.286
X216.486Y-144.146
X216.486Y-146.686
X216.486Y-149.226
X216.486Y-151.766
X216.486Y-154.306
X216.486Y-156.846
X216.486Y-159.386
X216.486Y-161.926
X216.486Y-164.466
X216.486Y-167.006
X216.486Y-169.546
X216.486Y-172.086
X216.486Y-174.626
X216.486Y-177.166
X216.6Y-93.71
X216.6Y-141.59
X218.48Y-140.39
X218.48Y-188.27
X219.47Y-126.39
X219.47Y-174.27
X219.534Y-96.266
X219.534Y-98.806
X219.534Y-101.346
X219.534Y-103.886
X219.534Y-106.426
X219.534Y-108.966
X219.534Y-111.506
X219.534Y-114.046
X219.534Y-116.586
X219.534Y-119.126
X219.534Y-121.666
X219.534Y-124.04
X219.534Y-129.286
X219.534Y-144.146
X219.534Y-146.686
X219.534Y-149.226
X219.534Y-151.766
X219.534Y-154.306
X219.534Y-156.846
X219.534Y-159.386
X219.534Y-161.926
X219.534Y-164.466
X219.534Y-167.006
X219.534Y-169.546
X219.534Y-171.92
X219.534Y-177.166
X219.788Y-93.71
X219.788Y-141.59
X221.02Y-140.39
X221.02Y-188.27
X222.07Y-124.07
X222.07Y-171.95
X222.074Y-96.266
X222.074Y-98.806
X222.074Y-101.346
X222.074Y-103.886
X222.074Y-106.426
X222.074Y-108.966
X222.074Y-111.506
X222.074Y-114.046
X222.074Y-116.586
X222.074Y-119.126
X222.074Y-121.666
X222.074Y-126.746
X222.074Y-129.286
X222.074Y-144.146
X222.074Y-146.686
X222.074Y-149.226
X222.074Y-151.766
X222.074Y-154.306
X222.074Y-156.846
X222.074Y-159.386
X222.074Y-161.926
X222.074Y-164.466
X222.074Y-167.006
X222.074Y-169.546
X222.074Y-174.626
X222.074Y-177.166
X222.76Y-93.71
X222.76Y-141.59
X223.56Y-140.39
X223.56Y-188.27
X224.614Y-96.266
X224.614Y-98.806
X224.614Y-101.346
X224.614Y-103.886
X224.614Y-106.426
X224.614Y-108.966
X224.614Y-111.506
X224.614Y-114.046
X224.614Y-116.586
X224.614Y-119.126
X224.614Y-121.666
X224.614Y-124.206
X224.614Y-126.746
X224.614Y-129.286
X224.614Y-144.146
X224.614Y-146.686
X224.614Y-149.226
X224.614Y-151.766
X224.614Y-154.306
X224.614Y-156.846
X224.614Y-159.386
X224.614Y-161.926
X224.614Y-164.466
X224.614Y-167.006
X224.614Y-169.546
X224.614Y-172.086
X224.614Y-174.626
X224.614Y-177.166
X225.2Y-93.71
X225.2Y-141.59
X226.1Y-140.39
X226.1Y-188.27
X227.64Y-93.71
X227.64Y-141.59
X227.916Y-96.266
X227.916Y-144.146
X228.64Y-140.39
X228.64Y-188.27
X230.42Y-93.71
X230.42Y-96.25
X230.42Y-98.79
X230.42Y-101.33
X230.42Y-103.87
X230.42Y-106.41
X230.42Y-108.95
X230.42Y-111.49
X230.42Y-114.03
X230.42Y-116.57
X230.42Y-119.11
X230.42Y-121.65
X230.42Y-124.19
X230.42Y-126.73
X230.42Y-129.27
X230.42Y-131.81
X230.42Y-134.35
X230.42Y-137.7
X230.42Y-140.38
X230.42Y-141.59
X230.42Y-144.13
X230.42Y-146.67
X230.42Y-149.21
X230.42Y-151.75
X230.42Y-154.29
X230.42Y-156.83
X230.42Y-159.37
X230.42Y-161.91
X230.42Y-164.45
X230.42Y-166.99
X230.42Y-169.53
X230.42Y-172.07
X230.42Y-174.61
X230.42Y-177.15
X230.42Y-179.69
X230.42Y-182.23
X230.42Y-185.58
X230.42Y-188.26
T2
X166.61Y-125.16
X166.61Y-173.04
X194.97Y-125.16
X194.97Y-173.04
X223.33Y-125.16
X223.33Y-173.04
T3
X147.46Y-100.0
X147.46Y-102.54
X147.46Y-105.08
X147.46Y-107.62
X147.46Y-110.16
X147.46Y-112.7
X147.46Y-115.24
X147.46Y-117.78
X147.46Y-120.32
X147.46Y-122.86
X147.46Y-147.88
X147.46Y-150.42
X147.46Y-152.96
X147.46Y-155.5
X147.46Y-158.04
X147.46Y-160.58
X147.46Y-163.12
X147.46Y-165.66
X147.46Y-168.2
X147.46Y-170.74
X150.0Y-100.0
X150.0Y-102.54
X150.0Y-105.08
X150.0Y-107.62
X150.0Y-110.16
X150.0Y-112.7
X150.0Y-115.24
X150.0Y-117.78
X150.0Y-120.32
X150.0Y-122.86
X150.0Y-147.88
X150.0Y-150.42
X150.0Y-152.96
X150.0Y-155.5
X150.0Y-158.04
X150.0Y-160.58
X150.0Y-163.12
X150.0Y-165.66
X150.0Y-168.2
X150.0Y-170.74
X158.43Y-94.92
X158.43Y-97.46
X158.43Y-100.0
X158.43Y-102.54
X158.43Y-105.08
X158.43Y-107.62
X158.43Y-110.16
X158.43Y-112.7
X158.43Y-115.24
X158.43Y-117.78
X158.43Y-142.8
X158.43Y-145.34
X158.43Y-147.88
X158.43Y-150.42
X158.43Y-152.96
X158.43Y-155.5
X158.43Y-158.04
X158.43Y-160.58
X158.43Y-163.12
X158.43Y-165.66
X158.47Y-125.23
X158.47Y-127.77
X158.47Y-130.31
X158.47Y-132.85
X158.47Y-135.39
X158.47Y-173.11
X158.47Y-175.65
X158.47Y-178.19
X158.47Y-180.73
X158.47Y-183.27
X160.97Y-94.92
X160.97Y-97.46
X160.97Y-100.0
X160.97Y-102.54
X160.97Y-105.08
X160.97Y-107.62
X160.97Y-110.16
X160.97Y-112.7
X160.97Y-115.24
X160.97Y-117.78
X160.97Y-142.8
X160.97Y-145.34
X160.97Y-147.88
X160.97Y-150.42
X160.97Y-152.96
X160.97Y-155.5
X160.97Y-158.04
X160.97Y-160.58
X160.97Y-163.12
X160.97Y-165.66
X161.01Y-125.23
X161.01Y-127.77
X161.01Y-130.31
X161.01Y-132.85
X161.01Y-135.39
X161.01Y-173.11
X161.01Y-175.65
X161.01Y-178.19
X161.01Y-180.73
X161.01Y-183.27
X170.0Y-99.99
X170.0Y-102.53
X170.0Y-105.07
X170.0Y-107.61
X170.0Y-110.15
X170.0Y-112.69
X170.0Y-115.23
X170.0Y-117.77
X170.0Y-120.31
X170.0Y-122.85
X170.0Y-147.87
X170.0Y-150.41
X170.0Y-152.95
X170.0Y-155.49
X170.0Y-158.03
X170.0Y-160.57
X170.0Y-163.11
X170.0Y-165.65
X170.0Y-168.19
X170.0Y-170.73
X172.54Y-99.99
X172.54Y-102.53
X172.54Y-105.07
X172.54Y-107.61
X172.54Y-110.15
X172.54Y-112.69
X172.54Y-115.23
X172.54Y-117.77
X172.54Y-120.31
X172.54Y-122.85
X172.54Y-147.87
X172.54Y-150.41
X172.54Y-152.95
X172.54Y-155.49
X172.54Y-158.03
X172.54Y-160.57
X172.54Y-163.11
X172.54Y-165.65
X172.54Y-168.19
X172.54Y-170.73
X175.82Y-100.0
X175.82Y-102.54
X175.82Y-105.08
X175.82Y-107.62
X175.82Y-110.16
X175.82Y-112.7
X175.82Y-115.24
X175.82Y-117.78
X175.82Y-120.32
X175.82Y-122.86
X175.82Y-147.88
X175.82Y-150.42
X175.82Y-152.96
X175.82Y-155.5
X175.82Y-158.04
X175.82Y-160.58
X175.82Y-163.12
X175.82Y-165.66
X175.82Y-168.2
X175.82Y-170.74
X178.36Y-100.0
X178.36Y-102.54
X178.36Y-105.08
X178.36Y-107.62
X178.36Y-110.16
X178.36Y-112.7
X178.36Y-115.24
X178.36Y-117.78
X178.36Y-120.32
X178.36Y-122.86
X178.36Y-147.88
X178.36Y-150.42
X178.36Y-152.96
X178.36Y-155.5
X178.36Y-158.04
X178.36Y-160.58
X178.36Y-163.12
X178.36Y-165.66
X178.36Y-168.2
X178.36Y-170.74
X186.79Y-94.92
X186.79Y-97.46
X186.79Y-100.0
X186.79Y-102.54
X186.79Y-105.08
X186.79Y-107.62
X186.79Y-110.16
X186.79Y-112.7
X186.79Y-115.24
X186.79Y-117.78
X186.79Y-142.8
X186.79Y-145.34
X186.79Y-147.88
X186.79Y-150.42
X186.79Y-152.96
X186.79Y-155.5
X186.79Y-158.04
X186.79Y-160.58
X186.79Y-163.12
X186.79Y-165.66
X186.83Y-125.23
X186.83Y-127.77
X186.83Y-130.31
X186.83Y-132.85
X186.83Y-135.39
X186.83Y-173.11
X186.83Y-175.65
X186.83Y-178.19
X186.83Y-180.73
X186.83Y-183.27
X189.33Y-94.92
X189.33Y-97.46
X189.33Y-100.0
X189.33Y-102.54
X189.33Y-105.08
X189.33Y-107.62
X189.33Y-110.16
X189.33Y-112.7
X189.33Y-115.24
X189.33Y-117.78
X189.33Y-142.8
X189.33Y-145.34
X189.33Y-147.88
X189.33Y-150.42
X189.33Y-152.96
X189.33Y-155.5
X189.33Y-158.04
X189.33Y-160.58
X189.33Y-163.12
X189.33Y-165.66
X189.37Y-125.23
X189.37Y-127.77
X189.37Y-130.31
X189.37Y-132.85
X189.37Y-135.39
X189.37Y-173.11
X189.37Y-175.65
X189.37Y-178.19
X189.37Y-180.73
X189.37Y-183.27
X198.36Y-99.99
X198.36Y-102.53
X198.36Y-105.07
X198.36Y-107.61
X198.36Y-110.15
X198.36Y-112.69
X198.36Y-115.23
X198.36Y-117.77
X198.36Y-120.31
X198.36Y-122.85
X198.36Y-147.87
X198.36Y-150.41
X198.36Y-152.95
X198.36Y-155.49
X198.36Y-158.03
X198.36Y-160.57
X198.36Y-163.11
X198.36Y-165.65
X198.36Y-168.19
X198.36Y-170.73
X200.9Y-99.99
X200.9Y-102.53
X200.9Y-105.07
X200.9Y-107.61
X200.9Y-110.15
X200.9Y-112.69
X200.9Y-115.23
X200.9Y-117.77
X200.9Y-120.31
X200.9Y-122.85
X200.9Y-147.87
X200.9Y-150.41
X200.9Y-152.95
X200.9Y-155.49
X200.9Y-158.03
X200.9Y-160.57
X200.9Y-163.11
X200.9Y-165.65
X200.9Y-168.19
X200.9Y-170.73
X204.18Y-100.0
X204.18Y-102.54
X204.18Y-105.08
X204.18Y-107.62
X204.18Y-110.16
X204.18Y-112.7
X204.18Y-115.24
X204.18Y-117.78
X204.18Y-120.32
X204.18Y-122.86
X204.18Y-147.88
X204.18Y-150.42
X204.18Y-152.96
X204.18Y-155.5
X204.18Y-158.04
X204.18Y-160.58
X204.18Y-163.12
X204.18Y-165.66
X204.18Y-168.2
X204.18Y-170.74
X206.72Y-100.0
X206.72Y-102.54
X206.72Y-105.08
X206.72Y-107.62
X206.72Y-110.16
X206.72Y-112.7
X206.72Y-115.24
X206.72Y-117.78
X206.72Y-120.32
X206.72Y-122.86
X206.72Y-147.88
X206.72Y-150.42
X206.72Y-152.96
X206.72Y-155.5
X206.72Y-158.04
X206.72Y-160.58
X206.72Y-163.12
X206.72Y-165.66
X206.72Y-168.2
X206.72Y-170.74
X215.15Y-94.92
X215.15Y-97.46
X215.15Y-100.0
X215.15Y-102.54
X215.15Y-105.08
X215.15Y-107.62
X215.15Y-110.16
X215.15Y-112.7
X215.15Y-115.24
X215.15Y-117.78
X215.15Y-142.8
X215.15Y-145.34
X215.15Y-147.88
X215.15Y-150.42
X215.15Y-152.96
X215.15Y-155.5
X215.15Y-158.04
X215.15Y-160.58
X215.15Y-163.12
X215.15Y-165.66
X215.19Y-125.23
X215.19Y-127.77
X215.19Y-130.31
X215.19Y-132.85
X215.19Y-135.39
X215.19Y-173.11
X215.19Y-175.65
X215.19Y-178.19
X215.19Y-180.73
X215.19Y-183.27
X217.69Y-94.92
X217.69Y-97.46
X217.69Y-100.0
X217.69Y-102.54
X217.69Y-105.08
X217.69Y-107.62
X217.69Y-110.16
X217.69Y-112.7
X217.69Y-115.24
X217.69Y-117.78
X217.69Y-142.8
X217.69Y-145.34
X217.69Y-147.88
X217.69Y-150.42
X217.69Y-152.96
X217.69Y-155.5
X217.69Y-158.04
X217.69Y-160.58
X217.69Y-163.12
X217.69Y-165.66
X217.73Y-125.23
X217.73Y-127.77
X217.73Y-130.31
X217.73Y-132.85
X217.73Y-135.39
X217.73Y-173.11
X217.73Y-175.65
X217.73Y-178.19
X217.73Y-180.73
X217.73Y-183.27
X226.72Y-99.99
X226.72Y-102.53
X226.72Y-105.07
X226.72Y-107.61
X226.72Y-110.15
X226.72Y-112.69
X226.72Y-115.23
X226.72Y-117.77
X226.72Y-120.31
X226.72Y-122.85
X226.72Y-147.87
X226.72Y-150.41
X226.72Y-152.95
X226.72Y-155.49
X226.72Y-158.03
X226.72Y-160.57
X226.72Y-163.11
X226.72Y-165.65
X226.72Y-168.19
X226.72Y-170.73
X229.26Y-99.99
X229.26Y-102.53
X229.26Y-105.07
X229.26Y-107.61
X229.26Y-110.15
X229.26Y-112.69
X229.26Y-115.23
X229.26Y-117.77
X229.26Y-120.31
X229.26Y-122.85
X229.26Y-147.87
X229.26Y-150.41
X229.26Y-152.95
X229.26Y-155.49
X229.26Y-158.03
X229.26Y-160.57
X229.26Y-163.11
X229.26Y-165.65
X229.26Y-168.19
X229.26Y-170.73
T0
M30
