%TF.GenerationSoftware,KiCad,Pcbnew,(5.1.10-1-10_14)*%
%TF.CreationDate,2022-06-03T02:51:19+09:00*%
%TF.ProjectId,jtag_sniffer_jig,6a746167-5f73-46e6-9966-6665725f6a69,rev?*%
%TF.SameCoordinates,Original*%
%TF.FileFunction,Profile,NP*%
%FSLAX46Y46*%
G04 Gerber Fmt 4.6, Leading zero omitted, Abs format (unit mm)*
G04 Created by KiCad (PCBNEW (5.1.10-1-10_14)) date 2022-06-03 02:51:19*
%MOMM*%
%LPD*%
G01*
G04 APERTURE LIST*
%TA.AperFunction,Profile*%
%ADD10C,0.050000*%
%TD*%
G04 APERTURE END LIST*
D10*
X174540000Y-89460000D02*
X174540000Y-89200000D01*
X174410000Y-89100000D02*
X173940000Y-89110000D01*
X174030000Y-91210000D02*
X174600000Y-90840000D01*
X174600000Y-90840000D02*
X174030000Y-90610000D01*
X174060000Y-89890000D02*
X173910000Y-90020000D01*
X174410000Y-89590000D02*
X174540000Y-89460000D01*
X174310000Y-92590000D02*
X174330000Y-91540000D01*
X173940000Y-89600000D02*
X174410000Y-89590000D01*
X174070000Y-90350000D02*
X174390000Y-90360000D01*
X174330000Y-92600000D02*
X173760000Y-92040000D01*
X174080000Y-88900000D02*
X174080000Y-88390000D01*
X173910000Y-90020000D02*
X173900000Y-90240000D01*
X174310000Y-92600000D02*
X174730000Y-92050000D01*
X173900000Y-90240000D02*
X174070000Y-90350000D01*
X174390000Y-90360000D02*
X174560000Y-90270000D01*
X174560000Y-90020000D02*
X174430000Y-89890000D01*
X174560000Y-90270000D02*
X174560000Y-90020000D01*
X173900000Y-88650000D02*
X174530000Y-88650000D01*
X174540000Y-89200000D02*
X174410000Y-89100000D01*
X202830000Y-89550000D02*
X202830000Y-89290000D01*
X202700000Y-89190000D02*
X202230000Y-89200000D01*
X202320000Y-91300000D02*
X202890000Y-90930000D01*
X202890000Y-90930000D02*
X202320000Y-90700000D01*
X202350000Y-89980000D02*
X202200000Y-90110000D01*
X202700000Y-89680000D02*
X202830000Y-89550000D01*
X202600000Y-92680000D02*
X202620000Y-91630000D01*
X202230000Y-89690000D02*
X202700000Y-89680000D01*
X202360000Y-90440000D02*
X202680000Y-90450000D01*
X202620000Y-92690000D02*
X202050000Y-92130000D01*
X202370000Y-88990000D02*
X202370000Y-88480000D01*
X202200000Y-90110000D02*
X202190000Y-90330000D01*
X202600000Y-92690000D02*
X203020000Y-92140000D01*
X202190000Y-90330000D02*
X202360000Y-90440000D01*
X202680000Y-90450000D02*
X202850000Y-90360000D01*
X202850000Y-90110000D02*
X202720000Y-89980000D01*
X202850000Y-90360000D02*
X202850000Y-90110000D01*
X202190000Y-88740000D02*
X202820000Y-88740000D01*
X202830000Y-89290000D02*
X202700000Y-89190000D01*
X235510000Y-140580000D02*
X235510000Y-141210000D01*
X235260000Y-140760000D02*
X235770000Y-140760000D01*
X235060000Y-141090000D02*
X235050000Y-140620000D01*
X234960000Y-141220000D02*
X235060000Y-141090000D01*
X234700000Y-141220000D02*
X234960000Y-141220000D01*
X234570000Y-141090000D02*
X234700000Y-141220000D01*
X234560000Y-140620000D02*
X234570000Y-141090000D01*
X234140000Y-141240000D02*
X234270000Y-141110000D01*
X233890000Y-141240000D02*
X234140000Y-141240000D01*
X233800000Y-141070000D02*
X233890000Y-141240000D01*
X233810000Y-140750000D02*
X233800000Y-141070000D01*
X233920000Y-140580000D02*
X233810000Y-140750000D01*
X234140000Y-140590000D02*
X233920000Y-140580000D01*
X234270000Y-140740000D02*
X234140000Y-140590000D01*
X233320000Y-141280000D02*
X233550000Y-140710000D01*
X232950000Y-140710000D02*
X233320000Y-141280000D01*
X231570000Y-140990000D02*
X232620000Y-141010000D01*
X231560000Y-140990000D02*
X232110000Y-141410000D01*
X231560000Y-141010000D02*
X232120000Y-140440000D01*
X202630000Y-141000000D02*
X202630000Y-188880000D01*
X174270000Y-141000000D02*
X174270000Y-188880000D01*
X145910000Y-141000000D02*
X145910000Y-188880000D01*
X202630000Y-93120000D02*
X202630000Y-141000000D01*
X174270000Y-93120000D02*
X174270000Y-141000000D01*
X230990000Y-141000000D02*
X202630000Y-141000000D01*
X202630000Y-141000000D02*
X174270000Y-141000000D01*
X174270000Y-141000000D02*
X145910000Y-141000000D01*
X230990000Y-93120000D02*
X202630000Y-93120000D01*
X202630000Y-93120000D02*
X174270000Y-93120000D01*
X230990000Y-141000000D02*
X230990000Y-188880000D01*
X202630000Y-141000000D02*
X202630000Y-188880000D01*
X174270000Y-141000000D02*
X174270000Y-188880000D01*
X230990000Y-93120000D02*
X230990000Y-141000000D01*
X202630000Y-93120000D02*
X202630000Y-141000000D01*
X202630000Y-188880000D02*
X230990000Y-188880000D01*
X174270000Y-188880000D02*
X202630000Y-188880000D01*
X145910000Y-188880000D02*
X174270000Y-188880000D01*
X202630000Y-141000000D02*
X230990000Y-141000000D01*
X174270000Y-141000000D02*
X202630000Y-141000000D01*
X145910000Y-141000000D02*
X174270000Y-141000000D01*
X174270000Y-93120000D02*
X174270000Y-141000000D01*
X174270000Y-93120000D02*
X145910000Y-93120000D01*
X145910000Y-93120000D02*
X145910000Y-141000000D01*
M02*
